<svg xmlns="http://www.w3.org/2000/svg" xmlns:xlink="http://www.w3.org/1999/xlink" viewBox="0 0 311.39 311.39"><defs><style>.cls-1{isolation:isolate;}.cls-2{fill:url(#Безымянный_градиент_34);}.cls-3{mix-blend-mode:overlay;fill:url(#Безымянный_градиент_47);}.cls-4{fill:#b721ff;}.cls-10,.cls-11,.cls-12,.cls-13,.cls-14,.cls-15,.cls-17,.cls-4,.cls-7,.cls-8,.cls-9{opacity:0.5;}.cls-5{fill:#8a2b78;}.cls-6{fill:#762b78;}.cls-7{fill:url(#Безымянный_градиент_25);}.cls-8{fill:url(#Безымянный_градиент_25-2);}.cls-9{fill:url(#Безымянный_градиент_25-3);}.cls-10{fill:url(#Безымянный_градиент_25-4);}.cls-11{fill:url(#Безымянный_градиент_25-5);}.cls-12{fill:url(#Безымянный_градиент_25-6);}.cls-13{fill:url(#Безымянный_градиент_25-7);}.cls-14{fill:url(#Безымянный_градиент_25-8);}.cls-15{fill:url(#Безымянный_градиент_25-9);}.cls-16,.cls-17,.cls-19{fill:#fff;}.cls-16{opacity:0.25;}.cls-18{opacity:0.6;}</style><linearGradient id="Безымянный_градиент_34" x1="20.84" y1="77.83" x2="290.55" y2="233.55" gradientUnits="userSpaceOnUse"><stop offset="0" stop-color="#21d4fd"/><stop offset="0.11" stop-color="#29cbfd"/><stop offset="0.29" stop-color="#3eb1fd"/><stop offset="0.53" stop-color="#6188fe"/><stop offset="0.8" stop-color="#914ffe"/><stop offset="1" stop-color="#b721ff"/></linearGradient><radialGradient id="Безымянный_градиент_47" cx="182.57" cy="168.88" r="135.51" gradientUnits="userSpaceOnUse"><stop offset="0" stop-color="#fff"/><stop offset="0.18" stop-color="#f6f6f6"/><stop offset="0.47" stop-color="#dcdcdc"/><stop offset="0.85" stop-color="#b3b3b3"/><stop offset="1" stop-color="#a0a0a0"/></radialGradient><radialGradient id="Безымянный_градиент_25" cx="4300.28" cy="-1751.94" r="45.35" gradientTransform="translate(-1457.8 967.29) scale(0.35 0.46)" gradientUnits="userSpaceOnUse"><stop offset="0" stop-color="#fff"/><stop offset="1" stop-color="#fff" stop-opacity="0.2"/></radialGradient><radialGradient id="Безымянный_градиент_25-2" cx="3693.49" cy="1009.57" r="45.35" gradientTransform="translate(-2145.3 -399.5) scale(0.62 0.66)" xlink:href="#Безымянный_градиент_25"/><radialGradient id="Безымянный_градиент_25-3" cx="3436.26" cy="-1894.6" r="45.35" gradientTransform="translate(-964.92 1087.4) scale(0.35 0.46)" xlink:href="#Безымянный_градиент_25"/><radialGradient id="Безымянный_градиент_25-4" cx="3377.9" cy="-1773.19" r="45.35" gradientTransform="translate(-1746.37 877.97) scale(0.58 0.45)" xlink:href="#Безымянный_градиент_25"/><radialGradient id="Безымянный_градиент_25-5" cx="2253.27" cy="-397.9" r="45.35" gradientTransform="translate(-699.52 411.82) scale(0.43 0.73)" xlink:href="#Безымянный_градиент_25"/><radialGradient id="Безымянный_градиент_25-6" cx="5872.09" cy="-10376.92" r="45.35" gradientTransform="matrix(0.17, -0.08, 0.07, 0.15, -5.59, 2209.88)" xlink:href="#Безымянный_градиент_25"/><radialGradient id="Безымянный_градиент_25-7" cx="4960.8" cy="-10606.32" r="45.35" gradientTransform="matrix(0.17, -0.08, 0.07, 0.15, -5.59, 2209.88)" xlink:href="#Безымянный_градиент_25"/><radialGradient id="Безымянный_градиент_25-8" cx="6791.46" cy="-10782.52" r="45.35" gradientTransform="translate(-867.61 1936.73) scale(0.15 0.17)" xlink:href="#Безымянный_градиент_25"/><radialGradient id="Безымянный_градиент_25-9" cx="10452.31" cy="-9269.58" r="41.19" gradientTransform="translate(-1771.66 1352.85) scale(0.19 0.14)" xlink:href="#Безымянный_градиент_25"/></defs><title>Ресурс 56</title><g class="cls-1"><g id="Слой_2" data-name="Слой 2"><g id="Слой_1-2" data-name="Слой 1"><circle class="cls-2" cx="155.69" cy="155.69" r="155.69"/><path class="cls-3" d="M243,26.65A155.73,155.73,0,0,1,54.13,273.76,155.73,155.73,0,1,0,243,26.65Z"/><path class="cls-4" d="M287.17,72.32a248,248,0,0,0-26,6.62L261,79c-44.89,12.13-42.5,63.87-42.49,64.06-1,10.35-1.31,20.92-3.6,31.08a67.28,67.28,0,0,1-2.78,9.29c-.66,1.69-1.35,3.35-2.1,5a65.11,65.11,0,0,1-3.27,6.19h0a45.13,45.13,0,0,1-3.9,5.22c-13.91,13.62-38.78,20.75-62.61,18-3.31-.6-6.58-1.27-9.8-1.95-2.44-.68-4.74-1.25-6.89-1.74h0c-12.85-4.34-21.06-3.69-26.2-1.72h0c-15.24,4.33-20.13,31.25-20.13,31.25h0c-5.49,20.77-4.54,43.74-4.54,43.74A155.68,155.68,0,0,0,287.17,72.32Z"/><ellipse class="cls-5" cx="209.63" cy="28.93" rx="15.8" ry="32.33" transform="translate(99 209.33) rotate(-66.34)"/><path class="cls-6" d="M181.22,13.73c6.38-4.15,19.4-3.47,32.6,2.31,16.35,7.16,26.77,19.46,23.27,27.45a8.37,8.37,0,0,1-1.39,2.14,8.72,8.72,0,0,0,3.36-3.81c3.5-8-6.92-20.28-23.27-27.45C201,7.91,186.5,7.82,181.22,13.73Z"/><ellipse class="cls-5" cx="188.22" cy="268.28" rx="12.11" ry="12.05" transform="translate(-13.95 10.35) rotate(-3.04)"/><path class="cls-6" d="M200.34,269.56a12.12,12.12,0,0,1-23.8-2.43,11.27,11.27,0,0,1,.05-1.93,12.1,12.1,0,1,0,23.75,4.36Z"/><ellipse class="cls-5" cx="166.37" cy="233.27" rx="5.71" ry="5.68" transform="translate(-101.64 131.94) rotate(-33.79)"/><path class="cls-6" d="M171.59,230.87a5.71,5.71,0,0,1-10.23,4.75,5.11,5.11,0,0,1-.44-.79,5.78,5.78,0,0,0,.74,1.6,5.71,5.71,0,0,0,9.93-5.56Z"/><ellipse class="cls-5" cx="239.49" cy="254.3" rx="2.74" ry="2.42" transform="translate(-103.95 190.49) rotate(-36.19)"/><path class="cls-6" d="M241.92,253a2.74,2.74,0,0,1-1.12,2.9,2.6,2.6,0,0,1-3.65-.33c-.07-.11-.14-.22-.2-.33a2.12,2.12,0,0,0,.34.67,2.59,2.59,0,0,0,3.64.33A2.67,2.67,0,0,0,241.92,253Z"/><ellipse class="cls-5" cx="270.69" cy="162.56" rx="2.99" ry="2.91" transform="translate(-29.22 63.8) rotate(-12.76)"/><path class="cls-6" d="M270.52,159.63a2.9,2.9,0,0,1,.36,5.74,2.65,2.65,0,0,1-.48.07,2.92,2.92,0,1,0,.12-5.81Z"/><ellipse class="cls-5" cx="97.46" cy="233.49" rx="1.92" ry="2.91" transform="translate(-123.86 110.87) rotate(-38.36)"/><path class="cls-6" d="M99,236a3.05,3.05,0,0,1-2.76-1.34c-1-1.26-1.13-2.82-.3-3.48a1.4,1.4,0,0,1,.26-.16,1.36,1.36,0,0,0-.54.26c-.84.66-.7,2.21.29,3.47S98.16,236.34,99,236Z"/><ellipse class="cls-5" cx="120.83" cy="180.81" rx="11.64" ry="11.69" transform="translate(-86.42 246.68) rotate(-73.88)"/><path class="cls-6" d="M131.47,185.81a11.69,11.69,0,0,1-20.93-9.75,11,11,0,0,1,.66-1.74,11.68,11.68,0,1,0,20.27,11.49Z"/><ellipse class="cls-5" cx="47.45" cy="216.96" rx="10.18" ry="9.2" transform="translate(-150.93 117.11) rotate(-50.95)"/><path class="cls-6" d="M53.53,224a9.36,9.36,0,0,1-11.26,0c-3.94-3.2-4.27-9.34-.72-13.7a10.49,10.49,0,0,1,1.11-1.19,11.35,11.35,0,0,0-2.31,2.14c-3.54,4.37-3.21,10.51.73,13.71C44.64,227.79,49.93,227.31,53.53,224Z"/><ellipse class="cls-5" cx="253.63" cy="233.28" rx="1.93" ry="1.99" transform="translate(-83.13 160.23) rotate(-30.37)"/><path class="cls-6" d="M255.45,232.58a1.92,1.92,0,0,1-.89,2.12,2,2,0,0,1-2.67-.74,1.47,1.47,0,0,1-.14-.28,1.85,1.85,0,0,0,.23.57,1.93,1.93,0,0,0,3.47-1.67Z"/><ellipse class="cls-7" cx="27.77" cy="160.25" rx="14.92" ry="21.83" transform="translate(-89.62 47.69) rotate(-36.37)"/><ellipse class="cls-5" cx="27.32" cy="159.47" rx="12.22" ry="16.41" transform="translate(-76.59 35.46) rotate(-30.24)"/><path class="cls-6" d="M33.85,174.54c-5.32.64-11.51-2.91-15.19-9.23C14.09,157.48,15.12,148.38,21,145a8.84,8.84,0,0,1,1.78-.8,9.44,9.44,0,0,0-3.62,1.2c-5.83,3.4-6.86,12.5-2.29,20.33C20.94,172.78,28.19,176.39,33.85,174.54Z"/><ellipse class="cls-5" cx="87.11" cy="272.13" rx="5.68" ry="5.71" transform="translate(-194.09 221.43) rotate(-62.03)"/><path class="cls-6" d="M91.69,275.59a5.71,5.71,0,0,1-9-6.76,5.82,5.82,0,0,1,.49-.76,5.93,5.93,0,0,0-1.06,1.4,5.71,5.71,0,0,0,9.59,6.12Z"/><ellipse class="cls-8" cx="135.12" cy="264.04" rx="26.67" ry="31.15" transform="translate(-161.11 249.04) rotate(-60)"/><ellipse class="cls-5" cx="135.12" cy="264.04" rx="23.16" ry="28.3" transform="matrix(0.32, -0.95, 0.95, 0.32, -158.46, 306.28)"/><path class="cls-6" d="M160.53,276.65c-6.48,7.63-18.77,10.56-30.7,6.47-14.79-5.06-23.41-19-19.27-31.08a19.44,19.44,0,0,1,1.54-3.37,19.24,19.24,0,0,0-3.58,6.26C104.38,267,113,281,127.79,286,141.12,290.58,154.91,286.39,160.53,276.65Z"/><ellipse class="cls-9" cx="222.17" cy="214.64" rx="14.92" ry="21.83" transform="translate(-70.11 114.63) rotate(-25.12)"/><ellipse class="cls-5" cx="221.87" cy="214.78" rx="12.24" ry="17.03" transform="translate(-70.2 114.51) rotate(-25.12)"/><path class="cls-6" d="M234,212.07c1.48,6.88-.6,13.33-5.54,15.65-6.12,2.87-14.31-1.71-18.31-10.22a26.48,26.48,0,0,1-1-2.52,23.6,23.6,0,0,0,1.68,5c4,8.52,12.2,13.09,18.32,10.22C234.69,227.58,236.63,219.81,234,212.07Z"/><ellipse class="cls-10" cx="220.4" cy="78.34" rx="25.15" ry="21.37" transform="translate(-3.52 145.96) rotate(-36.37)"/><ellipse class="cls-5" cx="220.53" cy="78.52" rx="21.05" ry="17.84" transform="translate(14.41 189.47) rotate(-47.89)"/><path class="cls-6" d="M209.63,64.15c7.39-4.74,16.5-4.78,22.4.55,7.3,6.6,6.91,19-.89,27.57a24,24,0,0,1-2.41,2.33,24.32,24.32,0,0,0,5-4.2c7.79-8.62,8.19-21,.88-27.57C228,56.87,217.37,57.62,209.63,64.15Z"/><ellipse class="cls-11" cx="272.04" cy="120.91" rx="18.63" ry="34.65" transform="translate(-22.31 76.41) rotate(-15.37)"/><ellipse class="cls-5" cx="272.04" cy="120.91" rx="16.51" ry="28.62" transform="translate(-22.31 76.41) rotate(-15.37)"/><path class="cls-6" d="M267,92.79c7.39,1.81,14.89,10.94,18.27,23.24,4.19,15.24.46,29.56-8.34,32a9.75,9.75,0,0,1-2.63.35,10.3,10.3,0,0,0,5.23,0c8.8-2.42,12.53-16.73,8.34-32C284.14,102.61,275.21,92.81,267,92.79Z"/><circle class="cls-12" cx="237.62" cy="142.76" r="8.08"/><ellipse class="cls-5" cx="237.66" cy="142.29" rx="5.79" ry="6.6"/><path class="cls-6" d="M238.59,135.73a6.58,6.58,0,0,1,4,6.29c0,3.65-2.6,6.6-5.8,6.6a5.62,5.62,0,0,1-.92-.08,5.24,5.24,0,0,0,1.77.32c3.2,0,5.8-3,5.8-6.61C243.46,139,241.35,136.23,238.59,135.73Z"/><circle class="cls-13" cx="66.77" cy="179.7" r="8.08"/><ellipse class="cls-5" cx="66.77" cy="179.7" rx="5.79" ry="6.6" transform="translate(-108.45 101.92) rotate(-45.68)"/><path class="cls-6" d="M70.82,184.94a6.57,6.57,0,0,1-7.31-1.51c-2.61-2.55-2.91-6.47-.68-8.76a4.43,4.43,0,0,1,.71-.6,5.12,5.12,0,0,0-1.47,1c-2.23,2.29-1.93,6.21.68,8.76C65.11,186.17,68.53,186.57,70.82,184.94Z"/><ellipse class="cls-14" cx="167.54" cy="99.28" rx="6.59" ry="8.08" transform="translate(-26.3 80.52) rotate(-25.12)"/><ellipse class="cls-15" cx="182.42" cy="73.89" rx="7.34" ry="5.94" transform="translate(11.17 170.89) rotate(-51.58)"/><ellipse class="cls-5" cx="182.44" cy="73.91" rx="6" ry="4.62" transform="translate(-0.5 146.57) rotate(-43.71)"/><path class="cls-6" d="M180,69.93c2.16-1.24,4.62-1.19,6,.3,1.76,1.85,1.25,5.2-1.14,7.49-.24.22-.48.43-.73.62a8.41,8.41,0,0,0,1.48-1.11c2.39-2.29,2.9-5.64,1.14-7.49C185.16,68.08,182.27,68.21,180,69.93Z"/><ellipse class="cls-5" cx="167.72" cy="99.33" rx="5.79" ry="6.6" transform="translate(-26.65 84.56) rotate(-26.29)"/><path class="cls-6" d="M165.65,93A6.59,6.59,0,0,1,172,96.9c1.61,3.27.6,7.07-2.27,8.49a6.49,6.49,0,0,1-.87.33,5.36,5.36,0,0,0,1.73-.5c2.87-1.42,3.89-5.22,2.27-8.49C171.44,93.78,168.34,92.27,165.65,93Z"/><ellipse class="cls-16" cx="101.68" cy="73.89" rx="85.21" ry="49.9" transform="translate(-23.4 61.47) rotate(-30.34)"/><ellipse class="cls-17" cx="101.12" cy="42.74" rx="42.42" ry="10.62" transform="matrix(0.83, -0.56, 0.56, 0.83, -6.62, 63.82)"/><ellipse class="cls-17" cx="46.58" cy="79.5" rx="12.36" ry="10.87" transform="translate(-34.74 36.17) rotate(-31.58)"/><g class="cls-18"><polygon class="cls-19" points="172.62 212.76 110.94 212.76 110.94 87.74 172.62 87.74 172.62 128.4 188.32 128.4 188.32 87.74 188.32 74.7 172.62 74.7 110.94 74.7 93.74 74.7 93.74 87.74 93.74 212.76 93.74 225.8 110.94 225.8 172.62 225.8 188.32 225.8 188.32 212.76 188.32 172.1 172.62 172.1 172.62 212.76"/><polygon class="cls-19" points="210.78 143.74 210.78 132.56 172.62 150.25 210.78 167.94 210.78 156.77 253.64 156.77 253.64 143.74 210.78 143.74"/></g></g></g></g></svg>