<svg xmlns="http://www.w3.org/2000/svg" xmlns:xlink="http://www.w3.org/1999/xlink" viewBox="0 0 311.39 311.39"><defs><style>.cls-1{isolation:isolate;}.cls-2{fill:url(#Безымянный_градиент_41);}.cls-10,.cls-11,.cls-13,.cls-3,.cls-7,.cls-8,.cls-9{opacity:0.5;}.cls-3{fill:url(#Безымянный_градиент_12);}.cls-4{mix-blend-mode:overlay;fill:url(#Безымянный_градиент_142);}.cls-5{fill:#008c8c;}.cls-6{fill:#006464;}.cls-7{fill:url(#Безымянный_градиент_25);}.cls-8{fill:url(#Безымянный_градиент_25-2);}.cls-9{fill:url(#Безымянный_градиент_25-3);}.cls-10{fill:url(#Безымянный_градиент_25-4);}.cls-11{fill:url(#Безымянный_градиент_25-5);}.cls-12,.cls-13,.cls-14{fill:#fff;}.cls-12{opacity:0.25;}.cls-14{opacity:0.6;}</style><linearGradient id="Безымянный_градиент_41" x1="20.84" y1="77.83" x2="290.55" y2="233.55" gradientUnits="userSpaceOnUse"><stop offset="0" stop-color="#00ffb9"/><stop offset="0.77" stop-color="#00dc46"/></linearGradient><linearGradient id="Безымянный_градиент_12" x1="11.41" y1="174.81" x2="311.39" y2="174.81" gradientUnits="userSpaceOnUse"><stop offset="1" stop-color="#3a52cc"/><stop offset="1" stop-color="#00dc46"/></linearGradient><radialGradient id="Безымянный_градиент_142" cx="184.31" cy="169" fx="308.1590123775007" fy="99.36297277976618" r="142.09" gradientTransform="translate(6.84 6.84) scale(0.96 0.96)" gradientUnits="userSpaceOnUse"><stop offset="0" stop-color="#fff"/><stop offset="1" stop-color="#a0a0a0"/></radialGradient><radialGradient id="Безымянный_градиент_25" cx="189.6" cy="169" r="39.2" gradientTransform="translate(6.84 6.84) scale(0.96 0.96)" gradientUnits="userSpaceOnUse"><stop offset="0" stop-color="#fff"/><stop offset="1" stop-color="#fff" stop-opacity="0.2"/></radialGradient><radialGradient id="Безымянный_градиент_25-2" cx="45.57" cy="239.71" r="15.8" xlink:href="#Безымянный_градиент_25"/><radialGradient id="Безымянный_градиент_25-3" cx="83.73" cy="159.18" r="32.39" xlink:href="#Безымянный_градиент_25"/><radialGradient id="Безымянный_градиент_25-4" cx="202.34" cy="17.34" r="11.6" xlink:href="#Безымянный_градиент_25"/><radialGradient id="Безымянный_градиент_25-5" cx="1064.91" cy="841.6" r="5.72" gradientTransform="matrix(0.71, -0.65, 0.65, 0.71, -1025.02, 200.49)" xlink:href="#Безымянный_градиент_25"/></defs><title>Ресурс 57</title><g class="cls-1"><g id="Слой_2" data-name="Слой 2"><g id="Слой_1-2" data-name="Слой 1"><circle class="cls-2" cx="155.69" cy="155.69" r="155.69"/><path class="cls-3" d="M257.84,38.22c-.49,2.5-.87,5-1.19,7.49s-.57,4.85-.85,7.32h0c-.81,5.87-1.86,13.87-3.52,22.07l-.51,2.47c-2.52,11.57-6.33,23.14-12.51,29.36-5.7,4.67-13.07,6.54-20.46,6.79a130.81,130.81,0,0,1-16.89-.78c-19.29-3.43-30.15-2.35-36.21-.34a5.29,5.29,0,0,0-1,.36c-.51.2-1,.4-1.43.61a16.38,16.38,0,0,0-2.34,1l0,0,0,0c-.32.18-.63.36-.93.55l-.24.14a21.6,21.6,0,0,0-7,7.82c-5.38,9.36-6.58,21.79-6.58,21.79h0c-.1.81-.2,1.62-.27,2.44-.09,1.13-.15,2.28-.18,3.43a89.18,89.18,0,0,0,.57,12.4h0v0l.15,1.28c.66,5.68,3.28,28.86,4.22,45.27,0,.69,0,1.41.11,2.16.08,1.44.13,2.81.17,4.09-.16,33-40.42,26-40.43,26a34,34,0,0,1-3.92-1.26,71.31,71.31,0,0,1-18.11-11.42,44,44,0,0,0-5.66-5.26h0c-15-11.66-33.11-10.79-33.11-10.79h0c-14.43-1.45-38.25,1-38.25,1l1.91,4.37h0c.39.88.79,1.76,1.19,2.63h0A155.7,155.7,0,1,0,257.84,38.22Z"/><path class="cls-4" d="M241,25.45A155.69,155.69,0,0,1,54.71,274.19,155.69,155.69,0,1,0,241,25.45Z"/><ellipse class="cls-5" cx="222.45" cy="130.52" rx="8.49" ry="8.16" transform="translate(-33.61 161.36) rotate(-37.27)"/><path class="cls-6" d="M223.43,122.27A7.93,7.93,0,0,1,228,125.2a8.32,8.32,0,0,1-1.81,11.63,8.62,8.62,0,0,1-5.92,1.76,8.59,8.59,0,0,0,7.11-1.57,8.33,8.33,0,0,0,1.81-11.64A8,8,0,0,0,223.43,122.27Z"/><ellipse class="cls-5" cx="30.25" cy="179.08" rx="15.64" ry="19.22" transform="translate(-58.03 20.36) rotate(-19.5)"/><path class="cls-6" d="M45.41,187.59a13.92,13.92,0,0,1-7.81,7.25C29.46,197.72,20,192,16.44,181.94A21.78,21.78,0,0,1,16,168.21a21,21,0,0,0-.51,16.08c3.54,10,13,15.79,21.15,12.9A14.42,14.42,0,0,0,45.41,187.59Z"/><ellipse class="cls-5" cx="161.4" cy="258.44" rx="24.48" ry="22.67" transform="translate(-115.42 131.12) rotate(-33.31)"/><path class="cls-6" d="M184.85,261.48a25.56,25.56,0,0,1-10.06,12.58c-11.29,7.43-26,5-32.9-5.49a21.69,21.69,0,0,1-3-16.49,22,22,0,0,0,2.05,19.8c6.88,10.46,21.61,12.92,32.91,5.5A25.36,25.36,0,0,0,184.85,261.48Z"/><ellipse class="cls-5" cx="209.26" cy="86.51" rx="16.4" ry="13.18"/><path class="cls-6" d="M220.41,76.86A11.65,11.65,0,0,1,224,85.11c0,7.28-7.35,13.18-16.4,13.18a18.68,18.68,0,0,1-11.16-3.53,18.07,18.07,0,0,0,12.79,4.94c9.05,0,16.39-5.91,16.39-13.19A12.14,12.14,0,0,0,220.41,76.86Z"/><ellipse class="cls-5" cx="263.55" cy="161.32" rx="13.89" ry="15.86" transform="translate(-15.43 294.18) rotate(-56.94)"/><path class="cls-6" d="M259,147.06a17.25,17.25,0,0,1,10,2.85c7.34,4.78,9.9,13.86,5.71,20.29a12.94,12.94,0,0,1-8.71,5.61A13.3,13.3,0,0,0,276.84,170c4.19-6.43,1.63-15.52-5.71-20.3A16.92,16.92,0,0,0,259,147.06Z"/><ellipse class="cls-5" cx="128.6" cy="279.47" rx="3.45" ry="3.81" transform="translate(-173.33 220.48) rotate(-54.24)"/><path class="cls-6" d="M132.18,278.93a3.25,3.25,0,0,1-.58,2.25,3.65,3.65,0,0,1-5.11.57,4.07,4.07,0,0,1-1.56-2.27,4,4,0,0,0,1.66,2.79,3.63,3.63,0,0,0,5.1-.58A3.26,3.26,0,0,0,132.18,278.93Z"/><ellipse class="cls-5" cx="180.25" cy="214.35" rx="3.81" ry="3.45"/><path class="cls-6" d="M182.85,211.83a3.26,3.26,0,0,1,.84,2.16,3.65,3.65,0,0,1-3.81,3.45,4,4,0,0,1-2.6-.93,4,4,0,0,0,3,1.29,3.64,3.64,0,0,0,3.81-3.45A3.32,3.32,0,0,0,182.85,211.83Z"/><ellipse class="cls-5" cx="161.06" cy="131.62" rx="3.81" ry="3.45"/><path class="cls-6" d="M163.65,129.09a3.21,3.21,0,0,1,.84,2.16,3.64,3.64,0,0,1-3.81,3.45,4,4,0,0,1-2.59-.93,4,4,0,0,0,3,1.29,3.64,3.64,0,0,0,3.81-3.44A3.3,3.3,0,0,0,163.65,129.09Z"/><ellipse class="cls-5" cx="265.08" cy="187.54" rx="3.81" ry="3.45" transform="translate(-34.68 62.7) rotate(-12.67)"/><path class="cls-6" d="M267.06,184.51a3.23,3.23,0,0,1,1.29,1.92,3.66,3.66,0,0,1-3,4.2,4,4,0,0,1-2.74-.34,3.93,3.93,0,0,0,3.19.61,3.65,3.65,0,0,0,3-4.2A3.32,3.32,0,0,0,267.06,184.51Z"/><ellipse class="cls-5" cx="30.25" cy="223.35" rx="5.49" ry="3.81" transform="translate(-61.59 17.52) rotate(-16.33)"/><path class="cls-6" d="M34.84,224.71a7.17,7.17,0,0,1-3.07,1.77c-2.91.85-5.75-.09-6.34-2.11a3.3,3.3,0,0,1,.68-2.9A3.57,3.57,0,0,0,25,224.9c.59,2,3.44,3,6.35,2.11A6.87,6.87,0,0,0,34.84,224.71Z"/><ellipse class="cls-5" cx="91.23" cy="272.4" rx="7.15" ry="6.91" transform="translate(-98.5 56.7) rotate(-22.82)"/><path class="cls-6" d="M97.88,274.71a7.3,7.3,0,0,1-3.54,3.13,7,7,0,0,1-9.26-3.6,6.7,6.7,0,0,1-.06-5.07,6.83,6.83,0,0,0-.38,6,7,7,0,0,0,9.27,3.6A7.28,7.28,0,0,0,97.88,274.71Z"/><ellipse class="cls-5" cx="225.65" cy="46.21" rx="11.65" ry="12.57"/><path class="cls-6" d="M233.58,37a13.19,13.19,0,0,1,2.57,7.87c0,6.94-5.22,12.57-11.65,12.57a11.14,11.14,0,0,1-7.93-3.37,11.32,11.32,0,0,0,9.08,4.71c6.44,0,11.65-5.63,11.65-12.57A13,13,0,0,0,233.58,37Z"/><ellipse class="cls-5" cx="20.9" cy="143.49" rx="6.59" ry="7.35" transform="translate(-57.32 21.39) rotate(-24.36)"/><path class="cls-6" d="M27.36,146.06a6.16,6.16,0,0,1-3.09,3.17c-3.32,1.5-7.36-.28-9-4a7.81,7.81,0,0,1-.46-5.28,7.72,7.72,0,0,0,.12,6.24c1.68,3.7,5.72,5.48,9,4A6.28,6.28,0,0,0,27.36,146.06Z"/><ellipse class="cls-5" cx="24.86" cy="124.21" rx="4.81" ry="4.92" transform="translate(-71.89 42.45) rotate(-38.48)"/><path class="cls-6" d="M29.71,124.64A4.74,4.74,0,0,1,28,127.36a4.88,4.88,0,0,1-6.83-.85,5,5,0,0,1-1.07-3.43,5,5,0,0,0,1,4.13,4.86,4.86,0,0,0,6.82.85A4.76,4.76,0,0,0,29.71,124.64Z"/><ellipse class="cls-5" cx="201.42" cy="62.23" rx="3.81" ry="3.45"/><path class="cls-6" d="M204,59.7a3.21,3.21,0,0,1,.84,2.16A3.64,3.64,0,0,1,201,65.31a4,4,0,0,1-2.59-.92,4,4,0,0,0,3,1.29,3.64,3.64,0,0,0,3.81-3.45A3.3,3.3,0,0,0,204,59.7Z"/><ellipse class="cls-5" cx="245.85" cy="55.33" rx="3.81" ry="3.45"/><path class="cls-6" d="M248.44,52.81a3.2,3.2,0,0,1,.84,2.15,3.64,3.64,0,0,1-3.81,3.45,4,4,0,0,1-2.59-.92,4,4,0,0,0,3,1.29,3.64,3.64,0,0,0,3.81-3.45A3.28,3.28,0,0,0,248.44,52.81Z"/><ellipse class="cls-7" cx="188.11" cy="168.42" rx="33.93" ry="40.73"/><ellipse class="cls-5" cx="188.11" cy="168.42" rx="29.17" ry="34.04"/><path class="cls-6" d="M208,143.49a37.5,37.5,0,0,1,6.42,21.3c0,18.79-13.06,34-29.17,34a27,27,0,0,1-19.85-9.11c5.35,7.77,13.55,12.74,22.75,12.74,16.11,0,29.17-15.24,29.17-34A36.74,36.74,0,0,0,208,143.49Z"/><ellipse class="cls-8" cx="50.41" cy="236.02" rx="14.67" ry="15.52"/><ellipse class="cls-5" cx="49.03" cy="236.02" rx="10.6" ry="11.33" transform="translate(-84.75 35.49) rotate(-21.97)"/><path class="cls-6" d="M59.12,240.27a10.15,10.15,0,0,1-5.22,4.79c-5.43,2.2-11.73-.73-14.07-6.54a11.71,11.71,0,0,1-.26-8.21A11.62,11.62,0,0,0,39.2,240c2.34,5.8,8.64,8.73,14.07,6.54A10.25,10.25,0,0,0,59.12,240.27Z"/><ellipse class="cls-9" cx="86.89" cy="159.02" rx="30.2" ry="31.71"/><ellipse class="cls-5" cx="86.89" cy="159.82" rx="25.8" ry="27.6" transform="translate(-68.54 65.29) rotate(-30.16)"/><path class="cls-6" d="M112.66,166.56a24.66,24.66,0,0,1-10.9,13.37c-12.33,7.16-28.52,2.28-36.18-10.9a28.53,28.53,0,0,1-3.47-19.71,28.29,28.29,0,0,0,2.46,23.46c7.66,13.18,23.86,18.06,36.18,10.9A25,25,0,0,0,112.66,166.56Z"/><ellipse class="cls-10" cx="200.3" cy="23.41" rx="10.77" ry="11.41"/><ellipse class="cls-5" cx="200.42" cy="23.45" rx="9.1" ry="8.77"/><path class="cls-6" d="M206.61,17a8.5,8.5,0,0,1,2,5.49,9,9,0,0,1-9.1,8.77,9.25,9.25,0,0,1-6.2-2.35,9.22,9.22,0,0,0,7.1,3.28,8.93,8.93,0,0,0,9.1-8.77A8.6,8.6,0,0,0,206.61,17Z"/><circle class="cls-11" cx="269.33" cy="106.84" r="5.47"/><ellipse class="cls-5" cx="268.89" cy="106.84" rx="3.45" ry="3.81" transform="translate(-1.5 3.85) rotate(-0.82)"/><path class="cls-6" d="M266.33,104.29a3.19,3.19,0,0,1,2.14-.87,3.63,3.63,0,0,1,3.5,3.76,4,4,0,0,1-.88,2.6,4,4,0,0,0,1.25-3,3.65,3.65,0,0,0-3.51-3.76A3.31,3.31,0,0,0,266.33,104.29Z"/><ellipse class="cls-12" cx="106.06" cy="66.69" rx="84.7" ry="48.47" transform="translate(-19.14 61.96) rotate(-30)"/><ellipse class="cls-13" cx="112.66" cy="41.29" rx="41.39" ry="10.69" transform="translate(-4.32 68) rotate(-32.99)"/><ellipse class="cls-13" cx="52.66" cy="80.24" rx="11.85" ry="11.72" transform="translate(-35.2 41.61) rotate(-32.99)"/><polygon class="cls-14" points="241.94 155.69 111.34 231.09 111.34 80.29 241.94 155.69"/></g></g></g></svg>