<svg xmlns="http://www.w3.org/2000/svg" xmlns:xlink="http://www.w3.org/1999/xlink" viewBox="0 0 182.57 182.57"><defs><style>.cls-1{isolation:isolate;}.cls-2{fill:url(#Безымянный_градиент_41);}.cls-10,.cls-11,.cls-13,.cls-3,.cls-7,.cls-8,.cls-9{opacity:0.5;}.cls-3{fill:url(#Безымянный_градиент_12);}.cls-4{mix-blend-mode:overlay;fill:url(#Безымянный_градиент_142);}.cls-5{fill:#008c8c;}.cls-6{fill:#006464;}.cls-7{fill:url(#Безымянный_градиент_25);}.cls-8{fill:url(#Безымянный_градиент_25-2);}.cls-9{fill:url(#Безымянный_градиент_25-3);}.cls-10{fill:url(#Безымянный_градиент_25-4);}.cls-11{fill:url(#Безымянный_градиент_25-5);}.cls-12,.cls-13,.cls-14{fill:#fff;}.cls-12{opacity:0.25;}.cls-14{opacity:0.74;}</style><linearGradient id="Безымянный_градиент_41" x1="12.22" y1="45.63" x2="170.35" y2="136.93" gradientUnits="userSpaceOnUse"><stop offset="0" stop-color="#00ffb9"/><stop offset="0.77" stop-color="#00dc46"/></linearGradient><linearGradient id="Безымянный_градиент_12" x1="6.69" y1="102.49" x2="182.57" y2="102.49" gradientUnits="userSpaceOnUse"><stop offset="1" stop-color="#3a52cc"/><stop offset="1" stop-color="#00dc46"/></linearGradient><radialGradient id="Безымянный_градиент_142" cx="107.32" cy="98.74" fx="176.75051439508619" fy="59.70692845887736" r="79.65" gradientUnits="userSpaceOnUse"><stop offset="0" stop-color="#fff"/><stop offset="1" stop-color="#a0a0a0"/></radialGradient><radialGradient id="Безымянный_градиент_25" cx="110.29" cy="98.74" r="21.98" gradientUnits="userSpaceOnUse"><stop offset="0" stop-color="#fff"/><stop offset="1" stop-color="#fff" stop-opacity="0.2"/></radialGradient><radialGradient id="Безымянный_градиент_25-2" cx="29.55" cy="138.38" r="8.85" xlink:href="#Безымянный_градиент_25"/><radialGradient id="Безымянный_градиент_25-3" cx="50.94" cy="93.24" r="18.15" xlink:href="#Безымянный_градиент_25"/><radialGradient id="Безымянный_градиент_25-4" cx="117.43" cy="13.73" r="6.5" xlink:href="#Безымянный_градиент_25"/><radialGradient id="Безымянный_градиент_25-5" cx="1202.99" cy="825.57" r="3.21" gradientTransform="translate(-1286.92 265.64) rotate(-42.46)" xlink:href="#Безымянный_градиент_25"/></defs><title>Ресурс 31</title><g class="cls-1"><g id="Слой_2" data-name="Слой 2"><g id="Слой_1-2" data-name="Слой 1"><circle class="cls-2" cx="91.28" cy="91.28" r="91.28"/><path class="cls-3" d="M151.17,22.41c-.29,1.46-.51,2.92-.7,4.39s-.33,2.84-.49,4.29h0c-.48,3.44-1.09,8.13-2.07,12.94l-.3,1.45c-1.47,6.78-3.7,13.57-7.33,17.21-3.34,2.74-7.67,3.84-12,4a76.3,76.3,0,0,1-9.9-.46c-11.31-2-17.68-1.37-21.23-.19a2.7,2.7,0,0,0-.6.21c-.3.12-.58.23-.84.35a10,10,0,0,0-1.37.6l0,0h0c-.19.1-.37.21-.55.32l-.14.09a12.58,12.58,0,0,0-4.07,4.57C86.37,77.68,85.67,85,85.67,85h0c-.06.48-.12,1-.16,1.43,0,.67-.09,1.34-.11,2a53.48,53.48,0,0,0,.34,7.27h0c0,.26,0,.51.09.76.38,3.33,1.92,16.92,2.47,26.54,0,.41,0,.82.07,1.27,0,.84.07,1.64.09,2.39-.09,19.38-23.7,15.25-23.7,15.25a21.07,21.07,0,0,1-2.3-.73,41.65,41.65,0,0,1-10.61-6.7,26.58,26.58,0,0,0-3.33-3.09h0a32.29,32.29,0,0,0-19.41-6.33h0c-8.46-.85-22.43.59-22.43.59l1.12,2.57h0c.23.52.47,1,.7,1.55h0A91.28,91.28,0,1,0,151.17,22.41Z"/><path class="cls-4" d="M141.3,14.92A91.28,91.28,0,0,1,32.08,160.76,91.28,91.28,0,1,0,141.3,14.92Z"/><ellipse class="cls-5" cx="130.42" cy="76.53" rx="4.98" ry="4.78" transform="translate(-19.71 94.61) rotate(-37.27)"/><path class="cls-6" d="M131,71.69a4.55,4.55,0,0,1,2.68,1.72,4.88,4.88,0,0,1-1.06,6.82,5.09,5.09,0,0,1-3.47,1,5.06,5.06,0,0,0,4.17-.93,4.88,4.88,0,0,0,1.06-6.82A4.66,4.66,0,0,0,131,71.69Z"/><ellipse class="cls-5" cx="17.73" cy="104.99" rx="9.17" ry="11.27" transform="translate(-34.02 11.94) rotate(-19.5)"/><path class="cls-6" d="M26.62,110A8.14,8.14,0,0,1,22,114.24c-4.77,1.69-10.32-1.7-12.4-7.57a12.75,12.75,0,0,1-.25-8,12.4,12.4,0,0,0-.3,9.43c2.08,5.87,7.63,9.26,12.4,7.57A8.48,8.48,0,0,0,26.62,110Z"/><ellipse class="cls-5" cx="94.63" cy="151.52" rx="14.35" ry="13.29" transform="matrix(0.84, -0.55, 0.55, 0.84, -67.67, 76.87)"/><path class="cls-6" d="M108.38,153.31a15,15,0,0,1-5.9,7.38c-6.62,4.35-15.26,2.91-19.29-3.23a12.71,12.71,0,0,1-1.76-9.67,12.94,12.94,0,0,0,1.2,11.62c4,6.13,12.67,7.57,19.3,3.22A14.87,14.87,0,0,0,108.38,153.31Z"/><ellipse class="cls-5" cx="122.69" cy="50.72" rx="9.61" ry="7.73"/><path class="cls-6" d="M129.23,45.06a6.87,6.87,0,0,1,2.12,4.84c0,4.27-4.31,7.73-9.62,7.73a11,11,0,0,1-6.54-2.07,10.63,10.63,0,0,0,7.5,2.89c5.31,0,9.61-3.46,9.61-7.73A7.12,7.12,0,0,0,129.23,45.06Z"/><ellipse class="cls-5" cx="154.52" cy="94.58" rx="8.14" ry="9.3" transform="matrix(0.55, -0.84, 0.84, 0.55, -9.05, 172.48)"/><path class="cls-6" d="M151.84,86.22a10.11,10.11,0,0,1,5.85,1.67C162,90.69,163.5,96,161,99.79a7.63,7.63,0,0,1-5.11,3.29,7.8,7.8,0,0,0,6.38-3.43c2.46-3.77,1-9.09-3.35-11.89A9.92,9.92,0,0,0,151.84,86.22Z"/><ellipse class="cls-5" cx="75.4" cy="163.85" rx="2.02" ry="2.23" transform="translate(-101.62 129.27) rotate(-54.24)"/><path class="cls-6" d="M77.5,163.54a1.86,1.86,0,0,1-.34,1.31,2.14,2.14,0,0,1-3,.34,2.32,2.32,0,0,1-.91-1.33,2.3,2.3,0,0,0,1,1.63,2.14,2.14,0,0,0,3-.33A2,2,0,0,0,77.5,163.54Z"/><ellipse class="cls-5" cx="105.68" cy="125.68" rx="2.23" ry="2.02"/><path class="cls-6" d="M107.2,124.2a1.87,1.87,0,0,1,.5,1.26,2.13,2.13,0,0,1-2.24,2,2.35,2.35,0,0,1-1.52-.54,2.33,2.33,0,0,0,1.74.76,2.14,2.14,0,0,0,2.24-2A1.93,1.93,0,0,0,107.2,124.2Z"/><ellipse class="cls-5" cx="94.43" cy="77.17" rx="2.23" ry="2.02"/><path class="cls-6" d="M96,75.69A1.86,1.86,0,0,1,96.44,77a2.13,2.13,0,0,1-2.23,2,2.33,2.33,0,0,1-1.52-.54,2.33,2.33,0,0,0,1.74.76,2.14,2.14,0,0,0,2.23-2A1.92,1.92,0,0,0,96,75.69Z"/><ellipse class="cls-5" cx="155.42" cy="109.95" rx="2.23" ry="2.02" transform="translate(-20.33 36.76) rotate(-12.67)"/><path class="cls-6" d="M156.58,108.18a1.9,1.9,0,0,1,.75,1.12,2.13,2.13,0,0,1-1.73,2.46,2.34,2.34,0,0,1-1.6-.19,2.33,2.33,0,0,0,1.86.36,2.15,2.15,0,0,0,1.74-2.47A1.94,1.94,0,0,0,156.58,108.18Z"/><ellipse class="cls-5" cx="17.73" cy="130.95" rx="3.22" ry="2.23" transform="translate(-36.11 10.27) rotate(-16.33)"/><path class="cls-6" d="M20.43,131.75a4.3,4.3,0,0,1-1.8,1c-1.71.5-3.37-.06-3.72-1.24a1.91,1.91,0,0,1,.4-1.7,2.07,2.07,0,0,0-.67,2c.35,1.18,2,1.74,3.72,1.24A4.11,4.11,0,0,0,20.43,131.75Z"/><ellipse class="cls-5" cx="53.49" cy="159.71" rx="4.19" ry="4.05" transform="translate(-57.75 33.24) rotate(-22.82)"/><path class="cls-6" d="M57.38,161.06a4.25,4.25,0,0,1-2.07,1.84,4.12,4.12,0,0,1-5.43-2.11,4,4,0,0,1,0-3,4,4,0,0,0-.22,3.52,4.11,4.11,0,0,0,5.43,2.11A4.2,4.2,0,0,0,57.38,161.06Z"/><ellipse class="cls-5" cx="132.3" cy="27.09" rx="6.83" ry="7.37"/><path class="cls-6" d="M137,21.7a7.68,7.68,0,0,1,1.5,4.61,7.11,7.11,0,0,1-6.83,7.37,6.54,6.54,0,0,1-4.65-2,6.65,6.65,0,0,0,5.33,2.76,7.12,7.12,0,0,0,6.83-7.37A7.61,7.61,0,0,0,137,21.7Z"/><ellipse class="cls-5" cx="12.25" cy="84.13" rx="3.86" ry="4.31" transform="translate(-33.61 12.54) rotate(-24.36)"/><path class="cls-6" d="M16,85.63a3.63,3.63,0,0,1-1.81,1.87,4.11,4.11,0,0,1-5.3-2.34,4.6,4.6,0,0,1-.27-3.1,4.54,4.54,0,0,0,.07,3.66A4.11,4.11,0,0,0,14,88.06,3.69,3.69,0,0,0,16,85.63Z"/><ellipse class="cls-5" cx="14.58" cy="72.83" rx="2.82" ry="2.88" transform="translate(-42.15 24.89) rotate(-38.48)"/><path class="cls-6" d="M17.42,73.08a2.76,2.76,0,0,1-1,1.59,2.89,2.89,0,0,1-4.63-2.51,2.89,2.89,0,0,0,4.57,2.92A2.76,2.76,0,0,0,17.42,73.08Z"/><ellipse class="cls-5" cx="118.09" cy="36.48" rx="2.23" ry="2.02"/><path class="cls-6" d="M119.61,35a1.91,1.91,0,0,1,.5,1.27,2.13,2.13,0,0,1-2.24,2,2.4,2.4,0,0,1-1.52-.54,2.33,2.33,0,0,0,1.74.76,2.14,2.14,0,0,0,2.24-2A1.94,1.94,0,0,0,119.61,35Z"/><ellipse class="cls-5" cx="144.14" cy="32.44" rx="2.23" ry="2.02"/><path class="cls-6" d="M145.66,31a1.91,1.91,0,0,1,.5,1.27,2.14,2.14,0,0,1-2.24,2,2.38,2.38,0,0,1-1.52-.54,2.33,2.33,0,0,0,1.74.75,2.13,2.13,0,0,0,2.24-2A1.94,1.94,0,0,0,145.66,31Z"/><ellipse class="cls-7" cx="110.29" cy="98.74" rx="19.9" ry="23.88"/><ellipse class="cls-5" cx="110.29" cy="98.74" rx="17.1" ry="19.96"/><path class="cls-6" d="M121.93,84.13a22,22,0,0,1,3.76,12.48c0,11-7.65,20-17.1,20A15.82,15.82,0,0,1,97,111.23a16.31,16.31,0,0,0,13.34,7.47c9.44,0,17.1-8.94,17.1-20A21.53,21.53,0,0,0,121.93,84.13Z"/><ellipse class="cls-8" cx="29.55" cy="138.38" rx="8.6" ry="9.1"/><ellipse class="cls-5" cx="28.75" cy="138.38" rx="6.22" ry="6.64" transform="translate(-49.69 20.81) rotate(-21.97)"/><path class="cls-6" d="M34.66,140.87a5.89,5.89,0,0,1-3.06,2.81,6.44,6.44,0,0,1-8.25-3.83A6.92,6.92,0,0,1,23.2,135a6.83,6.83,0,0,0-.22,5.68,6.44,6.44,0,0,0,8.25,3.83A6,6,0,0,0,34.66,140.87Z"/><ellipse class="cls-9" cx="50.94" cy="93.24" rx="17.71" ry="18.59"/><ellipse class="cls-5" cx="50.94" cy="93.7" rx="15.13" ry="16.18" transform="translate(-40.18 38.28) rotate(-30.16)"/><path class="cls-6" d="M66.05,97.66a14.42,14.42,0,0,1-6.39,7.83c-7.22,4.2-16.72,1.34-21.21-6.39a16.71,16.71,0,0,1-2-11.55,16.57,16.57,0,0,0,1.44,13.75c4.49,7.73,14,10.59,21.21,6.39A14.63,14.63,0,0,0,66.05,97.66Z"/><ellipse class="cls-10" cx="117.43" cy="13.73" rx="6.31" ry="6.69"/><ellipse class="cls-5" cx="117.51" cy="13.75" rx="5.34" ry="5.14"/><path class="cls-6" d="M121.14,10a5,5,0,0,1,1.17,3.21A5.25,5.25,0,0,1,117,18.35,5.42,5.42,0,0,1,113.35,17a5.38,5.38,0,0,0,4.16,1.92,5.24,5.24,0,0,0,5.33-5.14A5,5,0,0,0,121.14,10Z"/><circle class="cls-11" cx="157.91" cy="62.64" r="3.21"/><ellipse class="cls-5" cx="157.65" cy="62.64" rx="2.02" ry="2.23" transform="translate(-0.88 2.26) rotate(-0.82)"/><path class="cls-6" d="M156.15,61.14a1.92,1.92,0,0,1,1.26-.51,2.14,2.14,0,0,1,2.05,2.21,2.38,2.38,0,0,1-.52,1.53,2.32,2.32,0,0,0,.73-1.76,2.13,2.13,0,0,0-2-2.2A1.93,1.93,0,0,0,156.15,61.14Z"/><ellipse class="cls-12" cx="62.18" cy="39.1" rx="49.66" ry="28.42" transform="translate(-11.22 36.33) rotate(-30)"/><ellipse class="cls-13" cx="66.05" cy="24.21" rx="24.27" ry="6.27" transform="translate(-2.53 39.87) rotate(-32.99)"/><ellipse class="cls-13" cx="30.87" cy="47.05" rx="6.95" ry="6.87" transform="translate(-20.64 24.39) rotate(-32.99)"/><rect class="cls-14" x="59.35" y="28.07" width="20.67" height="125.52" rx="10.33" ry="10.33"/><rect class="cls-14" x="102.55" y="28.97" width="20.67" height="125.52" rx="10.33" ry="10.33"/></g></g></g></svg>