<svg xmlns="http://www.w3.org/2000/svg" xmlns:xlink="http://www.w3.org/1999/xlink" viewBox="0 0 201.49 201.57"><defs><style>.cls-1{isolation:isolate;}.cls-2{fill:url(#Безымянный_градиент_20);}.cls-10,.cls-11,.cls-12,.cls-14,.cls-3,.cls-8,.cls-9{opacity:0.5;}.cls-4{fill:#e60006;}.cls-5{mix-blend-mode:overlay;fill:url(#Безымянный_градиент_142);}.cls-6{fill:#8c0000;}.cls-7{fill:#640000;}.cls-8{fill:url(#Безымянный_градиент_25);}.cls-9{fill:url(#Безымянный_градиент_25-2);}.cls-10{fill:url(#Безымянный_градиент_25-3);}.cls-11{fill:url(#Безымянный_градиент_25-4);}.cls-12{fill:url(#Безымянный_градиент_25-5);}.cls-13,.cls-14,.cls-15{fill:#fff;}.cls-13{opacity:0.25;}.cls-15{opacity:0.7;}</style><linearGradient id="Безымянный_градиент_20" x1="13.46" y1="50.3" x2="187.76" y2="150.93" gradientUnits="userSpaceOnUse"><stop offset="0" stop-color="#ee2d91"/><stop offset="1" stop-color="#e99d00"/></linearGradient><radialGradient id="Безымянный_градиент_142" cx="109.95" cy="117.66" fx="167.36504467328808" fy="51.23197836303258" r="87.8" gradientUnits="userSpaceOnUse"><stop offset="0" stop-color="#fff"/><stop offset="1" stop-color="#a0a0a0"/></radialGradient><radialGradient id="Безымянный_градиент_25" cx="142.22" cy="50.65" r="21.26" gradientUnits="userSpaceOnUse"><stop offset="0" stop-color="#fff"/><stop offset="1" stop-color="#fff" stop-opacity="0.2"/></radialGradient><radialGradient id="Безымянный_градиент_25-2" cx="1024.1" cy="974.95" r="21.26" gradientTransform="translate(-1001.3 -864.13)" xlink:href="#Безымянный_градиент_25"/><radialGradient id="Безымянный_градиент_25-3" cx="588.13" cy="310.32" r="13.36" gradientTransform="translate(-451.42 -164.72)" xlink:href="#Безымянный_градиент_25"/><radialGradient id="Безымянный_градиент_25-4" cx="-10.15" cy="156.18" r="3.3" gradientTransform="translate(111.49 25.58) rotate(3.02)" xlink:href="#Безымянный_градиент_25"/><radialGradient id="Безымянный_градиент_25-5" cx="74.3" cy="116.83" r="4.37" xlink:href="#Безымянный_градиент_25"/></defs><title>Ресурс 32</title><g class="cls-1"><g id="Слой_2" data-name="Слой 2"><g id="Слой_1-2" data-name="Слой 1"><circle class="cls-2" cx="100.61" cy="100.61" r="100.61"/><g class="cls-3"><path class="cls-4" d="M191.86,65l-.21.49-.06.16C192.37,64.07,192.09,64.49,191.86,65Z"/><path class="cls-4" d="M200.25,86.6c-1.37,1.83-2.76,3.64-4.23,5.39-.86,1-1.75,2-2.67,2.93-8,6.72-14.68,8.69-18,9.26-.73.09-1.5.17-2.31.23h0a50.06,50.06,0,0,1-16.08-1c-2.39-.84-4.73-1.82-7.06-2.82-12.43-7.32-28.38-5.49-28.38-5.49l0,0h-.35l.9-.12c-.16-.11-1.18.19-1.38.23-.61.12-1.21.25-1.8.41s-1.33.37-2,.59l-1,.37-.81.4c-.47.26-.94.53-1.39.83s-.69.49-1,.72c2-1.29.44-.32,0,.12s-.74.71-1.08,1.09l-.22.24a3,3,0,0,1-.52.79,13.24,13.24,0,0,0-.88,1.28c-.31.54-.6,1.09-.86,1.66l0,0c-.3.94-.69,1.85-1,2.8s-.57,2.14-.78,3.23c-.09.44-.17.88-.25,1.33,0,.3-.13,1-.16,1.27-.18,1.85-.35,3.7-.41,5.58-.23,7.07.45,14.11.71,21.17-.09,1-.16,2.05-.22,3.24-1.5,32.65-26.57,22.38-65.5,18.32l-.08,0h0a9.64,9.64,0,0,1-1.42-.16,15.67,15.67,0,0,1-1.8-.18l-.93,0c-5.8-.52-11.89-.87-18.24-.9h-.34l.35.05A100.63,100.63,0,0,0,200.25,86.6Z"/></g><path class="cls-5" d="M175.78,33.76A100.62,100.62,0,0,1,18.42,158.62,100.62,100.62,0,1,0,175.78,33.76Z"/><ellipse class="cls-6" cx="115.16" cy="165.83" rx="4.27" ry="4.28" transform="translate(-85.3 189.84) rotate(-62.05)"/><path class="cls-7" d="M118.38,163a4.26,4.26,0,0,1,.13,4.41,4.32,4.32,0,0,1-5.85,1.63,4.44,4.44,0,0,1-1.11-.89,4.31,4.31,0,0,0,7.35-.23A4.23,4.23,0,0,0,118.38,163Z"/><ellipse class="cls-6" cx="59.16" cy="174.38" rx="4.28" ry="4.27" transform="translate(-69.63 42.76) rotate(-25.64)"/><path class="cls-7" d="M59.52,178.65a4.26,4.26,0,0,1-3.62-2.51,4.31,4.31,0,0,1,2.17-5.67,3.94,3.94,0,0,1,1.37-.37,4.23,4.23,0,0,0-2,.38,4.3,4.3,0,0,0-2.16,5.67A4.23,4.23,0,0,0,59.52,178.65Z"/><ellipse class="cls-6" cx="171.44" cy="120.12" rx="6.18" ry="6.02"/><path class="cls-7" d="M173.63,114.47a6,6,0,0,1,3.14,5.4,6.16,6.16,0,0,1-6.36,5.89,6.34,6.34,0,0,1-2-.37,6.24,6.24,0,0,0,2.86.75,6.16,6.16,0,0,0,6.36-5.89A6,6,0,0,0,173.63,114.47Z"/><ellipse class="cls-6" cx="125.42" cy="111.85" rx="4.49" ry="4.1"/><path class="cls-7" d="M127,108a4,4,0,0,1,2.28,3.67,4.37,4.37,0,0,1-4.62,4,5,5,0,0,1-1.46-.25,4.8,4.8,0,0,0,2.08.51,4.37,4.37,0,0,0,4.62-4A4.1,4.1,0,0,0,127,108Z"/><ellipse class="cls-6" cx="167.24" cy="145.91" rx="4.66" ry="4.32" transform="translate(-27.6 252.19) rotate(-69.72)"/><path class="cls-7" d="M169.1,141.63a4.44,4.44,0,0,1,1.9,4.21,4.75,4.75,0,0,1-4.81,4.37,4,4,0,0,1-1.39-.34,3.91,3.91,0,0,0,2,.65,4.75,4.75,0,0,0,4.8-4.37A4.36,4.36,0,0,0,169.1,141.63Z"/><ellipse class="cls-6" cx="143.97" cy="121.83" rx="2.75" ry="3.07" transform="translate(21.54 265.29) rotate(-89.76)"/><path class="cls-7" d="M145.68,119.54a2.58,2.58,0,0,1,.89,2.73,3.13,3.13,0,0,1-3.76,2,3.48,3.48,0,0,1-.93-.37,3.31,3.31,0,0,0,1.29.63,3.14,3.14,0,0,0,3.76-2A2.6,2.6,0,0,0,145.68,119.54Z"/><ellipse class="cls-6" cx="187.43" cy="105.87" rx="2.14" ry="2.14"/><path class="cls-7" d="M188.19,103.87a2.11,2.11,0,0,1,1.09,1.91,2.16,2.16,0,0,1-2.21,2.09,2.22,2.22,0,0,1-.69-.13,2.18,2.18,0,0,0,1,.27,2.16,2.16,0,0,0,2.2-2.09A2.1,2.1,0,0,0,188.19,103.87Z"/><ellipse class="cls-6" cx="35.23" cy="146.24" rx="10.04" ry="10.3" transform="translate(-115.18 144.54) rotate(-75.81)"/><path class="cls-7" d="M34,136.21a9.91,9.91,0,0,0-7.28,7.45A10.41,10.41,0,0,0,38,156a10.38,10.38,0,0,1-4.93,0,10.27,10.27,0,0,1-7.86-12.11A10,10,0,0,1,34,136.21Z"/><ellipse class="cls-6" cx="65.3" cy="100.61" rx="5.15" ry="5.02" transform="matrix(0.97, -0.25, 0.25, 0.97, -22.79, 19.2)"/><path class="cls-7" d="M62.37,96.49a5,5,0,0,0-1.42,5A5.13,5.13,0,0,0,67.29,105a5.31,5.31,0,0,0,1.54-.72A5.19,5.19,0,0,1,60.34,102,5,5,0,0,1,62.37,96.49Z"/><ellipse class="cls-6" cx="11.88" cy="81.59" rx="2.76" ry="1.99" transform="translate(-70.46 85.8) rotate(-84.64)"/><path class="cls-7" d="M12.56,84.12a1.61,1.61,0,0,1-1.94-.8,3.59,3.59,0,0,1,.29-3.9,2.42,2.42,0,0,1,.58-.5,2,2,0,0,0-.87.64,3.59,3.59,0,0,0-.29,3.9A1.58,1.58,0,0,0,12.56,84.12Z"/><ellipse class="cls-6" cx="128.78" cy="17.92" rx="5.15" ry="5.02" transform="matrix(0.91, -0.41, 0.41, 0.91, 4.12, 54.89)"/><path class="cls-7" d="M132.39,21.45a5,5,0,0,0,.52-5.18A5.14,5.14,0,0,0,126.06,14a5.41,5.41,0,0,0-1.4,1,5.34,5.34,0,0,1,1.91-1.56,5.15,5.15,0,0,1,6.86,2.28A5,5,0,0,1,132.39,21.45Z"/><ellipse class="cls-6" cx="168.4" cy="75.78" rx="2.14" ry="2.14"/><path class="cls-7" d="M169.16,73.77a2.14,2.14,0,0,1,1.09,1.92,2.16,2.16,0,0,1-2.2,2.09,2.29,2.29,0,0,1-.7-.14,2.06,2.06,0,0,0,1,.27,2.15,2.15,0,0,0,2.2-2.09A2.12,2.12,0,0,0,169.16,73.77Z"/><ellipse class="cls-6" cx="99.66" cy="86.31" rx="7.22" ry="9.75" transform="translate(-15.28 21.74) rotate(-11.57)"/><path class="cls-7" d="M93.49,80.13a12.4,12.4,0,0,0,.91,10c2.5,4.57,7.13,6,10.33,3.3a7.33,7.33,0,0,0,1.65-2.08,7.89,7.89,0,0,1-2.18,3.27c-3.21,2.74-7.83,1.26-10.34-3.3A12.1,12.1,0,0,1,93.49,80.13Z"/><ellipse class="cls-6" cx="50.87" cy="108.69" rx="2.14" ry="2.14" transform="matrix(0.98, -0.2, 0.2, 0.98, -21.15, 12.7)"/><path class="cls-7" d="M50.54,110.81a2.14,2.14,0,0,1,.27-4.15,1.89,1.89,0,0,1,.71,0,2.09,2.09,0,0,0-1-.06,2.14,2.14,0,0,0,0,4.22Z"/><ellipse class="cls-8" cx="142.22" cy="50.65" rx="20.25" ry="22.22"/><ellipse class="cls-6" cx="141.78" cy="52.9" rx="16.81" ry="16.18" transform="translate(21.13 144.24) rotate(-57.59)"/><path class="cls-7" d="M132.17,39.75A16,16,0,0,1,149,40.3c7.39,5,9.23,15.34,4.09,23.07a17.18,17.18,0,0,1-3.78,4.08A17.13,17.13,0,0,0,155.18,62c5.14-7.73,3.31-18.06-4.09-23.07A16.07,16.07,0,0,0,132.17,39.75Z"/><ellipse class="cls-9" cx="22.8" cy="110.83" rx="20.25" ry="22.22" transform="matrix(0.76, -0.65, 0.65, 0.76, -66.51, 41.36)"/><ellipse class="cls-6" cx="23.02" cy="110.68" rx="17.63" ry="19.96" transform="matrix(0.83, -0.56, 0.56, 0.83, -58.04, 31.88)"/><path class="cls-7" d="M19.13,91.47C13,93.15,8.29,98.4,7.44,105.59c-1.21,10.35,6,20.8,16,23.34a17.68,17.68,0,0,0,6.08.48,17.31,17.31,0,0,1-8.76,0,22,22,0,0,1-16-23.34C5.73,97.88,11.69,92.21,19.13,91.47Z"/><ellipse class="cls-10" cx="136.71" cy="145.59" rx="13.99" ry="12.7" transform="translate(-31.86 38.49) rotate(-14.37)"/><ellipse class="cls-6" cx="136.27" cy="145.9" rx="11.29" ry="9.68" transform="translate(-58.68 102.91) rotate(-34.52)"/><path class="cls-7" d="M130.66,155.33a12.17,12.17,0,0,0,11-3c4.59-4.2,5.25-10.68,1.46-14.49a8.65,8.65,0,0,0-2.69-1.84,8.93,8.93,0,0,1,4.15,2.34c3.78,3.81,3.13,10.3-1.46,14.49C139.48,156.11,134.46,157,130.66,155.33Z"/><circle class="cls-11" cx="93.13" cy="181.01" r="3.3"/><ellipse class="cls-6" cx="93.31" cy="180.86" rx="2.14" ry="2.14" transform="translate(-103.85 130.41) rotate(-48.36)"/><path class="cls-7" d="M95.2,179.86a2.12,2.12,0,0,1-.46,2.16,2.13,2.13,0,0,1-3.46-.47,2.1,2.1,0,0,0,.56.86,2.16,2.16,0,0,0,3-.09A2.13,2.13,0,0,0,95.2,179.86Z"/><ellipse class="cls-12" cx="74.3" cy="116.83" rx="3.86" ry="4.82"/><ellipse class="cls-6" cx="74.49" cy="117.32" rx="2.14" ry="2.14" transform="translate(-56.98 162.38) rotate(-76.51)"/><path class="cls-7" d="M76.26,118.52a2.13,2.13,0,0,1-2.12.62,2.16,2.16,0,0,1-1.52-2.63,2,2,0,0,1,.29-.65,2.19,2.19,0,0,0-.49.9,2.16,2.16,0,0,0,1.52,2.63A2.13,2.13,0,0,0,76.26,118.52Z"/><ellipse class="cls-13" cx="68.83" cy="43.57" rx="52.23" ry="30.58" transform="translate(-12.58 40.73) rotate(-30.34)"/><ellipse class="cls-14" cx="68.5" cy="24.47" rx="26.01" ry="6.51" transform="translate(-1.98 42.46) rotate(-33.98)"/><ellipse class="cls-14" cx="35.06" cy="47.01" rx="7.58" ry="6.66" transform="translate(-19.43 25.33) rotate(-31.58)"/><path class="cls-15" d="M150,115.91V88.85H140a42.06,42.06,0,0,0-2.25-5.4l6.82-6.82L125.47,57.49l-6.89,6.89a42.38,42.38,0,0,0-4.77-2V52.3H86.75v9.86a41.39,41.39,0,0,0-6,2.49l-7.5-7.5L54.14,76.28,61.82,84a41.71,41.71,0,0,0-2,4.89h-10v27.06h10a41.66,41.66,0,0,0,2.1,5.12l-7.44,7.44,19.13,19.14L81,140.23a42.06,42.06,0,0,0,5.4,2.25v10h27.06v-10a43.52,43.52,0,0,0,4.89-2l7.12,7.12,19.13-19.14-6.94-6.93a42.93,42.93,0,0,0,2.37-5.63Zm-49.68,5.29a18.51,18.51,0,1,1,18.51-18.51A18.52,18.52,0,0,1,100.33,121.2Z"/></g></g></g></svg>