<?xml version="1.0" encoding="utf-8"?>
<!-- Generator: Adobe Illustrator 23.0.1, SVG Export Plug-In . SVG Version: 6.00 Build 0)  -->
<svg version="1.1" id="Слой_1" xmlns="http://www.w3.org/2000/svg" xmlns:xlink="http://www.w3.org/1999/xlink" x="0px" y="0px"
	 viewBox="0 0 1920 1080" style="enable-background:new 0 0 1920 1080;" xml:space="preserve">
<style type="text/css">
	.st0{fill:url(#SVGID_1_);}
	.st1{fill:url(#SVGID_2_);}
	.st2{fill:url(#SVGID_3_);}
	.st3{opacity:0.5;}
	.st4{fill:#E60006;}
	.st5{fill:url(#SVGID_4_);}
	.st6{fill:#8C0000;}
	.st7{fill:#640000;}
	.st8{opacity:0.5;fill:url(#SVGID_5_);}
	.st9{opacity:0.5;fill:url(#SVGID_6_);}
	.st10{opacity:0.5;fill:url(#SVGID_7_);}
	.st11{opacity:0.5;fill:url(#SVGID_8_);}
	.st12{opacity:0.5;fill:url(#SVGID_9_);}
	.st13{fill:url(#SVGID_10_);}
	.st14{opacity:0.25;fill:#FFFFFF;}
	.st15{opacity:0.5;fill:#FFFFFF;}
	.st16{fill:url(#SVGID_11_);}
	.st17{fill:url(#SVGID_12_);}
	.st18{fill:url(#SVGID_13_);}
	.st19{opacity:0.5;fill:url(#SVGID_14_);}
	.st20{fill:url(#SVGID_15_);}
	.st21{fill:#008C8C;}
	.st22{fill:#006464;}
	.st23{opacity:0.5;fill:url(#SVGID_16_);}
	.st24{opacity:0.5;fill:url(#SVGID_17_);}
	.st25{opacity:0.5;fill:url(#SVGID_18_);}
	.st26{opacity:0.5;fill:url(#SVGID_19_);}
	.st27{opacity:0.5;fill:url(#SVGID_20_);}
	.st28{fill:url(#SVGID_21_);}
	.st29{fill:url(#SVGID_22_);stroke:url(#SVGID_23_);stroke-miterlimit:10;}
	.st30{opacity:0.5;fill:#BF2222;}
	.st31{opacity:0.5;fill:url(#SVGID_24_);}
	.st32{fill:#D62727;}
	.st33{fill:#B40A0A;}
	.st34{opacity:0.5;fill:url(#SVGID_25_);}
	.st35{opacity:0.5;fill:url(#SVGID_26_);}
	.st36{opacity:0.5;fill:url(#SVGID_27_);}
	.st37{fill:url(#SVGID_28_);}
	.st38{fill:url(#SVGID_29_);}
	.st39{opacity:0.5;fill:url(#SVGID_30_);}
	.st40{opacity:0.5;fill:url(#SVGID_31_);}
	.st41{opacity:0.5;fill:url(#SVGID_32_);}
	.st42{opacity:0.5;fill:url(#SVGID_33_);}
	.st43{opacity:0.5;fill:url(#SVGID_34_);}
	.st44{fill:url(#SVGID_35_);}
</style>
<linearGradient id="SVGID_1_" gradientUnits="userSpaceOnUse" x1="-86.6047" y1="2164.9006" x2="476.4058" y2="2489.9548">
	<stop  offset="0" style="stop-color:#EE2D91"/>
	<stop  offset="1" style="stop-color:#E99D00"/>
</linearGradient>
<circle class="st0" cx="194.9" cy="2327.43" r="325"/>
<linearGradient id="SVGID_2_" gradientUnits="userSpaceOnUse" x1="254.3349" y1="-436.9625" x2="306.3051" y2="-406.9575">
	<stop  offset="0" style="stop-color:#EE2D91"/>
	<stop  offset="1" style="stop-color:#E99D00"/>
</linearGradient>
<circle class="st1" cx="280.32" cy="-421.96" r="30"/>
<linearGradient id="SVGID_3_" gradientUnits="userSpaceOnUse" x1="658.4827" y1="-416.9642" x2="745.0997" y2="-366.9558">
	<stop  offset="0" style="stop-color:#EE2D91"/>
	<stop  offset="1" style="stop-color:#E99D00"/>
</linearGradient>
<circle class="st2" cx="701.79" cy="-391.96" r="50"/>
<g class="st3">
	<path class="st4" d="M489.65,2212.28c-0.22,0.51-0.44,1.03-0.67,1.56c-0.07,0.18-0.15,0.36-0.22,0.53
		C491.31,2209.38,490.39,2210.74,489.65,2212.28z"/>
	<path class="st4" d="M516.75,2282.16c-4.41,5.93-8.92,11.78-13.67,17.43c-2.76,3.28-5.63,6.43-8.61,9.45
		c-25.96,21.73-47.41,28.07-58.17,29.92c-2.35,0.28-4.85,0.54-7.46,0.76l0,0l0,0c-15.11,1.28-34.14,1.31-51.94-3.18
		c-7.73-2.7-15.3-5.88-22.83-9.1c-40.14-23.64-91.66-17.75-91.66-17.75l0.08,0.06c-0.6,0.02-1,0.05-1.11,0.06
		c0.97-0.14,1.94-0.27,2.91-0.4c-0.54-0.36-3.81,0.62-4.48,0.75c-1.95,0.37-3.88,0.8-5.8,1.31c-2.16,0.57-4.31,1.22-6.43,1.91
		c-0.52,0.17-2.22,0.84-3.24,1.22c-1.02,0.49-2.17,1.04-2.6,1.28c-1.54,0.83-3.04,1.72-4.5,2.67c-1.14,0.75-2.22,1.6-3.35,2.35
		c6.36-4.19,1.43-1.05-0.1,0.36c-1.22,1.12-2.38,2.3-3.5,3.52c-0.24,0.26-0.47,0.53-0.69,0.8c-0.83,1.57-1.4,2.31-1.69,2.54
		c-0.98,1.37-2.02,2.72-2.83,4.13c-1,1.74-1.93,3.53-2.79,5.35c-0.02,0.04-0.03,0.08-0.05,0.11c-0.98,3.03-2.23,5.97-3.12,9.04
		c-0.99,3.43-1.82,6.91-2.52,10.42c-0.29,1.43-0.55,2.86-0.79,4.3c-0.17,0.98-0.42,3.2-0.52,4.1c-0.59,6-1.11,11.98-1.31,18.02
		c-0.76,22.85,1.44,45.59,2.3,68.39c-0.3,3.16-0.54,6.64-0.72,10.47c-4.85,105.46-85.85,72.31-211.6,59.18
		c-0.08-0.04-0.17-0.08-0.25-0.12c-0.01,0-0.02,0-0.02,0c-1.54-0.04-3.06-0.25-4.57-0.51c-1.95-0.07-3.89-0.29-5.83-0.58
		c-0.98-0.04-1.99-0.08-3-0.12c-18.75-1.67-38.43-2.8-58.92-2.89c-0.03,0-0.06,0-0.09-0.01c0,0,0,0,0,0.01c-0.34,0-0.67-0.01-1-0.01
		l1.13,0.18c59.02,81.68,155.04,134.86,263.52,134.86c179.49,0,325-145.51,325-325C519.9,2312.06,518.82,2296.95,516.75,2282.16z"/>
</g>
<radialGradient id="SVGID_4_" cx="225.0745" cy="2382.5071" r="283.6214" gradientUnits="userSpaceOnUse">
	<stop  offset="0" style="stop-color:#FFFFFF"/>
	<stop  offset="1" style="stop-color:#A0A0A0"/>
</radialGradient>
<path class="st5" d="M437.7,2111.48c59.05,84.54,77.01,195.7,38.33,299.67c-62.58,168.23-249.69,253.87-417.92,191.29
	c-51.16-19.03-94.67-49.6-128.71-87.64c36.5,52.25,88.69,94.35,152.96,118.25c168.23,62.58,355.34-23.06,417.92-191.29
	C543.82,2324.7,515.58,2198.51,437.7,2111.48z"/>
<g>
	
		<ellipse transform="matrix(0.4687 -0.8834 0.8834 0.4687 -2113.5559 1562.2496)" class="st6" cx="241.91" cy="2538.11" rx="13.8" ry="13.83"/>
	<path class="st7" d="M252.3,2528.97c2.69,4.15,3.03,9.61,0.42,14.22c-3.76,6.63-12.22,8.99-18.89,5.26
		c-1.38-0.77-2.58-1.75-3.57-2.87c1.18,1.82,2.81,3.39,4.84,4.53c6.67,3.73,15.13,1.37,18.89-5.26
		C256.96,2539.6,256.1,2533.24,252.3,2528.97z"/>
</g>
<g>
	
		<ellipse transform="matrix(0.9016 -0.4327 0.4327 0.9016 -1104.1133 278.9809)" class="st6" cx="60.99" cy="2565.72" rx="13.83" ry="13.8"/>
	<path class="st7" d="M62.18,2579.5c-4.94-0.3-9.54-3.27-11.69-8.11c-3.1-6.97,0.02-15.17,6.98-18.32c1.44-0.65,2.94-1.04,4.43-1.17
		c-2.17-0.13-4.4,0.25-6.52,1.21c-6.96,3.15-10.08,11.36-6.98,18.32C50.85,2576.95,56.48,2580.03,62.18,2579.5z"/>
</g>
<g>
	<ellipse class="st6" cx="423.69" cy="2390.44" rx="19.97" ry="19.46"/>
	<path class="st7" d="M430.75,2372.2c6.24,3.4,10.37,9.97,10.16,17.43c-0.31,10.74-9.51,19.26-20.53,19.02
		c-2.29-0.05-4.47-0.48-6.5-1.21c2.74,1.49,5.88,2.37,9.24,2.44c11.03,0.24,20.22-8.28,20.53-19.02
		C443.9,2382.36,438.49,2375.01,430.75,2372.2z"/>
</g>
<g>
	<ellipse class="st6" cx="275.04" cy="2363.73" rx="14.5" ry="13.25"/>
	<path class="st7" d="M280.16,2351.31c4.53,2.31,7.53,6.79,7.37,11.87c-0.23,7.32-6.9,13.12-14.91,12.96
		c-1.66-0.03-3.25-0.32-4.72-0.82c1.99,1.01,4.27,1.61,6.71,1.66c8.01,0.16,14.68-5.64,14.91-12.96
		C289.71,2358.23,285.79,2353.22,280.16,2351.31z"/>
</g>
<g>
	
		<ellipse transform="matrix(0.3467 -0.938 0.938 0.3467 -2052.3962 2000.848)" class="st6" cx="410.12" cy="2473.75" rx="15.04" ry="13.94"/>
	<path class="st7" d="M416.14,2459.94c4.19,2.75,6.71,7.88,6.13,13.59c-0.84,8.22-7.8,14.53-15.53,14.1
		c-1.6-0.09-3.11-0.47-4.5-1.08c1.84,1.2,3.99,1.95,6.35,2.08c7.74,0.44,14.69-5.88,15.53-14.1
		C424.79,2468.02,421.42,2462.27,416.14,2459.94z"/>
</g>
<g>
	
		<ellipse transform="matrix(4.145666e-03 -1 1 4.145666e-03 -2062.3884 2720.9702)" class="st6" cx="334.94" cy="2395.96" rx="8.89" ry="9.91"/>
	<path class="st7" d="M340.49,2388.58c2.61,2.15,3.84,5.5,2.86,8.8c-1.41,4.74-6.85,7.59-12.14,6.35c-1.1-0.26-2.1-0.67-2.99-1.21
		c1.15,0.94,2.56,1.66,4.17,2.04c5.29,1.24,10.73-1.6,12.14-6.35C345.65,2394.45,343.9,2390.62,340.49,2388.58z"/>
</g>
<g>
	<ellipse class="st6" cx="475.34" cy="2344.41" rx="6.92" ry="6.9"/>
	<path class="st7" d="M477.79,2337.94c2.16,1.2,3.59,3.54,3.52,6.19c-0.11,3.81-3.29,6.83-7.11,6.75c-0.79-0.02-1.55-0.17-2.25-0.43
		c0.95,0.53,2.04,0.84,3.2,0.87c3.82,0.08,7-2.94,7.11-6.75C482.34,2341.54,480.47,2338.93,477.79,2337.94z"/>
</g>
<g>
	
		<ellipse transform="matrix(0.2451 -0.9695 0.9695 0.2451 -2411.6113 1852.3505)" class="st6" cx="-16.31" cy="2474.8" rx="32.45" ry="33.27"/>
	<path class="st7" d="M-20.26,2442.43c-11.47,2.94-20.83,11.88-23.53,24.04c-3.88,17.5,7.48,35.02,25.39,39.14
		c3.71,0.85,7.42,1.06,10.99,0.7c-5.03,1.29-10.47,1.43-15.93,0.17c-17.91-4.12-29.27-21.65-25.39-39.14
		C-45.65,2453.47-33.91,2443.79-20.26,2442.43z"/>
</g>
<g>
	
		<ellipse transform="matrix(0.9691 -0.2465 0.2465 0.9691 -571.2965 91.767)" class="st6" cx="80.83" cy="2327.42" rx="16.64" ry="16.22"/>
	<path class="st7" d="M71.38,2314.13c-4.34,4.03-6.33,10.19-4.61,16.17c2.46,8.62,11.63,13.61,20.49,11.16
		c1.84-0.51,3.51-1.3,5-2.31c-1.9,1.77-4.26,3.12-6.96,3.87c-8.85,2.45-18.03-2.54-20.49-11.16
		C62.85,2325.03,65.71,2317.98,71.38,2314.13z"/>
</g>
<g>
	
		<ellipse transform="matrix(0.0934 -0.9956 0.9956 0.0934 -2339.238 1963.0178)" class="st6" cx="-91.73" cy="2265.98" rx="8.9" ry="6.43"/>
	<path class="st7" d="M-89.53,2274.15c-2.27,0.81-4.7-0.07-6.26-2.59c-2.24-3.62-1.82-9.26,0.95-12.6c0.57-0.69,1.2-1.23,1.86-1.61
		c-0.99,0.36-1.96,1.04-2.8,2.06c-2.76,3.33-3.19,8.97-0.95,12.6C-94.96,2274.89-92.04,2275.63-89.53,2274.15z"/>
</g>
<g>
	
		<ellipse transform="matrix(0.9104 -0.4137 0.4137 0.9104 -826.7692 302.8742)" class="st6" cx="285.9" cy="2060.32" rx="16.64" ry="16.22"/>
	<path class="st7" d="M297.55,2071.73c3.56-4.73,4.43-11.14,1.69-16.74c-3.94-8.05-13.85-11.34-22.13-7.37
		c-1.72,0.83-3.23,1.9-4.51,3.16c1.56-2.07,3.64-3.83,6.17-5.04c8.28-3.98,18.19-0.68,22.13,7.37
		C304.02,2059.49,302.46,2066.93,297.55,2071.73z"/>
</g>
<g>
	<ellipse class="st6" cx="413.88" cy="2247.2" rx="6.92" ry="6.9"/>
	<path class="st7" d="M416.32,2240.73c2.16,1.2,3.59,3.54,3.52,6.19c-0.11,3.81-3.29,6.83-7.11,6.75c-0.79-0.02-1.55-0.17-2.25-0.43
		c0.95,0.53,2.04,0.84,3.2,0.87c3.82,0.08,7-2.94,7.11-6.75C420.88,2244.33,419,2241.72,416.32,2240.73z"/>
</g>
<g>
	
		<ellipse transform="matrix(0.9797 -0.2005 0.2005 0.9797 -453.4843 84.7856)" class="st6" cx="191.84" cy="2281.22" rx="23.32" ry="31.51"/>
	<path class="st7" d="M171.88,2261.25c-3.49,9.56-2.67,21.92,2.95,32.17c8.08,14.74,23.03,19.5,33.38,10.64
		c2.15-1.84,3.92-4.12,5.32-6.71c-1.53,4.19-3.89,7.85-7.05,10.55c-10.35,8.86-25.29,4.09-33.38-10.64
		C166.7,2285.58,166.53,2271.15,171.88,2261.25z"/>
</g>
<g>
	
		<ellipse transform="matrix(0.9789 -0.2045 0.2045 0.9789 -480.6126 56.7452)" class="st6" cx="34.22" cy="2353.52" rx="6.92" ry="6.9"/>
	<path class="st7" d="M33.15,2360.36c-2.36-0.74-4.24-2.73-4.71-5.34c-0.67-3.75,1.83-7.36,5.58-8.06c0.78-0.15,1.55-0.15,2.29-0.04
		c-1.04-0.32-2.17-0.41-3.31-0.19c-3.75,0.7-6.25,4.31-5.58,8.06C27.96,2357.76,30.32,2359.93,33.15,2360.36z"/>
</g>
<radialGradient id="SVGID_5_" cx="329.29" cy="2166.0278" r="68.6587" gradientUnits="userSpaceOnUse">
	<stop  offset="0" style="stop-color:#FFFFFF"/>
	<stop  offset="1" style="stop-color:#FFFFFF;stop-opacity:0.2"/>
</radialGradient>
<ellipse class="st8" cx="329.29" cy="2166.03" rx="65.41" ry="71.76"/>
<g>
	
		<ellipse transform="matrix(0.536 -0.8442 0.8442 0.536 -1682.5782 1285.188)" class="st6" cx="327.89" cy="2173.3" rx="54.3" ry="52.26"/>
	<path class="st7" d="M296.83,2130.83c16.79-9.44,37.72-9.46,54.33,1.79c23.9,16.19,29.82,49.55,13.21,74.52
		c-3.44,5.18-7.59,9.58-12.21,13.17c7.37-4.14,13.94-10.08,19-17.7c16.6-24.97,10.69-58.33-13.21-74.52
		C339.01,2115.26,314.46,2117.09,296.83,2130.83z"/>
</g>
<radialGradient id="SVGID_6_" cx="-1057.8373" cy="1583.8578" r="68.6587" gradientTransform="matrix(0.7604 -0.6494 0.6494 0.7604 -280.7034 469.043)" gradientUnits="userSpaceOnUse">
	<stop  offset="0" style="stop-color:#FFFFFF"/>
	<stop  offset="1" style="stop-color:#FFFFFF;stop-opacity:0.2"/>
</radialGradient>
<path class="st9" d="M-6.71,2317.95c25.74,30.14,24.34,73.59-3.13,97.05c-27.47,23.46-70.6,18.05-96.34-12.09
	c-25.74-30.14-24.34-73.59,3.13-97.05C-75.59,2282.4-32.45,2287.81-6.71,2317.95z"/>
<g>
	
		<ellipse transform="matrix(0.8285 -0.56 0.56 0.8285 -1331.2225 373.5824)" class="st6" cx="-55.75" cy="2359.96" rx="56.96" ry="64.48"/>
	<path class="st7" d="M-68.29,2297.91c-19.9,5.42-35.03,22.36-37.77,45.6c-3.93,33.42,19.27,67.18,51.82,75.4
		c6.75,1.7,13.37,2.16,19.66,1.54c-8.73,2.38-18.37,2.55-28.3,0.04c-32.55-8.22-55.76-41.97-51.82-75.4
		C-111.58,2318.59-92.34,2300.28-68.29,2297.91z"/>
</g>
<radialGradient id="SVGID_7_" cx="-103.4076" cy="2284.0432" r="43.1597" gradientTransform="matrix(0.9687 -0.2482 0.2482 0.9687 -155.2878 234.4998)" gradientUnits="userSpaceOnUse">
	<stop  offset="0" style="stop-color:#FFFFFF"/>
	<stop  offset="1" style="stop-color:#FFFFFF;stop-opacity:0.2"/>
</radialGradient>
<path class="st10" d="M355.28,2461.51c5.63,21.96-9.41,44.78-33.58,50.97c-24.17,6.19-48.33-6.58-53.95-28.54
	c-5.63-21.96,9.41-44.78,33.58-50.97C325.49,2426.77,349.65,2439.55,355.28,2461.51z"/>
<g>
	
		<ellipse transform="matrix(0.8239 -0.5667 0.5667 0.8239 -1347.2 611.2397)" class="st6" cx="310.08" cy="2473.7" rx="36.48" ry="31.26"/>
	<path class="st7" d="M291.95,2504.17c11.52,2.96,25.25-0.4,35.55-9.81c14.82-13.55,16.94-34.5,4.72-46.81
		c-2.53-2.55-5.49-4.52-8.71-5.93c5.05,1.3,9.68,3.8,13.41,7.55c12.22,12.3,10.1,33.26-4.72,46.81
		C320.45,2506.71,304.25,2509.57,291.95,2504.17z"/>
</g>
<radialGradient id="SVGID_8_" cx="263.2758" cy="2613.2825" r="10.6465" gradientTransform="matrix(0.9986 0.0526 -0.0526 0.9986 45.4212 -36.3826)" gradientUnits="userSpaceOnUse">
	<stop  offset="0" style="stop-color:#FFFFFF"/>
	<stop  offset="1" style="stop-color:#FFFFFF;stop-opacity:0.2"/>
</radialGradient>
<circle class="st11" cx="170.75" cy="2587.14" r="10.65"/>
<g>
	
		<ellipse transform="matrix(0.6645 -0.7473 0.7473 0.6645 -1875.5393 995.8831)" class="st6" cx="171.3" cy="2586.64" rx="6.9" ry="6.92"/>
	<path class="st7" d="M177.43,2583.43c0.81,2.34,0.33,5.03-1.48,6.96c-2.61,2.78-7,2.92-9.8,0.32c-0.58-0.54-1.04-1.15-1.4-1.82
		c0.36,1.02,0.96,1.98,1.82,2.77c2.8,2.6,7.19,2.46,9.8-0.32C178.43,2589.15,178.77,2585.95,177.43,2583.43z"/>
</g>
<radialGradient id="SVGID_9_" cx="109.918" cy="2379.8271" r="14.1017" gradientUnits="userSpaceOnUse">
	<stop  offset="0" style="stop-color:#FFFFFF"/>
	<stop  offset="1" style="stop-color:#FFFFFF;stop-opacity:0.2"/>
</radialGradient>
<ellipse class="st12" cx="109.92" cy="2379.83" rx="12.47" ry="15.56"/>
<g>
	
		<ellipse transform="matrix(0.2333 -0.9724 0.9724 0.2333 -2230.947 1933.2034)" class="st6" cx="110.5" cy="2381.4" rx="6.92" ry="6.9"/>
	<path class="st7" d="M116.23,2385.29c-1.68,1.82-4.28,2.67-6.83,1.98c-3.68-0.99-5.88-4.8-4.9-8.49c0.2-0.77,0.53-1.47,0.94-2.09
		c-0.73,0.8-1.29,1.78-1.59,2.91c-0.97,3.69,1.22,7.49,4.9,8.49C111.66,2388.88,114.63,2387.66,116.23,2385.29z"/>
</g>
<radialGradient id="SVGID_10_" cx="50.5942" cy="989.8136" r="35.2748" gradientTransform="matrix(4.9686 0 0 4.529 -605.1616 -2422.5359)" gradientUnits="userSpaceOnUse">
	<stop  offset="0" style="stop-color:#FFFFFF"/>
	<stop  offset="1" style="stop-color:#FFFFFF;stop-opacity:0"/>
</radialGradient>
<circle class="st13" cx="-353.78" cy="2060.32" r="166.98"/>
<ellipse transform="matrix(0.8631 -0.5051 0.5051 0.8631 -1069.7816 340.0178)" class="st14" cx="92.25" cy="2143.15" rx="168.73" ry="98.8"/>
<ellipse transform="matrix(0.8292 -0.5589 0.5589 0.8292 -1147.7885 406.4012)" class="st15" cx="91.16" cy="2081.48" rx="84" ry="21.03"/>
<ellipse transform="matrix(0.8519 -0.5237 0.5237 0.8519 -1130.7749 310.2805)" class="st15" cx="-16.83" cy="2154.27" rx="24.48" ry="21.53"/>
<linearGradient id="SVGID_11_" gradientUnits="userSpaceOnUse" x1="-284.0216" y1="1525.2057" x2="13.4558" y2="1696.9543">
	<stop  offset="0" style="stop-color:#00FFB9"/>
	<stop  offset="0.7741" style="stop-color:#00DC46"/>
</linearGradient>
<circle class="st16" cx="-135.28" cy="1611.08" r="171.72"/>
<linearGradient id="SVGID_12_" gradientUnits="userSpaceOnUse" x1="652.4515" y1="-220.8842" x2="739.0685" y2="-170.8758">
	<stop  offset="0" style="stop-color:#00FFB9"/>
	<stop  offset="1" style="stop-color:#00DC46"/>
</linearGradient>
<circle class="st17" cx="695.76" cy="-195.88" r="50"/>
<linearGradient id="SVGID_13_" gradientUnits="userSpaceOnUse" x1="862.7349" y1="-160.8825" x2="914.7051" y2="-130.8775">
	<stop  offset="0" style="stop-color:#00FFB9"/>
	<stop  offset="1" style="stop-color:#00DC46"/>
</linearGradient>
<circle class="st18" cx="888.72" cy="-145.88" r="30"/>
<linearGradient id="SVGID_14_" gradientUnits="userSpaceOnUse" x1="-294.4209" y1="1632.1599" x2="36.437" y2="1632.1599">
	<stop  offset="1" style="stop-color:#3A52CC"/>
	<stop  offset="1" style="stop-color:#00DC46"/>
</linearGradient>
<path class="st19" d="M-22.62,1481.52c-0.55,2.75-0.96,5.49-1.32,8.25c-0.34,2.66-0.63,5.35-0.93,8.08v0
	c-0.9,6.47-2.05,15.3-3.88,24.34c-0.19,0.91-0.38,1.81-0.57,2.72c-2.77,12.76-6.97,25.53-13.79,32.38
	c-6.29,5.15-14.42,7.21-22.57,7.49c-6.21,0.21-12.42-0.26-18.63-0.86c-21.28-3.78-33.25-2.59-39.94-0.37
	c-0.36,0.09-0.74,0.22-1.13,0.4c-0.57,0.22-1.09,0.44-1.57,0.67c-0.91,0.32-1.77,0.7-2.58,1.13c-0.02,0.01-0.03,0.01-0.05,0.02
	c-0.02,0.01-0.03,0.02-0.04,0.03c-0.35,0.19-0.7,0.39-1.03,0.6c-0.09,0.05-0.17,0.11-0.26,0.16c-3.39,2.21-5.87,5.36-7.67,8.61
	c-5.93,10.33-7.25,24.04-7.25,24.04l0.01,0c-0.11,0.89-0.22,1.78-0.29,2.69c-0.1,1.25-0.17,2.52-0.21,3.78
	c-0.13,4.7,0.16,9.4,0.63,13.68l0,0c0,0,0,0.01,0,0.02c0.05,0.48,0.11,0.95,0.17,1.41c0.73,6.27,3.62,31.83,4.65,49.93
	c0.02,0.77,0.06,1.55,0.13,2.39c0.08,1.58,0.14,3.09,0.18,4.51c-0.17,36.44-44.58,28.68-44.59,28.68c-2.15-0.56-3.66-1.12-4.32-1.38
	c-8.34-3.64-14.73-8.11-19.97-12.6c-1.99-2.19-4.09-4.12-6.25-5.8c0,0,0,0-0.01-0.01l0,0c-16.55-12.87-36.51-11.9-36.51-11.9l0,0
	c-15.92-1.6-42.19,1.11-42.19,1.11l2.11,4.82c-0.01,0-0.04,0-0.05-0.01c0.43,0.97,0.87,1.94,1.32,2.91l0,0l0,0
	c27.3,58.68,86.77,99.36,155.76,99.36c94.84,0,171.72-76.88,171.72-171.72C36.44,1559.36,13.56,1513-22.62,1481.52z"/>
<radialGradient id="SVGID_15_" cx="-105.1104" cy="1625.1133" r="149.8346" fx="25.4952" fy="1551.6791" gradientUnits="userSpaceOnUse">
	<stop  offset="0" style="stop-color:#FFFFFF"/>
	<stop  offset="1" style="stop-color:#A0A0A0"/>
</radialGradient>
<path class="st20" d="M-41.19,1467.43c36.92,31.5,60.34,78.36,60.34,130.69c0,94.84-76.88,171.72-171.72,171.72
	c-34.74,0-67.07-10.33-94.09-28.07c29.99,25.58,68.87,41.03,111.38,41.03c94.84,0,171.72-76.88,171.72-171.72
	C36.44,1550.98,5.56,1498.11-41.19,1467.43z"/>
<g>
	
		<ellipse transform="matrix(0.7958 -0.6056 0.6056 0.7958 -971.3973 285.9892)" class="st21" cx="-61.65" cy="1583.32" rx="9.36" ry="9"/>
	<path class="st22" d="M-60.57,1574.22c1.96,0.45,3.76,1.54,5.05,3.23c3.01,3.96,2.12,9.7-2,12.83c-1.96,1.49-4.29,2.12-6.53,1.94
		c2.61,0.6,5.5,0.05,7.85-1.74c4.11-3.13,5.01-8.87,2-12.83C-55.78,1575.58-58.12,1574.41-60.57,1574.22z"/>
</g>
<g>
	
		<ellipse transform="matrix(0.9427 -0.3337 0.3337 0.9427 -561.9827 2.5249)" class="st21" cx="-273.64" cy="1636.87" rx="17.25" ry="21.2"/>
	<path class="st22" d="M-256.92,1646.26c-1.81,3.74-4.76,6.64-8.61,8c-8.98,3.18-19.43-3.19-23.33-14.23
		c-1.86-5.26-1.9-10.62-0.46-15.14c-2.41,4.98-2.8,11.44-0.57,17.74c3.91,11.04,14.35,17.41,23.33,14.23
		C-261.86,1655.19-258.5,1651.23-256.92,1646.26z"/>
</g>
<g>
	
		<ellipse transform="matrix(0.8357 -0.5492 0.5492 0.8357 -968.3031 212.53)" class="st21" cx="-128.99" cy="1724.4" rx="27" ry="25"/>
	<path class="st22" d="M-103.12,1727.76c-1.98,5.42-5.75,10.37-11.09,13.88c-12.46,8.19-28.71,5.48-36.29-6.06
		c-3.61-5.49-4.6-12-3.31-18.19c-2.63,7.21-2.07,15.25,2.26,21.84c7.58,11.54,23.83,14.25,36.29,6.06
		C-108.73,1741-104.55,1734.57-103.12,1727.76z"/>
</g>
<g>
	<ellipse class="st21" cx="-76.21" cy="1534.78" rx="18.08" ry="14.54"/>
	<path class="st22" d="M-63.9,1524.13c2.49,2.49,3.98,5.65,3.98,9.1c0,8.03-8.1,14.54-18.08,14.54c-4.76,0-9.08-1.48-12.31-3.89
		c3.31,3.32,8.4,5.44,14.1,5.44c9.99,0,18.08-6.51,18.08-14.54C-58.12,1530.57-60.35,1526.79-63.9,1524.13z"/>
</g>
<g>
	
		<ellipse transform="matrix(0.5456 -0.8381 0.8381 0.5456 -1362.7983 721.2515)" class="st21" cx="-16.32" cy="1617.28" rx="15.32" ry="17.49"/>
	<path class="st22" d="M-21.37,1601.55c3.66-0.13,7.54,0.88,11.01,3.14c8.1,5.27,10.92,15.29,6.3,22.38
		c-2.2,3.38-5.69,5.48-9.61,6.18c4.88-0.18,9.37-2.39,12.01-6.44c4.62-7.09,1.79-17.11-6.3-22.38
		C-12.21,1601.68-17.05,1600.77-21.37,1601.55z"/>
</g>
<g>
	
		<ellipse transform="matrix(0.5845 -0.8114 0.8114 0.5845 -1486.677 592.1862)" class="st21" cx="-165.16" cy="1747.6" rx="3.8" ry="4.2"/>
	<path class="st22" d="M-161.21,1747.01c0.09,0.87-0.11,1.74-0.64,2.47c-1.23,1.7-3.75,1.99-5.63,0.63c-0.9-0.65-1.49-1.55-1.73-2.5
		c0.12,1.15,0.75,2.3,1.83,3.07c1.88,1.36,4.4,1.07,5.63-0.63C-161.11,1749.16-160.95,1748.05-161.21,1747.01z"/>
</g>
<g>
	<ellipse class="st21" cx="-108.19" cy="1675.78" rx="4.2" ry="3.8"/>
	<path class="st22" d="M-105.33,1673c0.58,0.65,0.93,1.48,0.93,2.38c0,2.1-1.88,3.8-4.2,3.8c-1.1,0-2.11-0.39-2.86-1.02
		c0.77,0.87,1.95,1.42,3.28,1.42c2.32,0,4.2-1.7,4.2-3.8C-103.99,1674.68-104.51,1673.69-105.33,1673z"/>
</g>
<g>
	<ellipse class="st21" cx="-129.36" cy="1584.52" rx="4.2" ry="3.8"/>
	<path class="st22" d="M-126.5,1581.74c0.58,0.65,0.93,1.48,0.93,2.38c0,2.1-1.88,3.8-4.2,3.8c-1.1,0-2.11-0.39-2.86-1.02
		c0.77,0.87,1.95,1.42,3.28,1.42c2.32,0,4.2-1.7,4.2-3.8C-125.16,1583.42-125.68,1582.43-126.5,1581.74z"/>
</g>
<g>
	
		<ellipse transform="matrix(0.9757 -0.2193 0.2193 0.9757 -361.3912 36.8678)" class="st21" cx="-14.64" cy="1646.2" rx="4.2" ry="3.8"/>
	<path class="st22" d="M-12.46,1642.86c0.71,0.51,1.23,1.24,1.42,2.12c0.46,2.05-1,4.12-3.26,4.63c-1.08,0.24-2.14,0.09-3.01-0.37
		c0.94,0.68,2.22,0.96,3.51,0.67c2.26-0.51,3.73-2.58,3.26-4.63C-10.78,1644.21-11.5,1643.35-12.46,1642.86z"/>
</g>
<g>
	
		<ellipse transform="matrix(0.9596 -0.2812 0.2812 0.9596 -485.1133 -8.9224)" class="st21" cx="-273.64" cy="1685.7" rx="6.06" ry="4.2"/>
	<path class="st22" d="M-268.58,1687.2c-0.83,0.85-2,1.55-3.38,1.95c-3.21,0.94-6.34-0.1-7-2.33c-0.31-1.06,0-2.2,0.75-3.2
		c-1.11,1.13-1.63,2.51-1.26,3.78c0.65,2.23,3.79,3.27,7,2.33C-270.78,1689.24-269.41,1688.3-268.58,1687.2z"/>
</g>
<g>
	
		<ellipse transform="matrix(0.9217 -0.3878 0.3878 0.9217 -690.9011 56.1311)" class="st21" cx="-206.38" cy="1739.8" rx="7.88" ry="7.62"/>
	<path class="st22" d="M-199.05,1742.34c-0.84,1.49-2.17,2.73-3.89,3.46c-4.01,1.69-8.59-0.09-10.22-3.97
		c-0.78-1.85-0.75-3.84-0.07-5.6c-1.12,1.98-1.35,4.41-0.41,6.62c1.63,3.88,6.21,5.66,10.22,3.97
		C-201.33,1745.94-199.8,1744.28-199.05,1742.34z"/>
</g>
<g>
	<ellipse class="st21" cx="-58.12" cy="1490.33" rx="12.85" ry="13.86"/>
	<path class="st22" d="M-49.38,1480.17c1.77,2.38,2.83,5.39,2.83,8.67c0,7.66-5.75,13.86-12.85,13.86c-3.38,0-6.45-1.41-8.75-3.71
		c2.35,3.16,5.97,5.19,10.02,5.19c7.1,0,12.85-6.21,12.85-13.86C-45.27,1486.32-46.85,1482.7-49.38,1480.17z"/>
</g>
<g>
	
		<ellipse transform="matrix(0.911 -0.4124 0.4124 0.911 -684.1772 25.0924)" class="st21" cx="-283.96" cy="1597.62" rx="7.27" ry="8.11"/>
	<path class="st22" d="M-276.83,1600.45c-0.67,1.53-1.84,2.79-3.41,3.5c-3.66,1.66-8.12-0.31-9.97-4.39
		c-0.88-1.94-1.01-4.01-0.5-5.83c-0.9,2.04-0.93,4.55,0.13,6.88c1.85,4.08,6.31,6.04,9.97,4.39
		C-278.7,1604.14-277.38,1602.45-276.83,1600.45z"/>
</g>
<g>
	
		<ellipse transform="matrix(0.7828 -0.6222 0.6222 0.7828 -1041.5918 168.3789)" class="st21" cx="-279.58" cy="1576.36" rx="5.31" ry="5.42"/>
	<path class="st22" d="M-274.24,1576.83c-0.25,1.15-0.87,2.22-1.86,3c-2.3,1.82-5.67,1.4-7.53-0.94c-0.89-1.12-1.27-2.47-1.18-3.77
		c-0.33,1.53,0.01,3.21,1.08,4.55c1.86,2.34,5.24,2.77,7.53,0.94C-275,1579.65-274.33,1578.27-274.24,1576.83z"/>
</g>
<g>
	<ellipse class="st21" cx="-84.85" cy="1507.99" rx="4.2" ry="3.8"/>
	<path class="st22" d="M-81.99,1505.21c0.58,0.65,0.93,1.48,0.93,2.38c0,2.1-1.88,3.8-4.2,3.8c-1.1,0-2.11-0.39-2.86-1.02
		c0.77,0.87,1.95,1.42,3.28,1.42c2.32,0,4.2-1.7,4.2-3.8C-80.65,1506.89-81.16,1505.9-81.99,1505.21z"/>
</g>
<g>
	<ellipse class="st21" cx="-35.84" cy="1500.39" rx="4.2" ry="3.8"/>
	<path class="st22" d="M-32.98,1497.6c0.58,0.65,0.93,1.48,0.93,2.38c0,2.1-1.88,3.8-4.2,3.8c-1.1,0-2.11-0.39-2.86-1.02
		c0.77,0.87,1.95,1.42,3.28,1.42c2.32,0,4.2-1.7,4.2-3.8C-31.64,1499.29-32.16,1498.3-32.98,1497.6z"/>
</g>
<radialGradient id="SVGID_16_" cx="-99.5312" cy="1625.1133" r="41.3422" gradientUnits="userSpaceOnUse">
	<stop  offset="0" style="stop-color:#FFFFFF"/>
	<stop  offset="1" style="stop-color:#FFFFFF;stop-opacity:0.2"/>
</radialGradient>
<ellipse class="st23" cx="-99.53" cy="1625.11" rx="37.43" ry="44.92"/>
<g>
	<ellipse class="st21" cx="-99.53" cy="1625.11" rx="32.17" ry="37.54"/>
	<path class="st22" d="M-77.63,1597.62c4.43,6.43,7.08,14.6,7.08,23.49c0,20.73-14.4,37.54-32.17,37.54
		c-8.46,0-16.15-3.82-21.9-10.05c5.9,8.56,14.94,14.05,25.09,14.05c17.77,0,32.17-16.81,32.17-37.54
		C-67.36,1614.25-71.32,1604.48-77.63,1597.62z"/>
</g>
<radialGradient id="SVGID_17_" cx="-251.4067" cy="1699.6757" r="16.6562" gradientUnits="userSpaceOnUse">
	<stop  offset="0" style="stop-color:#FFFFFF"/>
	<stop  offset="1" style="stop-color:#FFFFFF;stop-opacity:0.2"/>
</radialGradient>
<ellipse class="st24" cx="-251.41" cy="1699.68" rx="16.18" ry="17.12"/>
<g>
	
		<ellipse transform="matrix(0.9274 -0.3742 0.3742 0.9274 -654.3639 28.8338)" class="st21" cx="-252.92" cy="1699.68" rx="11.69" ry="12.5"/>
	<path class="st22" d="M-241.8,1704.36c-1.21,2.35-3.19,4.25-5.76,5.29c-5.99,2.42-12.94-0.81-15.52-7.22
		c-1.23-3.05-1.25-6.27-0.28-9.06c-1.62,3.12-1.89,7.02-0.41,10.68c2.58,6.4,9.53,9.63,15.52,7.22
		C-245.11,1710-242.86,1707.44-241.8,1704.36z"/>
</g>
<radialGradient id="SVGID_18_" cx="-211.174" cy="1614.7523" r="34.1521" gradientUnits="userSpaceOnUse">
	<stop  offset="0" style="stop-color:#FFFFFF"/>
	<stop  offset="1" style="stop-color:#FFFFFF;stop-opacity:0.2"/>
</radialGradient>
<ellipse class="st25" cx="-211.17" cy="1614.75" rx="33.31" ry="34.97"/>
<g>
	
		<ellipse transform="matrix(0.8646 -0.5024 0.5024 0.8646 -840.3441 112.6332)" class="st21" cx="-211.17" cy="1615.63" rx="28.46" ry="30.44"/>
	<path class="st22" d="M-182.74,1623.07c-2.11,6.07-6.2,11.35-12.03,14.74c-13.59,7.9-31.45,2.52-39.9-12.02
		c-4.02-6.92-5.18-14.67-3.82-21.74c-2.81,8.09-2.11,17.57,2.72,25.88c8.45,14.54,26.31,19.92,39.9,12.02
		C-188.76,1637.81-184.23,1630.85-182.74,1623.07z"/>
</g>
<radialGradient id="SVGID_19_" cx="-86.0895" cy="1465.1794" r="12.2321" gradientUnits="userSpaceOnUse">
	<stop  offset="0" style="stop-color:#FFFFFF"/>
	<stop  offset="1" style="stop-color:#FFFFFF;stop-opacity:0.2"/>
</radialGradient>
<ellipse class="st26" cx="-86.09" cy="1465.18" rx="11.87" ry="12.58"/>
<g>
	<ellipse class="st21" cx="-85.95" cy="1465.23" rx="10.04" ry="9.67"/>
	<path class="st22" d="M-79.12,1458.14c1.38,1.66,2.21,3.76,2.21,6.05c0,5.34-4.49,9.67-10.04,9.67c-2.64,0-5.04-0.98-6.83-2.59
		c1.84,2.21,4.66,3.62,7.83,3.62c5.54,0,10.04-4.33,10.04-9.67C-75.91,1462.43-77.15,1459.91-79.12,1458.14z"/>
</g>
<radialGradient id="SVGID_20_" cx="-664.4255" cy="872.1127" r="6.0306" gradientTransform="matrix(0.7378 -0.675 0.675 0.7378 -108.4687 465.259)" gradientUnits="userSpaceOnUse">
	<stop  offset="0" style="stop-color:#FFFFFF"/>
	<stop  offset="1" style="stop-color:#FFFFFF;stop-opacity:0.2"/>
</radialGradient>
<circle class="st27" cx="-9.95" cy="1557.2" r="6.03"/>
<g>
	
		<ellipse transform="matrix(0.9999 -0.0143 0.0143 0.9999 -22.2197 9.628281e-03)" class="st21" cx="-10.44" cy="1557.2" rx="3.8" ry="4.2"/>
	<path class="st22" d="M-13.26,1554.38c0.64-0.59,1.47-0.95,2.37-0.96c2.1-0.03,3.83,1.83,3.86,4.15c0.02,1.1-0.36,2.11-0.98,2.87
		c0.86-0.78,1.4-1.97,1.38-3.3c-0.03-2.32-1.76-4.18-3.86-4.15C-11.6,1553.01-12.58,1553.55-13.26,1554.38z"/>
</g>
<radialGradient id="SVGID_21_" cx="290.12" cy="-107.56" r="72.2049" fx="361.1151" fy="-94.398" gradientUnits="userSpaceOnUse">
	<stop  offset="0" style="stop-color:#FFFFFF"/>
	<stop  offset="1" style="stop-color:#FFFFFF;stop-opacity:0"/>
</radialGradient>
<ellipse class="st28" cx="290.12" cy="-107.56" rx="59.76" ry="82.8"/>
<ellipse transform="matrix(0.866 -0.5 0.5 0.866 -781.9155 107.6773)" class="st14" cx="-190.03" cy="1512.91" rx="93.42" ry="53.46"/>
<ellipse transform="matrix(0.8388 -0.5445 0.5445 0.8388 -837.9203 139.8842)" class="st15" cx="-182.74" cy="1484.9" rx="45.65" ry="11.79"/>
<ellipse transform="matrix(0.8388 -0.5445 0.5445 0.8388 -871.9767 110.7777)" class="st15" cx="-248.92" cy="1527.86" rx="13.07" ry="12.93"/>
<linearGradient id="SVGID_22_" gradientUnits="userSpaceOnUse" x1="1099.8857" y1="1366.4047" x2="1743.4847" y2="1737.9867">
	<stop  offset="0" style="stop-color:#F9C732"/>
	<stop  offset="1" style="stop-color:#DF2A00"/>
</linearGradient>
<linearGradient id="SVGID_23_" gradientUnits="userSpaceOnUse" x1="1049.6652" y1="1552.1957" x2="1793.7052" y2="1552.1957">
	<stop  offset="0" style="stop-color:#A258ED"/>
	<stop  offset="0.2821" style="stop-color:#A258ED"/>
	<stop  offset="1" style="stop-color:#BA32C6"/>
</linearGradient>
<circle class="st29" cx="1421.69" cy="1552.2" r="371.52"/>
<path class="st30" d="M1745.25,1369.51c-1.51,7.5-3.01,14.99-4.63,22.44c-10.62,48.74-27.87,103.5-74.15,129.75
	c-24.91,14.13-53.95,17.52-81.92,13.51c-0.47-0.11-0.98-0.19-1.56-0.24c-2.42-0.37-4.84-0.79-7.24-1.27
	c-23.34-6-59.85-30.61-96.67-46.14c-1.56-0.76-3.18-1.42-4.83-1.99c0,0,0,0,0,0l0,0c-4.63-1.61-9.59-2.49-14.76-2.49
	c-22.47,0-41.1,16.48-44.46,38.01l0,0c0,0,0,0.01,0,0.01c-0.35,2.28-0.54,4.61-0.54,6.98c0,3.52,0.42,6.94,1.18,10.22
	c1.46,14.25,6.08,34.66,20.47,64.54c7,15.08,15.89,29.14,21.61,44.88c8.77,24.11,2.39,49.66-14.48,68.37
	c-18.61,20.64-46.8,27.69-73.47,28.92c-19.17,0.88-38.2-2.11-57.31-2.94c-15.77-0.68-32.05-0.94-47.86,0.59
	c-5.1,0.93-10.1,2.19-14.99,3.88c-3.88,1.97-7.59,4.19-11.17,6.66c-11.63,10.12-20.87,22.66-32.47,32.82
	c-11.32,9.91-22.11,16.79-36.25,21.87c-4.77,1.71-9.6,2.73-14.46,3.24c67.5,69.44,161.91,112.58,266.4,112.58
	c205.18,0,371.52-166.34,371.52-371.52C1793.21,1485.79,1775.77,1423.45,1745.25,1369.51z"/>
<radialGradient id="SVGID_24_" cx="1467.1531" cy="1540.8181" r="39.235" gradientUnits="userSpaceOnUse">
	<stop  offset="0" style="stop-color:#FFFFFF"/>
	<stop  offset="1" style="stop-color:#FFFFFF;stop-opacity:0.2"/>
</radialGradient>
<ellipse class="st31" cx="1467.15" cy="1540.82" rx="36.6" ry="41.7"/>
<g>
	<ellipse class="st32" cx="1675.55" cy="1581.5" rx="46.94" ry="51.03"/>
	<path class="st33" d="M1688.71,1532.52c14.52,8.68,24.37,25.46,24.37,44.75c0,28.18-21.02,51.03-46.94,51.03
		c-4.57,0-8.98-0.72-13.16-2.05c6.7,4,14.39,6.28,22.57,6.28c25.93,0,46.94-22.85,46.94-51.03
		C1722.49,1558.28,1708.23,1538.7,1688.71,1532.52z"/>
</g>
<g>
	<ellipse class="st32" cx="1467.98" cy="1541.71" rx="32.83" ry="35"/>
	<path class="st33" d="M1477.18,1508.12c10.16,5.95,17.04,17.46,17.04,30.69c0,19.33-14.7,35-32.83,35c-3.2,0-6.28-0.5-9.21-1.4
		c4.68,2.74,10.06,4.31,15.79,4.31c18.13,0,32.83-15.67,32.83-35C1500.8,1525.79,1490.83,1512.36,1477.18,1508.12z"/>
</g>
<g>
	
		<ellipse transform="matrix(0.9999 -0.0173 0.0173 0.9999 -29.262 20.5732)" class="st32" cx="1173.15" cy="1699.71" rx="32.47" ry="29.77"/>
	<path class="st33" d="M1204.46,1707.51c-5.36,9.3-15.93,15.73-28.2,15.94c-17.93,0.31-32.7-12.76-32.98-29.2
		c-0.05-2.9,0.36-5.7,1.16-8.37c-2.47,4.29-3.84,9.19-3.75,14.38c0.28,16.44,15.05,29.51,32.98,29.2
		C1188.43,1729.21,1200.73,1719.95,1204.46,1707.51z"/>
</g>
<g>
	
		<ellipse transform="matrix(0.9196 -0.3929 0.3929 0.9196 -406.538 714.1288)" class="st32" cx="1541.15" cy="1350.12" rx="40.34" ry="27"/>
	<path class="st33" d="M1541.36,1321.84c13.28-0.68,24.55,4.16,28.56,13.54c5.86,13.71-6,31.92-26.49,40.68
		c-3.61,1.54-7.25,2.68-10.83,3.45c6.13-0.31,12.68-1.8,19.14-4.57c20.49-8.75,32.35-26.97,26.49-40.68
		C1573.42,1322.98,1558.07,1318.27,1541.36,1321.84z"/>
</g>
<g>
	
		<ellipse transform="matrix(0.8936 -0.4489 0.4489 0.8936 -492.3967 933.386)" class="st32" cx="1722.49" cy="1505.25" rx="13.94" ry="12.16"/>
	<path class="st33" d="M1720.75,1493.07c4.78-0.09,9.19,2.17,11.25,6.28c3.01,6-0.12,13.67-7,17.12c-1.21,0.61-2.46,1.04-3.71,1.32
		c2.21-0.04,4.49-0.58,6.66-1.67c6.88-3.46,10.01-11.12,7-17.12C1732.46,1494.05,1726.59,1491.79,1720.75,1493.07z"/>
</g>
<g>
	
		<ellipse transform="matrix(0.7808 -0.6248 0.6248 0.7808 -867.4504 1248.9685)" class="st32" cx="1346.08" cy="1860.62" rx="11.97" ry="13.72"/>
	<path class="st33" d="M1357.45,1856.44c1.06,4.59-0.21,9.29-3.74,12.12c-5.16,4.13-13.18,2.68-17.92-3.23
		c-0.83-1.04-1.51-2.16-2.03-3.3c0.49,2.11,1.48,4.2,2.97,6.07c4.73,5.92,12.75,7.36,17.92,3.23
		C1358.9,1867.92,1359.88,1861.8,1357.45,1856.44z"/>
</g>
<g>
	
		<ellipse transform="matrix(0.9337 -0.3581 0.3581 0.9337 -527.3604 513.0993)" class="st32" cx="1121.77" cy="1680.51" rx="11.97" ry="13.72"/>
	<path class="st33" d="M1133.87,1679.99c-0.38,4.69-3.03,8.79-7.25,10.41c-6.17,2.37-13.37-1.45-16.09-8.52
		c-0.48-1.25-0.78-2.51-0.93-3.76c-0.18,2.16,0.13,4.45,0.99,6.69c2.71,7.07,9.91,10.89,16.09,8.52
		C1131.77,1691.37,1134.56,1685.83,1133.87,1679.99z"/>
</g>
<g>
	
		<ellipse transform="matrix(0.9204 -0.3909 0.3909 0.9204 -516.1453 547.9256)" class="st32" cx="1087.74" cy="1541.71" rx="11.97" ry="13.72"/>
	<path class="st33" d="M1099.81,1540.76c-0.21,4.7-2.71,8.89-6.88,10.66c-6.08,2.58-13.42-0.97-16.38-7.95
		c-0.52-1.23-0.87-2.48-1.06-3.73c-0.1,2.17,0.29,4.45,1.22,6.65c2.96,6.97,10.29,10.53,16.38,7.95
		C1098.11,1552.21,1100.71,1546.58,1099.81,1540.76z"/>
</g>
<g>
	
		<ellipse transform="matrix(0.9854 -0.1701 0.1701 0.9854 -258.594 308.4259)" class="st32" cx="1671.19" cy="1663.8" rx="13.94" ry="12.16"/>
	<path class="st33" d="M1673.05,1651.63c4.6,1.3,8.16,4.75,8.94,9.28c1.14,6.62-4.08,13.04-11.67,14.35
		c-1.34,0.23-2.66,0.28-3.93,0.18c2.12,0.6,4.46,0.75,6.86,0.34c7.58-1.31,12.81-7.73,11.67-14.35
		C1683.98,1655.98,1679.01,1652.1,1673.05,1651.63z"/>
</g>
<g>
	<ellipse class="st32" cx="1587.85" cy="1598.06" rx="13.72" ry="11.97"/>
	<path class="st33" d="M1591.7,1586.57c4.24,2.03,7.12,5.97,7.12,10.49c0,6.61-6.14,11.97-13.72,11.97c-1.34,0-2.63-0.17-3.85-0.48
		c1.96,0.94,4.21,1.47,6.6,1.47c7.58,0,13.72-5.36,13.72-11.97C1601.57,1592.61,1597.4,1588.02,1591.7,1586.57z"/>
</g>
<g>
	<ellipse class="st32" cx="1452.19" cy="1591.96" rx="13.72" ry="11.97"/>
	<path class="st33" d="M1456.04,1580.47c4.24,2.03,7.12,5.97,7.12,10.49c0,6.61-6.14,11.97-13.72,11.97c-1.34,0-2.63-0.17-3.85-0.48
		c1.96,0.94,4.21,1.47,6.6,1.47c7.58,0,13.72-5.36,13.72-11.97C1465.91,1586.51,1461.74,1581.92,1456.04,1580.47z"/>
</g>
<g>
	
		<ellipse transform="matrix(0.895 -0.446 0.446 0.895 -414.0328 805.3669)" class="st32" cx="1503.76" cy="1282.18" rx="13.94" ry="12.16"/>
	<path class="st33" d="M1502.05,1269.99c4.78-0.07,9.18,2.2,11.23,6.31c3,6.01-0.16,13.66-7.05,17.1c-1.21,0.61-2.46,1.04-3.72,1.31
		c2.21-0.03,4.49-0.57,6.67-1.65c6.89-3.43,10.05-11.09,7.05-17.1C1513.76,1271.01,1507.89,1268.73,1502.05,1269.99z"/>
</g>
<g>
	
		<ellipse transform="matrix(0.8889 -0.4581 0.4581 0.8889 -570.0164 793.2233)" class="st32" cx="1350.41" cy="1571.83" rx="12.16" ry="13.94"/>
	<path class="st33" d="M1362.57,1569.96c0.14,4.78-2.08,9.21-6.16,11.32c-5.97,3.08-13.67,0.02-17.19-6.82
		c-0.62-1.21-1.07-2.45-1.36-3.7c0.06,2.2,0.63,4.48,1.74,6.64c3.53,6.84,11.22,9.89,17.19,6.82
		C1361.71,1581.69,1363.91,1575.79,1362.57,1569.96z"/>
</g>
<g>
	
		<ellipse transform="matrix(0.2301 -0.9732 0.9732 0.2301 -466.8745 2921.365)" class="st32" cx="1612.91" cy="1755.75" rx="23.58" ry="25.05"/>
	<path class="st33" d="M1624.95,1735.35c6.62,5.68,9.95,14.44,7.9,23.11c-3,12.67-16.34,20.36-29.81,17.18
		c-2.37-0.56-4.59-1.43-6.62-2.54c3.05,2.62,6.81,4.59,11.06,5.6c13.47,3.18,26.81-4.51,29.81-17.18
		C1639.75,1751.08,1634.43,1740.53,1624.95,1735.35z"/>
</g>
<g>
	
		<ellipse transform="matrix(0.8348 -0.5505 0.5505 0.8348 -532.7647 1037.3866)" class="st32" cx="1462.51" cy="1406.59" rx="25.45" ry="23.95"/>
	<path class="st33" d="M1455.81,1383.47c8.82-0.94,17.61,2.7,22.59,10.26c7.28,11.04,3.67,26.27-8.06,34.01
		c-2.07,1.36-4.25,2.4-6.49,3.13c4.07-0.43,8.14-1.83,11.84-4.28c11.74-7.74,15.35-22.96,8.06-34.01
		C1477.76,1383.48,1466.24,1380.07,1455.81,1383.47z"/>
</g>
<g>
	
		<ellipse transform="matrix(0.9957 -0.0929 0.0929 0.9957 -147.254 118.7973)" class="st32" cx="1202.91" cy="1641.72" rx="23.58" ry="25.05"/>
	<path class="st33" d="M1226.1,1646.62c-3.27,8.09-10.5,14.04-19.38,14.87c-12.96,1.21-24.52-8.98-25.8-22.76
		c-0.23-2.43-0.11-4.81,0.29-7.08c-1.51,3.73-2.18,7.92-1.77,12.26c1.28,13.78,12.84,23.96,25.8,22.76
		C1215.92,1665.67,1224.22,1657.25,1226.1,1646.62z"/>
</g>
<radialGradient id="SVGID_25_" cx="1173.1478" cy="1553.6821" r="39.235" gradientUnits="userSpaceOnUse">
	<stop  offset="0" style="stop-color:#FFFFFF"/>
	<stop  offset="1" style="stop-color:#FFFFFF;stop-opacity:0.2"/>
</radialGradient>
<ellipse class="st34" cx="1173.15" cy="1553.68" rx="36.6" ry="41.7"/>
<g>
	
		<ellipse transform="matrix(0.3188 -0.9478 0.9478 0.3188 -676.9761 2172.8206)" class="st32" cx="1173.15" cy="1557.38" rx="31.89" ry="29.68"/>
	<path class="st33" d="M1197.3,1574.94c-7.93,7.74-19.32,10.97-29.95,7.4c-15.54-5.23-23.58-23-17.97-39.69
		c0.99-2.94,2.35-5.65,3.98-8.1c-3.66,3.57-6.58,8.1-8.35,13.37c-5.62,16.69,2.43,34.47,17.97,39.69
		C1175.78,1591.92,1189.66,1586.36,1197.3,1574.94z"/>
</g>
<radialGradient id="SVGID_26_" cx="1445.5955" cy="1848.6481" r="43.4682" gradientUnits="userSpaceOnUse">
	<stop  offset="0" style="stop-color:#FFFFFF"/>
	<stop  offset="1" style="stop-color:#FFFFFF;stop-opacity:0.2"/>
</radialGradient>
<ellipse class="st35" cx="1445.6" cy="1848.65" rx="45.17" ry="41.7"/>
<g>
	
		<ellipse transform="matrix(0.7189 -0.6951 0.6951 0.7189 -878.8794 1524.0759)" class="st32" cx="1444.86" cy="1848.65" rx="34.79" ry="39.71"/>
	<path class="st33" d="M1476.61,1833.44c4.29,12.94,1.85,26.89-7.6,36.03c-13.81,13.36-37.37,11.4-52.61-4.36
		c-2.69-2.78-4.93-5.81-6.74-8.98c1.98,5.97,5.38,11.73,10.19,16.7c15.24,15.77,38.8,17.72,52.61,4.36
		C1483.84,1866.19,1485.05,1848.24,1476.61,1833.44z"/>
</g>
<radialGradient id="SVGID_27_" cx="1580.8052" cy="1300.4797" r="18.3016" gradientUnits="userSpaceOnUse">
	<stop  offset="0" style="stop-color:#FFFFFF"/>
	<stop  offset="1" style="stop-color:#FFFFFF;stop-opacity:0.2"/>
</radialGradient>
<circle class="st36" cx="1580.81" cy="1300.48" r="18.3"/>
<g>
	
		<ellipse transform="matrix(0.8773 -0.4799 0.4799 0.8773 -430.064 918.1846)" class="st32" cx="1580.81" cy="1300.24" rx="13.94" ry="12.16"/>
	<path class="st33" d="M1578.63,1288.12c4.78-0.26,9.26,1.85,11.46,5.88c3.22,5.89,0.36,13.66-6.39,17.36
		c-1.19,0.65-2.42,1.13-3.66,1.45c2.2-0.12,4.47-0.74,6.6-1.9c6.75-3.69,9.61-11.46,6.39-17.36
		C1590.38,1288.7,1584.42,1286.63,1578.63,1288.12z"/>
</g>
<radialGradient id="SVGID_28_" cx="1503.7562" cy="1571.8323" r="323.06" fx="1375.5397" fy="1868.3593" gradientUnits="userSpaceOnUse">
	<stop  offset="0" style="stop-color:#FFFFFF"/>
	<stop  offset="1" style="stop-color:#A0A0A0"/>
</radialGradient>
<path class="st37" d="M1581.54,1218.34c99.02,66.73,164.14,179.91,164.14,308.3c0,205.18-166.34,371.52-371.52,371.52
	c-57.23,0-111.44-12.95-159.86-36.06c59.23,39.92,130.58,63.22,207.38,63.22c205.18,0,371.52-166.34,371.52-371.52
	C1793.21,1405.85,1706.72,1278.1,1581.54,1218.34z"/>
<ellipse transform="matrix(0.8268 -0.5625 0.5625 0.8268 -531.2008 958.6019)" class="st14" cx="1291.14" cy="1341.95" rx="165.69" ry="98.21"/>
<ellipse transform="matrix(0.8145 -0.5801 0.5801 0.8145 -506.1362 995.41)" class="st15" cx="1303.77" cy="1289.31" rx="81.2" ry="21.6"/>
<ellipse transform="matrix(0.0669 -0.9978 0.9978 0.0669 -257.4424 2464.8215)" class="st15" cx="1189.04" cy="1370.05" rx="24.39" ry="22.58"/>
<linearGradient id="SVGID_29_" gradientUnits="userSpaceOnUse" x1="1148.506" y1="401.6122" x2="1792.105" y2="773.1943">
	<stop  offset="0" style="stop-color:#F9C732"/>
	<stop  offset="1" style="stop-color:#DF2A00"/>
</linearGradient>
<circle class="st38" cx="1470.31" cy="587.4" r="371.52"/>
<path class="st30" d="M1793.87,404.71c-1.51,7.5-3.01,14.99-4.63,22.44c-10.62,48.74-27.87,103.5-74.15,129.75
	c-24.91,14.13-53.95,17.52-81.92,13.51c-0.47-0.11-0.98-0.19-1.56-0.24c-2.42-0.37-4.84-0.79-7.24-1.27
	c-23.34-6-59.85-30.61-96.67-46.14c-1.56-0.76-3.18-1.42-4.83-1.99c0,0,0,0,0,0v0c-4.63-1.61-9.59-2.49-14.76-2.49
	c-22.47,0-41.1,16.48-44.46,38.01l0,0c0,0,0,0,0,0.01c-0.35,2.28-0.54,4.61-0.54,6.98c0,3.52,0.42,6.94,1.18,10.22
	c1.46,14.25,6.08,34.66,20.47,64.54c7,15.08,15.89,29.14,21.61,44.88c8.77,24.11,2.39,49.66-14.48,68.37
	c-18.61,20.64-46.8,27.69-73.47,28.92c-19.17,0.88-38.2-2.11-57.31-2.94c-15.77-0.68-32.05-0.94-47.86,0.59
	c-5.1,0.93-10.1,2.19-14.99,3.88c-3.88,1.97-7.59,4.19-11.17,6.66c-11.63,10.12-20.87,22.66-32.47,32.82
	c-11.32,9.91-22.11,16.79-36.25,21.87c-4.77,1.71-9.6,2.73-14.46,3.24c67.5,69.44,161.91,112.58,266.4,112.58
	c205.18,0,371.52-166.34,371.52-371.52C1841.83,520.99,1824.4,458.66,1793.87,404.71z"/>
<radialGradient id="SVGID_30_" cx="1515.7733" cy="576.0257" r="39.235" gradientUnits="userSpaceOnUse">
	<stop  offset="0" style="stop-color:#FFFFFF"/>
	<stop  offset="1" style="stop-color:#FFFFFF;stop-opacity:0.2"/>
</radialGradient>
<ellipse class="st39" cx="1515.77" cy="576.03" rx="36.6" ry="41.7"/>
<radialGradient id="SVGID_31_" cx="1221.7681" cy="588.8896" r="39.235" gradientUnits="userSpaceOnUse">
	<stop  offset="0" style="stop-color:#FFFFFF"/>
	<stop  offset="1" style="stop-color:#FFFFFF;stop-opacity:0.2"/>
</radialGradient>
<ellipse class="st40" cx="1221.77" cy="588.89" rx="36.6" ry="41.7"/>
<radialGradient id="SVGID_32_" cx="1494.2157" cy="883.8556" r="43.4682" gradientUnits="userSpaceOnUse">
	<stop  offset="0" style="stop-color:#FFFFFF"/>
	<stop  offset="1" style="stop-color:#FFFFFF;stop-opacity:0.2"/>
</radialGradient>
<ellipse class="st41" cx="1494.22" cy="883.86" rx="45.17" ry="41.7"/>
<radialGradient id="SVGID_33_" cx="1629.4254" cy="335.6873" r="18.3016" gradientUnits="userSpaceOnUse">
	<stop  offset="0" style="stop-color:#FFFFFF"/>
	<stop  offset="1" style="stop-color:#FFFFFF;stop-opacity:0.2"/>
</radialGradient>
<circle class="st42" cx="1629.43" cy="335.69" r="18.3"/>
<ellipse transform="matrix(0.8268 -0.5625 0.5625 0.8268 19.8745 818.8715)" class="st14" cx="1339.76" cy="377.16" rx="165.69" ry="98.21"/>
<ellipse transform="matrix(0.8145 -0.5801 0.5801 0.8145 62.5506 844.6932)" class="st15" cx="1352.39" cy="324.52" rx="81.2" ry="21.6"/>
<ellipse transform="matrix(0.0669 -0.9978 0.9978 0.0669 750.5607 1613.0461)" class="st15" cx="1237.66" cy="405.25" rx="24.39" ry="22.58"/>
<radialGradient id="SVGID_34_" cx="1600.1122" cy="965.8148" r="43.4682" gradientTransform="matrix(1.187 0 0 1.398 -170.511 -721.7657)" gradientUnits="userSpaceOnUse">
	<stop  offset="0" style="stop-color:#FFFFFF"/>
	<stop  offset="1" style="stop-color:#FFFFFF;stop-opacity:0.2"/>
</radialGradient>
<ellipse class="st43" cx="1728.83" cy="628.43" rx="53.61" ry="58.3"/>
<g>
	
		<ellipse transform="matrix(0.9888 -0.1495 0.1495 0.9888 -74.5097 265.4597)" class="st6" cx="1728.8" cy="628.43" rx="48.31" ry="50.12"/>
	<path class="st7" d="M1751.99,584.63c13.8,10.97,21.46,29.23,18.38,48.16c-4.43,27.22-29.39,45.48-55.75,40.78
		c-5.47-0.98-10.56-2.87-15.17-5.49c6.06,4.81,13.29,8.22,21.33,9.66c26.36,4.7,51.32-13.55,55.75-40.78
		C1780.04,615.37,1769.59,594.65,1751.99,584.63z"/>
</g>
<g>
	
		<ellipse transform="matrix(0.4736 -0.8807 0.8807 0.4736 290.5226 1638.1591)" class="st6" cx="1515.76" cy="576.03" rx="28.78" ry="29.16"/>
	<path class="st7" d="M1529.7,550.78c8.3,6.32,12.91,16.85,11.05,27.76c-2.66,15.69-17.67,26.22-33.53,23.51
		c-3.29-0.56-6.35-1.66-9.12-3.17c3.64,2.77,7.99,4.74,12.82,5.57c15.85,2.71,30.86-7.81,33.53-23.51
		C1546.57,568.5,1540.29,556.55,1529.7,550.78z"/>
</g>
<g>
	
		<ellipse transform="matrix(0.8605 -0.5095 0.5095 0.8605 -241.8295 884.6821)" class="st6" cx="1494.22" cy="883.84" rx="35.3" ry="32.81"/>
	<path class="st7" d="M1528.86,884.23c-2.76,11.83-11.98,22.2-24.86,26.25c-18.52,5.83-37.57-3.64-42.55-21.14
		c-1.03-3.63-1.37-7.32-1.1-10.94c-1.21,5.19-1.18,10.65,0.33,15.99c4.98,17.5,24.03,26.97,42.55,21.14
		C1517.91,910.91,1527.85,898.08,1528.86,884.23z"/>
</g>
<g>
	
		<ellipse transform="matrix(0.4866 -0.8736 0.8736 0.4866 315.6259 1751.157)" class="st6" cx="1647.72" cy="607.04" rx="14.39" ry="14.57"/>
	<path class="st7" d="M1654.69,594.42c4.15,3.16,6.45,8.43,5.52,13.88c-1.33,7.85-8.83,13.11-16.76,11.75
		c-1.64-0.28-3.17-0.83-4.56-1.58c1.82,1.39,3.99,2.37,6.41,2.78c7.92,1.36,15.42-3.91,16.76-11.75
		C1663.12,603.28,1659.98,597.3,1654.69,594.42z"/>
</g>
<g>
	
		<ellipse transform="matrix(0.9976 -0.0686 0.0686 0.9976 -55.185 100.5115)" class="st6" cx="1436.11" cy="853.89" rx="14.39" ry="14.57"/>
	<path class="st7" d="M1450.49,852.85c-0.39,5.2-3.55,10-8.62,12.2c-7.3,3.16-15.81-0.25-18.99-7.63c-0.66-1.53-1.04-3.11-1.16-4.68
		c-0.17,2.28,0.19,4.64,1.16,6.89c3.18,7.38,11.69,10.8,18.99,7.63C1447.67,864.75,1450.96,858.86,1450.49,852.85z"/>
</g>
<g>
	
		<ellipse transform="matrix(0.997 -0.077 0.077 0.997 -24.9526 131.4184)" class="st6" cx="1692.67" cy="389.47" rx="14.57" ry="14.39"/>
	<path class="st7" d="M1691.51,375.1c5.2,0.34,10.03,3.46,12.27,8.52c3.22,7.28-0.12,15.81-7.47,19.05c-1.53,0.67-3.1,1.06-4.67,1.2
		c2.28,0.15,4.64-0.23,6.88-1.22c7.35-3.25,10.7-11.78,7.47-19.05C1703.43,377.83,1697.51,374.58,1691.51,375.1z"/>
</g>
<g>
	
		<ellipse transform="matrix(1 -8.941501e-03 8.941501e-03 1 -2.9364 14.5829)" class="st6" cx="1629.43" cy="335.69" rx="14.57" ry="14.39"/>
	<path class="st7" d="M1629.24,321.27c5.17,0.7,9.77,4.14,11.66,9.33c2.72,7.48-1.2,15.76-8.75,18.5c-1.57,0.57-3.17,0.85-4.74,0.88
		c2.27,0.31,4.64,0.09,6.95-0.75c7.56-2.74,11.48-11.02,8.75-18.5C1640.95,324.81,1635.27,321.17,1629.24,321.27z"/>
</g>
<g>
	
		<ellipse transform="matrix(0.665 -0.7468 0.7468 0.665 -27.7666 1476.7257)" class="st6" cx="1632.28" cy="769.32" rx="34.98" ry="28.34"/>
	<path class="st7" d="M1663.11,756.29c0.67,11.12-4.79,23.5-15.14,31.91c-14.9,12.1-34.29,11.39-43.32-1.57
		c-1.87-2.69-3.14-5.7-3.86-8.88c0.29,4.88,1.76,9.52,4.51,13.47c9.03,12.96,28.42,13.67,43.32,1.57
		C1660.43,783.2,1665.86,768.45,1663.11,756.29z"/>
</g>
<g>
	
		<ellipse transform="matrix(0.6365 -0.7713 0.7713 0.6365 -168.5551 1214.2194)" class="st6" cx="1203.91" cy="785.93" rx="14.57" ry="14.39"/>
	<path class="st7" d="M1215.06,795.07c-3.86,3.51-9.45,4.82-14.65,2.92c-7.48-2.73-11.3-11.06-8.53-18.6
		c0.57-1.57,1.39-2.97,2.38-4.2c-1.69,1.54-3.05,3.5-3.9,5.8c-2.77,7.55,1.05,15.88,8.53,18.6
		C1204.83,801.76,1211.27,799.75,1215.06,795.07z"/>
</g>
<g>
	
		<ellipse transform="matrix(0.2236 -0.9747 0.9747 0.2236 233.8825 1702.8198)" class="st6" cx="1185.79" cy="704.6" rx="51.65" ry="55.03"/>
	<path class="st7" d="M1224.59,742.39c-15.81,10.59-37.38,12.55-56.3,3.32c-27.22-13.28-38.65-44.67-25.51-70.11
		c2.72-5.28,6.3-9.87,10.48-13.74c-6.93,4.65-12.77,10.94-16.77,18.7c-13.13,25.44-1.71,56.83,25.51,70.11
		C1183.58,761.19,1208.6,757.17,1224.59,742.39z"/>
</g>
<g>
	
		<ellipse transform="matrix(0.9942 -0.1075 0.1075 0.9942 -56.2382 134.792)" class="st6" cx="1221.77" cy="588.88" rx="27.8" ry="26.99"/>
	<path class="st7" d="M1244.96,603.7c-6.67,7.21-17.11,10.68-27.43,8.13c-14.86-3.66-23.85-18.36-20.09-32.83
		c0.78-3,2.05-5.75,3.71-8.21c-2.93,3.16-5.13,7.04-6.28,11.46c-3.76,14.48,5.23,29.18,20.09,32.83
		C1226.73,617.98,1238.65,613.07,1244.96,603.7z"/>
</g>
<g>
	
		<ellipse transform="matrix(0.9366 -0.3504 0.3504 0.9366 -39.1045 594.4006)" class="st6" cx="1622.96" cy="405.26" rx="28.34" ry="34.98"/>
	<path class="st7" d="M1625.82,371.91c10.15,4.6,18.56,15.19,21.16,28.28c3.75,18.82-5.92,35.65-21.59,37.59
		c-3.25,0.4-6.5,0.12-9.66-0.73c4.45,2.02,9.24,2.89,14.02,2.3c15.68-1.94,25.35-18.76,21.59-37.59
		C1648.37,386.84,1637.86,375.15,1625.82,371.91z"/>
</g>
<g>
	
		<ellipse transform="matrix(0.9286 -0.3711 0.3711 0.9286 -108.989 465.2395)" class="st6" cx="1154.28" cy="515.79" rx="28.34" ry="34.98"/>
	<path class="st7" d="M1152.16,549.2c-10.25-4.37-18.89-14.78-21.79-27.8c-4.17-18.73,5.12-35.77,20.75-38.06
		c3.24-0.47,6.5-0.27,9.67,0.51c-4.49-1.92-9.3-2.68-14.06-1.98c-15.63,2.28-24.92,19.32-20.75,38.06
		C1129.28,534.77,1140.05,546.22,1152.16,549.2z"/>
</g>
<g>
	<ellipse class="st6" cx="1150" cy="624.5" rx="6.92" ry="6.9"/>
	<path class="st7" d="M1152.44,618.02c2.16,1.2,3.59,3.54,3.52,6.19c-0.11,3.81-3.29,6.83-7.11,6.75c-0.79-0.02-1.55-0.17-2.25-0.43
		c0.95,0.53,2.04,0.84,3.2,0.87c3.82,0.08,7-2.94,7.11-6.75C1157,621.63,1155.12,619.02,1152.44,618.02z"/>
</g>
<g>
	<ellipse class="st6" cx="1390.7" cy="897.82" rx="6.92" ry="6.9"/>
	<path class="st7" d="M1393.14,891.35c2.16,1.2,3.59,3.54,3.52,6.19c-0.11,3.81-3.29,6.83-7.11,6.75c-0.79-0.02-1.55-0.17-2.25-0.43
		c0.95,0.53,2.04,0.84,3.2,0.87c3.82,0.08,7-2.94,7.11-6.75C1397.7,894.96,1395.82,892.35,1393.14,891.35z"/>
</g>
<g>
	<ellipse class="st6" cx="1566.55" cy="630.59" rx="6.92" ry="6.9"/>
	<path class="st7" d="M1569,624.12c2.16,1.2,3.59,3.54,3.52,6.19c-0.11,3.81-3.29,6.83-7.11,6.75c-0.79-0.02-1.55-0.17-2.25-0.43
		c0.95,0.53,2.04,0.84,3.2,0.87c3.82,0.08,7-2.94,7.11-6.75C1573.55,627.72,1571.68,625.11,1569,624.12z"/>
</g>
<g>
	<ellipse class="st6" cx="1675.21" cy="353.99" rx="6.92" ry="6.9"/>
	<path class="st7" d="M1677.66,347.52c2.16,1.2,3.59,3.54,3.52,6.19c-0.11,3.81-3.29,6.83-7.11,6.75c-0.79-0.02-1.55-0.17-2.25-0.43
		c0.95,0.53,2.04,0.84,3.2,0.87c3.82,0.08,7-2.94,7.11-6.75C1682.21,351.12,1680.34,348.51,1677.66,347.52z"/>
</g>
<g>
	<ellipse class="st6" cx="1734.95" cy="704.6" rx="6.92" ry="6.9"/>
	<path class="st7" d="M1737.4,698.13c2.16,1.2,3.59,3.54,3.52,6.19c-0.11,3.81-3.29,6.83-7.11,6.75c-0.79-0.02-1.55-0.17-2.25-0.43
		c0.95,0.53,2.04,0.84,3.2,0.87c3.82,0.08,7-2.94,7.11-6.75C1741.95,701.73,1740.08,699.13,1737.4,698.13z"/>
</g>
<g>
	<ellipse class="st6" cx="1581.58" cy="577.82" rx="6.92" ry="6.9"/>
	<path class="st7" d="M1584.03,571.35c2.16,1.2,3.59,3.54,3.52,6.19c-0.11,3.81-3.29,6.83-7.11,6.75c-0.79-0.02-1.55-0.17-2.25-0.43
		c0.95,0.53,2.04,0.84,3.2,0.87c3.82,0.08,7-2.94,7.11-6.75C1588.58,574.96,1586.71,572.35,1584.03,571.35z"/>
</g>
<g>
	<ellipse class="st6" cx="1269.84" cy="860.58" rx="6.92" ry="6.9"/>
	<path class="st7" d="M1272.29,854.11c2.16,1.2,3.59,3.54,3.52,6.19c-0.11,3.81-3.29,6.83-7.11,6.75c-0.79-0.02-1.55-0.17-2.25-0.43
		c0.95,0.53,2.04,0.84,3.2,0.87c3.82,0.08,7-2.94,7.11-6.75C1276.84,857.71,1274.97,855.1,1272.29,854.11z"/>
</g>
<radialGradient id="SVGID_35_" cx="1552.3765" cy="605.4337" r="323.06" fx="1424.1599" fy="901.9606" gradientUnits="userSpaceOnUse">
	<stop  offset="0" style="stop-color:#FFFFFF"/>
	<stop  offset="1" style="stop-color:#A0A0A0"/>
</radialGradient>
<path class="st44" d="M1630.16,251.94c99.02,66.73,164.14,179.91,164.14,308.3c0,205.18-166.34,371.52-371.52,371.52
	c-57.23,0-111.44-12.95-159.86-36.06c59.23,39.92,130.58,63.22,207.38,63.22c205.18,0,371.52-166.34,371.52-371.52
	C1841.83,439.45,1755.34,311.7,1630.16,251.94z"/>
</svg>
