<?xml version="1.0" encoding="utf-8"?>
<!-- Generator: Adobe Illustrator 23.0.1, SVG Export Plug-In . SVG Version: 6.00 Build 0)  -->
<svg version="1.1" id="Слой_1" xmlns="http://www.w3.org/2000/svg" xmlns:xlink="http://www.w3.org/1999/xlink" x="0px" y="0px"
	 viewBox="0 0 1920 1080" style="enable-background:new 0 0 1920 1080;" xml:space="preserve">
<style type="text/css">
	.st0{fill:url(#SVGID_1_);}
	.st1{fill:url(#SVGID_2_);}
	.st2{fill:url(#SVGID_3_);}
	.st3{opacity:0.5;}
	.st4{fill:#E60006;}
	.st5{fill:url(#SVGID_4_);}
	.st6{fill:#8C0000;}
	.st7{fill:#640000;}
	.st8{opacity:0.5;fill:url(#SVGID_5_);}
	.st9{opacity:0.5;fill:url(#SVGID_6_);}
	.st10{opacity:0.5;fill:url(#SVGID_7_);}
	.st11{opacity:0.5;fill:url(#SVGID_8_);}
	.st12{opacity:0.5;fill:url(#SVGID_9_);}
	.st13{fill:url(#SVGID_10_);}
	.st14{opacity:0.25;fill:#FFFFFF;}
	.st15{opacity:0.5;fill:#FFFFFF;}
	.st16{fill:url(#SVGID_11_);}
	.st17{fill:url(#SVGID_12_);}
	.st18{fill:url(#SVGID_13_);}
	.st19{opacity:0.5;fill:url(#SVGID_14_);}
	.st20{fill:url(#SVGID_15_);}
	.st21{fill:#008C8C;}
	.st22{fill:#006464;}
	.st23{opacity:0.5;fill:url(#SVGID_16_);}
	.st24{opacity:0.5;fill:url(#SVGID_17_);}
	.st25{opacity:0.5;fill:url(#SVGID_18_);}
	.st26{opacity:0.5;fill:url(#SVGID_19_);}
	.st27{opacity:0.5;fill:url(#SVGID_20_);}
	.st28{fill:url(#SVGID_21_);}
</style>
<linearGradient id="SVGID_1_" gradientUnits="userSpaceOnUse" x1="-86.6047" y1="2164.9006" x2="476.4058" y2="2489.9548">
	<stop  offset="0" style="stop-color:#EE2D91"/>
	<stop  offset="1" style="stop-color:#E99D00"/>
</linearGradient>
<circle class="st0" cx="194.9" cy="2327.43" r="325"/>
<linearGradient id="SVGID_2_" gradientUnits="userSpaceOnUse" x1="254.3349" y1="-436.9625" x2="306.3051" y2="-406.9575">
	<stop  offset="0" style="stop-color:#EE2D91"/>
	<stop  offset="1" style="stop-color:#E99D00"/>
</linearGradient>
<circle class="st1" cx="280.32" cy="-421.96" r="30"/>
<linearGradient id="SVGID_3_" gradientUnits="userSpaceOnUse" x1="354.5901" y1="-396.9642" x2="441.2071" y2="-346.9558">
	<stop  offset="0" style="stop-color:#EE2D91"/>
	<stop  offset="1" style="stop-color:#E99D00"/>
</linearGradient>
<circle class="st2" cx="397.9" cy="-371.96" r="50"/>
<g class="st3">
	<path class="st4" d="M489.65,2212.28c-0.22,0.51-0.44,1.03-0.67,1.56c-0.07,0.18-0.15,0.36-0.22,0.53
		C491.31,2209.38,490.39,2210.74,489.65,2212.28z"/>
	<path class="st4" d="M516.75,2282.16c-4.41,5.93-8.92,11.78-13.67,17.43c-2.76,3.28-5.63,6.43-8.61,9.45
		c-25.96,21.73-47.41,28.07-58.17,29.92c-2.35,0.28-4.85,0.54-7.46,0.76l0,0l0,0c-15.11,1.28-34.14,1.31-51.94-3.18
		c-7.73-2.7-15.3-5.88-22.83-9.1c-40.14-23.64-91.66-17.75-91.66-17.75l0.08,0.06c-0.6,0.02-1,0.05-1.11,0.06
		c0.97-0.14,1.94-0.27,2.91-0.4c-0.54-0.36-3.81,0.62-4.48,0.75c-1.95,0.37-3.88,0.8-5.8,1.31c-2.16,0.57-4.31,1.22-6.43,1.91
		c-0.52,0.17-2.22,0.84-3.24,1.22c-1.02,0.49-2.17,1.04-2.6,1.28c-1.54,0.83-3.04,1.72-4.5,2.67c-1.14,0.75-2.22,1.6-3.35,2.35
		c6.36-4.19,1.43-1.05-0.1,0.36c-1.22,1.12-2.38,2.3-3.5,3.52c-0.24,0.26-0.47,0.53-0.69,0.8c-0.83,1.57-1.4,2.31-1.69,2.54
		c-0.98,1.37-2.02,2.72-2.83,4.13c-1,1.74-1.93,3.53-2.79,5.35c-0.02,0.04-0.03,0.08-0.05,0.11c-0.98,3.03-2.23,5.97-3.12,9.04
		c-0.99,3.43-1.82,6.91-2.52,10.42c-0.29,1.43-0.55,2.86-0.79,4.3c-0.17,0.98-0.42,3.2-0.52,4.1c-0.59,6-1.11,11.98-1.31,18.02
		c-0.76,22.85,1.44,45.59,2.3,68.39c-0.3,3.16-0.54,6.64-0.72,10.47c-4.85,105.46-85.85,72.31-211.6,59.18
		c-0.08-0.04-0.17-0.08-0.25-0.12c-0.01,0-0.02,0-0.02,0c-1.54-0.04-3.06-0.25-4.57-0.51c-1.95-0.07-3.89-0.29-5.83-0.58
		c-0.98-0.04-1.99-0.08-3-0.12c-18.75-1.67-38.43-2.8-58.92-2.89c-0.03,0-0.06,0-0.09-0.01c0,0,0,0,0,0.01c-0.34,0-0.67-0.01-1-0.01
		l1.13,0.18c59.02,81.68,155.04,134.86,263.52,134.86c179.49,0,325-145.51,325-325C519.9,2312.06,518.82,2296.95,516.75,2282.16z"/>
</g>
<radialGradient id="SVGID_4_" cx="225.0745" cy="2382.5071" r="283.6214" gradientUnits="userSpaceOnUse">
	<stop  offset="0" style="stop-color:#FFFFFF"/>
	<stop  offset="1" style="stop-color:#A0A0A0"/>
</radialGradient>
<path class="st5" d="M437.7,2111.48c59.05,84.54,77.01,195.7,38.33,299.67c-62.58,168.23-249.69,253.87-417.92,191.29
	c-51.16-19.03-94.67-49.6-128.71-87.64c36.5,52.25,88.69,94.35,152.96,118.25c168.23,62.58,355.34-23.06,417.92-191.29
	C543.82,2324.7,515.58,2198.51,437.7,2111.48z"/>
<g>
	
		<ellipse transform="matrix(0.4687 -0.8834 0.8834 0.4687 -2113.5559 1562.2496)" class="st6" cx="241.91" cy="2538.11" rx="13.8" ry="13.83"/>
	<path class="st7" d="M252.3,2528.97c2.69,4.15,3.03,9.61,0.42,14.22c-3.76,6.63-12.22,8.99-18.89,5.26
		c-1.38-0.77-2.58-1.75-3.57-2.87c1.18,1.82,2.81,3.39,4.84,4.53c6.67,3.73,15.13,1.37,18.89-5.26
		C256.96,2539.6,256.1,2533.24,252.3,2528.97z"/>
</g>
<g>
	
		<ellipse transform="matrix(0.9016 -0.4327 0.4327 0.9016 -1104.1133 278.9809)" class="st6" cx="60.99" cy="2565.72" rx="13.83" ry="13.8"/>
	<path class="st7" d="M62.18,2579.5c-4.94-0.3-9.54-3.27-11.69-8.11c-3.1-6.97,0.02-15.17,6.98-18.32c1.44-0.65,2.94-1.04,4.43-1.17
		c-2.17-0.13-4.4,0.25-6.52,1.21c-6.96,3.15-10.08,11.36-6.98,18.32C50.85,2576.95,56.48,2580.03,62.18,2579.5z"/>
</g>
<g>
	<ellipse class="st6" cx="423.69" cy="2390.44" rx="19.97" ry="19.46"/>
	<path class="st7" d="M430.75,2372.2c6.24,3.4,10.37,9.97,10.16,17.43c-0.31,10.74-9.51,19.26-20.53,19.02
		c-2.29-0.05-4.47-0.48-6.5-1.21c2.74,1.49,5.88,2.37,9.24,2.44c11.03,0.24,20.22-8.28,20.53-19.02
		C443.9,2382.36,438.49,2375.01,430.75,2372.2z"/>
</g>
<g>
	<ellipse class="st6" cx="275.04" cy="2363.73" rx="14.5" ry="13.25"/>
	<path class="st7" d="M280.16,2351.31c4.53,2.31,7.53,6.79,7.37,11.87c-0.23,7.32-6.9,13.12-14.91,12.96
		c-1.66-0.03-3.25-0.32-4.72-0.82c1.99,1.01,4.27,1.61,6.71,1.66c8.01,0.16,14.68-5.64,14.91-12.96
		C289.71,2358.23,285.79,2353.22,280.16,2351.31z"/>
</g>
<g>
	
		<ellipse transform="matrix(0.3467 -0.938 0.938 0.3467 -2052.3962 2000.848)" class="st6" cx="410.12" cy="2473.75" rx="15.04" ry="13.94"/>
	<path class="st7" d="M416.14,2459.94c4.19,2.75,6.71,7.88,6.13,13.59c-0.84,8.22-7.8,14.53-15.53,14.1
		c-1.6-0.09-3.11-0.47-4.5-1.08c1.84,1.2,3.99,1.95,6.35,2.08c7.74,0.44,14.69-5.88,15.53-14.1
		C424.79,2468.02,421.42,2462.27,416.14,2459.94z"/>
</g>
<g>
	
		<ellipse transform="matrix(4.145666e-03 -1 1 4.145666e-03 -2062.3884 2720.9702)" class="st6" cx="334.94" cy="2395.96" rx="8.89" ry="9.91"/>
	<path class="st7" d="M340.49,2388.58c2.61,2.15,3.84,5.5,2.86,8.8c-1.41,4.74-6.85,7.59-12.14,6.35c-1.1-0.26-2.1-0.67-2.99-1.21
		c1.15,0.94,2.56,1.66,4.17,2.04c5.29,1.24,10.73-1.6,12.14-6.35C345.65,2394.45,343.9,2390.62,340.49,2388.58z"/>
</g>
<g>
	<ellipse class="st6" cx="475.34" cy="2344.41" rx="6.92" ry="6.9"/>
	<path class="st7" d="M477.79,2337.94c2.16,1.2,3.59,3.54,3.52,6.19c-0.11,3.81-3.29,6.83-7.11,6.75c-0.79-0.02-1.55-0.17-2.25-0.43
		c0.95,0.53,2.04,0.84,3.2,0.87c3.82,0.08,7-2.94,7.11-6.75C482.34,2341.54,480.47,2338.93,477.79,2337.94z"/>
</g>
<g>
	
		<ellipse transform="matrix(0.2451 -0.9695 0.9695 0.2451 -2411.6113 1852.3505)" class="st6" cx="-16.31" cy="2474.8" rx="32.45" ry="33.27"/>
	<path class="st7" d="M-20.26,2442.43c-11.47,2.94-20.83,11.88-23.53,24.04c-3.88,17.5,7.48,35.02,25.39,39.14
		c3.71,0.85,7.42,1.06,10.99,0.7c-5.03,1.29-10.47,1.43-15.93,0.17c-17.91-4.12-29.27-21.65-25.39-39.14
		C-45.65,2453.47-33.91,2443.79-20.26,2442.43z"/>
</g>
<g>
	
		<ellipse transform="matrix(0.9691 -0.2465 0.2465 0.9691 -571.2965 91.767)" class="st6" cx="80.83" cy="2327.42" rx="16.64" ry="16.22"/>
	<path class="st7" d="M71.38,2314.13c-4.34,4.03-6.33,10.19-4.61,16.17c2.46,8.62,11.63,13.61,20.49,11.16
		c1.84-0.51,3.51-1.3,5-2.31c-1.9,1.77-4.26,3.12-6.96,3.87c-8.85,2.45-18.03-2.54-20.49-11.16
		C62.85,2325.03,65.71,2317.98,71.38,2314.13z"/>
</g>
<g>
	
		<ellipse transform="matrix(0.0934 -0.9956 0.9956 0.0934 -2339.238 1963.0178)" class="st6" cx="-91.73" cy="2265.98" rx="8.9" ry="6.43"/>
	<path class="st7" d="M-89.53,2274.15c-2.27,0.81-4.7-0.07-6.26-2.59c-2.24-3.62-1.82-9.26,0.95-12.6c0.57-0.69,1.2-1.23,1.86-1.61
		c-0.99,0.36-1.96,1.04-2.8,2.06c-2.76,3.33-3.19,8.97-0.95,12.6C-94.96,2274.89-92.04,2275.63-89.53,2274.15z"/>
</g>
<g>
	
		<ellipse transform="matrix(0.9104 -0.4137 0.4137 0.9104 -826.7692 302.8742)" class="st6" cx="285.9" cy="2060.32" rx="16.64" ry="16.22"/>
	<path class="st7" d="M297.55,2071.73c3.56-4.73,4.43-11.14,1.69-16.74c-3.94-8.05-13.85-11.34-22.13-7.37
		c-1.72,0.83-3.23,1.9-4.51,3.16c1.56-2.07,3.64-3.83,6.17-5.04c8.28-3.98,18.19-0.68,22.13,7.37
		C304.02,2059.49,302.46,2066.93,297.55,2071.73z"/>
</g>
<g>
	<ellipse class="st6" cx="413.88" cy="2247.2" rx="6.92" ry="6.9"/>
	<path class="st7" d="M416.32,2240.73c2.16,1.2,3.59,3.54,3.52,6.19c-0.11,3.81-3.29,6.83-7.11,6.75c-0.79-0.02-1.55-0.17-2.25-0.43
		c0.95,0.53,2.04,0.84,3.2,0.87c3.82,0.08,7-2.94,7.11-6.75C420.88,2244.33,419,2241.72,416.32,2240.73z"/>
</g>
<g>
	
		<ellipse transform="matrix(0.9797 -0.2005 0.2005 0.9797 -453.4843 84.7856)" class="st6" cx="191.84" cy="2281.22" rx="23.32" ry="31.51"/>
	<path class="st7" d="M171.88,2261.25c-3.49,9.56-2.67,21.92,2.95,32.17c8.08,14.74,23.03,19.5,33.38,10.64
		c2.15-1.84,3.92-4.12,5.32-6.71c-1.53,4.19-3.89,7.85-7.05,10.55c-10.35,8.86-25.29,4.09-33.38-10.64
		C166.7,2285.58,166.53,2271.15,171.88,2261.25z"/>
</g>
<g>
	
		<ellipse transform="matrix(0.9789 -0.2045 0.2045 0.9789 -480.6126 56.7452)" class="st6" cx="34.22" cy="2353.52" rx="6.92" ry="6.9"/>
	<path class="st7" d="M33.15,2360.36c-2.36-0.74-4.24-2.73-4.71-5.34c-0.67-3.75,1.83-7.36,5.58-8.06c0.78-0.15,1.55-0.15,2.29-0.04
		c-1.04-0.32-2.17-0.41-3.31-0.19c-3.75,0.7-6.25,4.31-5.58,8.06C27.96,2357.76,30.32,2359.93,33.15,2360.36z"/>
</g>
<linearGradient id="SVGID_5_" gradientUnits="userSpaceOnUse" x1="263.8795" y1="2166.0278" x2="394.7005" y2="2166.0278">
	<stop  offset="0" style="stop-color:#FFFFFF"/>
	<stop  offset="1" style="stop-color:#FFFFFF;stop-opacity:0.2"/>
</linearGradient>
<ellipse class="st8" cx="329.29" cy="2166.03" rx="65.41" ry="71.76"/>
<g>
	
		<ellipse transform="matrix(0.536 -0.8442 0.8442 0.536 -1682.5782 1285.188)" class="st6" cx="327.89" cy="2173.3" rx="54.3" ry="52.26"/>
	<path class="st7" d="M296.83,2130.83c16.79-9.44,37.72-9.46,54.33,1.79c23.9,16.19,29.82,49.55,13.21,74.52
		c-3.44,5.18-7.59,9.58-12.21,13.17c7.37-4.14,13.94-10.08,19-17.7c16.6-24.97,10.69-58.33-13.21-74.52
		C339.01,2115.26,314.46,2117.09,296.83,2130.83z"/>
</g>
<linearGradient id="SVGID_6_" gradientUnits="userSpaceOnUse" x1="-1123.2478" y1="1583.8578" x2="-992.4267" y2="1583.8578" gradientTransform="matrix(0.7604 -0.6494 0.6494 0.7604 -280.7034 469.043)">
	<stop  offset="0" style="stop-color:#FFFFFF"/>
	<stop  offset="1" style="stop-color:#FFFFFF;stop-opacity:0.2"/>
</linearGradient>
<path class="st9" d="M-6.71,2317.95c25.74,30.14,24.34,73.59-3.13,97.05c-27.47,23.46-70.6,18.05-96.34-12.09
	c-25.74-30.14-24.34-73.59,3.13-97.05C-75.59,2282.4-32.45,2287.81-6.71,2317.95z"/>
<g>
	
		<ellipse transform="matrix(0.8285 -0.56 0.56 0.8285 -1331.2225 373.5824)" class="st6" cx="-55.75" cy="2359.96" rx="56.96" ry="64.48"/>
	<path class="st7" d="M-68.29,2297.91c-19.9,5.42-35.03,22.36-37.77,45.6c-3.93,33.42,19.27,67.18,51.82,75.4
		c6.75,1.7,13.37,2.16,19.66,1.54c-8.73,2.38-18.37,2.55-28.3,0.04c-32.55-8.22-55.76-41.97-51.82-75.4
		C-111.58,2318.59-92.34,2300.28-68.29,2297.91z"/>
</g>
<linearGradient id="SVGID_7_" gradientUnits="userSpaceOnUse" x1="-148.5876" y1="2284.0432" x2="-58.2276" y2="2284.0432" gradientTransform="matrix(0.9687 -0.2482 0.2482 0.9687 -155.2878 234.4998)">
	<stop  offset="0" style="stop-color:#FFFFFF"/>
	<stop  offset="1" style="stop-color:#FFFFFF;stop-opacity:0.2"/>
</linearGradient>
<path class="st10" d="M355.28,2461.51c5.63,21.96-9.41,44.78-33.58,50.97c-24.17,6.19-48.33-6.58-53.95-28.54
	c-5.63-21.96,9.41-44.78,33.58-50.97C325.49,2426.77,349.65,2439.55,355.28,2461.51z"/>
<g>
	
		<ellipse transform="matrix(0.8239 -0.5667 0.5667 0.8239 -1347.2 611.2397)" class="st6" cx="310.08" cy="2473.7" rx="36.48" ry="31.26"/>
	<path class="st7" d="M291.95,2504.17c11.52,2.96,25.25-0.4,35.55-9.81c14.82-13.55,16.94-34.5,4.72-46.81
		c-2.53-2.55-5.49-4.52-8.71-5.93c5.05,1.3,9.68,3.8,13.41,7.55c12.22,12.3,10.1,33.26-4.72,46.81
		C320.45,2506.71,304.25,2509.57,291.95,2504.17z"/>
</g>
<linearGradient id="SVGID_8_" gradientUnits="userSpaceOnUse" x1="252.6293" y1="2613.2825" x2="273.9224" y2="2613.2825" gradientTransform="matrix(0.9986 0.0526 -0.0526 0.9986 45.4212 -36.3826)">
	<stop  offset="0" style="stop-color:#FFFFFF"/>
	<stop  offset="1" style="stop-color:#FFFFFF;stop-opacity:0.2"/>
</linearGradient>
<circle class="st11" cx="170.75" cy="2587.14" r="10.65"/>
<g>
	
		<ellipse transform="matrix(0.6645 -0.7473 0.7473 0.6645 -1875.5393 995.8831)" class="st6" cx="171.3" cy="2586.64" rx="6.9" ry="6.92"/>
	<path class="st7" d="M177.43,2583.43c0.81,2.34,0.33,5.03-1.48,6.96c-2.61,2.78-7,2.92-9.8,0.32c-0.58-0.54-1.04-1.15-1.4-1.82
		c0.36,1.02,0.96,1.98,1.82,2.77c2.8,2.6,7.19,2.46,9.8-0.32C178.43,2589.15,178.77,2585.95,177.43,2583.43z"/>
</g>
<linearGradient id="SVGID_9_" gradientUnits="userSpaceOnUse" x1="97.4432" y1="2379.8271" x2="122.3929" y2="2379.8271">
	<stop  offset="0" style="stop-color:#FFFFFF"/>
	<stop  offset="1" style="stop-color:#FFFFFF;stop-opacity:0.2"/>
</linearGradient>
<ellipse class="st12" cx="109.92" cy="2379.83" rx="12.47" ry="15.56"/>
<g>
	
		<ellipse transform="matrix(0.2333 -0.9724 0.9724 0.2333 -2230.947 1933.2034)" class="st6" cx="110.5" cy="2381.4" rx="6.92" ry="6.9"/>
	<path class="st7" d="M116.23,2385.29c-1.68,1.82-4.28,2.67-6.83,1.98c-3.68-0.99-5.88-4.8-4.9-8.49c0.2-0.77,0.53-1.47,0.94-2.09
		c-0.73,0.8-1.29,1.78-1.59,2.91c-0.97,3.69,1.22,7.49,4.9,8.49C111.66,2388.88,114.63,2387.66,116.23,2385.29z"/>
</g>
<radialGradient id="SVGID_10_" cx="50.5942" cy="989.8136" r="35.2748" gradientTransform="matrix(4.9686 0 0 4.529 -605.1616 -2422.5359)" gradientUnits="userSpaceOnUse">
	<stop  offset="0" style="stop-color:#FFFFFF"/>
	<stop  offset="1" style="stop-color:#FFFFFF;stop-opacity:0"/>
</radialGradient>
<circle class="st13" cx="-353.78" cy="2060.32" r="166.98"/>
<ellipse transform="matrix(0.8631 -0.5051 0.5051 0.8631 -1069.7816 340.0178)" class="st14" cx="92.25" cy="2143.15" rx="168.73" ry="98.8"/>
<ellipse transform="matrix(0.8292 -0.5589 0.5589 0.8292 -1147.7885 406.4012)" class="st15" cx="91.16" cy="2081.48" rx="84" ry="21.03"/>
<ellipse transform="matrix(0.8519 -0.5237 0.5237 0.8519 -1130.7749 310.2805)" class="st15" cx="-16.83" cy="2154.27" rx="24.48" ry="21.53"/>
<linearGradient id="SVGID_11_" gradientUnits="userSpaceOnUse" x1="436.8572" y1="497.0457" x2="734.3346" y2="668.7943">
	<stop  offset="0" style="stop-color:#00FFB9"/>
	<stop  offset="0.7741" style="stop-color:#00DC46"/>
</linearGradient>
<circle class="st16" cx="585.6" cy="582.92" r="171.72"/>
<linearGradient id="SVGID_12_" gradientUnits="userSpaceOnUse" x1="652.4515" y1="-220.8842" x2="739.0685" y2="-170.8758">
	<stop  offset="0" style="stop-color:#00FFB9"/>
	<stop  offset="1" style="stop-color:#00DC46"/>
</linearGradient>
<circle class="st17" cx="695.76" cy="-195.88" r="50"/>
<linearGradient id="SVGID_13_" gradientUnits="userSpaceOnUse" x1="862.7349" y1="-160.8825" x2="914.7051" y2="-130.8775">
	<stop  offset="0" style="stop-color:#00FFB9"/>
	<stop  offset="1" style="stop-color:#00DC46"/>
</linearGradient>
<circle class="st18" cx="888.72" cy="-145.88" r="30"/>
<linearGradient id="SVGID_14_" gradientUnits="userSpaceOnUse" x1="426.4579" y1="603.9999" x2="757.3158" y2="603.9999">
	<stop  offset="1" style="stop-color:#3A52CC"/>
	<stop  offset="1" style="stop-color:#00DC46"/>
</linearGradient>
<path class="st19" d="M698.26,453.36c-0.55,2.75-0.96,5.49-1.32,8.25c-0.34,2.66-0.63,5.35-0.93,8.08v0
	c-0.9,6.47-2.05,15.3-3.88,24.34c-0.19,0.91-0.38,1.81-0.57,2.72c-2.77,12.76-6.97,25.53-13.79,32.38
	c-6.29,5.15-14.42,7.21-22.57,7.49c-6.21,0.21-12.42-0.26-18.63-0.86c-21.28-3.78-33.25-2.59-39.94-0.37
	c-0.36,0.09-0.74,0.22-1.13,0.4c-0.57,0.22-1.09,0.44-1.57,0.67c-0.91,0.32-1.77,0.7-2.58,1.13c-0.02,0.01-0.03,0.01-0.05,0.02
	c-0.02,0.01-0.03,0.02-0.04,0.03c-0.35,0.19-0.7,0.39-1.03,0.6c-0.09,0.05-0.17,0.11-0.26,0.16c-3.39,2.21-5.87,5.36-7.67,8.61
	c-5.93,10.33-7.25,24.04-7.25,24.04l0.01,0c-0.11,0.89-0.22,1.78-0.29,2.69c-0.1,1.25-0.17,2.52-0.21,3.78
	c-0.13,4.7,0.16,9.4,0.63,13.68l0,0c0,0,0,0.01,0,0.02c0.05,0.48,0.11,0.95,0.17,1.41c0.73,6.27,3.62,31.83,4.65,49.93
	c0.02,0.77,0.06,1.55,0.13,2.39c0.08,1.58,0.14,3.09,0.18,4.51c-0.17,36.44-44.58,28.68-44.59,28.68c-2.15-0.56-3.66-1.12-4.32-1.38
	c-8.34-3.64-14.73-8.11-19.97-12.6c-1.99-2.19-4.09-4.12-6.25-5.8c0,0,0,0-0.01-0.01l0,0c-16.55-12.87-36.51-11.9-36.51-11.9l0,0
	c-15.92-1.6-42.19,1.11-42.19,1.11l2.11,4.82c-0.01,0-0.04,0-0.05-0.01c0.43,0.97,0.87,1.94,1.32,2.91l0,0l0,0
	c27.3,58.68,86.77,99.36,155.76,99.36c94.84,0,171.72-76.88,171.72-171.72C757.32,531.2,734.44,484.84,698.26,453.36z"/>
<radialGradient id="SVGID_15_" cx="615.7684" cy="596.9532" r="149.8346" gradientUnits="userSpaceOnUse">
	<stop  offset="0" style="stop-color:#FFFFFF"/>
	<stop  offset="1" style="stop-color:#A0A0A0"/>
</radialGradient>
<path class="st20" d="M679.69,439.27c36.92,31.5,60.34,78.36,60.34,130.69c0,94.84-76.88,171.72-171.72,171.72
	c-34.74,0-67.07-10.33-94.09-28.07c29.99,25.58,68.87,41.03,111.38,41.03c94.84,0,171.72-76.88,171.72-171.72
	C757.32,522.82,726.44,469.95,679.69,439.27z"/>
<g>
	
		<ellipse transform="matrix(0.7958 -0.6056 0.6056 0.7958 -201.5685 512.5734)" class="st21" cx="659.23" cy="555.16" rx="9.36" ry="9"/>
	<path class="st22" d="M660.3,546.06c1.96,0.45,3.76,1.54,5.05,3.23c3.01,3.96,2.12,9.7-2,12.83c-1.96,1.49-4.29,2.12-6.53,1.94
		c2.61,0.6,5.5,0.05,7.85-1.74c4.11-3.13,5.01-8.87,2-12.83C665.1,547.42,662.76,546.25,660.3,546.06z"/>
</g>
<g>
	
		<ellipse transform="matrix(0.9427 -0.3337 0.3337 0.9427 -177.5096 184.1626)" class="st21" cx="447.24" cy="608.71" rx="17.25" ry="21.2"/>
	<path class="st22" d="M463.96,618.1c-1.81,3.74-4.76,6.64-8.61,8c-8.98,3.18-19.43-3.19-23.33-14.23
		c-1.86-5.26-1.9-10.62-0.46-15.14c-2.41,4.98-2.8,11.44-0.57,17.74c3.91,11.04,14.35,17.41,23.33,14.23
		C459.01,627.03,462.38,623.07,463.96,618.1z"/>
</g>
<g>
	
		<ellipse transform="matrix(0.8357 -0.5492 0.5492 0.8357 -285.1341 439.5023)" class="st21" cx="591.89" cy="696.24" rx="27" ry="25"/>
	<path class="st22" d="M617.76,699.6c-1.98,5.42-5.75,10.37-11.09,13.88c-12.46,8.19-28.71,5.48-36.29-6.06
		c-3.61-5.49-4.6-12-3.31-18.19c-2.63,7.21-2.07,15.25,2.26,21.84c7.58,11.54,23.83,14.25,36.29,6.06
		C612.15,712.84,616.33,706.41,617.76,699.6z"/>
</g>
<g>
	<ellipse class="st21" cx="644.67" cy="506.62" rx="18.08" ry="14.54"/>
	<path class="st22" d="M656.98,495.97c2.49,2.49,3.98,5.65,3.98,9.1c0,8.03-8.1,14.54-18.08,14.54c-4.76,0-9.08-1.48-12.31-3.89
		c3.31,3.32,8.4,5.44,14.1,5.44c9.99,0,18.08-6.51,18.08-14.54C662.76,502.41,660.53,498.63,656.98,495.97z"/>
</g>
<g>
	
		<ellipse transform="matrix(0.5456 -0.8381 0.8381 0.5456 -173.5529 858.1718)" class="st21" cx="704.56" cy="589.12" rx="15.32" ry="17.49"/>
	<path class="st22" d="M699.51,573.39c3.66-0.13,7.54,0.88,11.01,3.14c8.1,5.27,10.92,15.29,6.3,22.38
		c-2.2,3.38-5.69,5.48-9.61,6.18c4.88-0.18,9.37-2.39,12.01-6.44c4.62-7.09,1.79-17.11-6.3-22.38
		C708.67,573.52,703.83,572.61,699.51,573.39z"/>
</g>
<g>
	
		<ellipse transform="matrix(0.5845 -0.8114 0.8114 0.5845 -352.8447 749.8798)" class="st21" cx="555.72" cy="719.44" rx="3.8" ry="4.2"/>
	<path class="st22" d="M559.66,718.85c0.09,0.87-0.11,1.74-0.64,2.47c-1.23,1.7-3.75,1.99-5.63,0.63c-0.9-0.65-1.49-1.55-1.73-2.5
		c0.12,1.15,0.75,2.3,1.83,3.07c1.88,1.36,4.4,1.07,5.63-0.63C559.77,721,559.93,719.89,559.66,718.85z"/>
</g>
<g>
	<ellipse class="st21" cx="612.69" cy="647.62" rx="4.2" ry="3.8"/>
	<path class="st22" d="M615.55,644.84c0.58,0.65,0.93,1.48,0.93,2.38c0,2.1-1.88,3.8-4.2,3.8c-1.1,0-2.11-0.39-2.86-1.02
		c0.77,0.87,1.95,1.42,3.28,1.42c2.32,0,4.2-1.7,4.2-3.8C616.89,646.52,616.37,645.53,615.55,644.84z"/>
</g>
<g>
	<ellipse class="st21" cx="591.51" cy="556.36" rx="4.2" ry="3.8"/>
	<path class="st22" d="M594.37,553.58c0.58,0.65,0.93,1.48,0.93,2.38c0,2.1-1.88,3.8-4.2,3.8c-1.1,0-2.11-0.39-2.86-1.02
		c0.77,0.87,1.95,1.42,3.28,1.42c2.32,0,4.2-1.7,4.2-3.8C595.72,555.26,595.2,554.27,594.37,553.58z"/>
</g>
<g>
	
		<ellipse transform="matrix(0.9757 -0.2193 0.2193 0.9757 -118.3514 169.9353)" class="st21" cx="706.24" cy="618.04" rx="4.2" ry="3.8"/>
	<path class="st22" d="M708.42,614.7c0.71,0.51,1.23,1.24,1.42,2.12c0.46,2.05-1,4.12-3.26,4.63c-1.08,0.24-2.14,0.09-3.01-0.37
		c0.94,0.68,2.22,0.96,3.51,0.67c2.26-0.51,3.73-2.58,3.26-4.63C710.1,616.05,709.38,615.19,708.42,614.7z"/>
</g>
<g>
	
		<ellipse transform="matrix(0.9596 -0.2812 0.2812 0.9596 -166.8702 152.3139)" class="st21" cx="447.24" cy="657.54" rx="6.06" ry="4.2"/>
	<path class="st22" d="M452.3,659.04c-0.83,0.85-2,1.55-3.38,1.95c-3.21,0.94-6.34-0.1-7-2.33c-0.31-1.06,0-2.2,0.75-3.2
		c-1.11,1.13-1.63,2.51-1.26,3.78c0.65,2.23,3.79,3.27,7,2.33C450.1,661.08,451.47,660.14,452.3,659.04z"/>
</g>
<g>
	
		<ellipse transform="matrix(0.9217 -0.3878 0.3878 0.9217 -235.7267 255.2365)" class="st21" cx="514.5" cy="711.64" rx="7.88" ry="7.62"/>
	<path class="st22" d="M521.83,714.18c-0.84,1.49-2.17,2.73-3.89,3.46c-4.01,1.69-8.59-0.09-10.22-3.97
		c-0.78-1.85-0.75-3.84-0.07-5.6c-1.12,1.98-1.35,4.41-0.41,6.62c1.63,3.88,6.21,5.66,10.22,3.97
		C519.55,717.78,521.08,716.12,521.83,714.18z"/>
</g>
<g>
	<ellipse class="st21" cx="662.76" cy="462.17" rx="12.85" ry="13.86"/>
	<path class="st22" d="M671.5,452.01c1.77,2.38,2.83,5.39,2.83,8.67c0,7.66-5.75,13.86-12.85,13.86c-3.38,0-6.45-1.41-8.75-3.71
		c2.35,3.16,5.97,5.19,10.02,5.19c7.1,0,12.85-6.21,12.85-13.86C675.6,458.16,674.02,454.54,671.5,452.01z"/>
</g>
<g>
	
		<ellipse transform="matrix(0.911 -0.4124 0.4124 0.911 -195.9709 230.8865)" class="st21" cx="436.92" cy="569.46" rx="7.27" ry="8.11"/>
	<path class="st22" d="M444.05,572.29c-0.67,1.53-1.84,2.79-3.41,3.5c-3.66,1.66-8.12-0.31-9.97-4.39c-0.88-1.94-1.01-4.01-0.5-5.83
		c-0.9,2.04-0.93,4.55,0.13,6.88c1.85,4.08,6.31,6.04,9.97,4.39C442.18,575.98,443.5,574.29,444.05,572.29z"/>
</g>
<g>
	
		<ellipse transform="matrix(0.7828 -0.6222 0.6222 0.7828 -245.2725 393.6494)" class="st21" cx="441.3" cy="548.2" rx="5.31" ry="5.42"/>
	<path class="st22" d="M446.64,548.67c-0.25,1.15-0.87,2.22-1.86,3c-2.3,1.82-5.67,1.4-7.53-0.94c-0.89-1.12-1.27-2.47-1.18-3.77
		c-0.33,1.53,0.01,3.21,1.08,4.55c1.86,2.34,5.24,2.77,7.53,0.94C445.88,551.49,446.54,550.11,446.64,548.67z"/>
</g>
<g>
	<ellipse class="st21" cx="636.03" cy="479.83" rx="4.2" ry="3.8"/>
	<path class="st22" d="M638.89,477.05c0.58,0.65,0.92,1.48,0.92,2.38c0,2.1-1.88,3.8-4.2,3.8c-1.1,0-2.11-0.39-2.86-1.02
		c0.77,0.87,1.95,1.42,3.28,1.42c2.32,0,4.2-1.7,4.2-3.8C640.23,478.73,639.72,477.74,638.89,477.05z"/>
</g>
<g>
	<ellipse class="st21" cx="685.03" cy="472.23" rx="4.2" ry="3.8"/>
	<path class="st22" d="M687.89,469.44c0.58,0.65,0.93,1.48,0.93,2.38c0,2.1-1.88,3.8-4.2,3.8c-1.1,0-2.11-0.39-2.86-1.02
		c0.77,0.87,1.95,1.42,3.28,1.42c2.32,0,4.2-1.7,4.2-3.8C689.24,471.13,688.72,470.14,687.89,469.44z"/>
</g>
<linearGradient id="SVGID_16_" gradientUnits="userSpaceOnUse" x1="583.9206" y1="596.9532" x2="658.7747" y2="596.9532">
	<stop  offset="0" style="stop-color:#FFFFFF"/>
	<stop  offset="1" style="stop-color:#FFFFFF;stop-opacity:0.2"/>
</linearGradient>
<ellipse class="st23" cx="621.35" cy="596.95" rx="37.43" ry="44.92"/>
<g>
	<ellipse class="st21" cx="621.35" cy="596.95" rx="32.17" ry="37.54"/>
	<path class="st22" d="M643.24,569.46c4.43,6.43,7.08,14.6,7.08,23.49c0,20.73-14.4,37.54-32.17,37.54
		c-8.46,0-16.15-3.82-21.9-10.05c5.9,8.56,14.94,14.05,25.09,14.05c17.77,0,32.17-16.81,32.17-37.54
		C653.52,586.09,649.56,576.32,643.24,569.46z"/>
</g>
<linearGradient id="SVGID_17_" gradientUnits="userSpaceOnUse" x1="453.2878" y1="671.5157" x2="485.6565" y2="671.5157">
	<stop  offset="0" style="stop-color:#FFFFFF"/>
	<stop  offset="1" style="stop-color:#FFFFFF;stop-opacity:0.2"/>
</linearGradient>
<ellipse class="st24" cx="469.47" cy="671.52" rx="16.18" ry="17.12"/>
<g>
	
		<ellipse transform="matrix(0.9274 -0.3742 0.3742 0.9274 -217.2752 223.8837)" class="st21" cx="467.96" cy="671.52" rx="11.69" ry="12.5"/>
	<path class="st22" d="M479.08,676.2c-1.21,2.35-3.19,4.25-5.76,5.29c-5.99,2.42-12.94-0.81-15.52-7.22
		c-1.23-3.05-1.25-6.27-0.28-9.06c-1.62,3.12-1.89,7.02-0.41,10.68c2.58,6.4,9.53,9.63,15.52,7.22
		C475.77,681.84,478.02,679.28,479.08,676.2z"/>
</g>
<linearGradient id="SVGID_18_" gradientUnits="userSpaceOnUse" x1="476.3908" y1="586.5923" x2="543.0189" y2="586.5923">
	<stop  offset="0" style="stop-color:#FFFFFF"/>
	<stop  offset="1" style="stop-color:#FFFFFF;stop-opacity:0.2"/>
</linearGradient>
<ellipse class="st25" cx="509.7" cy="586.59" rx="33.31" ry="34.97"/>
<g>
	
		<ellipse transform="matrix(0.8646 -0.5024 0.5024 0.8646 -226.1594 335.6309)" class="st21" cx="509.7" cy="587.47" rx="28.46" ry="30.44"/>
	<path class="st22" d="M538.14,594.91c-2.11,6.07-6.2,11.35-12.03,14.74c-13.59,7.9-31.45,2.52-39.9-12.02
		c-4.02-6.92-5.18-14.67-3.82-21.74c-2.81,8.09-2.11,17.57,2.72,25.88c8.45,14.54,26.31,19.92,39.9,12.02
		C532.12,609.65,536.65,602.69,538.14,594.91z"/>
</g>
<linearGradient id="SVGID_19_" gradientUnits="userSpaceOnUse" x1="622.9159" y1="437.0195" x2="646.6628" y2="437.0195">
	<stop  offset="0" style="stop-color:#FFFFFF"/>
	<stop  offset="1" style="stop-color:#FFFFFF;stop-opacity:0.2"/>
</linearGradient>
<ellipse class="st26" cx="634.79" cy="437.02" rx="11.87" ry="12.58"/>
<g>
	<ellipse class="st21" cx="634.93" cy="437.07" rx="10.04" ry="9.67"/>
	<path class="st22" d="M641.76,429.98c1.38,1.66,2.21,3.76,2.21,6.05c0,5.34-4.49,9.67-10.04,9.67c-2.64,0-5.04-0.98-6.83-2.59
		c1.84,2.21,4.66,3.62,7.83,3.62c5.54,0,10.04-4.33,10.04-9.67C644.96,434.27,643.73,431.75,641.76,429.98z"/>
</g>
<linearGradient id="SVGID_20_" gradientUnits="userSpaceOnUse" x1="555.4468" y1="600.1912" x2="567.5081" y2="600.1912" gradientTransform="matrix(0.7378 -0.675 0.675 0.7378 -108.4687 465.259)">
	<stop  offset="0" style="stop-color:#FFFFFF"/>
	<stop  offset="1" style="stop-color:#FFFFFF;stop-opacity:0.2"/>
</linearGradient>
<circle class="st27" cx="710.93" cy="529.04" r="6.03"/>
<g>
	
		<ellipse transform="matrix(0.9999 -0.0143 0.0143 0.9999 -7.4762 10.1907)" class="st21" cx="710.44" cy="529.04" rx="3.8" ry="4.2"/>
	<path class="st22" d="M707.62,526.22c0.64-0.59,1.47-0.95,2.37-0.96c2.1-0.03,3.83,1.83,3.86,4.15c0.02,1.1-0.36,2.11-0.98,2.87
		c0.86-0.78,1.4-1.97,1.38-3.3c-0.03-2.32-1.76-4.18-3.86-4.15C709.28,524.85,708.3,525.39,707.62,526.22z"/>
</g>
<radialGradient id="SVGID_21_" cx="290.12" cy="-107.56" r="72.2049" fx="361.1151" fy="-94.398" gradientUnits="userSpaceOnUse">
	<stop  offset="0" style="stop-color:#FFFFFF"/>
	<stop  offset="1" style="stop-color:#FFFFFF;stop-opacity:0"/>
</radialGradient>
<ellipse class="st28" cx="290.12" cy="-107.56" rx="59.76" ry="82.8"/>
<ellipse transform="matrix(0.866 -0.5 0.5 0.866 -171.256 330.3694)" class="st14" cx="530.85" cy="484.75" rx="93.42" ry="53.46"/>
<ellipse transform="matrix(0.8388 -0.5445 0.5445 0.8388 -161.9233 366.6206)" class="st15" cx="538.14" cy="456.74" rx="45.65" ry="11.79"/>
<ellipse transform="matrix(0.8388 -0.5445 0.5445 0.8388 -195.9798 337.514)" class="st15" cx="471.96" cy="499.7" rx="13.07" ry="12.93"/>
</svg>
