<?xml version="1.0" encoding="utf-8"?>
<!-- Generator: Adobe Illustrator 23.0.1, SVG Export Plug-In . SVG Version: 6.00 Build 0)  -->
<svg version="1.1" id="Слой_1" xmlns="http://www.w3.org/2000/svg" xmlns:xlink="http://www.w3.org/1999/xlink" x="0px" y="0px"
	 viewBox="0 0 1920 1080" style="enable-background:new 0 0 1920 1080;" xml:space="preserve">
<style type="text/css">
	.st0{fill:url(#SVGID_1_);}
	.st1{fill:url(#SVGID_2_);}
	.st2{fill:url(#SVGID_3_);}
	.st3{fill:url(#SVGID_4_);}
	.st4{opacity:0.5;}
	.st5{fill:#E60006;}
	.st6{fill:url(#SVGID_5_);}
	.st7{fill:#8C0000;}
	.st8{fill:#640000;}
	.st9{opacity:0.5;fill:url(#SVGID_6_);}
	.st10{opacity:0.5;fill:url(#SVGID_7_);}
	.st11{opacity:0.5;fill:url(#SVGID_8_);}
	.st12{opacity:0.5;fill:url(#SVGID_9_);}
	.st13{opacity:0.5;fill:url(#SVGID_10_);}
	.st14{fill:url(#SVGID_11_);}
	.st15{opacity:0.25;fill:#FFFFFF;}
	.st16{opacity:0.5;fill:#FFFFFF;}
</style>
<linearGradient id="SVGID_1_" gradientUnits="userSpaceOnUse" x1="-566.26" y1="2356.4199" x2="566.26" y2="2356.4199">
	<stop  offset="0" style="stop-color:#FFFFFF"/>
	<stop  offset="1" style="stop-color:#0F0A3B"/>
</linearGradient>
<rect x="-566.26" y="1438.28" class="st0" width="1132.52" height="1836.28"/>
<linearGradient id="SVGID_2_" gradientUnits="userSpaceOnUse" x1="455.3748" y1="422.1929" x2="1018.3853" y2="747.2471">
	<stop  offset="0" style="stop-color:#EE2D91"/>
	<stop  offset="1" style="stop-color:#E99D00"/>
</linearGradient>
<circle class="st1" cx="736.88" cy="584.72" r="325"/>
<linearGradient id="SVGID_3_" gradientUnits="userSpaceOnUse" x1="254.3349" y1="-436.9625" x2="306.3051" y2="-406.9575">
	<stop  offset="0" style="stop-color:#EE2D91"/>
	<stop  offset="1" style="stop-color:#E99D00"/>
</linearGradient>
<circle class="st2" cx="280.32" cy="-421.96" r="30"/>
<linearGradient id="SVGID_4_" gradientUnits="userSpaceOnUse" x1="354.5901" y1="-396.9642" x2="441.2071" y2="-346.9558">
	<stop  offset="0" style="stop-color:#EE2D91"/>
	<stop  offset="1" style="stop-color:#E99D00"/>
</linearGradient>
<circle class="st3" cx="397.9" cy="-371.96" r="50"/>
<g class="st4">
	<path class="st5" d="M1031.63,469.57c-0.22,0.51-0.44,1.04-0.67,1.56c-0.07,0.18-0.15,0.36-0.22,0.53
		C1033.29,466.67,1032.37,468.04,1031.63,469.57z"/>
	<path class="st5" d="M1058.73,539.45c-4.41,5.93-8.92,11.78-13.67,17.43c-2.76,3.28-5.63,6.43-8.61,9.45
		c-25.96,21.73-47.41,28.07-58.17,29.92c-2.35,0.28-4.85,0.54-7.46,0.76l0,0l0,0c-15.11,1.28-34.14,1.31-51.94-3.18
		c-7.73-2.7-15.3-5.88-22.83-9.1c-40.14-23.64-91.66-17.75-91.66-17.75l0.08,0.06c-0.6,0.02-1,0.05-1.11,0.06
		c0.97-0.13,1.94-0.27,2.91-0.4c-0.54-0.36-3.81,0.62-4.48,0.75c-1.95,0.37-3.88,0.8-5.8,1.31c-2.16,0.57-4.31,1.22-6.43,1.91
		c-0.52,0.17-2.22,0.84-3.24,1.22c-1.02,0.49-2.17,1.04-2.6,1.28c-1.54,0.83-3.04,1.72-4.5,2.67c-1.14,0.75-2.22,1.6-3.35,2.35
		c6.36-4.19,1.43-1.05-0.1,0.36c-1.22,1.12-2.38,2.3-3.5,3.52c-0.24,0.26-0.47,0.53-0.69,0.8c-0.83,1.57-1.4,2.31-1.69,2.54
		c-0.98,1.37-2.02,2.72-2.83,4.13c-1,1.74-1.93,3.53-2.79,5.35c-0.02,0.04-0.03,0.08-0.05,0.11c-0.98,3.03-2.23,5.97-3.12,9.04
		c-0.99,3.43-1.82,6.91-2.52,10.42c-0.29,1.43-0.55,2.86-0.79,4.3c-0.17,0.98-0.42,3.2-0.52,4.1c-0.59,6-1.11,11.98-1.31,18.02
		c-0.76,22.85,1.44,45.59,2.3,68.39c-0.3,3.16-0.54,6.64-0.72,10.47c-4.85,105.46-85.85,72.31-211.6,59.18
		c-0.08-0.04-0.17-0.08-0.25-0.12c-0.01,0-0.02,0-0.02,0c-1.54-0.04-3.06-0.25-4.57-0.51c-1.95-0.07-3.89-0.29-5.83-0.58
		c-0.98-0.04-1.99-0.08-3-0.12c-18.75-1.67-38.43-2.8-58.92-2.89c-0.03,0-0.06,0-0.09-0.01c0,0,0,0,0,0.01c-0.34,0-0.67-0.01-1-0.01
		l1.13,0.18c59.02,81.68,155.04,134.86,263.52,134.86c179.49,0,325-145.51,325-325C1061.88,569.35,1060.8,554.24,1058.73,539.45z"/>
</g>
<radialGradient id="SVGID_5_" cx="767.054" cy="638.6918" r="283.6214" gradientUnits="userSpaceOnUse">
	<stop  offset="0" style="stop-color:#FFFFFF"/>
	<stop  offset="1" style="stop-color:#A0A0A0"/>
</radialGradient>
<path class="st6" d="M979.68,367.66c59.05,84.54,77.01,195.7,38.33,299.67C955.42,835.56,768.31,921.2,600.08,858.62
	c-51.16-19.03-94.67-49.6-128.71-87.64c36.5,52.25,88.69,94.35,152.96,118.25c168.23,62.58,355.34-23.06,417.92-191.29
	C1085.8,580.88,1057.56,454.69,979.68,367.66z"/>
<g>
	
		<ellipse transform="matrix(0.4687 -0.8834 0.8834 0.4687 -286.1347 1115.077)" class="st7" cx="783.89" cy="795.4" rx="13.8" ry="13.83"/>
	<path class="st8" d="M794.27,786.26c2.69,4.15,3.03,9.61,0.42,14.22c-3.76,6.63-12.22,8.99-18.89,5.26
		c-1.38-0.77-2.58-1.75-3.57-2.87c1.18,1.82,2.81,3.39,4.84,4.53c6.67,3.73,15.13,1.37,18.89-5.26
		C798.94,796.89,798.08,790.53,794.27,786.26z"/>
</g>
<g>
	
		<ellipse transform="matrix(0.9016 -0.4327 0.4327 0.9016 -296.7326 341.9127)" class="st7" cx="602.97" cy="823.01" rx="13.83" ry="13.8"/>
	<path class="st8" d="M604.16,836.79c-4.94-0.3-9.54-3.27-11.69-8.11c-3.1-6.97,0.02-15.17,6.98-18.32
		c1.44-0.65,2.94-1.04,4.43-1.17c-2.17-0.13-4.4,0.25-6.52,1.21c-6.96,3.15-10.08,11.36-6.98,18.32
		C592.83,834.24,598.46,837.32,604.16,836.79z"/>
</g>
<g>
	<ellipse class="st7" cx="965.67" cy="647.74" rx="19.97" ry="19.46"/>
	<path class="st8" d="M972.73,629.5c6.24,3.4,10.37,9.97,10.16,17.43c-0.31,10.74-9.51,19.26-20.53,19.02
		c-2.29-0.05-4.47-0.48-6.5-1.21c2.74,1.49,5.88,2.37,9.24,2.44c11.03,0.24,20.22-8.28,20.53-19.02
		C985.88,639.65,980.47,632.3,972.73,629.5z"/>
</g>
<g>
	<ellipse class="st7" cx="817.02" cy="621.03" rx="14.5" ry="13.25"/>
	<path class="st8" d="M822.14,608.6c4.53,2.31,7.53,6.79,7.37,11.87c-0.23,7.32-6.9,13.12-14.91,12.96
		c-1.66-0.03-3.25-0.32-4.72-0.82c1.99,1.01,4.27,1.61,6.71,1.66c8.01,0.16,14.68-5.64,14.91-12.96
		C831.69,615.52,827.76,610.51,822.14,608.6z"/>
</g>
<g>
	
		<ellipse transform="matrix(0.3467 -0.938 0.938 0.3467 -63.6742 1370.6635)" class="st7" cx="952.1" cy="731.04" rx="15.04" ry="13.94"/>
	<path class="st8" d="M958.12,717.23c4.19,2.75,6.71,7.88,6.13,13.59c-0.84,8.22-7.8,14.53-15.53,14.1c-1.6-0.09-3.11-0.47-4.5-1.08
		c1.84,1.2,3.99,1.95,6.35,2.08c7.74,0.44,14.69-5.88,15.53-14.1C966.77,725.31,963.4,719.56,958.12,717.23z"/>
</g>
<g>
	
		<ellipse transform="matrix(4.145666e-03 -1 1 4.145666e-03 220.037 1527.4619)" class="st7" cx="876.92" cy="653.26" rx="8.89" ry="9.91"/>
	<path class="st8" d="M882.47,645.87c2.61,2.15,3.84,5.5,2.86,8.8c-1.41,4.74-6.85,7.59-12.14,6.35c-1.1-0.26-2.1-0.67-2.99-1.21
		c1.15,0.94,2.56,1.66,4.17,2.04c5.29,1.24,10.73-1.6,12.14-6.35C887.63,651.74,885.88,647.91,882.47,645.87z"/>
</g>
<g>
	<ellipse class="st7" cx="1017.32" cy="601.7" rx="6.92" ry="6.9"/>
	<path class="st8" d="M1019.77,595.23c2.16,1.2,3.59,3.54,3.52,6.19c-0.11,3.81-3.29,6.83-7.11,6.75c-0.79-0.02-1.55-0.17-2.25-0.43
		c0.95,0.53,2.04,0.84,3.2,0.87c3.82,0.08,7-2.94,7.11-6.75C1024.32,598.83,1022.45,596.22,1019.77,595.23z"/>
</g>
<g>
	
		<ellipse transform="matrix(0.2451 -0.9695 0.9695 0.2451 -312.9453 1062.27)" class="st7" cx="525.67" cy="732.09" rx="32.45" ry="33.27"/>
	<path class="st8" d="M521.72,699.72c-11.47,2.94-20.83,11.88-23.53,24.04c-3.88,17.5,7.48,35.02,25.39,39.14
		c3.71,0.86,7.42,1.06,10.99,0.7c-5.03,1.29-10.47,1.43-15.92,0.17c-17.91-4.12-29.27-21.65-25.39-39.14
		C496.33,710.77,508.07,701.09,521.72,699.72z"/>
</g>
<g>
	
		<ellipse transform="matrix(0.9691 -0.2465 0.2465 0.9691 -124.9281 171.5933)" class="st7" cx="622.81" cy="584.71" rx="16.64" ry="16.22"/>
	<path class="st8" d="M613.36,571.42c-4.34,4.03-6.33,10.19-4.61,16.17c2.46,8.62,11.63,13.61,20.49,11.16
		c1.84-0.51,3.51-1.3,5-2.31c-1.9,1.77-4.26,3.12-6.96,3.87c-8.85,2.45-18.03-2.54-20.49-11.16
		C604.83,582.33,607.69,575.28,613.36,571.42z"/>
</g>
<g>
	
		<ellipse transform="matrix(0.0934 -0.9956 0.9956 0.0934 -112.787 922.6833)" class="st7" cx="450.25" cy="523.27" rx="8.9" ry="6.43"/>
	<path class="st8" d="M452.45,531.45c-2.27,0.81-4.7-0.07-6.26-2.59c-2.24-3.62-1.82-9.26,0.95-12.6c0.57-0.69,1.2-1.23,1.86-1.61
		c-0.99,0.36-1.96,1.04-2.8,2.06c-2.76,3.33-3.19,8.97-0.95,12.6C447.02,532.18,449.94,532.92,452.45,531.45z"/>
</g>
<g>
	
		<ellipse transform="matrix(0.9104 -0.4137 0.4137 0.9104 -57.226 370.9637)" class="st7" cx="827.88" cy="317.61" rx="16.64" ry="16.22"/>
	<path class="st8" d="M839.53,329.02c3.56-4.73,4.43-11.14,1.69-16.74c-3.94-8.05-13.85-11.34-22.13-7.37
		c-1.72,0.83-3.23,1.9-4.51,3.16c1.56-2.07,3.64-3.83,6.17-5.04c8.28-3.98,18.19-0.68,22.13,7.37
		C846,316.78,844.44,324.22,839.53,329.02z"/>
</g>
<g>
	<ellipse class="st7" cx="955.86" cy="504.49" rx="6.92" ry="6.9"/>
	<path class="st8" d="M958.3,498.02c2.16,1.2,3.59,3.54,3.52,6.19c-0.11,3.81-3.29,6.83-7.11,6.75c-0.79-0.02-1.55-0.17-2.25-0.43
		c0.95,0.53,2.04,0.84,3.2,0.87c3.82,0.08,7-2.94,7.11-6.75C962.85,501.62,960.98,499.02,958.3,498.02z"/>
</g>
<g>
	
		<ellipse transform="matrix(0.9797 -0.2005 0.2005 0.9797 -93.0702 158.0641)" class="st7" cx="733.82" cy="538.51" rx="23.32" ry="31.51"/>
	<path class="st8" d="M713.86,518.55c-3.49,9.56-2.67,21.92,2.95,32.17c8.08,14.74,23.03,19.5,33.38,10.64
		c2.15-1.84,3.92-4.12,5.32-6.71c-1.53,4.19-3.89,7.85-7.05,10.55c-10.35,8.86-25.29,4.09-33.38-10.64
		C708.68,542.87,708.51,528.44,713.86,518.55z"/>
</g>
<g>
	
		<ellipse transform="matrix(0.9789 -0.2045 0.2045 0.9789 -112.7431 130.7536)" class="st7" cx="576.2" cy="610.82" rx="6.92" ry="6.9"/>
	<path class="st8" d="M575.13,617.65c-2.36-0.74-4.24-2.73-4.71-5.34c-0.67-3.75,1.83-7.36,5.58-8.06c0.78-0.15,1.55-0.15,2.29-0.04
		c-1.04-0.32-2.17-0.41-3.31-0.19c-3.75,0.7-6.25,4.31-5.58,8.06C569.94,615.06,572.3,617.23,575.13,617.65z"/>
</g>
<linearGradient id="SVGID_6_" gradientUnits="userSpaceOnUse" x1="805.8589" y1="423.32" x2="936.68" y2="423.32">
	<stop  offset="0" style="stop-color:#FFFFFF"/>
	<stop  offset="1" style="stop-color:#FFFFFF;stop-opacity:0.2"/>
</linearGradient>
<ellipse class="st9" cx="871.27" cy="423.32" rx="65.41" ry="71.76"/>
<g>
	
		<ellipse transform="matrix(0.536 -0.8442 0.8442 0.536 40.101 934.1412)" class="st7" cx="869.87" cy="430.59" rx="54.3" ry="52.26"/>
	<path class="st8" d="M838.81,388.12c16.79-9.44,37.72-9.46,54.33,1.79c23.9,16.19,29.82,49.55,13.21,74.52
		c-3.44,5.18-7.59,9.58-12.21,13.17c7.37-4.14,13.94-10.08,19-17.7c16.6-24.97,10.69-58.33-13.21-74.52
		C880.99,372.56,856.44,374.38,838.81,388.12z"/>
</g>
<linearGradient id="SVGID_7_" gradientUnits="userSpaceOnUse" x1="420.6772" y1="610.6838" x2="551.4983" y2="610.6838" gradientTransform="matrix(0.7604 -0.6494 0.6494 0.7604 -280.7034 469.043)">
	<stop  offset="0" style="stop-color:#FFFFFF"/>
	<stop  offset="1" style="stop-color:#FFFFFF;stop-opacity:0.2"/>
</linearGradient>
<path class="st10" d="M535.27,575.24c25.74,30.14,24.34,73.59-3.13,97.05s-70.6,18.05-96.34-12.09
	c-25.74-30.14-24.34-73.59,3.13-97.05S509.53,545.1,535.27,575.24z"/>
<g>
	
		<ellipse transform="matrix(0.8285 -0.56 0.56 0.8285 -262.2781 378.1811)" class="st7" cx="486.23" cy="617.25" rx="56.96" ry="64.48"/>
	<path class="st8" d="M473.69,555.2c-19.9,5.42-35.03,22.36-37.77,45.6c-3.93,33.42,19.27,67.18,51.82,75.4
		c6.75,1.7,13.37,2.16,19.66,1.54c-8.73,2.38-18.37,2.55-28.3,0.04c-32.55-8.22-55.76-41.97-51.82-75.4
		C430.4,575.89,449.64,557.57,473.69,555.2z"/>
</g>
<linearGradient id="SVGID_8_" gradientUnits="userSpaceOnUse" x1="809.0209" y1="730.416" x2="899.3809" y2="730.416" gradientTransform="matrix(0.9687 -0.2482 0.2482 0.9687 -155.2878 234.4998)">
	<stop  offset="0" style="stop-color:#FFFFFF"/>
	<stop  offset="1" style="stop-color:#FFFFFF;stop-opacity:0.2"/>
</linearGradient>
<path class="st11" d="M897.25,718.8c5.63,21.96-9.41,44.78-33.58,50.97c-24.17,6.19-48.33-6.58-53.95-28.54
	c-5.63-21.96,9.41-44.78,33.58-50.97C867.47,684.07,891.63,696.84,897.25,718.8z"/>
<g>
	
		<ellipse transform="matrix(0.8239 -0.5667 0.5667 0.8239 -264.2247 611.5453)" class="st7" cx="852.06" cy="731" rx="36.48" ry="31.26"/>
	<path class="st8" d="M833.93,761.46c11.52,2.96,25.25-0.4,35.55-9.81c14.82-13.55,16.94-34.5,4.72-46.81
		c-2.53-2.55-5.49-4.52-8.71-5.93c5.05,1.3,9.68,3.8,13.41,7.55c12.22,12.3,10.1,33.26-4.72,46.81
		C862.43,764,846.23,766.86,833.93,761.46z"/>
</g>
<linearGradient id="SVGID_9_" gradientUnits="userSpaceOnUse" x1="702.1059" y1="844.4572" x2="723.3989" y2="844.4572" gradientTransform="matrix(0.9986 0.0526 -0.0526 0.9986 45.4212 -36.3826)">
	<stop  offset="0" style="stop-color:#FFFFFF"/>
	<stop  offset="1" style="stop-color:#FFFFFF;stop-opacity:0.2"/>
</linearGradient>
<circle class="st12" cx="712.73" cy="844.43" r="10.65"/>
<g>
	
		<ellipse transform="matrix(0.6645 -0.7473 0.7473 0.6645 -391.357 816.1935)" class="st7" cx="713.28" cy="843.93" rx="6.9" ry="6.92"/>
	<path class="st8" d="M719.4,840.72c0.81,2.34,0.33,5.03-1.48,6.96c-2.61,2.78-7,2.92-9.8,0.32c-0.58-0.54-1.04-1.15-1.4-1.82
		c0.36,1.02,0.96,1.98,1.82,2.77c2.8,2.6,7.19,2.46,9.8-0.32C720.41,846.44,720.75,843.25,719.4,840.72z"/>
</g>
<linearGradient id="SVGID_10_" gradientUnits="userSpaceOnUse" x1="639.4227" y1="637.1194" x2="664.3723" y2="637.1194">
	<stop  offset="0" style="stop-color:#FFFFFF"/>
	<stop  offset="1" style="stop-color:#FFFFFF;stop-opacity:0.2"/>
</linearGradient>
<ellipse class="st13" cx="651.9" cy="637.12" rx="12.47" ry="15.56"/>
<g>
	
		<ellipse transform="matrix(0.2333 -0.9724 0.9724 0.2333 -120.8222 1124.1401)" class="st7" cx="652.48" cy="638.69" rx="6.92" ry="6.9"/>
	<path class="st8" d="M658.21,642.58c-1.68,1.82-4.28,2.67-6.84,1.98c-3.68-0.99-5.88-4.8-4.9-8.49c0.2-0.77,0.53-1.47,0.94-2.09
		c-0.73,0.8-1.29,1.78-1.59,2.91c-0.97,3.69,1.22,7.49,4.9,8.49C653.64,646.17,656.61,644.96,658.21,642.58z"/>
</g>
<radialGradient id="SVGID_11_" cx="69.7671" cy="592.2421" r="35.2748" gradientTransform="matrix(4.9686 0 0 4.529 -605.1616 -2422.5359)" gradientUnits="userSpaceOnUse">
	<stop  offset="0" style="stop-color:#FFFFFF"/>
	<stop  offset="1" style="stop-color:#FFFFFF;stop-opacity:0"/>
</radialGradient>
<circle class="st14" cx="-258.52" cy="259.72" r="166.98"/>
<ellipse transform="matrix(0.8631 -0.5051 0.5051 0.8631 -115.4136 375.1479)" class="st15" cx="634.23" cy="400.45" rx="168.73" ry="98.8"/>
<ellipse transform="matrix(0.8292 -0.5589 0.5589 0.8292 -83.9578 427.7277)" class="st16" cx="657.97" cy="351.26" rx="84" ry="21.03"/>
<ellipse transform="matrix(0.8519 -0.5237 0.5237 0.8519 -138.8986 352.3922)" class="st16" cx="553.55" cy="421.76" rx="24.48" ry="21.53"/>
</svg>
