<svg xmlns="http://www.w3.org/2000/svg" xmlns:xlink="http://www.w3.org/1999/xlink" viewBox="0 0 650.85 651.11"><defs><style>.cls-1{isolation:isolate;}.cls-2{fill:url(#Безымянный_градиент_3);}.cls-10,.cls-11,.cls-12,.cls-14,.cls-3,.cls-8,.cls-9{opacity:0.5;}.cls-4{fill:#e60006;}.cls-5{mix-blend-mode:overlay;fill:url(#Безымянный_градиент_33);}.cls-6{fill:#8c0000;}.cls-7{fill:#640000;}.cls-8{fill:url(#Безымянный_градиент_25);}.cls-9{fill:url(#Безымянный_градиент_25-2);}.cls-10{fill:url(#Безымянный_градиент_25-3);}.cls-11{fill:url(#Безымянный_градиент_25-4);}.cls-12{fill:url(#Безымянный_градиент_25-5);}.cls-13,.cls-14{fill:#fff;}.cls-13{opacity:0.25;}</style><linearGradient id="Безымянный_градиент_3" x1="43.49" y1="162.47" x2="606.51" y2="487.53" gradientUnits="userSpaceOnUse"><stop offset="0" stop-color="#ee2d91"/><stop offset="1" stop-color="#e99d00"/></linearGradient><radialGradient id="Безымянный_градиент_33" cx="355.17" cy="380.08" fx="540.6274071136008" fy="165.49101801857168" r="283.62" gradientUnits="userSpaceOnUse"><stop offset="0" stop-color="#fff"/><stop offset="1" stop-color="#a0a0a0"/></radialGradient><radialGradient id="Безымянный_градиент_25" cx="459.39" cy="163.6" r="68.66" gradientUnits="userSpaceOnUse"><stop offset="0" stop-color="#fff"/><stop offset="1" stop-color="#fff" stop-opacity="0.2"/></radialGradient><radialGradient id="Безымянный_градиент_25-2" cx="-580.69" cy="128.28" r="68.66" gradientTransform="translate(654.34 229.72)" xlink:href="#Безымянный_градиент_25"/><radialGradient id="Безымянный_градиент_25-3" cx="193.56" cy="445.8" r="43.16" gradientTransform="translate(248.05 24.5)" xlink:href="#Безымянный_градиент_25"/><radialGradient id="Безымянный_градиент_25-4" cx="353.43" cy="582" r="10.65" gradientTransform="translate(-21.45 -15.09) rotate(3.02)" xlink:href="#Безымянный_градиент_25"/><radialGradient id="Безымянный_градиент_25-5" cx="240.02" cy="377.4" r="14.1" xlink:href="#Безымянный_градиент_25"/></defs><title>Ресурс 36</title><g class="cls-1"><g id="Слой_2" data-name="Слой 2"><g id="Слой_1-2" data-name="Слой 1"><circle class="cls-2" cx="325" cy="325" r="325"/><g class="cls-3"><path class="cls-4" d="M619.75,209.85c-.22.51-.44,1-.67,1.55-.07.18-.14.36-.22.54C621.41,207,620.49,208.32,619.75,209.85Z"/><path class="cls-4" d="M646.85,279.73c-4.41,5.92-8.92,11.78-13.67,17.43-2.76,3.27-5.63,6.43-8.61,9.44-26,21.73-47.42,28.08-58.18,29.93-2.35.27-4.84.53-7.45.75h0c-15.12,1.28-34.14,1.31-51.94-3.18-7.73-2.7-15.3-5.88-22.83-9.1-40.14-23.64-91.66-17.75-91.66-17.75l.09.06c-.61,0-1,.05-1.12.06l2.91-.41c-.54-.36-3.81.63-4.48.75-2,.38-3.88.81-5.8,1.31-2.16.57-4.31,1.22-6.43,1.91-.52.17-2.21.84-3.24,1.22s-2.16,1-2.6,1.28q-2.31,1.24-4.51,2.67c-1.14.75-2.21,1.6-3.35,2.35,6.36-4.19,1.43-1.05-.1.37q-1.81,1.68-3.5,3.51c-.24.26-.46.53-.69.8a9.2,9.2,0,0,1-1.69,2.54,47.44,47.44,0,0,0-2.83,4.14c-1,1.74-1.93,3.53-2.79,5.35a.37.37,0,0,0-.05.11c-1,3-2.23,6-3.12,9-1,3.44-1.82,6.92-2.52,10.42-.29,1.43-.55,2.87-.8,4.3-.16,1-.42,3.2-.52,4.1-.59,6-1.11,12-1.31,18-.76,22.85,1.44,45.6,2.3,68.39-.3,3.16-.55,6.64-.72,10.47-4.85,105.46-85.85,72.31-211.6,59.18l-.26-.13a0,0,0,0,1,0,0,31.63,31.63,0,0,1-4.57-.5,56.77,56.77,0,0,1-5.82-.58l-3-.12c-18.75-1.67-38.42-2.8-58.92-2.89H60.35l1.13.18C120.5,596.82,216.52,650,325,650c179.49,0,325-145.51,325-325A326.43,326.43,0,0,0,646.85,279.73Z"/></g><path class="cls-5" d="M567.8,109.05c59.05,84.54,77,195.71,38.33,299.67C543.54,577,356.43,662.59,188.2,600A323.41,323.41,0,0,1,59.5,512.37a323.38,323.38,0,0,0,153,118.25c168.23,62.59,355.34-23,417.92-191.28C673.92,322.27,645.68,196.08,567.8,109.05Z"/><ellipse class="cls-6" cx="372.01" cy="535.68" rx="13.8" ry="13.83" transform="translate(-275.55 613.24) rotate(-62.05)"/><path class="cls-7" d="M382.39,526.54a13.67,13.67,0,0,1,.42,14.22,13.91,13.91,0,0,1-22.46,2.4,13.8,13.8,0,0,0,4.84,4.53,13.94,13.94,0,0,0,18.89-5.26A13.7,13.7,0,0,0,382.39,526.54Z"/><ellipse class="cls-6" cx="191.09" cy="563.29" rx="13.83" ry="13.8" transform="translate(-224.91 138.13) rotate(-25.64)"/><path class="cls-7" d="M192.28,577.07a13.69,13.69,0,0,1-11.7-8.11A13.9,13.9,0,0,1,192,549.47a13.66,13.66,0,0,0-6.52,1.21,13.92,13.92,0,0,0-7,18.32A13.69,13.69,0,0,0,192.28,577.07Z"/><ellipse class="cls-6" cx="553.79" cy="388.02" rx="19.97" ry="19.46"/><path class="cls-7" d="M560.85,369.78A19.22,19.22,0,0,1,571,387.21a19.91,19.91,0,0,1-20.54,19A20.14,20.14,0,0,1,544,405a20.25,20.25,0,0,0,9.24,2.44c11,.23,20.22-8.29,20.53-19A19.31,19.31,0,0,0,560.85,369.78Z"/><ellipse class="cls-6" cx="405.14" cy="361.31" rx="14.5" ry="13.25"/><path class="cls-7" d="M410.26,348.88a13,13,0,0,1,7.38,11.88c-.23,7.31-6.91,13.11-14.91,12.95a15.53,15.53,0,0,1-4.72-.82,15.5,15.5,0,0,0,6.71,1.66c8,.16,14.68-5.64,14.91-12.95C419.81,355.8,415.88,350.79,410.26,348.88Z"/><ellipse class="cls-6" cx="540.22" cy="471.32" rx="15.04" ry="13.94" transform="translate(-89.15 814.64) rotate(-69.72)"/><path class="cls-7" d="M546.24,457.51a14.34,14.34,0,0,1,6.13,13.59c-.84,8.22-7.8,14.53-15.53,14.1a12.86,12.86,0,0,1-4.5-1.08,12.89,12.89,0,0,0,6.35,2.09c7.74.43,14.69-5.88,15.54-14.1A14.12,14.12,0,0,0,546.24,457.51Z"/><ellipse class="cls-6" cx="465.04" cy="393.54" rx="8.89" ry="9.91" transform="translate(69.58 856.94) rotate(-89.76)"/><path class="cls-7" d="M470.59,386.15a8.28,8.28,0,0,1,2.86,8.8c-1.41,4.74-6.85,7.59-12.14,6.35a10.37,10.37,0,0,1-3-1.21,10.29,10.29,0,0,0,4.18,2c5.29,1.24,10.73-1.61,12.14-6.35A8.41,8.41,0,0,0,470.59,386.15Z"/><ellipse class="cls-6" cx="605.44" cy="341.98" rx="6.92" ry="6.9"/><path class="cls-7" d="M607.89,335.51a6.83,6.83,0,0,1,3.51,6.19,7,7,0,0,1-7.11,6.74A6.71,6.71,0,0,1,602,348a7,7,0,0,0,10.31-5.89A6.83,6.83,0,0,0,607.89,335.51Z"/><ellipse class="cls-6" cx="113.79" cy="472.37" rx="32.45" ry="33.27" transform="translate(-372.07 466.9) rotate(-75.81)"/><path class="cls-7" d="M109.84,440a32,32,0,0,0-23.53,24c-3.89,17.5,7.48,35,25.39,39.14a33.6,33.6,0,0,0,11,.7,33.67,33.67,0,0,1-15.92.18c-17.91-4.13-29.27-21.65-25.39-39.15A32.21,32.21,0,0,1,109.84,440Z"/><ellipse class="cls-6" cx="210.93" cy="324.99" rx="16.64" ry="16.22" transform="translate(-73.61 62.03) rotate(-14.27)"/><path class="cls-7" d="M201.48,311.7a16,16,0,0,0-4.61,16.18A16.58,16.58,0,0,0,217.35,339a16.83,16.83,0,0,0,5-2.31,16.81,16.81,0,0,1-27.45-7.28A16.13,16.13,0,0,1,201.48,311.7Z"/><ellipse class="cls-6" cx="38.37" cy="263.55" rx="8.9" ry="6.43" transform="translate(-227.61 277.14) rotate(-84.64)"/><path class="cls-7" d="M40.57,271.73c-2.27.81-4.7-.07-6.26-2.59a11.55,11.55,0,0,1,.95-12.6,7.1,7.1,0,0,1,1.86-1.61,6.53,6.53,0,0,0-2.8,2.06,11.53,11.53,0,0,0-1,12.59C35.14,272.46,38.06,273.2,40.57,271.73Z"/><ellipse class="cls-6" cx="416" cy="57.89" rx="16.64" ry="16.22" transform="translate(13.32 177.29) rotate(-24.44)"/><path class="cls-7" d="M427.65,69.3a16,16,0,0,0,1.69-16.73A16.59,16.59,0,0,0,407.2,45.2a16.92,16.92,0,0,0-4.51,3.16,16.83,16.83,0,0,1,6.17-5A16.6,16.6,0,0,1,431,50.68,16.11,16.11,0,0,1,427.65,69.3Z"/><ellipse class="cls-6" cx="543.98" cy="244.77" rx="6.92" ry="6.9"/><path class="cls-7" d="M546.42,238.3a6.87,6.87,0,0,1,3.52,6.19,7,7,0,0,1-9.36,6.32,6.76,6.76,0,0,0,3.2.86,7,7,0,0,0,7.11-6.75A6.86,6.86,0,0,0,546.42,238.3Z"/><ellipse class="cls-6" cx="321.94" cy="278.79" rx="23.32" ry="31.51" transform="translate(-49.36 70.21) rotate(-11.57)"/><path class="cls-7" d="M302,258.83c-3.49,9.56-2.67,21.92,2.95,32.16,8.08,14.74,23,19.5,33.38,10.64a23.43,23.43,0,0,0,5.32-6.71,25,25,0,0,1-7.05,10.56c-10.35,8.85-25.29,4.09-33.37-10.65C296.8,283.15,296.63,268.72,302,258.83Z"/><ellipse class="cls-6" cx="164.32" cy="351.1" rx="6.92" ry="6.9" transform="translate(-68.33 41.03) rotate(-11.8)"/><path class="cls-7" d="M163.25,357.93a6.86,6.86,0,0,1-4.71-5.34,7,7,0,0,1,5.58-8.06,7.06,7.06,0,0,1,2.29,0,7,7,0,0,0-8.89,7.87A6.85,6.85,0,0,0,163.25,357.93Z"/><ellipse class="cls-8" cx="459.39" cy="163.6" rx="65.41" ry="71.76"/><ellipse class="cls-6" cx="457.99" cy="170.87" rx="54.3" ry="52.26" transform="translate(68.25 465.92) rotate(-57.59)"/><path class="cls-7" d="M426.93,128.4c16.79-9.44,37.71-9.46,54.33,1.79,23.9,16.19,29.81,49.55,13.21,74.52a55.78,55.78,0,0,1-12.21,13.17,55.42,55.42,0,0,0,19-17.7c16.6-25,10.68-58.33-13.22-74.51C469.11,112.84,444.56,114.66,426.93,128.4Z"/><ellipse class="cls-9" cx="73.65" cy="358" rx="65.41" ry="71.76" transform="translate(-214.86 133.61) rotate(-40.5)"/><ellipse class="cls-6" cx="74.35" cy="357.53" rx="56.96" ry="64.48" transform="translate(-187.48 102.96) rotate(-34.06)"/><path class="cls-7" d="M61.81,295.48c-19.9,5.42-35,22.36-37.77,45.6-3.93,33.42,19.27,67.17,51.83,75.39A57.08,57.08,0,0,0,95.53,418a55.44,55.44,0,0,1-28.3,0c-32.55-8.21-55.76-42-51.82-75.39C18.52,316.17,37.76,297.85,61.81,295.48Z"/><ellipse class="cls-10" cx="441.61" cy="470.3" rx="45.18" ry="41.04" transform="translate(-102.92 124.34) rotate(-14.37)"/><ellipse class="cls-6" cx="440.18" cy="471.28" rx="36.48" ry="31.26" transform="translate(-189.56 332.42) rotate(-34.52)"/><path class="cls-7" d="M422.05,501.74c11.52,3,25.25-.4,35.55-9.81,14.83-13.55,16.94-34.51,4.72-46.81a28,28,0,0,0-8.7-5.93,28.73,28.73,0,0,1,13.4,7.55c12.22,12.3,10.11,33.26-4.72,46.81C450.55,504.28,434.35,507.14,422.05,501.74Z"/><circle class="cls-11" cx="300.85" cy="584.71" r="10.65"/><ellipse class="cls-6" cx="301.4" cy="584.21" rx="6.9" ry="6.92" transform="translate(-335.46 421.25) rotate(-48.36)"/><path class="cls-7" d="M307.52,581a6.83,6.83,0,0,1-1.48,7,7,7,0,0,1-9.8.32,6.89,6.89,0,0,1-1.39-1.82,6.87,6.87,0,0,0,1.81,2.78,7,7,0,0,0,9.8-.32A6.84,6.84,0,0,0,307.52,581Z"/><ellipse class="cls-12" cx="240.02" cy="377.4" rx="12.47" ry="15.56"/><ellipse class="cls-6" cx="240.6" cy="378.97" rx="6.92" ry="6.9" transform="translate(-184.05 524.51) rotate(-76.51)"/><path class="cls-7" d="M246.33,382.86a6.86,6.86,0,0,1-6.84,2,7,7,0,0,1-4.9-8.49,6.72,6.72,0,0,1,.94-2.09,6.83,6.83,0,0,0-1.59,2.91,7,7,0,0,0,4.9,8.49A6.85,6.85,0,0,0,246.33,382.86Z"/><ellipse class="cls-13" cx="222.35" cy="140.73" rx="168.73" ry="98.8" transform="matrix(0.86, -0.51, 0.51, 0.86, -40.63, 131.57)"/><ellipse class="cls-14" cx="221.25" cy="79.06" rx="84" ry="21.03" transform="translate(-6.4 137.16) rotate(-33.98)"/><ellipse class="cls-14" cx="113.27" cy="151.84" rx="24.48" ry="21.53" transform="translate(-62.75 81.81) rotate(-31.58)"/></g></g></g></svg>