<svg xmlns="http://www.w3.org/2000/svg" xmlns:xlink="http://www.w3.org/1999/xlink" viewBox="0 0 325.68 325.68"><defs><style>.cls-1{isolation:isolate;}.cls-2{fill:url(#Безымянный_градиент_41);}.cls-10,.cls-11,.cls-13,.cls-3,.cls-7,.cls-8,.cls-9{opacity:0.5;}.cls-3{fill:url(#Безымянный_градиент_12);}.cls-4{mix-blend-mode:overlay;fill:url(#Безымянный_градиент_142);}.cls-5{fill:#008c8c;}.cls-6{fill:#006464;}.cls-7{fill:url(#Безымянный_градиент_25);}.cls-8{fill:url(#Безымянный_градиент_25-2);}.cls-9{fill:url(#Безымянный_градиент_25-3);}.cls-10{fill:url(#Безымянный_градиент_25-4);}.cls-11{fill:url(#Безымянный_градиент_25-5);}.cls-12,.cls-13{fill:#fff;}.cls-12{opacity:0.25;}</style><linearGradient id="Безымянный_градиент_41" x1="21.79" y1="81.41" x2="303.89" y2="244.28" gradientUnits="userSpaceOnUse"><stop offset="0" stop-color="#00ffb9"/><stop offset="0.77" stop-color="#00dc46"/></linearGradient><linearGradient id="Безымянный_градиент_12" x1="11.93" y1="182.83" x2="325.68" y2="182.83" gradientUnits="userSpaceOnUse"><stop offset="1" stop-color="#3a52cc"/><stop offset="1" stop-color="#00dc46"/></linearGradient><radialGradient id="Безымянный_градиент_142" cx="191.45" cy="176.15" fx="315.3082427145658" fy="106.51220311682582" r="142.09" gradientUnits="userSpaceOnUse"><stop offset="0" stop-color="#fff"/><stop offset="1" stop-color="#a0a0a0"/></radialGradient><radialGradient id="Безымянный_градиент_25" cx="196.75" cy="176.15" r="39.2" gradientUnits="userSpaceOnUse"><stop offset="0" stop-color="#fff"/><stop offset="1" stop-color="#fff" stop-opacity="0.2"/></radialGradient><radialGradient id="Безымянный_градиент_25-2" cx="52.72" cy="246.86" r="15.8" xlink:href="#Безымянный_градиент_25"/><radialGradient id="Безымянный_градиент_25-3" cx="90.87" cy="166.32" r="32.39" xlink:href="#Безымянный_градиент_25"/><radialGradient id="Безымянный_градиент_25-4" cx="209.49" cy="24.48" r="11.6" xlink:href="#Безымянный_градиент_25"/><radialGradient id="Безымянный_градиент_25-5" cx="-406.67" cy="-408.56" r="5.72" gradientTransform="translate(857.52 138.65) rotate(-42.46)" xlink:href="#Безымянный_градиент_25"/></defs><title>Ресурс 37</title><g class="cls-1"><g id="Слой_2" data-name="Слой 2"><g id="Слой_1-2" data-name="Слой 1"><circle class="cls-2" cx="162.84" cy="162.84" r="162.84"/><path class="cls-3" d="M269.68,40c-.51,2.61-.91,5.21-1.25,7.83s-.6,5.07-.88,7.66h0c-.85,6.14-1.95,14.51-3.68,23.09l-.54,2.58c-2.63,12.1-6.62,24.21-13.08,30.71-6,4.88-13.68,6.84-21.4,7.1a135.74,135.74,0,0,1-17.67-.82c-20.18-3.59-31.53-2.45-37.87-.35a5.19,5.19,0,0,0-1.08.38c-.54.2-1,.42-1.49.63a17.44,17.44,0,0,0-2.45,1.07l0,0,0,0c-.34.18-.66.37-1,.57l-.25.15a22.66,22.66,0,0,0-7.27,8.17c-5.63,9.79-6.88,22.79-6.88,22.79h0c-.11.84-.21,1.69-.28,2.54-.1,1.19-.16,2.39-.19,3.59a95.69,95.69,0,0,0,.59,13h0v0l.15,1.34c.69,5.94,3.43,30.19,4.42,47.35,0,.73.05,1.48.12,2.26.07,1.5.13,2.94.17,4.28-.17,34.56-42.28,27.2-42.29,27.2a34.64,34.64,0,0,1-4.09-1.31,74.25,74.25,0,0,1-18.94-12,46.65,46.65,0,0,0-5.93-5.5h0c-15.69-12.2-34.63-11.29-34.63-11.29h0c-15.09-1.52-40,1-40,1l2,4.57h0q.61,1.38,1.26,2.76h0A162.84,162.84,0,1,0,269.68,40Z"/><path class="cls-4" d="M252.07,26.62A162.84,162.84,0,0,1,57.23,286.78,162.84,162.84,0,1,0,252.07,26.62Z"/><ellipse class="cls-5" cx="232.67" cy="136.52" rx="8.88" ry="8.53" transform="translate(-35.16 168.77) rotate(-37.27)"/><path class="cls-6" d="M233.69,127.88a8.34,8.34,0,0,1,4.79,3.07,8.72,8.72,0,0,1-1.9,12.17,9,9,0,0,1-6.19,1.84,9,9,0,0,0,7.44-1.65,8.71,8.71,0,0,0,1.9-12.17A8.41,8.41,0,0,0,233.69,127.88Z"/><ellipse class="cls-5" cx="31.64" cy="187.3" rx="16.35" ry="20.1" transform="matrix(0.94, -0.33, 0.33, 0.94, -60.7, 21.3)"/><path class="cls-6" d="M47.49,196.2a14.55,14.55,0,0,1-8.17,7.59c-8.51,3-18.42-3-22.12-13.5a22.69,22.69,0,0,1-.44-14.36,22,22,0,0,0-.54,16.83c3.7,10.46,13.61,16.5,22.12,13.49A15.07,15.07,0,0,0,47.49,196.2Z"/><ellipse class="cls-5" cx="168.81" cy="270.3" rx="25.6" ry="23.71" transform="translate(-120.72 137.14) rotate(-33.31)"/><path class="cls-6" d="M193.34,273.49a26.73,26.73,0,0,1-10.52,13.16c-11.82,7.77-27.23,5.19-34.42-5.75a22.71,22.71,0,0,1-3.13-17.25,23,23,0,0,0,2.14,20.72c7.19,10.94,22.6,13.51,34.42,5.74A26.47,26.47,0,0,0,193.34,273.49Z"/><ellipse class="cls-5" cx="218.86" cy="90.49" rx="17.15" ry="13.79"/><path class="cls-6" d="M230.54,80.39A12.17,12.17,0,0,1,234.31,89c0,7.61-7.68,13.78-17.15,13.78a19.51,19.51,0,0,1-11.67-3.69,18.9,18.9,0,0,0,13.37,5.16c9.48,0,17.15-6.17,17.15-13.78A12.71,12.71,0,0,0,230.54,80.39Z"/><ellipse class="cls-5" cx="275.65" cy="168.72" rx="14.53" ry="16.59" transform="translate(-16.14 307.69) rotate(-56.94)"/><path class="cls-6" d="M270.87,153.81a18,18,0,0,1,10.44,3c7.68,5,10.35,14.5,6,21.23a13.58,13.58,0,0,1-9.12,5.86,13.92,13.92,0,0,0,11.38-6.11c4.38-6.72,1.71-16.22-6-21.22A17.68,17.68,0,0,0,270.87,153.81Z"/><ellipse class="cls-5" cx="134.51" cy="292.3" rx="3.61" ry="3.98" transform="translate(-181.29 230.61) rotate(-54.24)"/><path class="cls-6" d="M138.25,291.74a3.43,3.43,0,0,1-.61,2.35,3.81,3.81,0,0,1-5.34.59,4.14,4.14,0,0,1-1.63-2.36,4.15,4.15,0,0,0,1.73,2.91,3.81,3.81,0,0,0,5.34-.6A3.46,3.46,0,0,0,138.25,291.74Z"/><ellipse class="cls-5" cx="188.53" cy="224.2" rx="3.98" ry="3.61"/><path class="cls-6" d="M191.24,221.56a3.36,3.36,0,0,1,.88,2.25,3.81,3.81,0,0,1-4,3.61,4.24,4.24,0,0,1-2.72-1,4.12,4.12,0,0,0,3.11,1.35,3.81,3.81,0,0,0,4-3.6A3.42,3.42,0,0,0,191.24,221.56Z"/><ellipse class="cls-5" cx="168.45" cy="137.66" rx="3.98" ry="3.61"/><path class="cls-6" d="M171.17,135a3.37,3.37,0,0,1,.87,2.25,3.8,3.8,0,0,1-4,3.61,4.24,4.24,0,0,1-2.71-1,4.15,4.15,0,0,0,3.1,1.35,3.81,3.81,0,0,0,4-3.61A3.46,3.46,0,0,0,171.17,135Z"/><ellipse class="cls-5" cx="277.25" cy="196.15" rx="3.98" ry="3.61" transform="translate(-36.27 65.58) rotate(-12.67)"/><path class="cls-6" d="M279.32,193a3.37,3.37,0,0,1,1.35,2,3.81,3.81,0,0,1-3.1,4.39,4.17,4.17,0,0,1-2.85-.35,4.16,4.16,0,0,0,3.32.64,3.81,3.81,0,0,0,3.1-4.39A3.44,3.44,0,0,0,279.32,193Z"/><ellipse class="cls-5" cx="31.64" cy="233.61" rx="5.75" ry="3.98" transform="translate(-64.42 18.33) rotate(-16.33)"/><path class="cls-6" d="M36.44,235a7.44,7.44,0,0,1-3.21,1.85c-3,.89-6-.1-6.63-2.21a3.43,3.43,0,0,1,.71-3,3.71,3.71,0,0,0-1.19,3.58c.62,2.12,3.59,3.1,6.64,2.21A7.18,7.18,0,0,0,36.44,235Z"/><ellipse class="cls-5" cx="95.42" cy="284.91" rx="7.47" ry="7.23" transform="translate(-103.03 59.31) rotate(-22.82)"/><path class="cls-6" d="M102.37,287.32a7.61,7.61,0,0,1-3.69,3.28A7.35,7.35,0,0,1,89,286.84a7.08,7.08,0,0,1-.07-5.31,7.13,7.13,0,0,0-.39,6.28,7.35,7.35,0,0,0,9.69,3.76A7.58,7.58,0,0,0,102.37,287.32Z"/><ellipse class="cls-5" cx="236.01" cy="48.33" rx="12.18" ry="13.15"/><path class="cls-6" d="M244.31,38.7A13.81,13.81,0,0,1,247,46.93c0,7.26-5.46,13.15-12.19,13.15a11.69,11.69,0,0,1-8.29-3.52,11.85,11.85,0,0,0,9.5,4.92c6.73,0,12.19-5.89,12.19-13.15A13.62,13.62,0,0,0,244.31,38.7Z"/><ellipse class="cls-5" cx="21.86" cy="150.08" rx="6.89" ry="7.69" transform="translate(-59.95 22.37) rotate(-24.36)"/><path class="cls-6" d="M28.61,152.76a6.44,6.44,0,0,1-3.23,3.33c-3.47,1.57-7.7-.3-9.45-4.17a8.2,8.2,0,0,1-.48-5.52,8,8,0,0,0,.13,6.52c1.75,3.87,6,5.73,9.45,4.16A6.55,6.55,0,0,0,28.61,152.76Z"/><ellipse class="cls-5" cx="26.01" cy="129.92" rx="5.03" ry="5.14" transform="translate(-75.19 44.4) rotate(-38.48)"/><path class="cls-6" d="M31.07,130.36a4.94,4.94,0,0,1-1.76,2.85,5.09,5.09,0,0,1-7.14-.89A5.23,5.23,0,0,1,21,128.74a5.21,5.21,0,0,0,1,4.31,5.1,5.1,0,0,0,7.15.89A5,5,0,0,0,31.07,130.36Z"/><ellipse class="cls-5" cx="210.67" cy="65.09" rx="3.98" ry="3.61"/><path class="cls-6" d="M213.38,62.44a3.4,3.4,0,0,1,.88,2.26,3.81,3.81,0,0,1-4,3.61,4.22,4.22,0,0,1-2.72-1,4.15,4.15,0,0,0,3.11,1.35,3.8,3.8,0,0,0,4-3.6A3.46,3.46,0,0,0,213.38,62.44Z"/><ellipse class="cls-5" cx="257.14" cy="57.87" rx="3.98" ry="3.61"/><path class="cls-6" d="M259.85,55.23a3.38,3.38,0,0,1,.88,2.26,3.8,3.8,0,0,1-4,3.6,4.2,4.2,0,0,1-2.71-1,4.15,4.15,0,0,0,3.11,1.35,3.81,3.81,0,0,0,4-3.61A3.46,3.46,0,0,0,259.85,55.23Z"/><ellipse class="cls-7" cx="196.75" cy="176.15" rx="35.49" ry="42.6"/><ellipse class="cls-5" cx="196.75" cy="176.15" rx="30.51" ry="35.6"/><path class="cls-6" d="M217.51,150.08a39.27,39.27,0,0,1,6.72,22.27c0,19.66-13.66,35.6-30.51,35.6A28.22,28.22,0,0,1,173,198.42c5.6,8.13,14.17,13.33,23.8,13.33,16.84,0,30.5-15.94,30.5-35.6A38.44,38.44,0,0,0,217.51,150.08Z"/><ellipse class="cls-8" cx="52.72" cy="246.86" rx="15.35" ry="16.23"/><ellipse class="cls-5" cx="51.28" cy="246.86" rx="11.09" ry="11.85" transform="translate(-88.64 37.12) rotate(-21.97)"/><path class="cls-6" d="M61.83,251.3a10.66,10.66,0,0,1-5.45,5c-5.68,2.29-12.27-.78-14.72-6.85a12.27,12.27,0,0,1-.27-8.59A12.17,12.17,0,0,0,41,251c2.45,6.07,9,9.13,14.72,6.84A10.72,10.72,0,0,0,61.83,251.3Z"/><ellipse class="cls-9" cx="90.87" cy="166.32" rx="31.59" ry="33.16"/><ellipse class="cls-5" cx="90.87" cy="167.16" rx="26.99" ry="28.87" transform="translate(-71.68 68.29) rotate(-30.16)"/><path class="cls-6" d="M117.84,174.21a25.82,25.82,0,0,1-11.41,14c-12.89,7.49-29.83,2.39-37.84-11.4A29.91,29.91,0,0,1,65,156.18a29.63,29.63,0,0,0,2.58,24.54c8,13.78,24.95,18.88,37.84,11.39A26.15,26.15,0,0,0,117.84,174.21Z"/><ellipse class="cls-10" cx="209.49" cy="24.48" rx="11.26" ry="11.93"/><ellipse class="cls-5" cx="209.62" cy="24.53" rx="9.52" ry="9.17"/><path class="cls-6" d="M216.1,17.81a9,9,0,0,1,2.1,5.74,9.35,9.35,0,0,1-9.52,9.18,9.71,9.71,0,0,1-6.48-2.46,9.63,9.63,0,0,0,7.42,3.43,9.34,9.34,0,0,0,9.52-9.17A9,9,0,0,0,216.1,17.81Z"/><circle class="cls-11" cx="281.7" cy="111.75" r="5.72"/><ellipse class="cls-5" cx="281.24" cy="111.75" rx="3.61" ry="3.98" transform="translate(-1.57 4.02) rotate(-0.82)"/><path class="cls-6" d="M278.56,109.07a3.46,3.46,0,0,1,2.24-.91,3.82,3.82,0,0,1,3.66,3.94,4.22,4.22,0,0,1-.92,2.72,4.13,4.13,0,0,0,1.3-3.12,3.82,3.82,0,0,0-3.66-3.94A3.46,3.46,0,0,0,278.56,109.07Z"/><ellipse class="cls-12" cx="110.93" cy="69.75" rx="88.59" ry="50.7" transform="translate(-20.01 64.81) rotate(-30)"/><ellipse class="cls-13" cx="117.84" cy="43.19" rx="43.29" ry="11.18" transform="translate(-4.52 71.12) rotate(-32.99)"/><ellipse class="cls-13" cx="55.08" cy="83.92" rx="12.4" ry="12.26" transform="translate(-36.81 43.52) rotate(-32.99)"/></g></g></g></svg>