<svg xmlns="http://www.w3.org/2000/svg" xmlns:xlink="http://www.w3.org/1999/xlink" viewBox="0 0 471.45 471.45"><defs><style>.cls-1{isolation:isolate;}.cls-2{fill:url(#Безымянный_градиент_34);}.cls-3{mix-blend-mode:overlay;fill:url(#Безымянный_градиент_47);}.cls-4{fill:#b721ff;}.cls-10,.cls-11,.cls-12,.cls-13,.cls-14,.cls-15,.cls-17,.cls-4,.cls-7,.cls-8,.cls-9{opacity:0.5;}.cls-5{fill:#8a2b78;}.cls-6{fill:#762b78;}.cls-7{fill:url(#Безымянный_градиент_25);}.cls-8{fill:url(#Безымянный_градиент_25-2);}.cls-9{fill:url(#Безымянный_градиент_25-3);}.cls-10{fill:url(#Безымянный_градиент_25-4);}.cls-11{fill:url(#Безымянный_градиент_25-5);}.cls-12{fill:url(#Безымянный_градиент_25-6);}.cls-13{fill:url(#Безымянный_градиент_25-7);}.cls-14{fill:url(#Безымянный_градиент_25-8);}.cls-15{fill:url(#Безымянный_градиент_25-9);}.cls-16,.cls-17{fill:#fff;}.cls-16{opacity:0.25;}</style><linearGradient id="Безымянный_градиент_34" x1="31.55" y1="117.84" x2="439.9" y2="353.61" gradientUnits="userSpaceOnUse"><stop offset="0" stop-color="#21d4fd"/><stop offset="0.11" stop-color="#29cbfd"/><stop offset="0.29" stop-color="#3eb1fd"/><stop offset="0.53" stop-color="#6188fe"/><stop offset="0.8" stop-color="#914ffe"/><stop offset="1" stop-color="#b721ff"/></linearGradient><radialGradient id="Безымянный_градиент_47" cx="276.42" cy="255.68" r="205.16" gradientUnits="userSpaceOnUse"><stop offset="0" stop-color="#fff"/><stop offset="0.18" stop-color="#f6f6f6"/><stop offset="0.47" stop-color="#dcdcdc"/><stop offset="0.85" stop-color="#b3b3b3"/><stop offset="1" stop-color="#a0a0a0"/></radialGradient><radialGradient id="Безымянный_градиент_25" cx="167.08" cy="-407.89" r="68.66" gradientTransform="translate(-15.67 430.51) scale(0.35 0.46)" gradientUnits="userSpaceOnUse"><stop offset="0" stop-color="#fff"/><stop offset="1" stop-color="#fff" stop-opacity="0.2"/></radialGradient><radialGradient id="Безымянный_градиент_25-2" cx="661.8" cy="296.51" r="68.66" gradientTransform="translate(-204.03 204.89) scale(0.62 0.66)" xlink:href="#Безымянный_градиент_25"/><radialGradient id="Безымянный_градиент_25-3" cx="513.71" cy="179.67" r="68.66" gradientTransform="translate(158.91 242.2) scale(0.35 0.46)" xlink:href="#Безымянный_градиент_25"/><radialGradient id="Безымянный_градиент_25-4" cx="1229.97" cy="-299.86" r="68.66" gradientTransform="translate(-382.45 253.83) scale(0.58 0.45)" xlink:href="#Безымянный_градиент_25"/><radialGradient id="Безымянный_градиент_25-5" cx="854.02" cy="295.72" r="68.66" gradientTransform="translate(43.64 -33.14) scale(0.43 0.73)" xlink:href="#Безымянный_градиент_25"/><radialGradient id="Безымянный_градиент_25-6" cx="334.25" cy="-1356.92" r="68.66" gradientTransform="matrix(0.17, -0.08, 0.07, 0.15, 401.35, 452.03)" xlink:href="#Безымянный_градиент_25"/><radialGradient id="Безымянный_градиент_25-7" cx="-1045.47" cy="-1704.23" r="68.66" gradientTransform="matrix(0.17, -0.08, 0.07, 0.15, 401.35, 452.03)" xlink:href="#Безымянный_градиент_25"/><radialGradient id="Безымянный_градиент_25-8" cx="-222.11" cy="-1971.01" r="68.66" gradientTransform="translate(287.52 486.19) scale(0.15 0.17)" xlink:href="#Безымянный_градиент_25"/><radialGradient id="Безымянный_градиент_25-9" cx="1061.81" cy="-2921.46" r="62.36" gradientTransform="translate(77.68 514.95) scale(0.19 0.14)" xlink:href="#Безымянный_градиент_25"/></defs><title>Ресурс 35</title><g class="cls-1"><g id="Слой_2" data-name="Слой 2"><g id="Слой_1-2" data-name="Слой 1"><circle class="cls-2" cx="235.72" cy="235.72" r="235.72"/><path class="cls-3" d="M367.83,40.36c70.6,60.35,101.63,159.55,70.69,253.2C397.69,417.17,264.37,484.28,140.76,443.45a235.94,235.94,0,0,1-58.8-29,235.06,235.06,0,0,0,79.2,44.56c123.61,40.84,256.93-26.27,297.76-149.89C492.7,206.92,452.63,98.06,367.83,40.36Z"/><path class="cls-4" d="M434.79,109.49a371.84,371.84,0,0,0-39.42,10l-.24.06c-68,18.36-64.35,96.7-64.34,97-1.56,15.67-2,31.67-5.44,47.05a100.75,100.75,0,0,1-4.21,14.06c-1,2.57-2.05,5.08-3.18,7.53a98.4,98.4,0,0,1-4.94,9.38h0a69.23,69.23,0,0,1-5.9,7.89c-21.06,20.62-58.71,31.42-94.8,27.26-5-.91-10-1.92-14.83-2.95q-5.56-1.55-10.43-2.63h0c-19.46-6.57-31.89-5.59-39.68-2.61l-.06,0c-23.07,6.55-30.48,47.31-30.48,47.31h0c-8.31,31.44-6.87,66.23-6.87,66.23a234.54,234.54,0,0,0,125.76,36.34c130.19,0,235.73-105.54,235.73-235.73A234.48,234.48,0,0,0,434.79,109.49Z"/><ellipse class="cls-5" cx="317.39" cy="43.8" rx="23.93" ry="48.95" transform="translate(149.89 316.92) rotate(-66.34)"/><path class="cls-6" d="M274.37,20.79c9.66-6.29,29.38-5.26,49.35,3.49C348.49,35.13,364.26,53.74,359,65.84a12.1,12.1,0,0,1-2.1,3.24,13.25,13.25,0,0,0,5.08-5.76c5.3-12.1-10.47-30.71-35.23-41.56C304.37,12,282.37,11.84,274.37,20.79Z"/><ellipse class="cls-5" cx="284.97" cy="406.18" rx="18.33" ry="18.25" transform="translate(-21.12 15.67) rotate(-3.04)"/><path class="cls-6" d="M303.32,408.12a18.35,18.35,0,0,1-36-3.68,18.73,18.73,0,0,1,.08-2.91,18.33,18.33,0,1,0,36,6.59Z"/><ellipse class="cls-5" cx="251.89" cy="353.18" rx="8.64" ry="8.6" transform="translate(-153.88 199.77) rotate(-33.79)"/><path class="cls-6" d="M259.78,349.55a8.64,8.64,0,0,1-15.47,7.19,7.92,7.92,0,0,1-.67-1.2,8.15,8.15,0,0,0,1.12,2.42,8.64,8.64,0,0,0,15-8.41Z"/><ellipse class="cls-5" cx="362.59" cy="385.02" rx="4.16" ry="3.66" transform="translate(-157.39 288.41) rotate(-36.19)"/><path class="cls-6" d="M366.27,383.05a4.15,4.15,0,0,1-1.69,4.39,3.93,3.93,0,0,1-5.52-.5,2.62,2.62,0,0,1-.3-.51,3.17,3.17,0,0,0,.5,1,3.93,3.93,0,0,0,5.52.5A4,4,0,0,0,366.27,383.05Z"/><ellipse class="cls-5" cx="409.83" cy="246.12" rx="4.53" ry="4.4" transform="translate(-44.24 96.6) rotate(-12.76)"/><path class="cls-6" d="M409.57,241.69a4.39,4.39,0,0,1,.54,8.69,4.36,4.36,0,0,1-.71.11,4.79,4.79,0,0,0,1.4-.11,4.39,4.39,0,0,0-1.23-8.69Z"/><ellipse class="cls-5" cx="147.56" cy="353.52" rx="2.91" ry="4.4" transform="translate(-187.52 167.86) rotate(-38.36)"/><path class="cls-6" d="M149.91,357.23c-1.27.28-3-.49-4.19-2-1.51-1.91-1.71-4.26-.45-5.26a1.85,1.85,0,0,1,.4-.24,1.91,1.91,0,0,0-.83.38c-1.26,1-1.06,3.36.45,5.26C146.65,357.06,148.61,357.83,149.91,357.23Z"/><ellipse class="cls-5" cx="182.94" cy="273.75" rx="17.62" ry="17.7" transform="translate(-130.84 373.49) rotate(-73.88)"/><path class="cls-6" d="M199.05,281.32a17.71,17.71,0,0,1-31.69-14.76,16.71,16.71,0,0,1,1-2.64,17.42,17.42,0,0,0-2.31,4.95,17.7,17.7,0,0,0,33,12.45Z"/><ellipse class="cls-5" cx="71.84" cy="328.49" rx="15.42" ry="13.93" transform="matrix(0.63, -0.78, 0.78, 0.63, -228.51, 177.31)"/><path class="cls-6" d="M81,339.11c-5.31,3.69-12.22,3.87-17,0-6-4.85-6.46-14.14-1.1-20.75a17,17,0,0,1,1.69-1.8,17,17,0,0,0-3.49,3.25c-5.37,6.61-4.88,15.9,1.1,20.75C67.58,344.89,75.59,344.15,81,339.11Z"/><ellipse class="cls-5" cx="384.01" cy="353.19" rx="2.93" ry="3.01" transform="translate(-125.87 242.59) rotate(-30.37)"/><path class="cls-6" d="M386.76,352.13a2.94,2.94,0,0,1-1.35,3.22,3,3,0,0,1-4.05-1.12,4.25,4.25,0,0,1-.21-.43,3.31,3.31,0,0,0,.35.86,2.92,2.92,0,0,0,5.26-2.53Z"/><ellipse class="cls-7" cx="42.05" cy="242.62" rx="22.6" ry="33.06" transform="translate(-135.68 72.2) rotate(-36.37)"/><ellipse class="cls-5" cx="41.37" cy="241.44" rx="18.5" ry="24.85" transform="translate(-115.96 53.69) rotate(-30.24)"/><path class="cls-6" d="M51.25,264.26c-8,1-17.43-4.41-23-14-6.91-11.85-5.36-25.63,3.47-30.78a14.48,14.48,0,0,1,2.7-1.21,14.42,14.42,0,0,0-5.49,1.82c-8.82,5.15-10.38,18.93-3.47,30.79C31.7,261.59,42.68,267.06,51.25,264.26Z"/><ellipse class="cls-5" cx="131.89" cy="412.02" rx="8.6" ry="8.64" transform="translate(-293.86 335.25) rotate(-62.03)"/><path class="cls-6" d="M138.83,417.25A8.64,8.64,0,0,1,125.17,407a8.16,8.16,0,0,1,.74-1.16,8.5,8.5,0,0,0-1.6,2.13,8.64,8.64,0,0,0,14.52,9.26Z"/><ellipse class="cls-8" cx="204.58" cy="399.77" rx="40.39" ry="47.16" transform="matrix(0.5, -0.87, 0.87, 0.5, -243.92, 377.06)"/><ellipse class="cls-5" cx="204.58" cy="399.77" rx="35.07" ry="42.85" transform="translate(-239.92 463.72) rotate(-71.09)"/><path class="cls-6" d="M243,418.85c-9.81,11.56-28.42,16-46.48,9.8-22.38-7.67-35.44-28.74-29.16-47.06a28.74,28.74,0,0,1,2.32-5.1,29.21,29.21,0,0,0-5.41,9.48c-6.28,18.32,6.78,39.39,29.16,47.06C213.66,440,234.54,433.6,243,418.85Z"/><ellipse class="cls-9" cx="336.37" cy="324.96" rx="22.6" ry="33.06" transform="translate(-106.14 173.55) rotate(-25.12)"/><ellipse class="cls-5" cx="335.91" cy="325.18" rx="18.53" ry="25.78" transform="translate(-106.28 173.37) rotate(-25.12)"/><path class="cls-6" d="M354.33,321.08c2.23,10.42-.91,20.19-8.38,23.69-9.27,4.35-21.68-2.58-27.73-15.47a37.1,37.1,0,0,1-1.53-3.82,35.33,35.33,0,0,0,2.55,7.52c6.05,12.89,18.46,19.82,27.72,15.47C355.32,344.56,358.26,332.81,354.33,321.08Z"/><ellipse class="cls-10" cx="333.69" cy="118.6" rx="38.08" ry="32.36" transform="translate(-5.33 220.99) rotate(-36.37)"/><ellipse class="cls-5" cx="333.89" cy="118.88" rx="31.86" ry="27" transform="translate(21.81 286.87) rotate(-47.89)"/><path class="cls-6" d="M317.39,97.12c11.19-7.18,25-7.23,33.9.83,11.07,10,10.47,28.69-1.33,41.75a36.8,36.8,0,0,1-3.66,3.53,36.93,36.93,0,0,0,7.5-6.36c11.8-13.06,12.39-31.75,1.33-41.75C345.15,86.1,329.1,87.24,317.39,97.12Z"/><ellipse class="cls-11" cx="411.88" cy="183.06" rx="28.2" ry="52.46" transform="translate(-33.78 115.68) rotate(-15.37)"/><ellipse class="cls-5" cx="411.88" cy="183.06" rx="25" ry="43.33" transform="translate(-33.78 115.68) rotate(-15.37)"/><path class="cls-6" d="M404.3,140.49c11.19,2.73,22.55,16.57,27.67,35.18,6.34,23.08.69,44.75-12.62,48.41a14.57,14.57,0,0,1-4,.52,15.62,15.62,0,0,0,7.92,0c13.32-3.66,19-25.33,12.63-48.41C430.19,155.36,416.67,140.52,404.3,140.49Z"/><circle class="cls-12" cx="359.76" cy="216.15" r="12.23"/><ellipse class="cls-5" cx="359.83" cy="215.44" rx="8.77" ry="10"/><path class="cls-6" d="M361.22,205.5c3.54,1.29,6.09,5.07,6.09,9.52,0,5.52-3.92,10-8.77,10a7.3,7.3,0,0,1-1.4-.13,7.81,7.81,0,0,0,2.69.48c4.84,0,8.77-4.47,8.77-10C368.6,210.39,365.4,206.26,361.22,205.5Z"/><circle class="cls-13" cx="101.09" cy="272.07" r="12.23"/><ellipse class="cls-5" cx="101.09" cy="272.07" rx="8.77" ry="10" transform="translate(-164.19 154.31) rotate(-45.68)"/><path class="cls-6" d="M107.22,280a9.94,9.94,0,0,1-11.06-2.3c-4-3.85-4.41-9.79-1-13.26a7.69,7.69,0,0,1,1.07-.91A8,8,0,0,0,94,265.13c-3.38,3.46-2.92,9.4,1,13.26C98.57,281.87,103.76,282.47,107.22,280Z"/><ellipse class="cls-14" cx="253.67" cy="150.31" rx="9.97" ry="12.23" transform="translate(-39.82 121.91) rotate(-25.12)"/><ellipse class="cls-15" cx="276.19" cy="111.87" rx="11.11" ry="8.99" transform="translate(16.91 258.73) rotate(-51.58)"/><ellipse class="cls-5" cx="276.22" cy="111.9" rx="9.08" ry="7" transform="translate(-0.76 221.91) rotate(-43.71)"/><path class="cls-6" d="M272.46,105.87c3.27-1.87,7-1.79,9.16.46,2.67,2.8,1.9,7.87-1.73,11.34a10.62,10.62,0,0,1-1.1.93,11.25,11.25,0,0,0,2.24-1.67c3.62-3.47,4.4-8.55,1.72-11.34C280.34,103.07,276,103.27,272.46,105.87Z"/><ellipse class="cls-5" cx="253.94" cy="150.39" rx="8.77" ry="10" transform="translate(-40.34 128.03) rotate(-26.29)"/><path class="cls-6" d="M250.79,140.87c3.74-.41,7.7,1.84,9.68,5.84,2.44,4.95.91,10.7-3.44,12.85a7.69,7.69,0,0,1-1.31.5,7.72,7.72,0,0,0,2.62-.76c4.34-2.14,5.88-7.9,3.44-12.85C259.57,142,254.88,139.7,250.79,140.87Z"/><ellipse class="cls-16" cx="153.94" cy="111.87" rx="129.02" ry="75.54" transform="matrix(0.86, -0.51, 0.51, 0.86, -35.42, 93.06)"/><ellipse class="cls-17" cx="153.1" cy="64.71" rx="64.23" ry="16.08" transform="translate(-10.02 96.62) rotate(-33.98)"/><ellipse class="cls-17" cx="70.53" cy="120.36" rx="18.72" ry="16.46" transform="translate(-52.59 54.77) rotate(-31.58)"/></g></g></g></svg>