<svg xmlns="http://www.w3.org/2000/svg" viewBox="0 0 170.5 150.3"><defs><style>.cls-1{fill:#7b7b7b;}.cls-2{fill:#cbcbcb;}.cls-3{fill:#aaa;}.cls-4{fill:#484848;}.cls-5{fill:#78888c;}.cls-6{fill:#6d6d6d;}.cls-7{fill:#a1b6bb;}.cls-8{fill:#adc4c9;}.cls-9{fill:#5b5b5b;}.cls-10{fill:#b5cdd2;}.cls-11{fill:#bd3e3e;}.cls-12{fill:#e9e9e9;}.cls-13{fill:#bbb;}.cls-14{fill:#ac3939;}.cls-15{fill:#802b2b;}.cls-16{fill:#eee;}.cls-17{fill:#d9d9d9;}</style></defs><title>Ресурс 12</title><g id="Слой_2" data-name="Слой 2"><g id="Слой_1-2" data-name="Слой 1"><g id="Layer0_266_MEMBER_0_FILL" data-name="Layer0 266 MEMBER 0 FILL"><path class="cls-1" d="M51.75,84.7a2.05,2.05,0,0,0-2,2v6a2,2,0,0,0,.6,1.45l3.4,3.4v14.3l-1.4,1.45a1.8,1.8,0,0,0-.6,1.4v10a2,2,0,0,0,.6,1.45,1.92,1.92,0,0,0,1.4.55h8a2.09,2.09,0,0,0,1.45-.55,2.07,2.07,0,0,0,.55-1.45v-10a1.87,1.87,0,0,0-.55-1.4l-1.45-1.45V97.55l3.45-3.4a2.07,2.07,0,0,0,.55-1.45v-6a1.87,1.87,0,0,0-.55-1.4,2,2,0,0,0-1.45-.6h-12m4,12-4-4v-6h12v6l-4,4v16l2,2v10h-8v-10l2-2v-16m51-12a2.05,2.05,0,0,0-2,2v6a2,2,0,0,0,.6,1.45l3.4,3.4v14.3l-1.4,1.45a1.8,1.8,0,0,0-.6,1.4v10a2,2,0,0,0,.6,1.45,1.92,1.92,0,0,0,1.4.55h8a2.09,2.09,0,0,0,1.45-.55,2.07,2.07,0,0,0,.55-1.45v-10a1.87,1.87,0,0,0-.55-1.4l-1.45-1.45V97.55l3.45-3.4a2.07,2.07,0,0,0,.55-1.45v-6a1.87,1.87,0,0,0-.55-1.4,2,2,0,0,0-1.45-.6h-12m0,8v-6h12v6l-4,4v16l2,2v10h-8v-10l2-2v-16Z"/><path class="cls-2" d="M61.75,124.7v-10l-2-2h-4l-2,2v10h8m-10-32,4,4h4l4-4v-6h-12v6m63,20h-4l-2,2v10h8v-10l-2-2m-4-16h4l4-4v-6h-12v6Z"/><path class="cls-3" d="M59.75,96.7h-4v16h4v-16m55,0h-4v16h4Z"/></g><g id="Layer0_266_MEMBER_1_FILL" data-name="Layer0 266 MEMBER 1 FILL"><path class="cls-4" d="M32.85,29.65h-2v19h2v-19m24.8,0v19h2v-19h-2m55.2,0h-2v19h2v-19m24.8,0v19h2v-19Z"/><path class="cls-5" d="M57.65,48.65V52.7l-8,9h-4.4v-.05h-4.4l-8-9v-4h-2v4a2.07,2.07,0,0,0,.5,1.35l8,9a2.77,2.77,0,0,0,.7.5,2,2,0,0,0,.8.15H44.8a2,2,0,0,0,.45.05h4.4a2.41,2.41,0,0,0,.85-.15,3.42,3.42,0,0,0,.65-.5l8-9a2.07,2.07,0,0,0,.5-1.35V48.65h-2m2-19V22.7a1.8,1.8,0,0,0-.55-1.35L55.3,17.3a2.11,2.11,0,0,0-.65-.45,1.69,1.69,0,0,0-.8-.2l-8.05.05a2.39,2.39,0,0,0-.55-.05l-8.6,0a1.69,1.69,0,0,0-.8.2,2.11,2.11,0,0,0-.65.45L31.4,21.3a1.8,1.8,0,0,0-.55,1.35v7h2v-7l1.9-2,1.9-2,8.6,0v.05l8.6-.05,1.9,2,1.9,2.05v7h2m78,19V52.7l-8,9h-4.4v-.05h-4.4l-8-9v-4h-2v4a2.07,2.07,0,0,0,.5,1.35l8,9a2.77,2.77,0,0,0,.7.5,2,2,0,0,0,.8.15h4a2,2,0,0,0,.45.05h4.4a2.41,2.41,0,0,0,.85-.15,3.42,3.42,0,0,0,.65-.5l8-9a2.07,2.07,0,0,0,.5-1.35V48.65h-2m2-19V22.7a1.8,1.8,0,0,0-.55-1.35l-3.8-4.05a2.11,2.11,0,0,0-.65-.45,1.69,1.69,0,0,0-.8-.2l-8,.05a2.39,2.39,0,0,0-.55-.05l-8.6,0a1.69,1.69,0,0,0-.8.2,2.11,2.11,0,0,0-.65.45l-3.8,4.05a1.8,1.8,0,0,0-.55,1.35v7h2v-7l1.9-2,1.9-2,8.6,0v.05l8.6-.05,1.9,2,1.9,2.05v7Z"/><path class="cls-6" d="M57.65,44.65h-6.8v2h6.8v-2m-18.8,2v-2h-6v2h6m0-12v-2h-6v2h6m18.8,0v-2h-6.8v2h6.8m80,10h-6.8v2h6.8v-2m-18.8,2v-2h-6v2h6m0-12v-2h-6v2h6m18.8,0v-2h-6.8v2Z"/><path class="cls-7" d="M45.25,48.7v-.05H32.85v4l8,9h4.4v.05h4.4l8-9v-4H45.25m0-21.05v.05h12.4v-5l-1.9-2.05h-21l-1.9,2v5h12.4m80,21.05v-.05h-12.4v4l8,9h4.4v.05h4.4l8-9v-4h-12.4m0-21.05v.05h12.4v-5l-1.9-2.05h-21l-1.9,2v5Z"/><path class="cls-8" d="M45.25,29.65v.05h12.4v-2H45.25v-.05H32.85v2h12.4m80,0v.05h12.4v-2h-12.4v-.05h-12.4v2Z"/><path class="cls-9" d="M45.25,29.7v-.05H32.85v3h6v2h-6v10h6v2h-6v2h12.4v.05h12.4V46.65h-6.8v-2h6.8v-10h-6.8v-2h6.8V29.7H45.25m80,0v-.05h-12.4v3h6v2h-6v10h6v2h-6v2h12.4v.05h12.4V46.65h-6.8v-2h6.8v-10h-6.8v-2h6.8V29.7Z"/><path class="cls-10" d="M45.25,18.7v-.05l-8.6,0-1.9,2h21l-1.9-2-8.6.05m80,0v-.05l-8.6,0-1.9,2h21l-1.9-2Z"/></g><g id="Layer0_266_MEMBER_2_FILL" data-name="Layer0 266 MEMBER 2 FILL"><path class="cls-4" d="M92.25,44.55h-14a2,2,0,0,0-1.2.4,1.7,1.7,0,0,0-.7,1l-11,37a1.72,1.72,0,0,0,.1,1.4l7,15a2.42,2.42,0,0,0,.75.85,1.85,1.85,0,0,0,1,.3h22a2.09,2.09,0,0,0,1.1-.3,2.59,2.59,0,0,0,.7-.85l7-15a1.92,1.92,0,0,0,.15-1.4l-11-37a1.91,1.91,0,0,0-.75-1,2,2,0,0,0-1.2-.4m-14,2h14l7,24,4,13-7,15h-22l-7-15,4-13Z"/><path class="cls-9" d="M74.25,98.55h3l-6-28-4,13,7,15m29-15-4-13-6,28h3Z"/><path class="cls-6" d="M92.25,46.55h-14l-7,24,6,28h16l6-28Z"/></g><g id="Layer0_266_MEMBER_3_MEMBER_0_FILL" data-name="Layer0 266 MEMBER 3 MEMBER 0 FILL"><path class="cls-11" d="M129.4,56.55,120,44l-9,15.65,8.5,8.15Z"/><path class="cls-12" d="M150,5.35,147.1,3.7,131,50.8l4.1,6.4L114.2,78.35l1.1.9L145,55.8,138.2,45Z"/><path class="cls-13" d="M147.75,1.75l-.65,2L150,5.35,138.2,45,145,55.8,115.3,79.25l-1.1-.9-1.4,1.5,1.25,1a1.89,1.89,0,0,0,1.2.4,2,2,0,0,0,1.25-.4l29.7-23.5a1.92,1.92,0,0,0,.75-1.2,2.59,2.59,0,0,0-.3-1.4l-6.25-10L151.9,6a1.58,1.58,0,0,0-.05-1.3A1.91,1.91,0,0,0,151,3.6Z"/><path class="cls-14" d="M147.1,3.7,144.2,2,120,44l9.45,12.55-10,11.25L111,59.65l-6.3,10.85,9.55,7.85L135.1,57.2,131,50.8Z"/><path class="cls-15" d="M143.65.1a1.78,1.78,0,0,0-1.2.9L102.9,69.5a1.93,1.93,0,0,0-.2,1.35,2,2,0,0,0,.65,1.25l9.45,7.75,1.4-1.5-9.55-7.85L111,59.65,120,44,144.2,2l2.9,1.7.65-1.95L145.2.25A1.92,1.92,0,0,0,143.65.1Z"/></g><g id="Layer0_266_MEMBER_3_MEMBER_1_FILL" data-name="Layer0 266 MEMBER 3 MEMBER 1 FILL"><path class="cls-11" d="M141.05,118.25,154,131.6l12.8-14.9L147.65,101Z"/><path class="cls-14" d="M126.35,83.45l-6.8,1-2.3,2.65,21.6,21.25-5.25,13.45,20.85,21.9,12.2,1.45,1.8-26.9-1.7-1.5L154,131.6l-12.9-13.35,6.6-17.3Z"/><path class="cls-12" d="M117.25,87.05l-1.8,2.1,19.2,18.95L126.5,123l22.4,25.35,17.6-1.75.15-1.45-12.2-1.45-20.85-21.9,5.25-13.45Z"/><path class="cls-13" d="M117.25,87.05l-1.55-1.3-1.8,2.1a1.58,1.58,0,0,0-.45,1.4,1.47,1.47,0,0,0,.6,1.3l18.15,18L124.75,122a1.72,1.72,0,0,0-.2,1.15,2,2,0,0,0,.45,1.15l22.4,25.3a2.78,2.78,0,0,0,.8.55,3.29,3.29,0,0,0,1,.15l17.6-1.75A2,2,0,0,0,168,148a1.9,1.9,0,0,0,.55-1.25l0-1.4-1.95-.2-.15,1.45-17.6,1.75L126.5,123l8.15-14.85-19.2-18.95Z"/><path class="cls-15" d="M115.7,85.75l1.55,1.3,2.3-2.65,6.8-1,21.3,17.5,19.1,15.75,1.7,1.5-1.8,26.9,1.95.2,1.9-27a7,7,0,0,0-.15-.9,1.74,1.74,0,0,0-.6-.8l-42.1-34.75c-.27-.14-.52-.25-.75-.35a1.75,1.75,0,0,0-.85,0l-6.75.9a2.08,2.08,0,0,0-1.3.7Z"/></g><g id="Layer0_266_MEMBER_3_MEMBER_2_FILL" data-name="Layer0 266 MEMBER 3 MEMBER 2 FILL"><path class="cls-12" d="M129.85,38.3l-1.6-1.1L102,52.5V99.25l20.85,12,.75-.85L119.3,107c-.57-.47-1.15-.94-1.75-1.4l-11.7-9.25V55Z"/><path class="cls-14" d="M133,40.55l-3.1-2.25L105.85,55v41.4l11.7,9.25c.6.46,1.18.93,1.75,1.4l4.3,3.35,8.6-9.75V75.7l-4.65-7.2-3.1-20.85,8.5-7.1M110.85,81V74.35c0-.87.42-1.3,1.25-1.3h6.65a1.15,1.15,0,0,1,1.3,1.3V81a1.15,1.15,0,0,1-1.3,1.3H112.1a1.13,1.13,0,0,1-1.25-1.3m1.25,12.9a1.13,1.13,0,0,1-1.25-1.3V86a1.1,1.1,0,0,1,1.25-1.25h6.65c.87,0,1.3.41,1.3,1.25V92.6a1.15,1.15,0,0,1-1.3,1.3Z"/><path class="cls-11" d="M110.85,92.6a1.13,1.13,0,0,0,1.25,1.3h6.65a1.15,1.15,0,0,0,1.3-1.3V86c0-.84-.43-1.25-1.3-1.25H112.1A1.1,1.1,0,0,0,110.85,86V92.6m0-18.25V81a1.13,1.13,0,0,0,1.25,1.3h6.65a1.15,1.15,0,0,0,1.3-1.3V74.35a1.15,1.15,0,0,0-1.3-1.3H112.1C111.27,73.05,110.85,73.48,110.85,74.35Z"/><path class="cls-15" d="M131.7,37.2l-1.85,1.1,3.1,2.25-8.5,7.1,3.1,20.85,4.65,7.2v24.9l-8.6,9.75,1.45,1.35L133.7,102a2.07,2.07,0,0,0,.5-1.35V75.7a1.68,1.68,0,0,0-.35-1l-4.4-6.85L126.6,48.45l7.6-6.35a2.14,2.14,0,0,0,.65-1,1.64,1.64,0,0,0,0-1.2,1.82,1.82,0,0,0-.7-.95Z"/><path class="cls-13" d="M131.7,37.2l-2.3-1.6a1.86,1.86,0,0,0-1.05-.4,2.09,2.09,0,0,0-1.1.3L101,50.8a2.09,2.09,0,0,0-.75.7,2,2,0,0,0-.25,1V99.25a2,2,0,0,0,.25,1,2.68,2.68,0,0,0,.75.75l20.85,12a2.1,2.1,0,0,0,1.3.25,2.36,2.36,0,0,0,1.2-.65l.7-.85-1.45-1.35-.75.85L102,99.25V52.5l26.25-15.3,1.6,1.1Z"/></g><g id="Layer0_266_MEMBER_3_MEMBER_3_FILL" data-name="Layer0 266 MEMBER 3 MEMBER 3 FILL"><path class="cls-11" d="M50.55,44,41.1,56.55,51.05,67.8l8.5-8.15Z"/><path class="cls-14" d="M26.3,2,23.4,3.7,39.5,50.8l-4.1,6.4L56.3,78.35l9.55-7.85-6.3-10.85-8.5,8.15L41.1,56.55,50.55,44Z"/><path class="cls-15" d="M23.4,3.7,26.3,2,50.55,44l9,15.65,6.3,10.85L56.3,78.35l1.4,1.5,9.45-7.75a2,2,0,0,0,.65-1.25,1.93,1.93,0,0,0-.2-1.35L28.05,1a1.78,1.78,0,0,0-1.2-.9A1.92,1.92,0,0,0,25.3.25l-2.55,1.5Z"/><path class="cls-13" d="M20.5,5.35,23.4,3.7l-.65-1.95L19.5,3.6a1.91,1.91,0,0,0-.85,1.05,1.58,1.58,0,0,0,0,1.3L30.1,44.7l-6.25,10a2.59,2.59,0,0,0-.3,1.4,1.92,1.92,0,0,0,.75,1.2L54,80.85a2,2,0,0,0,1.25.4,1.89,1.89,0,0,0,1.2-.4l1.25-1-1.4-1.5-1.1.9L25.55,55.8,32.3,45Z"/><path class="cls-12" d="M23.4,3.7,20.5,5.35,32.3,45,25.55,55.8,55.2,79.25l1.1-.9L35.4,57.2l4.1-6.4Z"/></g><g id="Layer0_266_MEMBER_3_MEMBER_4_FILL" data-name="Layer0 266 MEMBER 3 MEMBER 4 FILL"><path class="cls-11" d="M16.55,131.6l12.9-13.35L22.85,101,3.75,116.7Z"/><path class="cls-12" d="M55.05,89.15l-1.8-2.1L31.65,108.3l5.25,13.45-20.85,21.9L3.85,145.1,4,146.55l17.6,1.75L44,123,35.85,108.1Z"/><path class="cls-14" d="M53.25,87.05,51,84.4l-6.8-1L22.85,101l6.6,17.3L16.55,131.6,3.75,116.7l-1.7,1.5,1.8,26.9,12.2-1.45,20.85-21.9L31.65,108.3Z"/><path class="cls-15" d="M52.5,83.1a2.08,2.08,0,0,0-1.3-.7l-6.75-.9a1.75,1.75,0,0,0-.85,0c-.23.1-.48.21-.75.35L.75,116.6a1.74,1.74,0,0,0-.6.8,7,7,0,0,0-.15.9l1.9,27,2-.2-1.8-26.9,1.7-1.5L22.85,101l21.3-17.5,6.8,1,2.3,2.65,1.55-1.3Z"/><path class="cls-13" d="M56.6,87.85l-1.8-2.1-1.55,1.3,1.8,2.1L35.85,108.1,44,123,21.6,148.3,4,146.55l-.15-1.45-1.95.2L2,146.7A1.9,1.9,0,0,0,2.5,148a2,2,0,0,0,1.25.6l17.6,1.75a3.29,3.29,0,0,0,.95-.15,2.78,2.78,0,0,0,.8-.55l22.4-25.3a2,2,0,0,0,.45-1.15,1.72,1.72,0,0,0-.2-1.15L38.3,108.5l18.15-18a1.47,1.47,0,0,0,.6-1.3A1.58,1.58,0,0,0,56.6,87.85Z"/></g><g id="Layer0_266_MEMBER_3_MEMBER_5_FILL" data-name="Layer0 266 MEMBER 3 MEMBER 5 FILL"><path class="cls-14" d="M64.65,55l-24-16.65-3.1,2.25,8.5,7.1L43,68.5,38.3,75.7v24.9l8.6,9.75L51.2,107c.57-.47,1.15-.94,1.75-1.4l11.7-9.25V55m-5,19.4V81a1.13,1.13,0,0,1-1.25,1.3H51.75a1.15,1.15,0,0,1-1.3-1.3V74.35a1.15,1.15,0,0,1,1.3-1.3H58.4c.83,0,1.25.43,1.25,1.3M50.45,86c0-.84.43-1.25,1.3-1.25H58.4A1.1,1.1,0,0,1,59.65,86V92.6a1.13,1.13,0,0,1-1.25,1.3H51.75a1.15,1.15,0,0,1-1.3-1.3Z"/><path class="cls-11" d="M51.75,84.7c-.87,0-1.3.41-1.3,1.25V92.6a1.15,1.15,0,0,0,1.3,1.3H58.4a1.13,1.13,0,0,0,1.25-1.3V86A1.1,1.1,0,0,0,58.4,84.7H51.75m7.9-3.7V74.35c0-.87-.42-1.3-1.25-1.3H51.75a1.15,1.15,0,0,0-1.3,1.3V81a1.15,1.15,0,0,0,1.3,1.3H58.4A1.13,1.13,0,0,0,59.65,81Z"/><path class="cls-12" d="M42.25,37.2l-1.6,1.1L64.65,55v41.4L53,105.6c-.6.46-1.18.93-1.75,1.4l-4.3,3.35.75.85,20.85-12V52.5Z"/><path class="cls-15" d="M40.65,38.3,38.8,37.2,36.4,39a1.82,1.82,0,0,0-.7.95,1.64,1.64,0,0,0-.05,1.2,2.14,2.14,0,0,0,.65,1l7.6,6.35L41.05,67.8l-4.4,6.85a1.68,1.68,0,0,0-.35,1v24.9a2.07,2.07,0,0,0,.5,1.35l8.65,9.75,1.45-1.35-8.6-9.75V75.7L43,68.5l3.1-20.85-8.5-7.1Z"/><path class="cls-13" d="M41.1,35.6l-2.3,1.6,1.85,1.1,1.6-1.1L68.5,52.5V99.25l-20.85,12-.75-.85-1.45,1.35.7.85a2.36,2.36,0,0,0,1.2.65,2.1,2.1,0,0,0,1.3-.25L69.5,101a2.68,2.68,0,0,0,.75-.75,2,2,0,0,0,.25-1V52.5a2,2,0,0,0-.25-1,2.09,2.09,0,0,0-.75-.7L43.25,35.5a2.09,2.09,0,0,0-1.1-.3A1.86,1.86,0,0,0,41.1,35.6Z"/></g><g id="Layer0_266_MEMBER_4_FILL" data-name="Layer0 266 MEMBER 4 FILL"><path class="cls-16" d="M85.25,96.55V64.75Q77.85,72.85,77,92.5Z"/><path class="cls-17" d="M93.5,92.5q-.85-19.65-8.25-27.75v31.8Z"/></g></g></g></svg>