<svg xmlns="http://www.w3.org/2000/svg" viewBox="0 0 119.6 189.51"><defs><style>.cls-1{fill:#7b7b7b;}.cls-2{fill:#cbcbcb;}.cls-3{fill:#aaa;}.cls-4{fill:#484848;}.cls-5{fill:#5b5b5b;}.cls-6{fill:#626262;}.cls-7{fill:#6d6d6d;}.cls-8{fill:#b5cdd2;}.cls-9{fill:#78888c;}.cls-10{fill:#a1b6bb;}.cls-11{fill:#adc4c9;}.cls-12{fill:#95a8ad;}.cls-13{fill:#ac3939;}.cls-14{fill:#bd3e3e;}.cls-15{fill:#e9e9e9;}.cls-16{fill:#802b2b;}.cls-17{fill:#bbb;}.cls-18{fill:#eee;}.cls-19{fill:#d9d9d9;}</style></defs><title>Ресурс 61</title><g id="Слой_2" data-name="Слой 2"><g id="Слой_1-2" data-name="Слой 1"><path class="cls-1" d="M53.8,135.65a2.05,2.05,0,0,0-2,2v6a2,2,0,0,0,.6,1.45l3.4,3.4v14.3l-1.4,1.45a1.82,1.82,0,0,0-.6,1.4v10a2,2,0,0,0,.6,1.45,1.87,1.87,0,0,0,1.4.55h8a2.07,2.07,0,0,0,1.45-.55,2.09,2.09,0,0,0,.55-1.45v-10a1.92,1.92,0,0,0-.55-1.4L63.8,162.8V148.5l3.45-3.4a2.09,2.09,0,0,0,.55-1.45v-6a1.92,1.92,0,0,0-.55-1.4,2,2,0,0,0-1.45-.6h-12"/><polyline class="cls-2" points="63.8 175.65 63.8 165.65 61.8 163.65 57.8 163.65 55.8 165.65 55.8 175.65 63.8 175.65"/><polyline class="cls-2" points="53.8 143.65 57.8 147.65 61.8 147.65 65.8 143.65 65.8 137.65 53.8 137.65 53.8 143.65"/><polyline class="cls-3" points="61.8 147.65 57.8 147.65 57.8 163.65 61.8 163.65 61.8 147.65"/><g id="Layer0_265_MEMBER_0_FILL" data-name="Layer0 265 MEMBER 0 FILL"><path class="cls-4" d="M80.67,89.76a2,2,0,0,0-.58.84,2.35,2.35,0,0,0-.26,1v22a2.53,2.53,0,0,0,.78,1.87l1.81,1.81v5.37a2.56,2.56,0,0,0,.77,1.87,2.44,2.44,0,0,0,1.81.71H99.22a2.45,2.45,0,0,0,2.59-2.58v-5.37l1.87-1.81a2.67,2.67,0,0,0,.71-1.87v-22a2.46,2.46,0,0,0-.71-1.81l-3.55-3.56a2.6,2.6,0,0,0-1.88-.77H86.36a2.37,2.37,0,0,0-1.74.71l-4,3.55m1.75,1.88,3.94-3.56H98.25l3.56,3.56v22l-2.59,2.59v6.46H85V116.2l-2.58-2.59v-22M21.74,85.5a2.39,2.39,0,0,0-1.75.71l-3.94,3.55a2,2,0,0,0-.58.84,2.22,2.22,0,0,0-.26,1v22a2.56,2.56,0,0,0,.77,1.87l1.81,1.81v5.37a2.53,2.53,0,0,0,.78,1.87,2.43,2.43,0,0,0,1.81.71H34.6a2.65,2.65,0,0,0,1.87-.71,2.67,2.67,0,0,0,.71-1.87v-5.37l1.87-1.81a2.64,2.64,0,0,0,.72-1.87v-22a2.43,2.43,0,0,0-.72-1.81L35.5,86.27a2.58,2.58,0,0,0-1.87-.77H21.74M17.79,98.1V91.64l3.95-3.56H33.63l3.55,3.56v22L34.6,116.2v6.46H20.38V116.2l-2.59-2.59V98.1Z"/><path class="cls-5" d="M101.81,113.61v-3.88H82.42v3.88L85,116.2v6.46H99.22V116.2l2.59-2.59M86.36,88.08l-3.94,3.56V98.1h19.39V91.64l-3.56-3.56H86.36m-66,28.12v6.46H34.6V116.2l2.58-2.59v-3.88H17.79v3.88l2.59,2.59M17.79,91.64V98.1H37.18V91.64l-3.55-3.56H21.74Z"/><path class="cls-6" d="M101.81,98.1H82.42v11.63h19.39V98.1m-84,0v11.63H37.18V98.1Z"/></g><g id="Layer0_265_MEMBER_1_FILL" data-name="Layer0 265 MEMBER 1 FILL"><path class="cls-5" d="M73.76,47.82H61.09V63.33H73.76V47.82m-27.92,0V63.33H58.51V47.82Z"/><path class="cls-7" d="M61.09,47.82H58.51V63.33h2.58Z"/><path class="cls-4" d="M76.34,48.92l1.1-1.1H73.76V63.33h3.68l-1.1-1.1V48.92m-33.08,0V62.23l-1.1,1.1h3.68V47.82H42.16Z"/><path class="cls-8" d="M45.84,63.33,42,67.21H77.64l-3.88-3.88H45.84M49.72,2.58,47.13,5.17H72.47L69.88,2.58Z"/><path class="cls-9" d="M40.67,68.5,42,67.21l3.88-3.88H42.16L38.8,66.69a2.6,2.6,0,0,0-.39.52,2.57,2.57,0,0,0-.32,1.29v9a3.1,3.1,0,0,0,.19,1.1,4,4,0,0,0,.65.84l5.75,5.17a2.64,2.64,0,0,0,1.74.64H73.18a2.66,2.66,0,0,0,1.74-.64l5.75-5.17a4,4,0,0,0,.65-.84,3.1,3.1,0,0,0,.19-1.1v-9a2.57,2.57,0,0,0-.32-1.29,2.6,2.6,0,0,0-.39-.52l-3.36-3.36H73.76l3.88,3.88,1.29,1.29v9l-5.75,5.17H46.42l-5.75-5.17v-9M71.76.78A2.57,2.57,0,0,0,69.88,0H49.72a2.57,2.57,0,0,0-1.88.78L40.09,8.53a2.46,2.46,0,0,0-.71,1.81v33.6a2.7,2.7,0,0,0,.71,1.88l2.07,2h3.68L42,43.94V10.34l5.17-5.17,2.59-2.59H69.88l2.59,2.59,5.17,5.17v33.6l-3.88,3.88h3.68l2.07-2a2.7,2.7,0,0,0,.71-1.88V10.34a2.46,2.46,0,0,0-.71-1.81Z"/><path class="cls-10" d="M42,67.21,40.67,68.5v9l5.75,5.17H73.18l5.75-5.17v-9l-1.29-1.29H42m30.51-62H47.13L42,10.34v5.17H77.64V10.34Z"/><path class="cls-11" d="M68.85,29.73v6.46H74V29.73h3.62V15.51H42V29.73h3.62v6.46h5.17V29.73Z"/><path class="cls-12" d="M68.85,36.19V29.73H50.75v6.46H45.58V29.73H42V43.94l3.88,3.88H73.76l3.88-3.88V29.73H74v6.46Z"/></g><g id="Layer0_265_MEMBER_2_FILL" data-name="Layer0 265 MEMBER 2 FILL"><path class="cls-4" d="M26.91,82.66a2.45,2.45,0,0,0-.26,1.93l5.68,24.88q7.24,31.16,25.66,49a2.49,2.49,0,0,0,3.62,0q18.42-17.84,25.66-49L93,84.59a2.36,2.36,0,0,0-.32-1.93,2.73,2.73,0,0,0-1.49-1.17L60.51,72.77a2.63,2.63,0,0,0-1.42,0L28.46,81.49a3,3,0,0,0-1.55,1.17m5.55,15.83L30.07,88l-.9-4L59.8,75.29,90.43,84l-.9,4L87.14,98.49l-2.4,10.4q-7,30.31-24.94,47.76-17.89-17.44-24.95-47.76Z"/><path class="cls-5" d="M32.46,98.49l2.39,10.4q7,30.31,24.95,47.76,17.9-17.44,24.94-47.76l2.4-10.4q-11.77,37.61-27.34,50-15.57-12.4-27.34-50M30.07,88,59.8,85.18,89.53,88l.9-4L59.8,75.29,29.17,84Z"/><path class="cls-7" d="M59.8,85.18,30.07,88l2.39,10.47q11.76,37.61,27.34,50,15.57-12.4,27.34-50L89.53,88Z"/></g><g id="Layer0_265_MEMBER_3_FILL" data-name="Layer0 265 MEMBER 3 FILL"><path class="cls-13" d="M92.11,151.09l3.36,22,21.59-28.7-8-56.67-17,63.39m8.79-17.45a3.53,3.53,0,0,1,4.33-2.45,3.2,3.2,0,0,1,2.13,1.61,3.46,3.46,0,0,1,.46,2.65,3.54,3.54,0,0,1-1.75,2.2,3.29,3.29,0,0,1-2.71.39,3.13,3.13,0,0,1-2.07-1.68,3.35,3.35,0,0,1-.39-2.72M98.25,149.8a4.68,4.68,0,0,1-.58-4.07,5.59,5.59,0,0,1,2.58-3.36,5.34,5.34,0,0,1,4.14-.52,5.18,5.18,0,0,1,3.3,2.52,5.4,5.4,0,0,1,.58,4.2,5.12,5.12,0,0,1-2.59,3.23,5,5,0,0,1-4.13.65,5.07,5.07,0,0,1-3.3-2.65M2.54,144.37l21.59,28.7,3.36-22-17-63.39L2.54,144.37m9.7-11.57a3.2,3.2,0,0,1,2.13-1.61,3.49,3.49,0,0,1,3.94,5.17A3.13,3.13,0,0,1,16.24,138a3.29,3.29,0,0,1-2.71-.39,3.54,3.54,0,0,1-1.75-2.2,3.46,3.46,0,0,1,.46-2.65m9.69,12.93a4.68,4.68,0,0,1-.58,4.07,5.07,5.07,0,0,1-3.3,2.65,5,5,0,0,1-4.13-.65,5.12,5.12,0,0,1-2.59-3.23,5.4,5.4,0,0,1,.58-4.2,5.15,5.15,0,0,1,3.3-2.52,5.31,5.31,0,0,1,4.13.52A5.57,5.57,0,0,1,21.93,145.73Z"/><path class="cls-14" d="M97.67,145.73a4.68,4.68,0,0,0,.58,4.07,5.07,5.07,0,0,0,3.3,2.65,5,5,0,0,0,4.13-.65,5.12,5.12,0,0,0,2.59-3.23,5.4,5.4,0,0,0-.58-4.2,5.18,5.18,0,0,0-3.3-2.52,5.34,5.34,0,0,0-4.14.52,5.59,5.59,0,0,0-2.58,3.36m4.91-14.22a3.46,3.46,0,0,0-1.29,4.85,3.13,3.13,0,0,0,2.07,1.68,3.29,3.29,0,0,0,2.71-.39,3.54,3.54,0,0,0,1.75-2.2,3.46,3.46,0,0,0-.46-2.65,3.2,3.2,0,0,0-2.13-1.61,3.35,3.35,0,0,0-2.65.32M21.35,149.8a4.68,4.68,0,0,0,.58-4.07,5.57,5.57,0,0,0-2.59-3.36,5.31,5.31,0,0,0-4.13-.52,5.15,5.15,0,0,0-3.3,2.52,5.4,5.4,0,0,0-.58,4.2,5.12,5.12,0,0,0,2.59,3.23,5,5,0,0,0,4.13.65,5.07,5.07,0,0,0,3.3-2.65m-7-18.61a3.2,3.2,0,0,0-2.13,1.61,3.46,3.46,0,0,0-.46,2.65,3.54,3.54,0,0,0,1.75,2.2,3.29,3.29,0,0,0,2.71.39,3.13,3.13,0,0,0,2.07-1.68,3.5,3.5,0,0,0-3.94-5.17Z"/><path class="cls-15" d="M109.11,87.7l-5.17-1.36L80.16,175.07,84.87,187l10.6-13.89-3.36-22,17-63.39M15.66,86.34,10.49,87.7l17,63.39-3.36,22L34.73,187l4.71-11.89Z"/><path class="cls-16" d="M110.79,85.63a3.35,3.35,0,0,0-1-.45l-.64,2.52,8,56.67-21.59,28.7.65,3.36,22.94-30.51a2.38,2.38,0,0,0,.52-1.87l-7.89-56.68a2.54,2.54,0,0,0-.58-1.35,3.34,3.34,0,0,0-.32-.39M9.84,85.18a3.41,3.41,0,0,0-1,.45,2.56,2.56,0,0,0-.32.39,2.54,2.54,0,0,0-.58,1.35L0,144.05a2.38,2.38,0,0,0,.52,1.87l22.94,30.51.65-3.36L2.54,144.37l8-56.67Z"/><path class="cls-17" d="M77.7,174.36a2.83,2.83,0,0,0,.07,1.61l4.71,12a2.74,2.74,0,0,0,1.23,1.29,3.07,3.07,0,0,0,1.81.26,2.7,2.7,0,0,0,1.42-1l9.18-12.08-.65-3.36L84.87,187l-4.71-11.89,23.78-88.73,5.17,1.36.64-2.52-5.17-1.36a1.94,1.94,0,0,0-1-.13,3.59,3.59,0,0,0-1,.39,2.17,2.17,0,0,0-1.17,1.55L77.7,174.36M18.12,85.63A2.2,2.2,0,0,0,17,84.08a3.59,3.59,0,0,0-1-.39,2,2,0,0,0-1,.13L9.84,85.18l.65,2.52,5.17-1.36,23.78,88.73L34.73,187l-10.6-13.89-.65,3.36,9.18,12.08a2.7,2.7,0,0,0,1.42,1,3.07,3.07,0,0,0,1.81-.26,2.74,2.74,0,0,0,1.23-1.29l4.71-12a2.83,2.83,0,0,0,.07-1.61Z"/></g><g id="Layer0_265_MEMBER_4_FILL" data-name="Layer0 265 MEMBER 4 FILL"><path class="cls-18" d="M49.46,125.82a9.94,9.94,0,0,0,3,7.31,10.05,10.05,0,0,0,7.37,3V115.48a10.16,10.16,0,0,0-10.34,10.34Z"/><path class="cls-19" d="M60.06,115.48H59.8v20.68h.26a10.37,10.37,0,0,0,10.08-10.34,10.28,10.28,0,0,0-10.08-10.34Z"/></g></g></g></svg>