<svg xmlns="http://www.w3.org/2000/svg" viewBox="0 0 600 433.63"><defs><style>.cls-1{fill:#98b6bc;}.cls-2{fill:#5b5b5b;}.cls-3{fill:#6d6d6d;}.cls-4{fill:#a3c4ca;}.cls-5{fill:#464646;}.cls-6{fill:#abcdd2;}.cls-7{fill:#8da9ae;}.cls-8{fill:#71888c;}.cls-9{fill:#7b7b7b;}.cls-10{fill:#aaa;}.cls-11{fill:#cbcbcb;}.cls-12{fill:#a1b6bb;}.cls-13{fill:#b5cdd2;}.cls-14{fill:#95a8ad;}.cls-15{fill:#adc4c9;}.cls-16{fill:#78888c;}.cls-17{fill:#484848;}.cls-18{fill:#e9e9e9;}.cls-19{fill:#bd3e3e;}.cls-20{fill:#bbb;}.cls-21{fill:#ac3939;}.cls-22{fill:#802b2b;}.cls-23{fill:#a3a3a3;}.cls-24{fill:#d9d9d9;}.cls-25{fill:#eee;}.cls-26{fill:#4a3c55;}.cls-27{fill:#5d4b6b;}</style></defs><title>Ресурс 34</title><g id="Слой_2" data-name="Слой 2"><g id="Слой_1-2" data-name="Слой 1"><g id="Layer0_157_FILL" data-name="Layer0 157 FILL"><path class="cls-1" d="M313,404.63v-12H287v12Z"/><path class="cls-2" d="M291,428.63l3,3h11l4-3v-20H291v20m3-11h2v10h-2v-10m0-2v-4h2v4Z"/><path class="cls-3" d="M294,411.63v4h2v-4h-2m2,6h-2v10h2Z"/><path class="cls-4" d="M287,404.63l4,4h18l4-4H287m26-17h5v-10H282v10h31Z"/><path class="cls-5" d="M291,408.63l-2,.85v19.15a2,2,0,0,0,.6,1.45l3,3a1.88,1.88,0,0,0,1.4.55h11a2,2,0,0,0,1.2-.4l4-3a1.89,1.89,0,0,0,.6-.7,2.26,2.26,0,0,0,.2-.9V409.48l-2-.85v20l-4,3H294l-3-3Z"/><path class="cls-6" d="M318,377.63v-3l-5-5-26.85.35L282,374.63v3Z"/><path class="cls-7" d="M313,392.63v-5H287v5Z"/><path class="cls-8" d="M314.45,368.23a2.09,2.09,0,0,0-1.45-.6l-26.85.35a1.61,1.61,0,0,0-.8.2,1.71,1.71,0,0,0-.7.5l-4.15,4.65a1.89,1.89,0,0,0-.5,1.3v13a2,2,0,0,0,.6,1.45,1.88,1.88,0,0,0,1.4.55h3v15a2,2,0,0,0,.6,1.45l3.4,3.4,2-.85-4-4v-17h-5v-13l4.15-4.65,26.85-.35,5,5v13h-5v17l-4,4,2,.85,3.45-3.4a2,2,0,0,0,.55-1.45v-15h3a1.89,1.89,0,0,0,2-2v-13a1.9,1.9,0,0,0-.55-1.4Z"/></g><g id="Layer0_258_MEMBER_0_MEMBER_0_FILL" data-name="Layer0 258 MEMBER 0 MEMBER 0 FILL"><path class="cls-9" d="M523.06,229.9a10.9,10.9,0,0,0-7.63-2.9H473.34a10,10,0,0,0-7.36,2.9l-10.52,10.52a10.37,10.37,0,0,0-3.16,7.63v52.61a9.53,9.53,0,0,0,3.16,7.36l17.88,18.15v22.62L466,356.16a10.37,10.37,0,0,0-3.16,7.63v21a10,10,0,0,0,.53,3.16l10.52,31.56a9.26,9.26,0,0,0,3.94,5.26,9.46,9.46,0,0,0,6.05,2.11h21.05a10.52,10.52,0,0,0,6.31-2.11,9.66,9.66,0,0,0,3.68-5.26L525.43,388a10,10,0,0,0,.52-3.16v-21a10.88,10.88,0,0,0-2.89-7.63l-7.63-7.37V326.17L533.58,308a10,10,0,0,0,2.89-7.36V248.05a10.88,10.88,0,0,0-2.89-7.63L523.06,229.9m-7.63,7.63L526,248.05v52.61l-21,21v31.56l10.52,10.53v21l-10.52,31.56H483.86l-10.52-31.56v-21l10.52-10.53V321.7l-21-21V248.05l10.52-10.52Z"/><path class="cls-10" d="M504.91,353.26V321.7H483.86v31.56l-10.52,10.53h42.09Z"/><path class="cls-11" d="M473.34,363.79v21l10.52,31.56h21.05l10.52-31.56v-21H473.34M526,248.05l-10.52-10.52H473.34l-10.52,10.52v52.61l21,21h21.05l21-21Z"/></g><g id="Layer0_258_MEMBER_0_MEMBER_1_FILL" data-name="Layer0 258 MEMBER 0 MEMBER 1 FILL"><path class="cls-9" d="M133.76,229.9a10.9,10.9,0,0,0-7.63-2.9H84a10,10,0,0,0-7.36,2.9L66.15,240.42A10.4,10.4,0,0,0,63,248.05v52.61A9.55,9.55,0,0,0,66.15,308L84,326.17v22.62l-7.36,7.37a10.37,10.37,0,0,0-3.16,7.63v21a10,10,0,0,0,.53,3.16l10.52,31.56a9.22,9.22,0,0,0,3.94,5.26,9.44,9.44,0,0,0,6,2.11h21a10.52,10.52,0,0,0,6.31-2.11,9.66,9.66,0,0,0,3.68-5.26L136.12,388a10,10,0,0,0,.53-3.16v-21a10.88,10.88,0,0,0-2.89-7.63l-7.63-7.37V326.17L144.28,308a10,10,0,0,0,2.89-7.36V248.05a10.88,10.88,0,0,0-2.89-7.63L133.76,229.9M73.52,300.66V248.05L84,237.53h42.09l10.52,10.52v52.61l-21,21v31.56l10.52,10.53v21l-10.52,31.56h-21L84,384.83v-21l10.52-10.53V321.7Z"/><path class="cls-11" d="M84,384.83l10.52,31.56h21l10.52-31.56v-21H84v21M73.52,248.05v52.61l21,21h21l21-21V248.05l-10.52-10.52H84Z"/><path class="cls-10" d="M115.61,353.26V321.7h-21v31.56L84,363.79h42.09Z"/></g><g id="Layer0_258_MEMBER_1_MEMBER_0_FILL" data-name="Layer0 258 MEMBER 1 MEMBER 0 FILL"><path class="cls-12" d="M473.34,215.69V152.56H336.56v63.13Z"/><path class="cls-13" d="M499.65,310.39V294.61H310.26v15.78l21.83,24.46,141.25,1.84Z"/><path class="cls-14" d="M473.34,242V215.69H336.56V242Z"/><path class="cls-15" d="M499.65,294.61V242H310.26v52.61H499.65m-26.31-142-21-21H357.6l-21,21Z"/><path class="cls-16" d="M462.82,127.05l-10.52,4.47,21,21V242h26.31v68.39l-26.31,26.3-141.25-1.84-21.83-24.46V242h26.3V152.56l21-21-10.52-4.47L329.2,144.94a10.35,10.35,0,0,0-3.16,7.62v78.92H310.26a10,10,0,0,0-7.37,2.89,10.4,10.4,0,0,0-3.15,7.63v68.39a9.81,9.81,0,0,0,2.63,6.84l21.83,24.46a8.87,8.87,0,0,0,3.68,2.63,8.35,8.35,0,0,0,4.21,1.05l141.25,1.84a11,11,0,0,0,7.63-3.15l26.3-26.31a10,10,0,0,0,2.9-7.36V242a9.94,9.94,0,0,0-10.52-10.52H483.86V152.56a10.85,10.85,0,0,0-2.89-7.62Z"/><path class="cls-2" d="M431.26,10.52H373.39L357.6,26.3V131.52h94.7V26.3l-21-15.78m-57.87,21h10.52V84.17H373.39V31.56m0,84.18v-21h10.52v21Z"/><path class="cls-3" d="M373.39,94.69v21h10.52v-21H373.39m10.52-63.13H373.39V84.17h10.52Z"/><path class="cls-17" d="M462.82,26.3a11.61,11.61,0,0,0-1.05-4.73,10.36,10.36,0,0,0-3.16-3.68l-21-15.79A10.51,10.51,0,0,0,431.26,0H373.39A10,10,0,0,0,366,2.89L350.24,18.68a10.39,10.39,0,0,0-3.16,7.62V127.05l10.52,4.47V26.3l15.79-15.78h57.87l21,15.78V131.52l10.52-4.47Z"/></g><g id="Layer0_258_MEMBER_1_MEMBER_1_FILL" data-name="Layer0 258 MEMBER 1 MEMBER 1 FILL"><path class="cls-13" d="M262.91,336.69l26.3-26.3V294.61H99.82v15.78l21.84,24.46Z"/><path class="cls-14" d="M262.91,242V215.69H126.13V242Z"/><path class="cls-15" d="M289.21,294.61V242H99.82v52.61H289.21m-142-163.09-21,21H262.91l-21-21Z"/><path class="cls-12" d="M262.91,152.56H126.13v63.13H262.91Z"/><path class="cls-2" d="M147.17,26.3V131.52h94.7V26.3L220.82,10.52H163L147.17,26.3M163,31.56h10.53V84.17H163V31.56m0,84.18v-21h10.53v21Z"/><path class="cls-3" d="M163,94.69v21h10.53v-21H163m10.53-63.13H163V84.17h10.53Z"/><path class="cls-17" d="M136.65,127.05l10.52,4.47V26.3L163,10.52h57.87L241.87,26.3V131.52l10.52-4.47V26.3a11.61,11.61,0,0,0-1-4.73,10.57,10.57,0,0,0-3.16-3.68l-21-15.79A10.54,10.54,0,0,0,220.82,0H163a10,10,0,0,0-7.36,2.89L139.81,18.68a10.35,10.35,0,0,0-3.16,7.62Z"/><path class="cls-16" d="M136.65,127.05l-17.89,17.89a10.38,10.38,0,0,0-3.15,7.62v78.92H99.82a10,10,0,0,0-7.36,2.89A10.41,10.41,0,0,0,89.3,242v68.39a9.85,9.85,0,0,0,2.63,6.84l21.84,24.46a8.87,8.87,0,0,0,3.68,2.63,8.35,8.35,0,0,0,4.21,1.05l141.25,1.84a11,11,0,0,0,7.63-3.15l26.3-26.31a10,10,0,0,0,2.9-7.36V242a9.95,9.95,0,0,0-10.53-10.52H273.43V152.56a10.85,10.85,0,0,0-2.89-7.62l-18.15-17.89-10.52,4.47,21,21V242h26.3v68.39l-26.3,26.3-141.25-1.84L99.82,310.39V242h26.31V152.56l21-21Z"/></g><g id="Layer0_258_MEMBER_2_MEMBER_0_FILL" data-name="Layer0 258 MEMBER 2 MEMBER 0 FILL"><path class="cls-18" d="M414.42,339.85l5.26,50.24Q532,383.78,589.34,186l-3.15-11.57Q522.26,319.06,414.42,339.85Z"/><path class="cls-19" d="M455.72,208.59l-53.4,20.78,6.58,60.24,45.5-18.41,12.63-36-11.31-26.57m-55,4.74,48.67-19.47-11.84-27.62L397.06,181l3.68,32.36M406,11.05l-10,.79,95.48,192.54,92.33-38.93-7.63-27.88-87.06,33.14Z"/><path class="cls-20" d="M592.5,157.3l-6.31,17.1L589.34,186Q532,383.78,419.68,390.09l-5.26-50.24-10.52,1.31,5.26,50a10.22,10.22,0,0,0,3.68,6.84,9.6,9.6,0,0,0,7.37,2.63q119.42-5,179.39-211.75a10.7,10.7,0,0,0,0-5.78Z"/><path class="cls-21" d="M396,11.84l-17.1,1.84L397.06,181l40.51-14.73,11.84,27.62-48.67,19.47,1.58,16,53.4-20.78L467,235.16l-12.63,36-45.5,18.41,5.52,50.24Q522.27,319.08,586.19,174.4l-2.37-9-92.33,38.93Z"/><path class="cls-22" d="M378.91,13.68,396,11.84l10-.79,83.13,159.66,87.06-33.14,7.63,27.88,2.37,9,6.31-17.1-6-22.62a13.37,13.37,0,0,0-3.16-5,12.4,12.4,0,0,0-5-2.63,10.87,10.87,0,0,0-5.79.53l-78.39,30L415.47,6.05A11.5,11.5,0,0,0,411,1.84,10.53,10.53,0,0,0,405,.53L377.86,3.16a10.79,10.79,0,0,0-7.1,3.94,9.55,9.55,0,0,0-2.37,7.63L403.9,341.16l10.52-1.31-5.52-50.24-6.58-60.24-1.58-16L397.06,181Z"/></g><g id="Layer0_258_MEMBER_2_MEMBER_1_FILL" data-name="Layer0 258 MEMBER 2 MEMBER 1 FILL"><path class="cls-18" d="M180.32,390.09l5.26-50.24Q77.73,319.08,13.81,174.4L10.65,186Q68,383.78,180.32,390.09Z"/><path class="cls-19" d="M199.25,213.33,202.94,181l-40.51-14.73-11.84,27.62,48.66,19.47m-8.15,76.28,6.58-60.24-53.4-20.78L133,235.16l12.62,36,45.51,18.41m-167.29-152-7.63,27.88,92.32,38.93L204,11.84l-10-.79L110.87,170.71Z"/><path class="cls-21" d="M16.18,165.45l-2.37,9Q77.72,319.06,185.58,339.85l5.52-50.24L145.59,271.2l-12.62-36,11.31-26.57,53.4,20.78,1.57-16-48.66-19.47,11.84-27.62L202.94,181,221.09,13.68,204,11.84,108.5,204.38Z"/><path class="cls-20" d="M13.81,174.4,7.5,157.3.39,183.08a10.9,10.9,0,0,0,0,5.78q60,206.76,179.4,211.75a9.58,9.58,0,0,0,7.36-2.63,10.19,10.19,0,0,0,3.69-6.84l5.26-50-10.52-1.31-5.26,50.24Q68,383.78,10.65,186Z"/><path class="cls-22" d="M13.55,134.68,7.5,157.3l6.31,17.1,2.37-9,7.63-27.88,87.06,33.14L194,11.05l10,.79,17.1,1.84L202.94,181l-3.69,32.36-1.57,16-6.58,60.24-5.52,50.24,10.52,1.31L231.61,14.73a9.55,9.55,0,0,0-2.37-7.63,10.81,10.81,0,0,0-7.1-3.94L195.05.53A10.56,10.56,0,0,0,189,1.84a11.64,11.64,0,0,0-4.47,4.21L105.87,157.56l-78.38-30a10.87,10.87,0,0,0-5.79-.53,12.51,12.51,0,0,0-5,2.63A13.47,13.47,0,0,0,13.55,134.68Z"/></g><g id="Layer0_258_MEMBER_3_FILL" data-name="Layer0 258 MEMBER 3 FILL"><path class="cls-23" d="M454.14,133.1a12.9,12.9,0,0,0-3.68-4.47L357.34,69.18a11,11,0,0,0-5.79-1.58H247.92a9.75,9.75,0,0,0-5.53,1.58l-93.11,59.45a11.92,11.92,0,0,0-3.95,4.47,8.57,8.57,0,0,0-.79,5.52Q166.38,324.34,294,410.34a9.85,9.85,0,0,0,5.79,1.85,11.11,11.11,0,0,0,6.05-1.85q127.31-86,149.4-271.72a10,10,0,0,0-1.05-5.52m-56-25.25,46.56,29.72Q423.37,318,299.74,401.66,176.11,318,154.8,137.57l46.56-29.72,46.56-29.73H351.55Z"/><path class="cls-24" d="M201.36,107.85,154.8,137.57Q176.1,318,299.74,401.66q-102.06-94.17-98.38-293.81m243.31,29.72-46.56-29.72q3.69,199.65-98.37,293.81Q423.37,318,444.67,137.57Z"/><path class="cls-25" d="M351.55,78.12H247.92l-46.56,29.73q-3.69,199.65,98.38,293.81,102.06-94.17,98.37-293.81Z"/></g><g id="Layer0_258_MEMBER_4_FILL" data-name="Layer0 258 MEMBER 4 FILL"><path class="cls-26" d="M308.94,161.24a5.3,5.3,0,0,0-1.31,3.42V338.27a4.51,4.51,0,0,0,1.05,2.89,4.16,4.16,0,0,0,2.37,1.85,3.34,3.34,0,0,0,2.89.26,6.15,6.15,0,0,0,2.89-1.32Q360.5,297.24,365.5,187a7.06,7.06,0,0,0-.79-3.15A4.34,4.34,0,0,0,362.6,182l-47.35-22.09a6.07,6.07,0,0,0-3.41-.53A5.57,5.57,0,0,0,308.94,161.24Z"/><path class="cls-27" d="M291.06,161.24a7.51,7.51,0,0,0-2.9-1.84,5.68,5.68,0,0,0-3.42.53L237.39,182a4.21,4.21,0,0,0-2.36,1.85,6.93,6.93,0,0,0-.79,3.15q5,110.22,48.92,154.93a4.73,4.73,0,0,0,2.63,1.32A4,4,0,0,0,289,343a5.79,5.79,0,0,0,2.37-1.85,5.55,5.55,0,0,0,.79-2.89V164.66A6.09,6.09,0,0,0,291.06,161.24Z"/></g></g></g></svg>