<svg xmlns="http://www.w3.org/2000/svg" viewBox="0 0 174.55 124.66"><defs><style>.cls-1{fill:#7b7b7b;}.cls-2{fill:#cbcbcb;}.cls-3{fill:#aaa;}.cls-4{fill:#78888c;}.cls-5{fill:#adc4c9;}.cls-6{fill:#a1b6bb;}.cls-7{fill:#95a8ad;}.cls-8{fill:#b5cdd2;}.cls-9{fill:#484848;}.cls-10{fill:#5b5b5b;}.cls-11{fill:#6d6d6d;}.cls-12{fill:#bd3e3e;}.cls-13{fill:#ac3939;}.cls-14{fill:#802b2b;}.cls-15{fill:#e9e9e9;}.cls-16{fill:#bbb;}.cls-17{fill:#eee;}.cls-18{fill:#d9d9d9;}</style></defs><title>Ресурс 60</title><g id="Слой_2" data-name="Слой 2"><g id="Слой_1-2" data-name="Слой 1"><path class="cls-1" d="M123.22,82.66a2.05,2.05,0,0,0-2,2v6a2,2,0,0,0,.6,1.45l3.4,3.4v14.3l-1.4,1.45a1.8,1.8,0,0,0-.6,1.4v10a2,2,0,0,0,.6,1.45,1.91,1.91,0,0,0,1.4.55h8a1.89,1.89,0,0,0,2-2v-10a1.91,1.91,0,0,0-.55-1.4l-1.45-1.45V95.51l3.45-3.4a2.11,2.11,0,0,0,.55-1.45v-6a1.91,1.91,0,0,0-.55-1.4,2,2,0,0,0-1.45-.6h-12"/><polyline class="cls-2" points="133.22 122.66 133.22 112.66 131.22 110.66 127.22 110.66 125.22 112.66 125.22 122.66 133.22 122.66"/><polyline class="cls-2" points="123.22 90.66 127.22 94.66 131.22 94.66 135.22 90.66 135.22 84.66 123.22 84.66 123.22 90.66"/><polyline class="cls-3" points="131.22 94.66 127.22 94.66 127.22 110.66 131.22 110.66 131.22 94.66"/><path class="cls-1" d="M39.21,82.14a2.05,2.05,0,0,0-2,2v6a2,2,0,0,0,.6,1.45l3.4,3.4v14.3l-1.4,1.45a1.82,1.82,0,0,0-.6,1.4v10a2,2,0,0,0,.6,1.45,1.87,1.87,0,0,0,1.4.55h8a2.07,2.07,0,0,0,1.45-.55,2.09,2.09,0,0,0,.55-1.45v-10a1.92,1.92,0,0,0-.55-1.4l-1.45-1.45V95l3.45-3.4a2.09,2.09,0,0,0,.55-1.45v-6a1.92,1.92,0,0,0-.55-1.4,2,2,0,0,0-1.45-.6h-12"/><polyline class="cls-2" points="49.2 122.14 49.2 112.14 47.2 110.14 43.2 110.14 41.2 112.14 41.2 122.14 49.2 122.14"/><polyline class="cls-2" points="39.2 90.14 43.2 94.14 47.2 94.14 51.2 90.14 51.2 84.14 39.2 84.14 39.2 90.14"/><polyline class="cls-3" points="47.2 94.14 43.2 94.14 43.2 110.14 47.2 110.14 47.2 94.14"/><g id="Layer0_264_MEMBER_0_FILL" data-name="Layer0 264 MEMBER 0 FILL"><path class="cls-4" d="M12.31,54.28a2.48,2.48,0,0,0-.71,1.81v5.17a2.7,2.7,0,0,0,.71,1.88.19.19,0,0,1,.13.06l-.13.13a2.48,2.48,0,0,0-.71,1.81v5.17a2.72,2.72,0,0,0,.71,1.88,2.7,2.7,0,0,0,1.88.71H31.12L43.27,86.27a2.52,2.52,0,0,0,.84.59l.06.06a2.94,2.94,0,0,0,1,.19H69.76a2.41,2.41,0,0,0,1.81-.71,2.53,2.53,0,0,0,.78-1.87V79.36a2.34,2.34,0,0,0-.78-1.81.19.19,0,0,0-.06-.13l.06-.06a2.57,2.57,0,0,0,.78-1.88V70.31a2.65,2.65,0,0,0-2.59-2.58h-17L39.26,54.28a.15.15,0,0,0-.07-.12,2.44,2.44,0,0,0-1.74-.65H14.19a2.47,2.47,0,0,0-1.75.65l-.13.12m1.88,7V56.09H37.45L51.67,70.31H69.76v5.17H49.08L35.25,61.65l-.38-.39H14.19m0,9.05V65.14H33.57l.2.2L47.6,79.23l.19.13h22v5.17H45.21L32.28,70.31H14.19m121-16.15a.15.15,0,0,0-.07.12l-13.5,13.45h-17a2.63,2.63,0,0,0-2.58,2.58v5.17a2.56,2.56,0,0,0,.77,1.88l.07.06a.17.17,0,0,0-.07.13,2.33,2.33,0,0,0-.77,1.81v5.17a2.52,2.52,0,0,0,.77,1.87,2.43,2.43,0,0,0,1.81.71h24.56a2.88,2.88,0,0,0,1-.19l.07-.06a2.74,2.74,0,0,0,.84-.59L143.31,72.9h16.93a2.44,2.44,0,0,0,2.58-2.59V65.14a2.44,2.44,0,0,0-.71-1.81L162,63.2a.22.22,0,0,1,.13-.06,2.65,2.65,0,0,0,.71-1.88V56.09a2.44,2.44,0,0,0-.71-1.81l-.13-.12a2.44,2.44,0,0,0-1.74-.65H137a2.44,2.44,0,0,0-1.74.65M104.66,75.48V70.31h18.1L137,56.09h23.27v5.17H139.56l-.39.39L125.34,75.48H104.66m0,9V79.36h22l.2-.13,13.83-13.89.19-.2h19.39v5.17h-18.1L129.22,84.53Z"/><path class="cls-5" d="M32.28,70.31,45.21,84.53l2.39-5.3L33.77,65.34l-2,5h.52m5.17-14.22-2.2,5.56L49.08,75.48h.2l2.39-5.17L37.45,56.09m89.38,23.14,2.39,5.3,12.92-14.22h.52l-2-5L126.83,79.23m-4.07-8.92,2.39,5.17h.19l13.83-13.83L137,56.09Z"/><path class="cls-6" d="M47.79,79.36l-.19-.13-2.39,5.3H69.76V79.36h-22M14.19,65.14v5.17H31.76l2-5-.2-.2H14.19m37.48,5.17-2.39,5.17H69.76V70.31H51.67M14.19,56.09v5.17H34.87l.38.39,2.2-5.56H14.19M160.24,70.31V65.14H140.85l-.19.2,2,5h17.58m-55.58,9v5.17h24.56l-2.39-5.3-.2.13h-22m34.51-17.71.39-.39h20.68V56.09H137l2.2,5.56m-34.51,8.66v5.17h20.49l-2.39-5.17Z"/></g><g id="Layer0_264_MEMBER_1_FILL" data-name="Layer0 264 MEMBER 1 FILL"><path class="cls-4" d="M54.9,0a1.8,1.8,0,0,0-.71.13,8.17,8.17,0,0,0-5.5,4.72H29.89A2.6,2.6,0,0,0,28,5.62a2.48,2.48,0,0,0-.71,1.81v22A2.44,2.44,0,0,0,29.89,32h3.88v6.46A2.9,2.9,0,0,0,34,39.62a2.76,2.76,0,0,0,.78.9l4.14,3.1V72.06a2.65,2.65,0,0,0,.71,1.87l5.17,5.17a2.6,2.6,0,0,0,1.81.71H63.17A2.62,2.62,0,0,0,65,79.1l5.17-5.17a2.69,2.69,0,0,0,.71-1.87V43.62L75,40.52a2.61,2.61,0,0,0,.77-.9A2.76,2.76,0,0,0,76,38.45V32h3.88a2.44,2.44,0,0,0,2.58-2.59v-22a2.44,2.44,0,0,0-.71-1.81,2.56,2.56,0,0,0-1.87-.77H61.1A8.13,8.13,0,0,0,55.61.13,1.83,1.83,0,0,0,54.9,0M50.57,7.43A6.16,6.16,0,0,1,54.9,2.58a6.16,6.16,0,0,1,4.33,4.85H79.91v22H73.45v9.05l-5.17,3.88V72.06l-5.17,5.17H46.69l-5.17-5.17V42.33l-5.17-3.88V29.4H29.89v-22H50.57m95.84-1.81a2.58,2.58,0,0,0-1.88-.77h-18.8a8.12,8.12,0,0,0-5.5-4.72,1.8,1.8,0,0,0-.71-.13,1.87,1.87,0,0,0-.71.13,8.13,8.13,0,0,0-5.49,4.72H94.51a2.58,2.58,0,0,0-1.87.77,2.48,2.48,0,0,0-.71,1.81v22A2.44,2.44,0,0,0,94.51,32h3.88v6.46a2.91,2.91,0,0,0,.26,1.17,2.54,2.54,0,0,0,.78.9l4.13,3.1V72.06a2.69,2.69,0,0,0,.71,1.87l5.17,5.17a2.62,2.62,0,0,0,1.81.71H127.8a2.63,2.63,0,0,0,1.81-.71l5.17-5.17a2.69,2.69,0,0,0,.71-1.87V43.62l4.13-3.1a2.54,2.54,0,0,0,.78-.9,2.91,2.91,0,0,0,.26-1.17V32h3.87a2.44,2.44,0,0,0,2.59-2.59v-22a2.48,2.48,0,0,0-.71-1.81M144.53,10V29.4h-6.46v9.05l-5.17,3.88V72.06l-5.17,5.17H111.32l-5.17-5.17V42.33L101,38.45V29.4H94.51v-22h20.68a6.16,6.16,0,0,1,4.33-4.85,6.14,6.14,0,0,1,4.33,4.85h20.68Z"/><path class="cls-6" d="M41.52,72.06l5.17,5.17H63.11l5.17-5.17V42.33H41.52V72.06M54.9,2.58a6.16,6.16,0,0,0-4.33,4.85h8.66A6.16,6.16,0,0,0,54.9,2.58m72.83,74.65,5.17-5.17V42.33H106.15V72.06l5.17,5.17h16.41M115.19,7.43h8.66a6.14,6.14,0,0,0-4.33-4.85A6.16,6.16,0,0,0,115.19,7.43Z"/><path class="cls-5" d="M45.4,35.87V33.28h-9v2.59h9m28.05,0V33.28h-9v2.59h9m0-6.47h6.46V10h-50V29.4H73.45M110,35.87V33.28h-9v2.59h9m19-2.59v2.59h9V33.28h-9m15.51-3.88V10h-50V29.4h50Z"/><path class="cls-7" d="M73.45,29.4H36.35v3.88h9v2.59h-9v2.58l5.17,3.88H68.28l5.17-3.88V35.87h-9V33.28h9V29.4M129,35.87V33.28h9V29.4H101v3.88h9v2.59h-9v2.58l5.17,3.88H132.9l5.17-3.88V35.87Z"/><path class="cls-8" d="M79.91,10V7.43h-50V10h50m64.62,0V7.43h-50V10Z"/></g><g id="Layer0_264_MEMBER_2_FILL" data-name="Layer0 264 MEMBER 2 FILL"><path class="cls-9" d="M99.75,21.2a2.24,2.24,0,0,0-.91-1.42,2.46,2.46,0,0,0-1.61-.59h-20a2.46,2.46,0,0,0-1.61.59,2.24,2.24,0,0,0-.91,1.42L59.16,88.86a2.44,2.44,0,0,0,.13,1.55,2.77,2.77,0,0,0,1,1.23l16.68,11.11a2.68,2.68,0,0,0,1.42.39h17.7a2.72,2.72,0,0,0,1.43-.39l16.67-11.11a2.77,2.77,0,0,0,1-1.23,2.44,2.44,0,0,0,.13-1.55L99.75,21.2m8.53,49.37,4.46,18.87L96.06,100.56H78.36L61.68,89.44l4.46-18.87,11-48.79h20Z"/><path class="cls-10" d="M66.14,70.57,61.68,89.44l16.68,11.12h4.39l-16.61-30m46.6,18.87-4.46-18.87-16.61,30h4.39Z"/><path class="cls-11" d="M108.28,70.57l-11-48.79h-20l-11,48.79,16.61,30h8.92Z"/></g><g id="Layer0_264_MEMBER_3_FILL" data-name="Layer0 264 MEMBER 3 FILL"><path class="cls-12" d="M35.45,57.65l13.12-5.11L47,37.74,35.77,42.26l-3.1,8.86,2.78,6.53M49,56.48,37,61.26l2.91,6.79,10-3.62-.91-8M4,68.24l1.88,6.85L27.24,67l20.42,39.23,2.46-.2L26.66,58.68,4,68.24M168.7,75.09l1.88-6.85-22.69-9.56L124.44,106l2.45.2L147.31,67l21.39,8.14M127.6,37.74,126,52.54l13.12,5.11,2.77-6.53-3.1-8.86L127.6,37.74m-2.91,26.69,10,3.62,2.9-6.79-12-4.78Z"/><path class="cls-13" d="M3.39,66.05,4,68.24l22.69-9.56L50.12,106l4.2-.45-4.46-41.1-10,3.62L37,61.26l12-4.78-.38-3.94L35.45,57.65l-2.78-6.53,3.1-8.86L47,37.74,45.59,25.4Q19.1,30.5,3.39,66.05m131.26,2-10-3.62-4.46,41.1,4.21.45,23.45-47.3,22.69,9.56.58-2.19Q155.45,30.5,129,25.4L127.6,37.74l11.18,4.52,3.1,8.86-2.77,6.53L126,52.54l-.39,3.94,12,4.78Z"/><path class="cls-14" d="M48.18,25.07l-2.59.33L47,37.74l1.62,14.8L49,56.48l.91,8,4.46,41.1-4.2.45-2.46.2L27.24,67,5.85,75.09,4,68.24l-.58-2.19-1.55,4.2,1.49,5.56A3.29,3.29,0,0,0,4.1,77a3.16,3.16,0,0,0,1.23.65,2.66,2.66,0,0,0,1.42-.13L26,70.18l19.32,37.23a2.88,2.88,0,0,0,1.1,1,2.54,2.54,0,0,0,1.49.32l6.66-.64a2.65,2.65,0,0,0,1.74-1,2.36,2.36,0,0,0,.58-1.88l-8.72-80.2M129,25.4l-2.59-.33-8.72,80.2a2.36,2.36,0,0,0,.58,1.88,2.7,2.7,0,0,0,1.75,1l6.65.64a2.54,2.54,0,0,0,1.49-.32,2.88,2.88,0,0,0,1.1-1l19.32-37.23,19.26,7.37a2.67,2.67,0,0,0,1.42.13,3.16,3.16,0,0,0,1.23-.65,3.29,3.29,0,0,0,.77-1.22l1.49-5.56-1.55-4.2-.58,2.19-1.88,6.85L147.31,67l-20.42,39.23-2.45-.2-4.21-.45,4.46-41.1.91-8,.39-3.94,1.61-14.8Z"/><path class="cls-15" d="M45.59,25.4,44.3,13.05Q16.7,14.61,2.62,63.2l.77,2.85Q19.1,30.5,45.59,25.4m84.66-12.35L129,25.4q26.49,5.1,42.2,40.65l.77-2.85Q157.84,14.6,130.25,13.05Z"/><path class="cls-16" d="M44.3,13.05,45.59,25.4l2.59-.33L46.89,12.8A2.52,2.52,0,0,0,46,11.12a2.36,2.36,0,0,0-1.81-.65Q14.83,11.7.1,62.49a2.63,2.63,0,0,0,0,1.42l1.74,6.34,1.55-4.2L2.62,63.2Q16.71,14.6,44.3,13.05M129,25.4l1.29-12.35q27.6,1.56,41.68,50.15l-.77,2.85,1.55,4.2,1.74-6.34a2.63,2.63,0,0,0,0-1.42q-14.73-50.79-44.07-52a2.36,2.36,0,0,0-1.81.65,2.47,2.47,0,0,0-.9,1.68l-1.3,12.27Z"/></g><g id="Layer0_264_MEMBER_4_FILL" data-name="Layer0 264 MEMBER 4 FILL"><path class="cls-17" d="M87.28,96V58.49l-9.12,4.65v.06L71.7,89.44Z"/><path class="cls-18" d="M96.32,63.2l-9-4.71V96l15.44-6.53Z"/></g></g></g></svg>