<svg xmlns="http://www.w3.org/2000/svg" viewBox="0 0 28.95 132"><defs><style>.cls-1{fill:#9f9f9f;}.cls-2{fill:#e2e2e2;}.cls-3{fill:#d2d2d2;}.cls-4{fill:#a1b6bb;}.cls-5{fill:#78888c;}.cls-6{fill:#802b2b;}.cls-7{fill:#ac3939;}.cls-8{fill:#bd3e3e;}</style></defs><title>Ресурс 1</title><g id="Слой_2" data-name="Слой 2"><g id="Слой_1-2" data-name="Слой 1"><g id="Layer0_122_FILL" data-name="Layer0 122 FILL"><path class="cls-1" d="M2,40.05v-.6H0V111.7H2V40.05m27,0v-.6H27V111.7h2Z"/><path class="cls-2" d="M27,91V61H2V91H27M23.8,83v4.4H14.2V83h9.6M27,111.7V93H2v18.7H27m0-71.65v-.6H2V59H27Z"/><path class="cls-3" d="M23.8,87.35V83H14.2v4.4h9.6M27,93V91H2v2H27m0-32V59H2v2Z"/><path class="cls-4" d="M27,117.45V111.7H2v5.75L9.4,130H19.6Z"/><path class="cls-5" d="M29,117.45V111.7H27v5.75L19.6,130H9.4L2,117.45V111.7H0v5.75a2.26,2.26,0,0,0,.25,1l7.4,12.55a3,3,0,0,0,.75.7,2,2,0,0,0,1,.25H19.6a2,2,0,0,0,1-.25,2.18,2.18,0,0,0,.7-.75l7.35-12.55A1.76,1.76,0,0,0,29,117.45Z"/><path class="cls-6" d="M26.75,33c.07,1,.1,2,.1,3l0,2a7.16,7.16,0,0,1,.05.8v.65h2c0-2.27-.07-4.43-.2-6.5Q27.4,3.14,15.05.1A1.6,1.6,0,0,0,14,.1Q1.6,3.15.15,33C.08,34.58,0,36.27,0,38v1.45H2V38l0-2c0-1,.07-2,.1-3Q3.5,5.1,14.5,2,25.49,5.11,26.75,33Z"/><path class="cls-7" d="M26.85,36c0-.67-.07-1.33-.1-2Q25.51,10.35,14.5,7.75,3.5,10.35,2.15,34l-.1,2,0,2v1.45H27V38.8a7.16,7.16,0,0,0-.05-.8Z"/><path class="cls-8" d="M26.75,34c0,.67.07,1.33.1,2,0-1,0-2-.1-3Q25.51,5.1,14.5,2,3.5,5.11,2.15,33c0,1-.07,2-.1,3l.1-2Q3.5,10.35,14.5,7.75,25.49,10.35,26.75,34Z"/></g></g></g></svg>