<svg xmlns="http://www.w3.org/2000/svg" viewBox="0 0 34.25 84.39"><defs><style>.cls-1{fill:#5b5b5b;}.cls-2{fill:#464646;}.cls-3{fill:#6d6d6d;}.cls-4{fill:#abcdd2;}.cls-5{fill:#98b6bc;}.cls-6{fill:#71888c;}.cls-7{fill:#8da9ae;}.cls-8{fill:#a3c4ca;}.cls-9{fill:#a4a4a4;}.cls-10{fill:#d9d9d9;}.cls-11{fill:#ac3939;}</style></defs><title>Ресурс 33</title><g id="Слой_2" data-name="Слой 2"><g id="Слой_1-2" data-name="Слой 1"><g id="Layer0_159_FILL" data-name="Layer0 159 FILL"><path class="cls-1" d="M10.13,73.39h6.31V65.62H10.13v7.77m13.92,0V65.62H17.73v7.77Z"/><path class="cls-2" d="M8.29,65.62l.55.55v6.67l-.55.55h1.84V65.62H8.29m17.05.55.54-.55H24.05v7.77h1.83l-.54-.55Z"/><path class="cls-3" d="M17.73,65.62H16.44v7.77h1.29Z"/><path class="cls-4" d="M26,75.33l-1.93-1.94H10.13L8.2,75.33H26M23.4,44.26,22.11,43h-10l-1.29,1.3Z"/><path class="cls-5" d="M26.63,76,26,75.33H8.2L7.55,76v4.53l2.87,2.59H23.76l2.87-2.59V76M8.2,46.84v2.59H26V46.84L23.4,44.26H10.77Z"/><path class="cls-6" d="M27.91,76a1.28,1.28,0,0,0-.16-.65,1.17,1.17,0,0,0-.19-.26l-1.68-1.68H24.05L26,75.33l.65.65v4.53L23.76,83.1H10.42L7.55,80.51V76l.65-.65,1.93-1.94H8.29L6.62,75.07a1.17,1.17,0,0,0-.2.26,1.39,1.39,0,0,0-.16.65v4.53a1.72,1.72,0,0,0,.1.55,2.12,2.12,0,0,0,.32.42l2.87,2.59a1.36,1.36,0,0,0,.87.32H23.76a1.36,1.36,0,0,0,.87-.32l2.87-2.59a2.59,2.59,0,0,0,.32-.42,1.71,1.71,0,0,0,.09-.55V76m-5.8-33,1.29,1.3L26,46.84V63.68l-1.93,1.94h1.83l1-1a1.34,1.34,0,0,0,.35-.93V46.84a1.25,1.25,0,0,0-.35-.9l-3.87-3.89a1.31,1.31,0,0,0-.94-.38h-10a1.3,1.3,0,0,0-.93.38L7.26,45.94a1.25,1.25,0,0,0-.35.9V63.68a1.34,1.34,0,0,0,.35.93l1,1h1.84L8.2,63.68V46.84l2.57-2.58L12.06,43Z"/><path class="cls-7" d="M12.58,56.55v3.24H10V56.55H8.2v7.13l1.93,1.94H24.05L26,63.68V56.55h-1.8v3.24H21.6V56.55Z"/><path class="cls-8" d="M8.2,49.43v7.12H10v3.24h2.58V56.55h9v3.24h2.58V56.55H26V49.43Z"/></g><g id="Layer0_158_FILL" data-name="Layer0 158 FILL"><path class="cls-6" d="M11,17a.58.58,0,0,0,.43.18H15.7A1.87,1.87,0,0,0,17,18.3a.41.41,0,0,0,.16,0,.47.47,0,0,0,.17,0,1.89,1.89,0,0,0,1.26-1.08h4.32A.58.58,0,0,0,23.3,17a.57.57,0,0,0,.16-.42v-5a.6.6,0,0,0-.16-.43.61.61,0,0,0-.43-.17H22V9.5a.66.66,0,0,0-.06-.27A.6.6,0,0,0,21.74,9l-.95-.71V1.78a.65.65,0,0,0-.16-.43L19.44.16A.6.6,0,0,0,19,0h-3.8a.57.57,0,0,0-.41.16L13.62,1.35a.6.6,0,0,0-.16.43V8.31l-1,.71a.6.6,0,0,0-.18.21.66.66,0,0,0-.06.27V11h-.89a.58.58,0,0,0-.6.6v5A.57.57,0,0,0,11,17m.43-.42v-5h1.48V9.5l1.19-.89V1.78L15.24.59H19L20.2,1.78V8.61l1.18.89v2.08h1.49v5H18.12a1.41,1.41,0,0,1-1,1.12,1.42,1.42,0,0,1-1-1.12Z"/><path class="cls-5" d="M20.2,1.78,19,.59H15.24L14.05,1.78V8.61H20.2V1.78M18.12,16.62h-2a1.42,1.42,0,0,0,1,1.12A1.41,1.41,0,0,0,18.12,16.62Z"/><path class="cls-8" d="M19.3,10.69h2.08v-.6H19.3v.6m-6.44-.6v.6h2.08v-.6H12.86m0,1.49H11.38V16H22.87V11.58h-10Z"/><path class="cls-7" d="M12.86,10.69v.89h8.52v-.89H19.3v-.6h2.08V9.5L20.2,8.61H14.05l-1.19.89v.59h2.08v.6Z"/><path class="cls-4" d="M11.38,16v.59H22.87V16Z"/></g><path class="cls-9" d="M34.09,51.57a2.16,2.16,0,0,0,.1-1.3L22.84,8.67a1.91,1.91,0,0,0-.75-1,1.87,1.87,0,0,0-1.2-.45H13.34a1.87,1.87,0,0,0-1.2.45,1.7,1.7,0,0,0-.7,1L.09,50.27a1.94,1.94,0,0,0,.05,1.3L10,75.47a2.42,2.42,0,0,0,.75.85,1.89,1.89,0,0,0,1.1.35h10.4a1.89,1.89,0,0,0,1.1-.35,2.42,2.42,0,0,0,.75-.85l10-23.9M13.34,9.17h7.55l11.35,41.6-10,23.9H11.89L2,50.77Z"/><path class="cls-10" d="M25.84,51.47l-3.55,23.2,10-23.9L20.89,9.17l4.95,42.3M2,50.77l9.9,23.9L8.34,51.47l5-42.3Z"/><path class="cls-11" d="M20.89,9.17H13.34l-5,42.3,3.55,23.2h10.4l3.55-23.2Z"/></g></g></svg>