<svg xmlns="http://www.w3.org/2000/svg" viewBox="0 0 162.71 139.33"><defs><style>.cls-1{fill:#484848;}.cls-2{fill:#5b5b5b;}.cls-3{fill:#626262;}.cls-4{fill:#7b7b7b;}.cls-5{fill:#aaa;}.cls-6{fill:#cbcbcb;}.cls-7{fill:#adc4c9;}.cls-8{fill:#6d6d6d;}.cls-9{fill:#a1b6bb;}.cls-10{fill:#95a8ad;}.cls-11{fill:#b5cdd2;}.cls-12{fill:#78888c;}.cls-13{fill:#bd3e3e;}.cls-14{fill:#e9e9e9;}.cls-15{fill:#bbb;}.cls-16{fill:#802b2b;}.cls-17{fill:#ac3939;}.cls-18{fill:#d9d9d9;}.cls-19{fill:#eee;}</style></defs><title>Ресурс 58</title><g id="Слой_2" data-name="Слой 2"><g id="Слой_1-2" data-name="Слой 1"><g id="Layer0_263_MEMBER_0_FILL" data-name="Layer0 263 MEMBER 0 FILL"><path class="cls-1" d="M122.71,0A2.37,2.37,0,0,0,121,.71L117,4.27a1.91,1.91,0,0,0-.59.84,2.27,2.27,0,0,0-.25,1v22A2.56,2.56,0,0,0,117,30l1.81,1.81v5.36a2.53,2.53,0,0,0,.78,1.87,2.41,2.41,0,0,0,1.81.71h14.21a2.44,2.44,0,0,0,2.59-2.58V31.8L140,30a2.67,2.67,0,0,0,.71-1.88v-22A2.43,2.43,0,0,0,140,4.33L136.48.78A2.55,2.55,0,0,0,134.6,0H122.71m-3.94,6.14,3.94-3.56H134.6l3.56,3.56v22l-2.59,2.59v6.46H121.36V30.7l-2.59-2.59v-22M42.13.78A2.57,2.57,0,0,0,40.25,0H28.36a2.37,2.37,0,0,0-1.74.71L22.67,4.27a2,2,0,0,0-.58.84,2.28,2.28,0,0,0-.26,1v22A2.57,2.57,0,0,0,22.61,30l1.81,1.81v5.36A2.56,2.56,0,0,0,25.19,39a2.44,2.44,0,0,0,1.81.71H41.22a2.44,2.44,0,0,0,2.59-2.58V31.8L45.68,30a2.72,2.72,0,0,0,.71-1.88v-22a2.46,2.46,0,0,0-.71-1.81L42.13.78m-1.88,1.8,3.56,3.56v22L41.22,30.7v6.46H27V30.7l-2.58-2.59v-22l3.94-3.56Z"/><path class="cls-2" d="M138.16,28.11V24.23H118.77v3.88l2.59,2.59v6.46h14.21V30.7l2.59-2.59M122.71,2.58l-3.94,3.56V12.6h19.39V6.14L134.6,2.58H122.71M24.42,24.23v3.88L27,30.7v6.46H41.22V30.7l2.59-2.59V24.23H24.42M43.81,6.14,40.25,2.58H28.36L24.42,6.14V12.6H43.81Z"/><path class="cls-3" d="M138.16,12.6H118.77V24.23h19.39V12.6m-94.35,0H24.42V24.23H43.81Z"/></g><g id="Layer0_263_MEMBER_1_FILL" data-name="Layer0 263 MEMBER 1 FILL"><path class="cls-4" d="M107.14,100.56v7.75a2.6,2.6,0,0,0,.77,1.88l1.81,1.8v14.42a2.35,2.35,0,0,0-1.81.77,2.38,2.38,0,0,0-.77,1.81v7.76a2.58,2.58,0,0,0,.77,1.87,2.48,2.48,0,0,0,1.81.71h12.93a2.67,2.67,0,0,0,1.87-.71,2.65,2.65,0,0,0,.71-1.87V129a2.44,2.44,0,0,0-.71-1.81,2.52,2.52,0,0,0-1.87-.77V112l1.87-1.8a2.67,2.67,0,0,0,.71-1.88v-7.75a2.41,2.41,0,0,0-.71-1.81,2.53,2.53,0,0,0-1.87-.78H109.72a2.65,2.65,0,0,0-2.58,2.59m2.58,7.75v-7.75h12.93v7.75l-2.59,2.59V129h2.59v7.76H109.72V129h2.59V110.9l-2.59-2.59M36.83,98.75a2.32,2.32,0,0,0-.78,1.81v7.75a2.57,2.57,0,0,0,.78,1.88l1.81,1.8v14.42a2.32,2.32,0,0,0-1.81.77,2.35,2.35,0,0,0-.78,1.81v7.76a2.55,2.55,0,0,0,.78,1.87,2.45,2.45,0,0,0,1.81.71H51.56a2.44,2.44,0,0,0,2.59-2.58V129a2.48,2.48,0,0,0-.71-1.81,2.56,2.56,0,0,0-1.88-.77V112l1.88-1.8a2.72,2.72,0,0,0,.71-1.88v-7.75a2.45,2.45,0,0,0-.71-1.81A2.57,2.57,0,0,0,51.56,98H38.64a2.32,2.32,0,0,0-1.81.78m1.81,9.56v-7.75H51.56v7.75L49,110.9V129h2.58v7.76H38.64V129h2.58V110.9Z"/><path class="cls-5" d="M120.06,129V116.07h-7.75V129h7.75M49,116.07H41.22V129H49Z"/><path class="cls-6" d="M122.65,129H109.72v7.76h12.93V129m-12.93-28.43v7.75l2.59,2.59v5.17h7.75V110.9l2.59-2.59v-7.75H109.72M38.64,129v7.76H51.56V129H38.64m0-28.43v7.75l2.58,2.59v5.17H49V110.9l2.58-2.59v-7.75Z"/></g><g id="Layer0_263_MEMBER_2_MEMBER_0_FILL" data-name="Layer0 263 MEMBER 2 MEMBER 0 FILL"><path class="cls-7" d="M109.72,75.93l5.17,5.17h23.27l5.17-5.17H109.72m-6.46-22h46.53V41H103.26Z"/><path class="cls-2" d="M114.89,81.1V107l3.88,3.88H133l5.17-3.88V81.1H114.89M118.77,85h2.59v5.17h-2.59V85m0,7.76h2.59v12.92h-2.59Z"/><path class="cls-8" d="M121.36,92.74h-2.59v12.92h2.59V92.74m0-7.76h-2.59v5.17h2.59Z"/><path class="cls-1" d="M114.89,81.1l-2.58,1.1V107a2.58,2.58,0,0,0,.77,1.88l3.88,3.88a2.48,2.48,0,0,0,1.81.71H133a2.6,2.6,0,0,0,1.55-.52l5.17-3.88a2.76,2.76,0,0,0,.78-.9,2.9,2.9,0,0,0,.25-1.17V82.2l-2.58-1.1V107L133,110.83H118.77L114.89,107Z"/><path class="cls-9" d="M109.72,60.42V75.93h33.61V60.42Z"/><path class="cls-10" d="M109.72,54v6.46h33.61V54Z"/><path class="cls-11" d="M149.79,37.16l-6.46-6.46-34.7.45-5.37,6V41h46.53Z"/><path class="cls-12" d="M143.33,30.7l6.46,6.46V54h-6.46v22l-5.17,5.17,2.58,1.1,4.46-4.39a2.65,2.65,0,0,0,.71-1.88V56.55h3.88A2.44,2.44,0,0,0,152.38,54V37.16a2.46,2.46,0,0,0-.71-1.81l-6.47-6.46a2.68,2.68,0,0,0-1.87-.78l-34.7.45a2.08,2.08,0,0,0-1,.26,2.19,2.19,0,0,0-.9.65l-5.37,6a2.4,2.4,0,0,0-.64,1.68V54a2.56,2.56,0,0,0,.77,1.88,2.48,2.48,0,0,0,1.81.71h3.88V75.93a2.58,2.58,0,0,0,.77,1.88l4.4,4.39,2.58-1.1-5.17-5.17V54h-6.46V37.16l5.37-6Z"/></g><g id="Layer0_263_MEMBER_2_MEMBER_1_FILL" data-name="Layer0 263 MEMBER 2 MEMBER 1 FILL"><path class="cls-7" d="M47.68,81.1l5.17-5.17H19.25l5.17,5.17H47.68M59.32,41H12.79V54H59.32Z"/><path class="cls-2" d="M24.42,81.1V107l3.88,3.88H42.51L47.68,107V81.1H24.42M28.3,92.74h2.58v12.92H28.3V92.74m0-2.59V85h2.58v5.17Z"/><path class="cls-8" d="M28.3,85v5.17h2.58V85H28.3m2.58,7.76H28.3v12.92h2.58Z"/><path class="cls-1" d="M24.42,81.1l-2.59,1.1V107a2.55,2.55,0,0,0,.78,1.88l3.88,3.88a2.45,2.45,0,0,0,1.81.71H42.51a2.6,2.6,0,0,0,1.55-.52L49.23,109a2.54,2.54,0,0,0,.78-.9,2.91,2.91,0,0,0,.26-1.17V82.2l-2.59-1.1V107l-5.17,3.88H28.3L24.42,107Z"/><path class="cls-9" d="M52.85,75.93V60.42H19.25V75.93Z"/><path class="cls-10" d="M52.85,60.42V54H19.25v6.46Z"/><path class="cls-11" d="M12.79,37.16V41H59.32V37.16L52.85,30.7l-34.7.45Z"/><path class="cls-12" d="M17.12,28.82a2.22,2.22,0,0,0-.91.65l-5.36,6a2.41,2.41,0,0,0-.65,1.68V54A2.57,2.57,0,0,0,11,55.84a2.45,2.45,0,0,0,1.81.71h3.87V75.93a2.55,2.55,0,0,0,.78,1.88l4.39,4.39,2.59-1.1-5.17-5.17V54H12.79V37.16l5.36-6,34.7-.45,6.47,6.46V54H52.85v22L47.68,81.1l2.59,1.1,4.46-4.39a2.7,2.7,0,0,0,.71-1.88V56.55h3.88A2.44,2.44,0,0,0,61.9,54V37.16a2.46,2.46,0,0,0-.71-1.81l-6.46-6.46a2.7,2.7,0,0,0-1.88-.78l-34.7.45A2,2,0,0,0,17.12,28.82Z"/></g><g id="Layer0_263_MEMBER_3_FILL" data-name="Layer0 263 MEMBER 3 FILL"><path class="cls-1" d="M42.58,85.18a2.1,2.1,0,0,0,.19,1.35,3,3,0,0,0,1,1.1l22.88,14.61a2.38,2.38,0,0,0,1.36.38H93.44a2.68,2.68,0,0,0,1.42-.38l22.88-14.61a3.08,3.08,0,0,0,.9-1.1,2.45,2.45,0,0,0,.26-1.35q-5.43-45.63-36.71-66.76A2.73,2.73,0,0,0,80.71,18a2.42,2.42,0,0,0-1.42.45Q47.94,39.55,42.58,85.18m14,7.56L45.1,85.43q5.24-44.32,35.61-64.88,30.38,20.55,35.61,64.88l-11.44,7.31L93.44,100H68Z"/><path class="cls-8" d="M93.44,100l11.44-7.3q.9-49-24.17-72.19Q55.63,43.68,56.54,92.74L68,100Z"/><path class="cls-2" d="M104.88,92.74l11.44-7.31q-5.23-44.32-35.61-64.88,25.07,23.13,24.17,72.19M45.1,85.43l11.44,7.31q-.91-49,24.17-72.19Q50.34,41.1,45.1,85.43Z"/></g><g id="Layer0_263_MEMBER_4_MEMBER_0_FILL" data-name="Layer0 263 MEMBER 4 MEMBER 0 FILL"><path class="cls-13" d="M128.14,94.55q-1.15,5.16-2.45,10.79l12.34-4,1.42-6.78H128.14m12.35-4.85,1.68-7.82L133.31,68.7q-1.49,9.1-4.07,21Z"/><path class="cls-14" d="M144,41.36l-2.52,1.23a118.86,118.86,0,0,1,6.27,12.6q14,33.09-3.88,55l-16.67,20.35,6.72,3.23,17.77-23.58Q169.57,86.4,149,49.57,146.76,45.57,144,41.36Z"/><path class="cls-15" d="M142.94,39l-2.71,1.3,1.29,2.26L144,41.36q2.72,4.2,5,8.21,20.55,36.83,2.71,60.62L134,133.77l-6.72-3.23-1.68,2.07,7.3,3.49a2.68,2.68,0,0,0,1.74.19,2.89,2.89,0,0,0,1.43-1l17.77-23.58q19-24.88-2.52-63.4-2.33-4.06-5-8.34a2.74,2.74,0,0,0-1.49-1.1A2.25,2.25,0,0,0,142.94,39Z"/><path class="cls-16" d="M135.19,45.5l6.33-2.91-1.29-2.26-6.14,2.84a2.29,2.29,0,0,0-1.1,1,2.5,2.5,0,0,0-.39,1.55q.59,7.38-1.81,22.56-1.48,9-4.07,20.87c-.34,1.55-.71,3.15-1.1,4.78q-1.16,5.17-2.45,10.8-2.46,10.08-5.43,21.71a2.41,2.41,0,0,0,.13,1.75,2.38,2.38,0,0,0,1.22,1.22l6.47,3.17,1.68-2.07-7-3.42q3-11.7,5.5-21.78,1.29-5.62,2.45-10.79c.39-1.64.76-3.26,1.1-4.85q2.58-11.9,4.07-21Q135.83,53.12,135.19,45.5Z"/><path class="cls-17" d="M141.52,42.59l-6.33,2.91q.65,7.62-1.88,23.2l8.86,13.18-1.68,7.82H129.24c-.34,1.59-.71,3.21-1.1,4.85h11.31L138,101.33l-12.34,4q-2.46,10.08-5.5,21.78l7,3.42,16.67-20.35q17.9-21.91,3.88-55A118.86,118.86,0,0,0,141.52,42.59Z"/></g><g id="Layer0_263_MEMBER_4_MEMBER_1_FILL" data-name="Layer0 263 MEMBER 4 MEMBER 1 FILL"><path class="cls-13" d="M20.54,81.88l1.68,7.82H33.47q-2.59-11.9-4.07-21L20.54,81.88M37,105.34q-1.29-5.62-2.45-10.79H23.26l1.42,6.78Z"/><path class="cls-17" d="M27.52,45.5l-6.33-2.91a117,117,0,0,0-6.27,12.6q-14,33.09,3.88,55l16.67,20.35,7-3.42q-3-11.7-5.49-21.78l-12.34-4-1.42-6.78H34.57c-.39-1.64-.76-3.26-1.1-4.85H22.22l-1.68-7.82L29.4,68.7Q26.87,53.12,27.52,45.5Z"/><path class="cls-16" d="M22.48,40.33l-1.29,2.26,6.33,2.91q-.64,7.62,1.88,23.2,1.49,9.1,4.07,21c.34,1.59.71,3.21,1.1,4.85q1.16,5.16,2.45,10.79,2.46,10.08,5.49,21.78l-7,3.42,1.68,2.07,6.46-3.17a2.4,2.4,0,0,0,1.23-1.22,2.46,2.46,0,0,0,.13-1.75q-3-11.62-5.43-21.71Q38.25,99.14,37.09,94c-.39-1.63-.76-3.23-1.1-4.78q-2.6-11.82-4.07-20.87-2.4-15.2-1.81-22.56a2.5,2.5,0,0,0-.39-1.55,2.33,2.33,0,0,0-1.1-1Z"/><path class="cls-14" d="M21.19,42.59l-2.52-1.23q-2.72,4.2-5,8.21Q-6.86,86.4,11,110.19l17.77,23.58,6.72-3.23L18.8,110.19q-17.91-21.91-3.88-55A117,117,0,0,1,21.19,42.59Z"/><path class="cls-15" d="M22.48,40.33,19.77,39A2.26,2.26,0,0,0,18,38.9,2.7,2.7,0,0,0,16.47,40q-2.71,4.28-5,8.34-21.52,38.52-2.52,63.4l17.77,23.58a2.87,2.87,0,0,0,1.42,1,2.7,2.7,0,0,0,1.75-.19l7.3-3.49-1.68-2.07-6.72,3.23L11,110.19Q-6.85,86.4,13.69,49.57q2.26-4,5-8.21l2.52,1.23Z"/></g><g id="Layer0_263_MEMBER_5_FILL" data-name="Layer0 263 MEMBER 5 FILL"><path class="cls-18" d="M90.85,88.86Q89.76,63.47,80.19,53v41.1Z"/><path class="cls-19" d="M69.53,88.86l10.66,5.23V53Q70.62,63.46,69.53,88.86Z"/></g></g></g></svg>