<svg xmlns="http://www.w3.org/2000/svg" viewBox="0 0 691.69 225.75"><defs><style>.cls-1{fill:#efe026;}.cls-2{fill:#333;}.cls-3{fill:#20505b;}.cls-4{fill:#ccc;}.cls-5{fill:#297acc;}.cls-6{opacity:0.25;isolation:isolate;}.cls-7{fill:#18476d;}.cls-8{fill:#fff;}</style></defs><title>Ресурс 3</title><g id="Слой_2" data-name="Слой 2"><g id="Layer_1" data-name="Layer 1"><ellipse class="cls-1" cx="53.09" cy="52.78" rx="38.5" ry="19.5"/><path class="cls-2" d="M53.09,77.28c-26.67,0-48.37-11-48.37-24.5s21.7-24.5,48.37-24.5,48.38,11,48.38,24.5S79.76,77.28,53.09,77.28Zm0-39c-15.78,0-28.62,6.51-28.62,14.5s12.84,14.5,28.62,14.5,28.63-6.5,28.63-14.5S68.88,38.28,53.09,38.28Z"/><path class="cls-3" d="M400.44,138.37l-.83,16.71-32.55-11.21A123.5,123.5,0,0,1,400.44,138.37Z"/><path class="cls-3" d="M657.3,74.41c15.64,0,28.31,4.68,28.31,10.45S672.94,95.3,657.3,95.3Z"/><path class="cls-4" d="M622.07,74.15c5.73-5.09,19.34-8.68,35.23-8.68v39.4c-16.32,0-30.23-3.77-35.68-9.09a7.05,7.05,0,0,1-2.45-5V79.55C619.17,77.64,620.21,75.82,622.07,74.15Z"/><path class="cls-3" d="M622.07,74.15c-2,1.67-3.17,3.49-3.17,5.4V90.8c0,1.76,1,3.43,2.68,5-7.52,3.48-18.55,6-31.33,7.09v-36C603.32,67.91,614.53,70.56,622.07,74.15Z"/><path class="cls-5" d="M536.94,133.55l-61.53,2.18-75,2.64a123.5,123.5,0,0,0-33.38,5.5c-10,3.26-17.64,7.76-21.7,13.07l-5.19,6.77-33.5,43.73c-3.46,4.55-10.19,8.35-18.81,11a105.26,105.26,0,0,1-30.42,4.21c-35.19,0-60.12-14.63-49.21-28.88l20.34-26.59c8.81-11.48,5.54-24-8.68-34.1A69.8,69.8,0,0,0,209.32,127h0c-.45-.22-.93-.45-1.43-.66l-.08,0h0c-9.77-4.44-17.68-9.63-23.12-15.38a33.07,33.07,0,0,1-6.45-9.4H535.5v27.25A9.26,9.26,0,0,0,536.94,133.55Z"/><path class="cls-1" d="M275.29,142.44l-55.4-9.35A69.8,69.8,0,0,0,209.32,127h0c-.45-.22-.93-.45-1.43-.66l-.08,0h0c-9.77-4.44-17.68-9.63-23.12-15.38a33.07,33.07,0,0,1-6.45-9.4H279.74s-1.45,12.91,33.34,17.85C313.08,119.31,272.3,127.92,275.29,142.44Z"/><path class="cls-4" d="M538.25,50.18c9-16.19,30.38-27.57,55.33-27.57V147.73c-25.62,0-47.48-12-56-28.87a34.9,34.9,0,0,1-3.84-15.81V67.3A35.15,35.15,0,0,1,538.25,50.18Z"/><path class="cls-6" d="M276.16,221.16a114.88,114.88,0,0,1-18.72,1.5c-35.19,0-60.12-14.63-49.21-28.88l20.34-26.59c10.68-13.93,3.59-29.33-19.25-40.23h0c-.45-.22-.93-.45-1.43-.66l-.08,0h0c-9.77-4.44-17.68-9.63-23.12-15.38a33.07,33.07,0,0,1-6.45-9.4h37.56a33.07,33.07,0,0,0,6.45,9.4c5.43,5.75,13.35,10.94,23.12,15.38h0l.07,0c.51.21,1,.44,1.44.66h0c22.84,10.9,29.93,26.3,19.23,40.23l-20.32,26.59C237,205.31,251.6,217.09,276.16,221.16Z"/><path class="cls-7" d="M544.19,72.23v29.92H39.25c-16.22,0-29.38-6.7-29.38-15,0-4.13,3.28-7.87,8.6-10.58s12.67-4.38,20.78-4.38Z"/><path class="cls-5" d="M544.19,29.49V72.23H39.41C260.65-47.92,544.19,29.49,544.19,29.49Z"/><path class="cls-2" d="M535.57,77.34c-5.11,0-9.25-1.53-9.25-3.42V44.74c0-13.68,30.18-24.82,67.27-24.82,5.1,0,9.25,1.53,9.25,3.42V61.18a9.35,9.35,0,0,1-18.51,0V27.08c-22.48,1.6-39.51,8.91-39.51,17.66V73.92C544.82,75.81,540.68,77.34,535.57,77.34Z"/><path class="cls-2" d="M593.59,149.32c-30.73,0-57.52-7.65-65.15-18.62a10.67,10.67,0,0,1-2.12-6.2V94.35c0-1.88,4.14-3.41,9.25-3.41s9.25,1.53,9.25,3.41V124.5a7.71,7.71,0,0,0,1.54,4.49c4.75,6.83,19.73,11.89,38,13.18v-34.1a9.44,9.44,0,0,1,18.51,0v37.84C602.84,147.8,598.69,149.32,593.59,149.32Z"/><path class="cls-2" d="M657.3,107.12c-18.28,0-34.9-4.24-41.37-10.54a8.14,8.14,0,0,1-2.84-5.78V79.55c0-2.16,1.13-4.27,3.36-6.25,6.87-6.12,22.9-10.07,40.85-10.07,3.36,0,6.08,1,6.08,2.24v39.4C663.38,106.11,660.66,107.12,657.3,107.12Zm-6.09-39.19c-10.45.74-19.34,3.36-23.52,7.08a6.18,6.18,0,0,0-2.44,4.54V90.8A5.93,5.93,0,0,0,627.31,95c4,3.86,13.16,6.65,23.9,7.42Z"/><path class="cls-2" d="M371.2,107.15H39.41c-21.73,0-39.41-9-39.41-20,0-5.34,4.1-10.35,11.54-14.12s17.34-5.84,27.87-5.84H300.12c5.46,0,9.88,2.24,9.88,5s-4.42,5-9.88,5H39.41A31.5,31.5,0,0,0,25.5,80.14c-3.71,1.88-5.76,4.39-5.76,7,0,5.49,8.83,10,19.67,10H371.2c5.45,0,9.87,2.24,9.87,5S376.66,107.15,371.2,107.15Z"/><path class="cls-2" d="M531.21,107.15H344.81c-7.17,0-13-2.24-13-5s5.81-5,13-5H518.23V77.23H263.44c-7.17,0-13-2.24-13-5s5.81-5,13-5H531.21c7.17,0,13,2.24,13,5v29.92C544.19,104.91,538.38,107.15,531.21,107.15Z"/><path class="cls-2" d="M622.08,76.4a13,13,0,0,1-4.29-.65,5.5,5.5,0,0,1-.69-.3c-6.19-3.22-15.28-5.51-25.6-6.44a7.7,7.7,0,0,1-4.65-2.17c-2.35-2.29-3.17-6.33-2-7.27s4.22,2.4,9.49,5.08c11.15,5.68,26.56,5.22,32.57,8.16.77.37,1.22.84,1.22,1.35C628.16,75.4,625.44,76.4,622.08,76.4Z"/><path class="cls-2" d="M592.93,105.12c-5.06.6-7.3,4.8-8.24,4.23s-.25-4.18,2.16-6.48a7.89,7.89,0,0,1,4.64-2.18c10.1-.9,19-3.12,25.21-6.23a5.35,5.35,0,0,1,.64-.27,12.72,12.72,0,0,1,4.29-.66c3.36,0,6.08,1,6.08,2.25,0,.51-.47,1-1.27,1.37-7.86,3.95-19.24,6.75-32.07,7.9C594,105.08,593.57,105,592.93,105.12Z"/><path class="cls-2" d="M657.3,97.54c-3.36,0-6.09-1-6.09-2.24s2.73-2.24,6.09-2.24c12.25,0,22.22-3.68,22.22-8.2s-10-8.21-22.22-8.21c-3.36,0-6.09-1-6.09-2.24s2.73-2.24,6.09-2.24c19,0,34.39,5.69,34.39,12.69S676.26,97.54,657.3,97.54Z"/><path class="cls-2" d="M257.44,225.75c-19.12,0-36.53-3.78-47.76-10.37s-14.27-14.82-8.34-22.56l20.34-26.59c9.95-13,3.14-27.24-17.77-37.21l-1.45-.68-.22-.1C191.77,123.46,183.58,118,177.93,112a35.44,35.44,0,0,1-6.86-10c-.73-1.68,1.87-3.29,5.81-3.6s7.72.8,8.45,2.47a31.1,31.1,0,0,0,6,8.82c5,5.31,12.33,10.17,21.69,14.42l.28.13,1.31.61c24.41,11.65,32.36,28.22,20.81,43.28l-20.34,26.58c-4.47,5.85-2.18,12.05,6.3,17s21.6,7.82,36,7.82A90.21,90.21,0,0,0,283.61,216c7.66-2.36,13.25-5.64,16.17-9.46L338.47,156c4.44-5.81,12.8-10.84,24.18-14.55a137.25,137.25,0,0,1,37.19-6.13l136.5-4.83c4.2-.14,7.85,1.29,7.85,3.08,0,1.64-3,3-6.78,3.08L401,141.45a109.41,109.41,0,0,0-29.57,4.87c-9,3-15.69,7-19.22,11.57L313.56,208.4c-3.86,5.07-11.28,9.41-21.45,12.55A119.46,119.46,0,0,1,257.44,225.75Z"/><path class="cls-2" d="M396.52,166.79H340.17c-4,0-7.26-1.38-7.26-3.08s3.24-3.09,7.24-3.09h56.37c35.17,0,65.32-10.68,71.74-25.4.56-1.46,3.55-2.58,7.15-2.58,4,0,7.24,1.38,7.24,3.08a1.38,1.38,0,0,1-.12.56C474.9,154,438.73,166.79,396.52,166.79Z"/><path class="cls-2" d="M399.61,158.17a14.11,14.11,0,0,1-4.55-.69L362.5,146.27c-3.11-1.07-3.6-3-1.08-4.34s7.08-1.53,10.19-.46l21.07,7.26.51-10.42c.08-1.7,3.34-3.05,7.4-3s7.18,1.45,7.09,3.15l-.82,16.71c-.06,1.18-1.69,2.24-4.2,2.73A15.25,15.25,0,0,1,399.61,158.17Z"/><path class="cls-2" d="M39.41,77.23a16.05,16.05,0,0,1-6.75-1.36c-4-1.89-4.18-5.05-.45-7.06,51.85-28,111.46-47.74,177.18-58.67,92.14-15.33,180.26-10.47,238-3.69,62.46,7.34,102.78,18.17,104.46,18.63,4.81,1.3,6.62,4.33,4,6.77s-8.55,3.35-13.36,2c-.48-.12-40.2-10.76-100.21-17.77-55.1-6.43-139.17-11-226.74,3.52C153,30,96.17,48.89,46.61,75.65A15.62,15.62,0,0,1,39.41,77.23Z"/><path class="cls-8" d="M145.17,29.29c-6.24,0-11.86-1.6-13.23-3.95C130.35,22.65,135,20,142.31,19.4,178.68,16.49,216.81,15,255.65,15c36.89,0,74.92,1.32,113,3.94,7.36.5,12.21,3.12,10.84,5.83s-8.44,4.5-15.8,4C327.24,26.29,290.88,25,255.65,25c-36.92,0-73.12,1.39-107.6,4.15C147.09,29.25,146.12,29.29,145.17,29.29Z"/><path class="cls-2" d="M483.25,77.23c-7.49,0-13.55-1.74-13.55-3.89V18.78c0-2.15,6.06-3.89,13.55-3.89s13.55,1.74,13.55,3.89V73.34C496.8,75.49,490.73,77.23,483.25,77.23Z"/><path class="cls-2" d="M407.36,77.23c-7.48,0-13.55-2.24-13.55-5V53.41c0-2.76,6.07-5,13.55-5s13.55,2.24,13.55,5V72.23C420.91,75,414.84,77.23,407.36,77.23Z"/><path class="cls-2" d="M407.36,56.28c-7.48,0-13.55-2.24-13.55-5V10c0-2.76,6.07-5,13.55-5s13.55,2.24,13.55,5V51.28C420.91,54,414.84,56.28,407.36,56.28Z"/><path class="cls-2" d="M500.64,137.93c-5.34,0-9.68-1.12-9.68-2.5V100.87c0-1.38,4.34-2.5,9.68-2.5s9.68,1.12,9.68,2.5v34.56C510.32,136.81,506,137.93,500.64,137.93Z"/><path class="cls-2" d="M446.43,139.56c-5.35,0-9.68-1.48-9.68-3.32V101.69c0-1.83,4.33-3.32,9.68-3.32s9.68,1.49,9.68,3.32v34.55C456.11,138.08,451.78,139.56,446.43,139.56Z"/><path class="cls-1" d="M208.64,72.23H39.41C95,42.22,154.48,24.54,212.47,14.89c0,0,13.94,19.19,53.43,24.19C265.9,39.08,200.74,51.38,208.64,72.23Z"/><path class="cls-6" d="M148.24,29s-34.37,25.39-30.42,43.24H39.41Z"/><path class="cls-2" d="M208.64,77.23H39.41c-3.93,0-7.49-1.19-9.06-3s-.83-3.95,1.86-5.4c51.85-28,111.46-47.74,177.18-58.67,5.05-.85,10.51.49,12.35,3,.11.15,12.83,16.8,46.56,21.07,4.19.53,7.22,2.38,7.46,4.57s-2.36,4.2-6.41,5c-.09,0-9.54,1.83-20.36,5.13-4.67,1.43-10.74.67-13.55-1.7s-1.31-5.43,3.36-6.86c1-.31,2-.6,3-.88C223.39,34,212.63,26,207.33,21.06,154.74,30.51,106.31,46,63,67.23H198.2c.44-3.41,2.4-6.76,5.85-10,2.58-2.43,8.57-3.34,13.37-2s6.61,4.34,4,6.78c-3.3,3.11-4.32,6.17-3.11,9.35.55,1.46-.21,3-2.09,4.12A15.1,15.1,0,0,1,208.64,77.23Z"/><path class="cls-8" d="M568.05,51.29c-5.11,0-9.25-1.53-9.25-3.41V41.05c0-1.89,4.14-3.42,9.25-3.42s9.25,1.53,9.25,3.42v6.83C577.3,49.76,573.16,51.29,568.05,51.29Z"/><path class="cls-2" d="M275.29,145.53a15.69,15.69,0,0,1-2.67-.22L217.22,136c-3.72-.63-5.54-2.42-4.07-4s5.69-2.36,9.41-1.73L268.41,138c1.84-5.23,8.51-10.26,19.66-14.77,3.34-1.34,6.7-2.5,9.76-3.44-11.74-3-17.89-6.88-21.1-10-4.55-4.39-4.28-8.07-4.23-8.47.19-1.7,3.56-3,7.58-2.94s7.06,1.52,6.9,3.21c0,.47-.46,10.71,28.39,14.8,2.78.4,4.73,1.47,4.94,2.72s-1.39,2.42-4,3c-.35.07-36.3,7.87-33.78,20.09.22,1.07-.88,2.11-2.89,2.75A14.81,14.81,0,0,1,275.29,145.53Z"/></g></g></svg>