<svg xmlns="http://www.w3.org/2000/svg" viewBox="0 0 420.99 312.42"><defs><style>.cls-1{fill:#f24125;}.cls-2{fill:#333;}.cls-3{fill:#20505b;}.cls-4{fill:#ccc;}.cls-5{fill:#44cc27;}.cls-6{opacity:0.25;isolation:isolate;}.cls-7{fill:#fff;}</style></defs><title>Ресурс 2</title><g id="Слой_2" data-name="Слой 2"><g id="Layer_1" data-name="Layer 1"><circle class="cls-1" cx="26.89" cy="61.7" r="19.5"/><path class="cls-2" d="M26.89,86.2a24.5,24.5,0,1,1,24.5-24.5A24.53,24.53,0,0,1,26.89,86.2Zm0-39a14.5,14.5,0,1,0,14.5,14.5A14.52,14.52,0,0,0,26.89,47.2Z"/><path class="cls-3" d="M183.94,170.88,183.37,198l-22.46-18.16A43.66,43.66,0,0,1,183.94,170.88Z"/><path class="cls-3" d="M392.72,72.84a23.27,23.27,0,0,1,0,46.54Z"/><path class="cls-4" d="M363.76,72.27a31.34,31.34,0,0,1,29-19.34v87.78a31.29,31.29,0,0,1-31.34-31.35V84.28A31.37,31.37,0,0,1,363.76,72.27Z"/><path class="cls-3" d="M363.76,72.27a31.37,31.37,0,0,0-2.38,12v25.08a31.36,31.36,0,0,0,2,11.09,41.34,41.34,0,0,1-23.58,15.8V56A41.33,41.33,0,0,1,363.76,72.27Z"/><path class="cls-4" d="M339.81,136.25V162.5a31.34,31.34,0,0,1-31.34-31.34V62.48a31.34,31.34,0,0,1,31.34-31.34V136.25Z"/><path class="cls-4" d="M278.11,163.06a31.11,31.11,0,0,1-1-7.83V38.41A31.35,31.35,0,0,1,308.47,7.06V186.58A31.36,31.36,0,0,1,278.11,163.06Z"/><path class="cls-5" d="M278.11,163.06l-42.45,3.53-51.72,4.29a43.82,43.82,0,0,0-38,30.07l-3.58,11-23.11,70.85a35.71,35.71,0,1,1-67.91-22.14l14-43.07a67.19,67.19,0,0,0-6-55.24,64.59,64.59,0,0,0-7.29-9.93l0,0c-.31-.36-.64-.72-1-1.07l0-.06s0,0,0,0a80.34,80.34,0,0,1-16-24.91,79.37,79.37,0,0,1-4.45-15.24h246.5v44.16A31.11,31.11,0,0,0,278.11,163.06Z"/><path class="cls-1" d="M97.6,177.47,59.38,162.32a64.59,64.59,0,0,0-7.29-9.93l0,0c-.31-.36-.64-.72-1-1.07l0-.06s0,0,0,0a80.34,80.34,0,0,1-16-24.91,79.37,79.37,0,0,1-4.45-15.24h70.05s-1,20.93,23,28.93C123.67,140,95.54,153.94,97.6,177.47Z"/><path class="cls-6" d="M98.2,305a35.7,35.7,0,0,1-46.86-44.37l14-43.07a66.79,66.79,0,0,0-13.28-65.17l0,0c-.31-.36-.64-.72-1-1.07l0-.06s0,0,0,0a80.34,80.34,0,0,1-16-24.91,79.37,79.37,0,0,1-4.45-15.24H56.53A79.37,79.37,0,0,0,61,126.31a80.34,80.34,0,0,0,16,24.91s0,0,0,0l0,.06c.35.35.68.71,1,1.07l0,0a66.77,66.77,0,0,1,13.27,65.17l-14,43.07A35.75,35.75,0,0,0,98.2,305Z"/><path class="cls-3" d="M277.12,81.15v29.92H20a15,15,0,1,1,0-29.92Z"/><path class="cls-5" d="M277.12,38.41V81.15H20C132.67-39,277.12,38.41,277.12,38.41Z"/><path class="cls-2" d="M277.12,86.15a5,5,0,0,1-5-5V38.41A36.4,36.4,0,0,1,308.47,2.06a5,5,0,0,1,5,5V62.48a5,5,0,1,1-10,0V12.54a26.39,26.39,0,0,0-21.35,25.87V81.15A5,5,0,0,1,277.12,86.15Z"/><path class="cls-2" d="M308.47,191.58a36.35,36.35,0,0,1-36.35-36.35V111.07a5,5,0,0,1,10,0v44.16a26.35,26.35,0,0,0,21.35,25.88v-50a5,5,0,1,1,10,0v55.42A5,5,0,0,1,308.47,191.58Z"/><path class="cls-2" d="M339.81,167.5a36.38,36.38,0,0,1-36.34-36.34V62.48a36.38,36.38,0,0,1,36.34-36.34,5,5,0,0,1,5,5V162.5A5,5,0,0,1,339.81,167.5Zm-5-130.88a26.38,26.38,0,0,0-21.34,25.86v68.68A26.38,26.38,0,0,0,334.81,157Z"/><path class="cls-2" d="M392.72,145.71a36.28,36.28,0,0,1-36.34-36.35V84.28a36.32,36.32,0,0,1,36.34-36.35,5,5,0,0,1,5,5v87.78A5,5,0,0,1,392.72,145.71Zm-5-87.31a26.33,26.33,0,0,0-21.34,25.88v25.08a26.28,26.28,0,0,0,21.34,25.87Z"/><path class="cls-2" d="M188,116.07H20a20,20,0,1,1,0-39.92H152a5,5,0,0,1,0,10H20a10,10,0,0,0,0,19.92H188a5,5,0,0,1,0,10Z"/><path class="cls-2" d="M277.12,116.07H205.34a5,5,0,1,1,0-10h66.78V86.15H174a5,5,0,0,1,0-10H277.12a5,5,0,0,1,5,5v29.92A5,5,0,0,1,277.12,116.07Z"/><path class="cls-2" d="M363.77,77.28a5,5,0,0,1-3.52-1.45,5.18,5.18,0,0,1-.57-.67,36.29,36.29,0,0,0-21.05-14.34A5,5,0,0,1,341,51.1a46.3,46.3,0,0,1,26.77,18.17,5,5,0,0,1-4,8Z"/><path class="cls-2" d="M339.81,141.25a5,5,0,0,1-1.18-9.86,36.35,36.35,0,0,0,20.72-13.89,5.09,5.09,0,0,1,.52-.6,5,5,0,0,1,7.48,6.6A46.36,46.36,0,0,1,341,141.11,4.76,4.76,0,0,1,339.81,141.25Z"/><path class="cls-2" d="M392.72,124.38a5,5,0,0,1,0-10,18.27,18.27,0,0,0,0-36.54,5,5,0,0,1,0-10,28.27,28.27,0,0,1,0,56.54Z"/><path class="cls-2" d="M52.07,157.37a5,5,0,0,1-3.79-1.74c-.23-.26-.48-.53-.74-.8a5,5,0,1,1,7.08-7.06c.41.41.83.86,1.24,1.34a5,5,0,0,1-3.79,8.26Z"/><path class="cls-2" d="M85.29,312.42a40.71,40.71,0,0,1-38.7-53.34l14-43.07a61.91,61.91,0,0,0-12.26-60.29l-1-1.09a1.15,1.15,0,0,1-.14-.17A84.92,84.92,0,0,1,25.7,112a5,5,0,0,1,9.84-1.82A75,75,0,0,0,54.67,147.8a2,2,0,0,1,.19.22l.91,1a71.94,71.94,0,0,1,14.35,70.11l-14,43.07a30.72,30.72,0,0,0,58.41,19.05l26.69-81.83a48.8,48.8,0,0,1,42.34-33.5l94.17-7.82a5,5,0,1,1,.74,10l-94.09,7.81a38.83,38.83,0,0,0-33.66,26.64L124,284.32a40.69,40.69,0,0,1-38.71,28.1Z"/><path class="cls-2" d="M181.24,216.92H142.36a5,5,0,1,1,0-10h38.89a50.34,50.34,0,0,0,49.49-41.15,5,5,0,0,1,9.93.81,5.5,5.5,0,0,1-.08.91A60.34,60.34,0,0,1,181.24,216.92Z"/><path class="cls-2" d="M183.37,203a5,5,0,0,1-3.14-1.11l-22.46-18.16a5,5,0,0,1,6.28-7.78l14.53,11.75.36-16.88a5,5,0,0,1,10,.21l-.57,27.07a5,5,0,0,1-2.9,4.43A4.84,4.84,0,0,1,183.37,203Z"/><path class="cls-2" d="M20,86.15a5,5,0,0,1-3.65-8.42c26.26-28,56.45-47.73,89.74-58.67,46.66-15.33,91.3-10.46,120.52-3.69,31.64,7.34,52.06,18.17,52.91,18.63a5,5,0,1,1-4.72,8.82C274.52,42.69,254.4,32.05,224,25c-27.91-6.43-70.49-11-114.84,3.52C77.49,39,48.71,57.81,23.61,84.57A5,5,0,0,1,20,86.15Z"/><path class="cls-7" d="M130.16,38.21a5,5,0,0,1-1.06-9.89,197.72,197.72,0,0,1,41.82-4.38,229.23,229.23,0,0,1,41.7,3.94,5,5,0,1,1-1.83,9.83,219,219,0,0,0-39.87-3.77,188.26,188.26,0,0,0-39.7,4.15A4.85,4.85,0,0,1,130.16,38.21Z"/><path class="cls-2" d="M254.9,86.15a5,5,0,0,1-5-5V11a5,5,0,1,1,10,0V81.15A5,5,0,0,1,254.9,86.15Z"/><path class="cls-2" d="M226.9,86.15a5,5,0,0,1-5-5V62.33a5,5,0,0,1,10,0V81.15A5,5,0,0,1,226.9,86.15Z"/><path class="cls-2" d="M226.9,51.33a5,5,0,0,1-5-5V5a5,5,0,0,1,10,0V46.33A5,5,0,0,1,226.9,51.33Z"/><path class="cls-2" d="M254.89,185.15a5,5,0,0,1-5-5V111.07a5,5,0,0,1,10,0v69.08A5,5,0,0,1,254.89,185.15Z"/><path class="cls-2" d="M226.89,168a5,5,0,0,1-5-5V111.07a5,5,0,0,1,10,0V163A5,5,0,0,1,226.89,168Z"/><path class="cls-1" d="M105.67,81.15H20c28.15-30,58.28-47.69,87.65-57.34,0,0,7.06,19.19,27.06,24.19C134.67,48,101.67,60.3,105.67,81.15Z"/><path class="cls-6" d="M75.08,37.91S57.67,63.3,59.67,81.15H20Z"/><path class="cls-2" d="M105.67,86.15H20a5,5,0,0,1-3.65-8.42c26.26-28,56.45-47.73,89.74-58.67a5,5,0,0,1,6.25,3c.06.15,6.5,16.8,23.58,21.07a5,5,0,0,1,.54,9.53,70.49,70.49,0,0,0-10.31,5.13,5,5,0,1,1-5.17-8.56l1.5-.88A47.88,47.88,0,0,1,105,30c-26.63,9.45-51.16,25-73.1,46.17h68.48a24.24,24.24,0,0,1,3-10,5,5,0,1,1,8.81,4.73,13.68,13.68,0,0,0-1.58,9.35,5,5,0,0,1-4.91,5.94Z"/><path class="cls-7" d="M326.67,140a5,5,0,0,1-5-5V87a5,5,0,0,1,10,0v48A5,5,0,0,1,326.67,140Z"/><path class="cls-7" d="M326.67,71a5,5,0,0,1-5-5V57a5,5,0,0,1,10,0v9A5,5,0,0,1,326.67,71Z"/><path class="cls-7" d="M379.16,123a5,5,0,0,1-5-5V76a5,5,0,0,1,10,0v42A5,5,0,0,1,379.16,123Z"/><path class="cls-7" d="M294.67,164a5,5,0,0,1-5-5V64a5,5,0,0,1,10,0v95A5,5,0,0,1,294.67,164Z"/><path class="cls-7" d="M294.67,48a5,5,0,0,1-5-5V33a5,5,0,0,1,10,0V43A5,5,0,0,1,294.67,48Z"/><path class="cls-2" d="M97.6,182.47a5.09,5.09,0,0,1-1.84-.35L57.54,167a5,5,0,1,1,3.68-9.3l31.63,12.54c1.27-8.47,5.87-16.62,13.57-23.93a68.51,68.51,0,0,1,6.73-5.58,35.24,35.24,0,0,1-14.56-16.15,32.72,32.72,0,0,1-2.92-13.72,5,5,0,0,1,10,.45c0,.75-.31,17.34,19.59,24a5,5,0,0,1,.64,9.22c-.24.12-25,12.75-23.31,32.55a5,5,0,0,1-5,5.44Z"/></g></g></svg>