<svg xmlns="http://www.w3.org/2000/svg" viewBox="0 0 355 355"><defs><style>.cls-1{fill:#edbd44;}.cls-2{fill:#c5802a;}</style></defs><title>Ресурс 1</title><g id="Слой_2" data-name="Слой 2"><g id="Layer_1" data-name="Layer 1"><circle class="cls-1" cx="177.5" cy="177.5" r="177.5"/><path class="cls-2" d="M177.5,323.2c-80.3,0-145.7-65.4-145.7-145.7S97.2,31.8,177.5,31.8,323.2,97.2,323.2,177.5,257.9,323.2,177.5,323.2Zm0-270.3A124.6,124.6,0,1,0,302.1,177.5,124.75,124.75,0,0,0,177.5,52.9Z"/><path class="cls-2" d="M177.5,24.7a3,3,0,0,1-3-3V9.9a3,3,0,0,1,6,0V21.7A3,3,0,0,1,177.5,24.7Z"/><path class="cls-2" d="M287.7,70.3a3,3,0,0,1-2.1-5.1l8.3-8.3a3,3,0,1,1,4.2,4.2l-8.3,8.3A3,3,0,0,1,287.7,70.3Z"/><path class="cls-2" d="M345.1,180.5H333.3a3,3,0,0,1,0-6h11.8a3,3,0,0,1,3,3A3.08,3.08,0,0,1,345.1,180.5Z"/><path class="cls-2" d="M296,298.9a2.88,2.88,0,0,1-2.1-.9l-8.3-8.3a3,3,0,0,1,4.2-4.2l8.3,8.3a2.9,2.9,0,0,1,0,4.2A2.54,2.54,0,0,1,296,298.9Z"/><path class="cls-2" d="M177.5,348a3,3,0,0,1-3-3V333.2a3,3,0,0,1,6,0v11.9A2.93,2.93,0,0,1,177.5,348Z"/><path class="cls-2" d="M59.1,298.9a3,3,0,0,1-2.1-5.1l8.3-8.3a3,3,0,0,1,4.2,4.2L61.2,298A2.67,2.67,0,0,1,59.1,298.9Z"/><path class="cls-2" d="M21.8,180.5H10a3,3,0,0,1,0-6H21.8a3,3,0,0,1,3,3A3.15,3.15,0,0,1,21.8,180.5Z"/><path class="cls-2" d="M67.4,70.3a2.88,2.88,0,0,1-2.1-.9L57,61.1a3,3,0,0,1,4.2-4.2l8.3,8.3a3,3,0,0,1-2.1,5.1Z"/><path class="cls-2" d="M236.3,36.2a3.59,3.59,0,0,1-1.1-.2,3,3,0,0,1-1.6-3.9l4.5-10.9a3,3,0,1,1,5.5,2.3l-4.5,10.9A3.08,3.08,0,0,1,236.3,36.2Z"/><path class="cls-2" d="M321.1,120a2.84,2.84,0,0,1-2.7-1.8,3,3,0,0,1,1.6-3.9l10.9-4.6a3,3,0,1,1,2.3,5.5l-10.9,4.6A2.54,2.54,0,0,1,321.1,120Z"/><path class="cls-2" d="M332.7,243.7a3.59,3.59,0,0,1-1.1-.2L320.7,239a3,3,0,1,1,2.3-5.5l10.9,4.5a3,3,0,0,1,1.6,3.9A3.08,3.08,0,0,1,332.7,243.7Z"/><path class="cls-2" d="M242.5,334.9a2.84,2.84,0,0,1-2.7-1.8l-4.6-10.9a3,3,0,0,1,5.5-2.3l4.6,10.9a3,3,0,0,1-1.6,3.9A5,5,0,0,1,242.5,334.9Z"/><path class="cls-2" d="M114.3,335.6a3.59,3.59,0,0,1-1.1-.2,3,3,0,0,1-1.6-3.9l4.5-10.9a3,3,0,0,1,5.5,2.3l-4.5,10.9A3.08,3.08,0,0,1,114.3,335.6Z"/><path class="cls-2" d="M23.1,245.5a2.84,2.84,0,0,1-2.7-1.8,3,3,0,0,1,1.6-3.9l10.9-4.6a3,3,0,1,1,2.3,5.5l-10.9,4.6A5,5,0,0,1,23.1,245.5Z"/><path class="cls-2" d="M33.3,121.7a3.59,3.59,0,0,1-1.1-.2L21.3,117a3,3,0,0,1,2.3-5.5L34.5,116a3,3,0,0,1,1.6,3.9A3.08,3.08,0,0,1,33.3,121.7Z"/><path class="cls-2" d="M117.1,36.9a2.84,2.84,0,0,1-2.7-1.8l-4.6-10.9a3,3,0,1,1,5.5-2.3l4.6,10.9a3,3,0,0,1-1.6,3.9A5,5,0,0,1,117.1,36.9Z"/><path class="cls-2" d="M231.2,187.7a34.46,34.46,0,0,0-10.9-12.5,66.63,66.63,0,0,0-16.9-8.4,215.74,215.74,0,0,0-22.2-6.3c-6.5-1.6-11.2-2.9-14-3.8a43.37,43.37,0,0,1-8.4-3.6,19.57,19.57,0,0,1-6.5-5.4,12,12,0,0,1-2.4-7.5c0-4.7,2.3-8.7,7-12s10.8-5,18.3-5c8.2,0,14.1,1.5,17.8,4.6a36.91,36.91,0,0,1,9.5,12.8,32.58,32.58,0,0,0,5.7,8.3c1.7,1.7,4.3,2.5,7.7,2.5a11.62,11.62,0,0,0,9.2-4.2,13.65,13.65,0,0,0,3.7-9.4,26.79,26.79,0,0,0-3-11.8,36.42,36.42,0,0,0-9.4-11.5,48.17,48.17,0,0,0-16.2-8.8,58.53,58.53,0,0,0-13.5-2.8V81.3H168.1v21.5a70.61,70.61,0,0,0-20.1,4.6c-8.2,3.3-14.5,8.1-18.9,14.3a36.42,36.42,0,0,0-6.5,21.2c0,8.4,2.1,15.4,6.2,21a41.9,41.9,0,0,0,16.7,13.3c7,3.3,15.7,6.1,26.1,8.5,7.8,1.8,14,3.5,18.6,5a29.56,29.56,0,0,1,11.4,6.9,16.16,16.16,0,0,1,4.4,11.7c0,6.1-2.7,11.1-8.2,15.2s-12.5,6.1-21.2,6.1q-9.45,0-15.3-3a23.65,23.65,0,0,1-9-7.7,65.42,65.42,0,0,1-6-11.6,22.55,22.55,0,0,0-5.5-8.8,11.11,11.11,0,0,0-7.9-3,12.58,12.58,0,0,0-9.4,3.8,12.45,12.45,0,0,0-3.7,9.1c0,6.1,2.1,12.4,6.2,18.9a47.12,47.12,0,0,0,16.1,15.6c7.2,4.2,15.9,6.7,26.1,7.7v22.1h18.6V251.6a68.45,68.45,0,0,0,21.7-5.5c8.7-4,15.3-9.4,19.8-16.4a42.83,42.83,0,0,0,6.8-23.6C235.1,198.9,233.8,192.7,231.2,187.7Z"/><path class="cls-2" d="M246.9,274.3a2.46,2.46,0,0,1-2-1,2.43,2.43,0,0,1,.4-3.5c28.3-22.2,43.9-50.5,46.4-83.9a120.46,120.46,0,0,0-5.1-45.6v-.1a2.47,2.47,0,0,1,4.7-1.5c.8,2.2,7.3,22,5.4,47.7-1.8,24-11.7,58.7-48.3,87.5A3.31,3.31,0,0,1,246.9,274.3Z"/><path class="cls-2" d="M201.4,295.4a2.57,2.57,0,0,1-2.5-2.1,2.42,2.42,0,0,1,2.1-2.8c17.1-2.6,33.8-13.8,34-13.9a2.52,2.52,0,1,1,2.8,4.2c-.7.5-17.8,11.9-36,14.7C201.7,295.4,201.6,295.4,201.4,295.4Z"/></g></g></svg>