<svg xmlns="http://www.w3.org/2000/svg" xmlns:xlink="http://www.w3.org/1999/xlink" viewBox="0 0 803.35 798.08"><defs><style>.cls-1{isolation:isolate;}.cls-2{fill:url(#Безымянный_градиент_28);}.cls-3{opacity:0.8;fill:url(#Безымянный_градиент_19);}.cls-4,.cls-5{opacity:0.6;}.cls-4{fill:url(#Безымянный_градиент_19-2);}.cls-5{fill:url(#Безымянный_градиент_36);}.cls-6{fill:url(#Безымянный_градиент_41);}.cls-11,.cls-12,.cls-13,.cls-14,.cls-15,.cls-17,.cls-7{opacity:0.5;}.cls-7{fill:url(#Безымянный_градиент_12);}.cls-8{mix-blend-mode:overlay;fill:url(#Безымянный_градиент_142);}.cls-9{fill:#008c8c;}.cls-10{fill:#006464;}.cls-11{fill:url(#Безымянный_градиент_25);}.cls-12{fill:url(#Безымянный_градиент_25-2);}.cls-13{fill:url(#Безымянный_градиент_25-3);}.cls-14{fill:url(#Безымянный_градиент_25-4);}.cls-15{fill:url(#Безымянный_градиент_25-5);}.cls-16,.cls-17,.cls-35{fill:#fff;}.cls-16,.cls-19,.cls-24,.cls-31{opacity:0.25;}.cls-18,.cls-23,.cls-30{opacity:0.1;}.cls-18{fill:url(#Безымянный_градиент_55);}.cls-19{fill:url(#Безымянный_градиент_48);}.cls-20{fill:url(#Безымянный_градиент_4);}.cls-21,.cls-22,.cls-28,.cls-29,.cls-33,.cls-34{opacity:0.2;}.cls-21{fill:url(#Безымянный_градиент_65);}.cls-22{fill:url(#Безымянный_градиент_65-2);}.cls-23{fill:url(#Безымянный_градиент_55-2);}.cls-24{fill:url(#Безымянный_градиент_48-2);}.cls-25{fill:url(#Безымянный_градиент_81);}.cls-26{fill:url(#Безымянный_градиент_6);}.cls-27{opacity:0.15;fill:url(#Безымянный_градиент_6-2);}.cls-28{fill:url(#Безымянный_градиент_65-3);}.cls-29{fill:url(#Безымянный_градиент_65-4);}.cls-30{fill:url(#Безымянный_градиент_55-3);}.cls-31{fill:url(#Безымянный_градиент_48-3);}.cls-32{fill:url(#Безымянный_градиент_20);}.cls-33{fill:url(#Безымянный_градиент_65-5);}.cls-34{fill:url(#Безымянный_градиент_65-6);}.cls-35{font-size:100px;font-family:Cartoon, Cartoon;}</style><linearGradient id="Безымянный_градиент_28" x1="-62.67" y1="129.43" x2="867.83" y2="666.66" gradientUnits="userSpaceOnUse"><stop offset="0" stop-color="#002850"/><stop offset="0.5" stop-color="#32003c"/><stop offset="1" stop-color="#0f000a"/></linearGradient><linearGradient id="Безымянный_градиент_19" x1="-328.59" y1="3762.73" x2="-328.59" y2="3500.23" gradientTransform="matrix(0.66, 0.75, -0.68, 0.6, 3395.89, -1528.85)" gradientUnits="userSpaceOnUse"><stop offset="0" stop-color="#ffff4b"/><stop offset="0.5" stop-color="#ff3232"/><stop offset="1" stop-color="#320064" stop-opacity="0"/></linearGradient><linearGradient id="Безымянный_градиент_19-2" x1="-1954.8" y1="3178.06" x2="-1954.8" y2="2915.56" gradientTransform="matrix(0.29, 0.33, -0.29, 0.25, 2121.32, 103.65)" xlink:href="#Безымянный_градиент_19"/><linearGradient id="Безымянный_градиент_36" x1="1988.69" y1="-3899.91" x2="1988.69" y2="-4411.86" gradientTransform="matrix(0.31, -0.26, 0.17, 0.2, 173.08, 1633.6)" gradientUnits="userSpaceOnUse"><stop offset="0" stop-color="#eecb36"/><stop offset="0.5" stop-color="#ff4919"/><stop offset="1" stop-color="#8f00d2" stop-opacity="0"/></linearGradient><linearGradient id="Безымянный_градиент_41" x1="216.96" y1="180.43" x2="609.82" y2="407.25" gradientUnits="userSpaceOnUse"><stop offset="0" stop-color="#00ffb9"/><stop offset="0.77" stop-color="#00dc46"/></linearGradient><linearGradient id="Безымянный_градиент_12" x1="203.22" y1="321.68" x2="640.17" y2="321.68" gradientUnits="userSpaceOnUse"><stop offset="1" stop-color="#3a52cc"/><stop offset="1" stop-color="#00dc46"/></linearGradient><radialGradient id="Безымянный_градиент_142" cx="453.23" cy="312.38" fx="625.715108206848" fy="215.39555134550318" r="197.88" gradientUnits="userSpaceOnUse"><stop offset="0" stop-color="#fff"/><stop offset="1" stop-color="#a0a0a0"/></radialGradient><radialGradient id="Безымянный_градиент_25" cx="460.6" cy="312.38" r="54.6" gradientUnits="userSpaceOnUse"><stop offset="0" stop-color="#fff"/><stop offset="1" stop-color="#fff" stop-opacity="0.2"/></radialGradient><radialGradient id="Безымянный_градиент_25-2" cx="260.03" cy="410.84" r="22" xlink:href="#Безымянный_градиент_25"/><radialGradient id="Безымянный_градиент_25-3" cx="313.16" cy="298.69" r="45.1" xlink:href="#Безымянный_градиент_25"/><radialGradient id="Безымянный_градиент_25-4" cx="478.35" cy="101.16" r="16.15" xlink:href="#Безымянный_градиент_25"/><radialGradient id="Безымянный_градиент_25-5" cx="2894.38" cy="-2009.96" r="7.96" gradientTransform="translate(-199.67 3659.43) rotate(-42.46)" xlink:href="#Безымянный_градиент_25"/><linearGradient id="Безымянный_градиент_55" x1="674.33" y1="304" x2="704.36" y2="334.02" gradientUnits="userSpaceOnUse"><stop offset="0" stop-color="#fff"/><stop offset="1" stop-color="#320064" stop-opacity="0"/></linearGradient><linearGradient id="Безымянный_градиент_48" x1="674.13" y1="310.22" x2="704.56" y2="327.8" gradientUnits="userSpaceOnUse"><stop offset="0" stop-color="#96007d"/><stop offset="0.5" stop-color="#320064"/><stop offset="1" stop-color="#320064" stop-opacity="0"/></linearGradient><linearGradient id="Безымянный_градиент_4" x1="676.66" y1="311.69" x2="702.03" y2="326.33" gradientUnits="userSpaceOnUse"><stop offset="0" stop-color="#00ffb9"/><stop offset="1" stop-color="#00dc46"/></linearGradient><linearGradient id="Безымянный_градиент_65" x1="689.84" y1="319.64" x2="696.18" y2="323.3" gradientUnits="userSpaceOnUse"><stop offset="0" stop-color="#320064"/><stop offset="1" stop-color="#320064" stop-opacity="0"/></linearGradient><linearGradient id="Безымянный_градиент_65-2" x1="683.84" y1="313.02" x2="686.53" y2="314.57" xlink:href="#Безымянный_градиент_65"/><linearGradient id="Безымянный_градиент_55-2" x1="42.02" y1="53.12" x2="144.55" y2="155.65" xlink:href="#Безымянный_градиент_55"/><linearGradient id="Безымянный_градиент_48-2" x1="41.32" y1="74.38" x2="145.26" y2="134.39" xlink:href="#Безымянный_градиент_48"/><linearGradient id="Безымянный_градиент_81" x1="49.98" y1="79.38" x2="136.59" y2="129.39" gradientUnits="userSpaceOnUse"><stop offset="0" stop-color="#c81e64"/><stop offset="0.5" stop-color="#4b005a"/><stop offset="1" stop-color="#320064"/></linearGradient><linearGradient id="Безымянный_градиент_6" x1="135.52" y1="106.65" x2="158.4" y2="119.86" gradientUnits="userSpaceOnUse"><stop offset="0" stop-color="#c81e64"/><stop offset="0.5" stop-color="#4b005a"/><stop offset="1" stop-color="#960064" stop-opacity="0.4"/></linearGradient><linearGradient id="Безымянный_градиент_6-2" x1="133.71" y1="105.6" x2="160.21" y2="120.9" xlink:href="#Безымянный_градиент_6"/><linearGradient id="Безымянный_градиент_65-3" x1="74.98" y1="69.09" x2="77.28" y2="70.41" xlink:href="#Безымянный_градиент_65"/><linearGradient id="Безымянный_градиент_65-4" x1="2187.41" y1="-708.95" x2="2192.82" y2="-705.83" gradientTransform="translate(-817.07 2196.41) rotate(-47.35)" xlink:href="#Безымянный_градиент_65"/><linearGradient id="Безымянный_градиент_55-3" x1="113.77" y1="481.46" x2="174.11" y2="541.81" xlink:href="#Безымянный_градиент_55"/><linearGradient id="Безымянный_градиент_48-3" x1="113.35" y1="493.98" x2="174.52" y2="529.29" xlink:href="#Безымянный_градиент_48"/><linearGradient id="Безымянный_градиент_20" x1="117.95" y1="496.63" x2="169.92" y2="526.64" gradientUnits="userSpaceOnUse"><stop offset="0" stop-color="#ee2d91"/><stop offset="1" stop-color="#e99d00"/></linearGradient><linearGradient id="Безымянный_градиент_65-5" x1="152.85" y1="512.86" x2="166.51" y2="520.75" xlink:href="#Безымянный_градиент_65"/><linearGradient id="Безымянный_градиент_65-6" x1="130.51" y1="498.23" x2="139.7" y2="503.54" xlink:href="#Безымянный_градиент_65"/></defs><title>Ресурс 55</title><g class="cls-1"><g id="Слой_2" data-name="Слой 2"><g id="Слой_1-2" data-name="Слой 1"><rect class="cls-2" x="5.27" width="798.08" height="798.08"/><path class="cls-3" d="M796.35,316l-9.87-11.3L612.61,450c-4.71,4.11-4.84,11.66-.3,16.86s12,6.08,16.75,2Z"/><path class="cls-4" d="M712.07,190.53l-4.37-5L634,247c-2,1.74-2,5,0,7.32s5.25,2.75,7.25,1Z"/><path class="cls-5" d="M107.09,302.68l-.2-.25c-.14-.16-.29-.31-.44-.46L23.83,209.64,0,230.29l79.61,94.93a6.25,6.25,0,0,0,.4.5l.21.24.49.58.06-.05c4.53,4,13.34,2.51,20.35-3.56s9.7-14.59,6.42-19.63l.06-.05Z"/><circle class="cls-6" cx="413.39" cy="293.84" r="226.78"/><path class="cls-7" d="M562.18,122.74c-.72,3.63-1.27,7.25-1.74,10.9s-.84,7.07-1.23,10.67h0c-1.19,8.54-2.72,20.2-5.13,32.14-.25,1.2-.5,2.4-.76,3.6-3.66,16.85-9.2,33.71-18.21,42.76-8.3,6.8-19,9.53-29.8,9.89a189.4,189.4,0,0,1-24.61-1.14c-28.1-5-43.91-3.41-52.74-.49a7.73,7.73,0,0,0-1.5.53c-.75.29-1.44.58-2.07.88A24.39,24.39,0,0,0,421,234l-.07,0-.05,0c-.47.25-.92.51-1.36.79l-.35.21A31.47,31.47,0,0,0,409,246.42c-7.84,13.64-9.58,31.74-9.58,31.74h0c-.15,1.17-.29,2.35-.39,3.54-.14,1.66-.22,3.33-.27,5a132.18,132.18,0,0,0,.83,18.06h0v0c.07.63.15,1.25.22,1.87,1,8.27,4.78,42,6.15,65.94,0,1,.07,2.05.16,3.15.11,2.09.19,4.09.25,6-.23,48.12-58.88,37.88-58.89,37.88a48.94,48.94,0,0,1-5.71-1.83,103.46,103.46,0,0,1-26.38-16.65,66.7,66.7,0,0,0-8.25-7.65h0c-21.86-17-48.22-15.72-48.22-15.72h0c-21-2.11-55.73,1.47-55.73,1.47l2.79,6.36h-.07c.57,1.29,1.15,2.56,1.75,3.84h0a226.79,226.79,0,0,0,205.7,131.22c125.24,0,226.78-101.53,226.78-226.78A226.21,226.21,0,0,0,562.18,122.74Z"/><path class="cls-8" d="M537.65,104.13a226.27,226.27,0,0,1,79.7,172.6c0,125.24-101.54,226.78-226.78,226.78A225.67,225.67,0,0,1,266.3,466.44a225.87,225.87,0,0,0,147.09,54.18c125.24,0,226.78-101.53,226.78-226.78A226.56,226.56,0,0,0,537.65,104.13Z"/><ellipse class="cls-9" cx="510.63" cy="257.18" rx="12.36" ry="11.89" transform="matrix(0.8, -0.61, 0.61, 0.8, -51.47, 361.74)"/><path class="cls-10" d="M512.05,245.16a11.56,11.56,0,0,1,6.67,4.27,12.13,12.13,0,0,1-2.64,16.94,12.61,12.61,0,0,1-8.62,2.57,12.54,12.54,0,0,0,10.36-2.3,12.11,12.11,0,0,0,2.64-16.94A11.63,11.63,0,0,0,512.05,245.16Z"/><ellipse class="cls-9" cx="230.66" cy="327.9" rx="22.78" ry="28" transform="translate(-96.21 95.78) rotate(-19.5)"/><path class="cls-10" d="M252.75,340.3a20.25,20.25,0,0,1-11.38,10.56c-11.86,4.2-25.65-4.21-30.81-18.79a31.64,31.64,0,0,1-.62-20c-3.18,6.57-3.69,15.1-.75,23.42,5.16,14.58,19,23,30.82,18.79C246.22,352.09,250.66,346.87,252.75,340.3Z"/><ellipse class="cls-9" cx="421.69" cy="443.5" rx="35.66" ry="33.02" transform="translate(-174.29 304.49) rotate(-33.31)"/><path class="cls-10" d="M455.86,447.93a37.27,37.27,0,0,1-14.65,18.33c-16.46,10.82-37.92,7.23-47.93-8a31.6,31.6,0,0,1-4.37-24,32.12,32.12,0,0,0,3,28.85c10,15.24,31.47,18.82,47.93,8A36.92,36.92,0,0,0,455.86,447.93Z"/><ellipse class="cls-9" cx="491.4" cy="193.08" rx="23.88" ry="19.2"/><path class="cls-10" d="M507.66,179a16.94,16.94,0,0,1,5.26,12c0,10.6-10.7,19.2-23.88,19.2a27.17,27.17,0,0,1-16.26-5.14,26.35,26.35,0,0,0,18.62,7.19c13.19,0,23.89-8.6,23.89-19.2C515.29,187.52,512.35,182.52,507.66,179Z"/><ellipse class="cls-9" cx="570.49" cy="302.03" rx="20.23" ry="23.1" transform="translate(6.12 615.36) rotate(-56.94)"/><path class="cls-10" d="M563.82,281.26a25.19,25.19,0,0,1,14.55,4.15c10.69,7,14.42,20.2,8.32,29.56A18.86,18.86,0,0,1,574,323.14a19.37,19.37,0,0,0,15.85-8.5c6.1-9.37,2.37-22.6-8.32-29.56A24.63,24.63,0,0,0,563.82,281.26Z"/><ellipse class="cls-9" cx="373.93" cy="474.13" rx="5.02" ry="5.55" transform="translate(-229.34 500.44) rotate(-54.24)"/><path class="cls-10" d="M379.14,473.35a4.69,4.69,0,0,1-.85,3.27,5.3,5.3,0,0,1-7.43.83,5.78,5.78,0,0,1-2.28-3.3,5.76,5.76,0,0,0,2.41,4.06,5.31,5.31,0,0,0,7.44-.84A4.79,4.79,0,0,0,379.14,473.35Z"/><ellipse class="cls-9" cx="449.16" cy="379.29" rx="5.55" ry="5.02"/><path class="cls-10" d="M452.94,375.61a4.72,4.72,0,0,1,1.22,3.14,5.3,5.3,0,0,1-5.55,5,5.85,5.85,0,0,1-3.77-1.34,5.73,5.73,0,0,0,4.32,1.88,5.3,5.3,0,0,0,5.55-5A4.8,4.8,0,0,0,452.94,375.61Z"/><ellipse class="cls-9" cx="421.2" cy="258.77" rx="5.55" ry="5.02"/><path class="cls-10" d="M425,255.09a4.75,4.75,0,0,1,1.22,3.15,5.3,5.3,0,0,1-5.55,5,5.8,5.8,0,0,1-3.77-1.35,5.73,5.73,0,0,0,4.32,1.88,5.3,5.3,0,0,0,5.55-5A4.81,4.81,0,0,0,425,255.09Z"/><ellipse class="cls-9" cx="572.72" cy="340.23" rx="5.55" ry="5.02" transform="translate(-60.67 133.89) rotate(-12.67)"/><path class="cls-10" d="M575.59,335.81a4.68,4.68,0,0,1,1.88,2.8,5.3,5.3,0,0,1-4.31,6.11,5.84,5.84,0,0,1-4-.48,5.78,5.78,0,0,0,4.64.89,5.31,5.31,0,0,0,4.31-6.12A4.8,4.8,0,0,0,575.59,335.81Z"/><ellipse class="cls-9" cx="230.66" cy="392.39" rx="8" ry="5.55" transform="translate(-101.04 80.71) rotate(-16.33)"/><path class="cls-10" d="M237.35,394.37a10.4,10.4,0,0,1-4.46,2.58c-4.24,1.24-8.38-.13-9.24-3.08a4.76,4.76,0,0,1,1-4.22,5.15,5.15,0,0,0-1.66,5c.86,2.94,5,4.32,9.24,3.08A9.92,9.92,0,0,0,237.35,394.37Z"/><ellipse class="cls-9" cx="319.49" cy="463.83" rx="10.41" ry="10.06" transform="translate(-154.88 160.21) rotate(-22.82)"/><path class="cls-10" d="M329.17,467.19a10.62,10.62,0,0,1-5.14,4.57,10.25,10.25,0,0,1-13.5-5.24,9.9,9.9,0,0,1-.09-7.39,9.89,9.89,0,0,0-.54,8.74,10.23,10.23,0,0,0,13.49,5.24A10.52,10.52,0,0,0,329.17,467.19Z"/><ellipse class="cls-9" cx="515.29" cy="134.37" rx="16.97" ry="18.31"/><path class="cls-10" d="M526.84,121a19.19,19.19,0,0,1,3.73,11.46c0,10.11-7.6,18.31-17,18.31a16.26,16.26,0,0,1-11.55-4.9,16.52,16.52,0,0,0,13.24,6.85c9.37,0,17-8.2,17-18.31A19,19,0,0,0,526.84,121Z"/><ellipse class="cls-9" cx="217.04" cy="276.07" rx="9.6" ry="10.71" transform="translate(-94.54 114.09) rotate(-24.36)"/><path class="cls-10" d="M226.46,279.81a9,9,0,0,1-4.5,4.62c-4.83,2.19-10.73-.41-13.17-5.79a11.34,11.34,0,0,1-.66-7.7,11.18,11.18,0,0,0,.17,9.09c2.44,5.38,8.33,8,13.16,5.79A9.13,9.13,0,0,0,226.46,279.81Z"/><ellipse class="cls-9" cx="222.82" cy="247.99" rx="7.01" ry="7.16" transform="translate(-105.92 192.51) rotate(-38.48)"/><path class="cls-10" d="M229.88,248.61a6.88,6.88,0,0,1-2.45,4,7.09,7.09,0,0,1-10-1.24,7.27,7.27,0,0,1-1.57-5,7.21,7.21,0,0,0,1.43,6,7.08,7.08,0,0,0,9.94,1.25A7,7,0,0,0,229.88,248.61Z"/><ellipse class="cls-9" cx="479.99" cy="157.7" rx="5.55" ry="5.02"/><path class="cls-10" d="M483.77,154a4.77,4.77,0,0,1,1.22,3.15,5.3,5.3,0,0,1-5.55,5,5.85,5.85,0,0,1-3.77-1.34,5.76,5.76,0,0,0,4.32,1.88,5.3,5.3,0,0,0,5.55-5A4.81,4.81,0,0,0,483.77,154Z"/><ellipse class="cls-9" cx="544.71" cy="147.66" rx="5.55" ry="5.02"/><path class="cls-10" d="M548.48,144a4.68,4.68,0,0,1,1.23,3.14,5.3,5.3,0,0,1-5.55,5,5.88,5.88,0,0,1-3.78-1.34,5.77,5.77,0,0,0,4.33,1.88,5.31,5.31,0,0,0,5.55-5A4.82,4.82,0,0,0,548.48,144Z"/><ellipse class="cls-11" cx="460.6" cy="312.38" rx="49.43" ry="59.32"/><ellipse class="cls-9" cx="460.6" cy="312.38" rx="42.49" ry="49.58"/><path class="cls-10" d="M489.52,276.07a54.65,54.65,0,0,1,9.35,31c0,27.38-19,49.57-42.48,49.57-11.18,0-21.34-5-28.92-13.27C435.26,354.7,447.2,362,460.6,362c23.47,0,42.49-22.19,42.49-49.57C503.09,298,497.86,285.12,489.52,276.07Z"/><ellipse class="cls-12" cx="260.03" cy="410.84" rx="21.37" ry="22.6"/><ellipse class="cls-9" cx="258.03" cy="410.84" rx="15.44" ry="16.51" transform="translate(-134.99 126.4) rotate(-21.97)"/><path class="cls-10" d="M272.72,417a14.77,14.77,0,0,1-7.6,7c-7.91,3.19-17.09-1.08-20.5-9.53a17.14,17.14,0,0,1-.37-12,16.89,16.89,0,0,0-.54,14.1c3.41,8.46,12.58,12.72,20.49,9.53A14.94,14.94,0,0,0,272.72,417Z"/><ellipse class="cls-13" cx="313.16" cy="298.69" rx="44" ry="46.18"/><ellipse class="cls-9" cx="313.16" cy="299.85" rx="37.59" ry="40.2" transform="translate(-108.26 197.94) rotate(-30.16)"/><path class="cls-10" d="M350.71,309.68a35.92,35.92,0,0,1-15.89,19.46c-17.94,10.43-41.54,3.33-52.69-15.87a41.6,41.6,0,0,1-5.05-28.71,41.17,41.17,0,0,0,3.59,34.17c11.15,19.2,34.74,26.31,52.69,15.88A36.44,36.44,0,0,0,350.71,309.68Z"/><ellipse class="cls-14" cx="478.35" cy="101.16" rx="15.68" ry="16.61"/><ellipse class="cls-9" cx="478.53" cy="101.23" rx="13.26" ry="12.77"/><path class="cls-10" d="M487.56,91.87a12.46,12.46,0,0,1,2.91,8,13,13,0,0,1-13.25,12.78,13.46,13.46,0,0,1-9-3.42A13.42,13.42,0,0,0,478.53,114a13,13,0,0,0,13.26-12.77A12.54,12.54,0,0,0,487.56,91.87Z"/><circle class="cls-15" cx="578.91" cy="222.69" r="7.96"/><ellipse class="cls-9" cx="578.26" cy="222.69" rx="5.02" ry="5.55" transform="translate(-3.12 8.27) rotate(-0.82)"/><path class="cls-10" d="M574.53,219a4.72,4.72,0,0,1,3.13-1.26,5.31,5.31,0,0,1,5.1,5.47,5.86,5.86,0,0,1-1.29,3.8,5.78,5.78,0,0,0,1.82-4.35,5.31,5.31,0,0,0-5.1-5.48A4.81,4.81,0,0,0,574.53,219Z"/><ellipse class="cls-16" cx="341.09" cy="164.2" rx="123.37" ry="70.6" transform="translate(-36.4 192.54) rotate(-30)"/><ellipse class="cls-17" cx="350.71" cy="127.21" rx="60.29" ry="15.57" transform="translate(-12.72 211.45) rotate(-32.99)"/><ellipse class="cls-17" cx="263.31" cy="183.94" rx="17.27" ry="17.07" transform="translate(-57.7 173.01) rotate(-32.99)"/><circle class="cls-18" cx="689.35" cy="319.01" r="21.23"/><circle class="cls-19" cx="689.35" cy="319.01" r="17.57"/><circle class="cls-20" cx="689.35" cy="319.01" r="14.64"/><circle class="cls-21" cx="693.01" cy="321.47" r="3.66"/><circle class="cls-22" cx="685.19" cy="313.8" r="1.55"/><circle class="cls-23" cx="93.29" cy="104.39" r="72.5"/><circle class="cls-24" cx="93.29" cy="104.39" r="60"/><circle class="cls-25" cx="93.29" cy="104.39" r="50"/><circle class="cls-26" cx="146.96" cy="113.25" r="13.21"/><circle class="cls-27" cx="146.96" cy="113.25" r="15.3"/><path class="cls-28" d="M73.79,72.58a5.3,5.3,0,0,1,5.3-5.3"/><circle class="cls-29" cx="146.41" cy="106.26" r="3.13"/><circle class="cls-30" cx="143.94" cy="511.64" r="42.67"/><circle class="cls-31" cx="143.94" cy="511.64" r="35.31"/><circle class="cls-32" cx="143.94" cy="511.64" r="30"/><circle class="cls-33" cx="159.68" cy="516.81" r="7.88"/><circle class="cls-34" cx="135.1" cy="500.89" r="5.3"/><text class="cls-35" transform="translate(78.53 659.47)">Space Defender</text></g></g></g></svg>